solid part01-1
   facet normal -0.000000e+00 -1.000000e+00 0.000000e+00
      outer loop
         vertex -2.329044e+01 7.637977e-312 -3.443712e+01
         vertex -2.412829e+01 7.637977e-312 -3.422744e+01
         vertex -3.650000e+01 7.637977e-312 -3.750000e+01
      endloop
   endfacet
   facet normal -0.000000e+00 -1.000000e+00 0.000000e+00
      outer loop
         vertex -2.412829e+01 7.637977e-312 -3.422744e+01
         vertex -2.491757e+01 7.637977e-312 -3.387669e+01
         vertex -3.650000e+01 7.637977e-312 -3.750000e+01
      endloop
   endfacet
   facet normal -0.000000e+00 -1.000000e+00 0.000000e+00
      outer loop
         vertex -2.491757e+01 7.637977e-312 -3.387669e+01
         vertex -2.563470e+01 7.637977e-312 -3.339534e+01
         vertex -3.650000e+01 7.637977e-312 -3.750000e+01
      endloop
   endfacet
   facet normal 0.000000e+00 -1.000000e+00 0.000000e+00
      outer loop
         vertex -2.676975e+01 7.637977e-312 -3.210178e+01
         vertex -3.750000e+01 7.637977e-312 -3.650000e+01
         vertex -3.650000e+01 7.637977e-312 -3.750000e+01
      endloop
   endfacet
   facet normal -0.000000e+00 -1.000000e+00 0.000000e+00
      outer loop
         vertex -2.625829e+01 7.637977e-312 -3.279776e+01
         vertex -2.676975e+01 7.637977e-312 -3.210178e+01
         vertex -3.650000e+01 7.637977e-312 -3.750000e+01
      endloop
   endfacet
   facet normal -0.000000e+00 -1.000000e+00 0.000000e+00
      outer loop
         vertex -2.563470e+01 7.637977e-312 -3.339534e+01
         vertex -2.625829e+01 7.637977e-312 -3.279776e+01
         vertex -3.650000e+01 7.637977e-312 -3.750000e+01
      endloop
   endfacet
   facet normal 0.000000e+00 -1.000000e+00 0.000000e+00
      outer loop
         vertex 3.650000e+01 7.637977e-312 -3.750000e+01
         vertex 2.242899e+01 7.637977e-312 -3.449950e+01
         vertex -3.650000e+01 7.637977e-312 -3.750000e+01
      endloop
   endfacet
   facet normal -0.000000e+00 -1.000000e+00 0.000000e+00
      outer loop
         vertex 2.242899e+01 7.637977e-312 -3.449950e+01
         vertex 2.156967e+01 7.637977e-312 -3.441269e+01
         vertex -3.650000e+01 7.637977e-312 -3.750000e+01
      endloop
   endfacet
   facet normal -0.000000e+00 -1.000000e+00 0.000000e+00
      outer loop
         vertex 2.156967e+01 7.637977e-312 -3.441269e+01
         vertex 2.073811e+01 7.637977e-312 -3.417929e+01
         vertex -3.650000e+01 7.637977e-312 -3.750000e+01
      endloop
   endfacet
   facet normal 0.000000e+00 -1.000000e+00 0.000000e+00
      outer loop
         vertex 2.073811e+01 7.637977e-312 -3.417929e+01
         vertex -2.156967e+01 7.637977e-312 -3.441269e+01
         vertex -3.650000e+01 7.637977e-312 -3.750000e+01
      endloop
   endfacet
   facet normal 0.000000e+00 -1.000000e+00 0.000000e+00
      outer loop
         vertex -2.156967e+01 7.637977e-312 -3.441269e+01
         vertex -2.242899e+01 7.637977e-312 -3.449950e+01
         vertex -3.650000e+01 7.637977e-312 -3.750000e+01
      endloop
   endfacet
   facet normal -0.000000e+00 -1.000000e+00 0.000000e+00
      outer loop
         vertex -2.242899e+01 7.637977e-312 -3.449950e+01
         vertex -2.329044e+01 7.637977e-312 -3.443712e+01
         vertex -3.650000e+01 7.637977e-312 -3.750000e+01
      endloop
   endfacet
   facet normal -0.000000e+00 -1.000000e+00 0.000000e+00
      outer loop
         vertex 3.750000e+01 7.637977e-312 -3.650000e+01
         vertex 2.715380e+01 7.637977e-312 -3.132816e+01
         vertex 3.650000e+01 7.637977e-312 -3.750000e+01
      endloop
   endfacet
   facet normal 0.000000e+00 -1.000000e+00 -0.000000e+00
      outer loop
         vertex 2.715380e+01 7.637977e-312 -3.132816e+01
         vertex 2.676975e+01 7.637977e-312 -3.210178e+01
         vertex 3.650000e+01 7.637977e-312 -3.750000e+01
      endloop
   endfacet
   facet normal 0.000000e+00 -1.000000e+00 -0.000000e+00
      outer loop
         vertex 2.676975e+01 7.637977e-312 -3.210178e+01
         vertex 2.625829e+01 7.637977e-312 -3.279776e+01
         vertex 3.650000e+01 7.637977e-312 -3.750000e+01
      endloop
   endfacet
   facet normal 0.000000e+00 -1.000000e+00 -0.000000e+00
      outer loop
         vertex 2.625829e+01 7.637977e-312 -3.279776e+01
         vertex 2.563470e+01 7.637977e-312 -3.339534e+01
         vertex 3.650000e+01 7.637977e-312 -3.750000e+01
      endloop
   endfacet
   facet normal 0.000000e+00 -1.000000e+00 -0.000000e+00
      outer loop
         vertex 2.563470e+01 7.637977e-312 -3.339534e+01
         vertex 2.491757e+01 7.637977e-312 -3.387669e+01
         vertex 3.650000e+01 7.637977e-312 -3.750000e+01
      endloop
   endfacet
   facet normal 0.000000e+00 -1.000000e+00 -0.000000e+00
      outer loop
         vertex 2.491757e+01 7.637977e-312 -3.387669e+01
         vertex 2.412829e+01 7.637977e-312 -3.422744e+01
         vertex 3.650000e+01 7.637977e-312 -3.750000e+01
      endloop
   endfacet
   facet normal 0.000000e+00 -1.000000e+00 -0.000000e+00
      outer loop
         vertex 2.412829e+01 7.637977e-312 -3.422744e+01
         vertex 2.329044e+01 7.637977e-312 -3.443712e+01
         vertex 3.650000e+01 7.637977e-312 -3.750000e+01
      endloop
   endfacet
   facet normal 0.000000e+00 -1.000000e+00 -0.000000e+00
      outer loop
         vertex 2.329044e+01 7.637977e-312 -3.443712e+01
         vertex 2.242899e+01 7.637977e-312 -3.449950e+01
         vertex 3.650000e+01 7.637977e-312 -3.750000e+01
      endloop
   endfacet
   facet normal -0.000000e+00 -1.000000e+00 0.000000e+00
      outer loop
         vertex -2.715380e+01 7.637977e-312 -3.132816e+01
         vertex -3.750000e+01 7.637977e-312 -3.050000e+01
         vertex -3.750000e+01 7.637977e-312 -3.650000e+01
      endloop
   endfacet
   facet normal -0.000000e+00 -1.000000e+00 0.000000e+00
      outer loop
         vertex -2.676975e+01 7.637977e-312 -3.210178e+01
         vertex -2.715380e+01 7.637977e-312 -3.132816e+01
         vertex -3.750000e+01 7.637977e-312 -3.650000e+01
      endloop
   endfacet
   facet normal -0.000000e+00 -1.000000e+00 -0.000000e+00
      outer loop
         vertex 3.750000e+01 7.637977e-312 -3.050000e+01
         vertex 2.739898e+01 7.637977e-312 -3.050000e+01
         vertex 3.750000e+01 7.637977e-312 -3.650000e+01
      endloop
   endfacet
   facet normal 0.000000e+00 -1.000000e+00 -0.000000e+00
      outer loop
         vertex 2.739898e+01 7.637977e-312 -3.050000e+01
         vertex 2.715380e+01 7.637977e-312 -3.132816e+01
         vertex 3.750000e+01 7.637977e-312 -3.650000e+01
      endloop
   endfacet
   facet normal -0.000000e+00 -1.000000e+00 0.000000e+00
      outer loop
         vertex 2.073811e+01 7.637977e-312 -3.417929e+01
         vertex -2.073811e+01 7.637977e-312 -3.417929e+01
         vertex -2.156967e+01 7.637977e-312 -3.441269e+01
      endloop
   endfacet
   facet normal 0.000000e+00 -1.000000e+00 0.000000e+00
      outer loop
         vertex 2.073811e+01 7.637977e-312 -3.417929e+01
         vertex -1.995912e+01 7.637977e-312 -3.380626e+01
         vertex -2.073811e+01 7.637977e-312 -3.417929e+01
      endloop
   endfacet
   facet normal 0.000000e+00 -1.000000e+00 -0.000000e+00
      outer loop
         vertex -1.925594e+01 7.637977e-312 -3.330475e+01
         vertex -1.995912e+01 7.637977e-312 -3.380626e+01
         vertex 2.073811e+01 7.637977e-312 -3.417929e+01
      endloop
   endfacet
   facet normal -0.000000e+00 -1.000000e+00 -0.000000e+00
      outer loop
         vertex 1.995912e+01 7.637977e-312 -3.380626e+01
         vertex -1.925594e+01 7.637977e-312 -3.330475e+01
         vertex 2.073811e+01 7.637977e-312 -3.417929e+01
      endloop
   endfacet
   facet normal -0.000000e+00 -1.000000e+00 -0.000000e+00
      outer loop
         vertex 1.925594e+01 7.637977e-312 -3.330475e+01
         vertex -1.925594e+01 7.637977e-312 -3.330475e+01
         vertex 1.995912e+01 7.637977e-312 -3.380626e+01
      endloop
   endfacet
   facet normal 0.000000e+00 -1.000000e+00 0.000000e+00
      outer loop
         vertex 1.925594e+01 7.637977e-312 -3.330475e+01
         vertex 1.864957e+01 7.637977e-312 -3.268970e+01
         vertex -1.925594e+01 7.637977e-312 -3.330475e+01
      endloop
   endfacet
   facet normal -0.000000e+00 -1.000000e+00 0.000000e+00
      outer loop
         vertex 1.864957e+01 7.637977e-312 -3.268970e+01
         vertex -1.864957e+01 7.637977e-312 -3.268970e+01
         vertex -1.925594e+01 7.637977e-312 -3.330475e+01
      endloop
   endfacet
   facet normal 0.000000e+00 -1.000000e+00 0.000000e+00
      outer loop
         vertex 1.864957e+01 7.637977e-312 -3.268970e+01
         vertex -1.815809e+01 7.637977e-312 -3.197948e+01
         vertex -1.864957e+01 7.637977e-312 -3.268970e+01
      endloop
   endfacet
   facet normal -0.000000e+00 -1.000000e+00 -0.000000e+00
      outer loop
         vertex 1.815809e+01 7.637977e-312 -3.197948e+01
         vertex -1.815809e+01 7.637977e-312 -3.197948e+01
         vertex 1.864957e+01 7.637977e-312 -3.268970e+01
      endloop
   endfacet
   facet normal 0.000000e+00 -1.000000e+00 0.000000e+00
      outer loop
         vertex -1.026060e+00 7.637977e-312 -3.190779e-01
         vertex -1.779616e+01 7.637977e-312 -3.119526e+01
         vertex -1.815809e+01 7.637977e-312 -3.197948e+01
      endloop
   endfacet
   facet normal -0.000000e+00 -1.000000e+00 0.000000e+00
      outer loop
         vertex -5.209445e-01 7.637977e-312 -4.544233e-01
         vertex -1.026060e+00 7.637977e-312 -3.190779e-01
         vertex -1.815809e+01 7.637977e-312 -3.197948e+01
      endloop
   endfacet
   facet normal 0.000000e+00 -1.000000e+00 0.000000e+00
      outer loop
         vertex 1.815809e+01 7.637977e-312 -3.197948e+01
         vertex -5.209445e-01 7.637977e-312 -4.544233e-01
         vertex -1.815809e+01 7.637977e-312 -3.197948e+01
      endloop
   endfacet
   facet normal -0.000000e+00 -1.000000e+00 -0.000000e+00
      outer loop
         vertex 3.671246e-16 7.637977e-312 -5.000000e-01
         vertex -5.209445e-01 7.637977e-312 -4.544233e-01
         vertex 1.815809e+01 7.637977e-312 -3.197948e+01
      endloop
   endfacet
   facet normal -0.000000e+00 -1.000000e+00 -0.000000e+00
      outer loop
         vertex 1.779616e+01 7.637977e-312 -3.119526e+01
         vertex 3.671246e-16 7.637977e-312 -5.000000e-01
         vertex 1.815809e+01 7.637977e-312 -3.197948e+01
      endloop
   endfacet
   facet normal -0.000000e+00 -1.000000e+00 -0.000000e+00
      outer loop
         vertex -2.739898e+01 7.637977e-312 -3.050000e+01
         vertex -3.750000e+01 7.637977e-312 -3.050000e+01
         vertex -2.715380e+01 7.637977e-312 -3.132816e+01
      endloop
   endfacet
   facet normal -0.000000e+00 -1.000000e+00 0.000000e+00
      outer loop
         vertex -1.500000e+00 7.637977e-312 -9.807621e-02
         vertex -1.928363e+00 7.637977e-312 2.018667e-01
         vertex -1.779616e+01 7.637977e-312 -3.119526e+01
      endloop
   endfacet
   facet normal -0.000000e+00 -1.000000e+00 0.000000e+00
      outer loop
         vertex -2.819078e+00 7.637977e-312 1.473940e+00
         vertex -2.954423e+00 7.637977e-312 1.979056e+00
         vertex -1.779616e+01 7.637977e-312 -3.119526e+01
      endloop
   endfacet
   facet normal -0.000000e+00 -1.000000e+00 0.000000e+00
      outer loop
         vertex -2.954423e+00 7.637977e-312 1.979056e+00
         vertex -3.000000e+00 7.637977e-312 2.500000e+00
         vertex -1.779616e+01 7.637977e-312 -3.119526e+01
      endloop
   endfacet
   facet normal -0.000000e+00 -1.000000e+00 0.000000e+00
      outer loop
         vertex -3.000000e+00 7.637977e-312 2.500000e+00
         vertex -2.954423e+00 7.637977e-312 3.020945e+00
         vertex -1.779616e+01 7.637977e-312 -3.119526e+01
      endloop
   endfacet
   facet normal 0.000000e+00 -1.000000e+00 0.000000e+00
      outer loop
         vertex -1.026060e+00 7.637977e-312 1.368092e+01
         vertex -1.757460e+01 7.637977e-312 -3.036047e+01
         vertex -1.779616e+01 7.637977e-312 -3.119526e+01
      endloop
   endfacet
   facet normal -0.000000e+00 -1.000000e+00 0.000000e+00
      outer loop
         vertex -2.954423e+00 7.637977e-312 3.020945e+00
         vertex -1.026060e+00 7.637977e-312 1.368092e+01
         vertex -1.779616e+01 7.637977e-312 -3.119526e+01
      endloop
   endfacet
   facet normal -0.000000e+00 -1.000000e+00 0.000000e+00
      outer loop
         vertex -1.928363e+00 7.637977e-312 2.018667e-01
         vertex -2.298133e+00 7.637977e-312 5.716372e-01
         vertex -1.779616e+01 7.637977e-312 -3.119526e+01
      endloop
   endfacet
   facet normal -0.000000e+00 -1.000000e+00 0.000000e+00
      outer loop
         vertex -2.298133e+00 7.637977e-312 5.716372e-01
         vertex -2.598076e+00 7.637977e-312 1.000000e+00
         vertex -1.779616e+01 7.637977e-312 -3.119526e+01
      endloop
   endfacet
   facet normal -0.000000e+00 -1.000000e+00 0.000000e+00
      outer loop
         vertex -2.598076e+00 7.637977e-312 1.000000e+00
         vertex -2.819078e+00 7.637977e-312 1.473940e+00
         vertex -1.779616e+01 7.637977e-312 -3.119526e+01
      endloop
   endfacet
   facet normal -0.000000e+00 -1.000000e+00 0.000000e+00
      outer loop
         vertex -1.026060e+00 7.637977e-312 -3.190779e-01
         vertex -1.500000e+00 7.637977e-312 -9.807621e-02
         vertex -1.779616e+01 7.637977e-312 -3.119526e+01
      endloop
   endfacet
   facet normal -0.000000e+00 -1.000000e+00 -0.000000e+00
      outer loop
         vertex 1.757460e+01 7.637977e-312 -3.036047e+01
         vertex 3.671246e-16 7.637977e-312 -5.000000e-01
         vertex 1.779616e+01 7.637977e-312 -3.119526e+01
      endloop
   endfacet
   facet normal 0.000000e+00 -1.000000e+00 0.000000e+00
      outer loop
         vertex -1.616978e+01 7.637977e-312 -1.971394e+01
         vertex -1.750000e+01 7.637977e-312 -2.950000e+01
         vertex -1.757460e+01 7.637977e-312 -3.036047e+01
      endloop
   endfacet
   facet normal 0.000000e+00 -1.000000e+00 0.000000e+00
      outer loop
         vertex -1.026060e+00 7.637977e-312 1.368092e+01
         vertex -1.530154e+01 7.637977e-312 -1.821010e+01
         vertex -1.757460e+01 7.637977e-312 -3.036047e+01
      endloop
   endfacet
   facet normal 0.000000e+00 -1.000000e+00 0.000000e+00
      outer loop
         vertex -1.530154e+01 7.637977e-312 -1.821010e+01
         vertex -1.566987e+01 7.637977e-312 -1.900000e+01
         vertex -1.757460e+01 7.637977e-312 -3.036047e+01
      endloop
   endfacet
   facet normal 0.000000e+00 -1.000000e+00 0.000000e+00
      outer loop
         vertex -1.566987e+01 7.637977e-312 -1.900000e+01
         vertex -1.616978e+01 7.637977e-312 -1.971394e+01
         vertex -1.757460e+01 7.637977e-312 -3.036047e+01
      endloop
   endfacet
   facet normal -0.000000e+00 -1.000000e+00 -0.000000e+00
      outer loop
         vertex 1.750000e+01 7.637977e-312 -2.950000e+01
         vertex 1.616978e+01 7.637977e-312 -1.971394e+01
         vertex 1.757460e+01 7.637977e-312 -3.036047e+01
      endloop
   endfacet
   facet normal -0.000000e+00 -1.000000e+00 -0.000000e+00
      outer loop
         vertex 1.616978e+01 7.637977e-312 -1.971394e+01
         vertex 1.566987e+01 7.637977e-312 -1.900000e+01
         vertex 1.757460e+01 7.637977e-312 -3.036047e+01
      endloop
   endfacet
   facet normal -0.000000e+00 -1.000000e+00 -0.000000e+00
      outer loop
         vertex 1.566987e+01 7.637977e-312 -1.900000e+01
         vertex 3.671246e-16 7.637977e-312 -5.000000e-01
         vertex 1.757460e+01 7.637977e-312 -3.036047e+01
      endloop
   endfacet
   facet normal 0.000000e+00 -1.000000e+00 0.000000e+00
      outer loop
         vertex -1.616978e+01 7.637977e-312 -1.971394e+01
         vertex -1.678606e+01 7.637977e-312 -2.033022e+01
         vertex -1.750000e+01 7.637977e-312 -2.950000e+01
      endloop
   endfacet
   facet normal 0.000000e+00 -1.000000e+00 0.000000e+00
      outer loop
         vertex -1.678606e+01 7.637977e-312 -2.033022e+01
         vertex -1.750000e+01 7.637977e-312 -2.083013e+01
         vertex -1.750000e+01 7.637977e-312 -2.950000e+01
      endloop
   endfacet
   facet normal 0.000000e+00 -1.000000e+00 -0.000000e+00
      outer loop
         vertex -1.750000e+01 7.637977e-312 -2.083013e+01
         vertex -1.757460e+01 7.637977e-312 -2.863953e+01
         vertex -1.750000e+01 7.637977e-312 -2.950000e+01
      endloop
   endfacet
   facet normal -0.000000e+00 -1.000000e+00 0.000000e+00
      outer loop
         vertex 1.757460e+01 7.637977e-312 -2.863953e+01
         vertex 1.750000e+01 7.637977e-312 -2.083013e+01
         vertex 1.750000e+01 7.637977e-312 -2.950000e+01
      endloop
   endfacet
   facet normal -0.000000e+00 -1.000000e+00 -0.000000e+00
      outer loop
         vertex 1.750000e+01 7.637977e-312 -2.083013e+01
         vertex 1.678606e+01 7.637977e-312 -2.033022e+01
         vertex 1.750000e+01 7.637977e-312 -2.950000e+01
      endloop
   endfacet
   facet normal -0.000000e+00 -1.000000e+00 -0.000000e+00
      outer loop
         vertex 1.678606e+01 7.637977e-312 -2.033022e+01
         vertex 1.616978e+01 7.637977e-312 -1.971394e+01
         vertex 1.750000e+01 7.637977e-312 -2.950000e+01
      endloop
   endfacet
   facet normal 0.000000e+00 -1.000000e+00 0.000000e+00
      outer loop
         vertex -1.750000e+01 7.637977e-312 -2.083013e+01
         vertex -1.828990e+01 7.637977e-312 -2.119846e+01
         vertex -1.757460e+01 7.637977e-312 -2.863953e+01
      endloop
   endfacet
   facet normal 0.000000e+00 -1.000000e+00 0.000000e+00
      outer loop
         vertex -1.828990e+01 7.637977e-312 -2.119846e+01
         vertex -1.779616e+01 7.637977e-312 -2.780474e+01
         vertex -1.757460e+01 7.637977e-312 -2.863953e+01
      endloop
   endfacet
   facet normal -0.000000e+00 -1.000000e+00 0.000000e+00
      outer loop
         vertex 1.779616e+01 7.637977e-312 -2.780474e+01
         vertex 1.913176e+01 7.637977e-312 -2.142404e+01
         vertex 1.757460e+01 7.637977e-312 -2.863953e+01
      endloop
   endfacet
   facet normal -0.000000e+00 -1.000000e+00 0.000000e+00
      outer loop
         vertex 1.913176e+01 7.637977e-312 -2.142404e+01
         vertex 1.828990e+01 7.637977e-312 -2.119846e+01
         vertex 1.757460e+01 7.637977e-312 -2.863953e+01
      endloop
   endfacet
   facet normal -0.000000e+00 -1.000000e+00 0.000000e+00
      outer loop
         vertex 1.828990e+01 7.637977e-312 -2.119846e+01
         vertex 1.750000e+01 7.637977e-312 -2.083013e+01
         vertex 1.757460e+01 7.637977e-312 -2.863953e+01
      endloop
   endfacet
   facet normal 0.000000e+00 -1.000000e+00 0.000000e+00
      outer loop
         vertex -2.739898e+01 7.637977e-312 -2.850000e+01
         vertex -3.750000e+01 7.637977e-312 -2.250000e+01
         vertex -3.750000e+01 7.637977e-312 -2.850000e+01
      endloop
   endfacet
   facet normal -0.000000e+00 -1.000000e+00 0.000000e+00
      outer loop
         vertex -2.715380e+01 7.637977e-312 -2.767183e+01
         vertex -3.750000e+01 7.637977e-312 -2.250000e+01
         vertex -2.739898e+01 7.637977e-312 -2.850000e+01
      endloop
   endfacet
   facet normal 0.000000e+00 -1.000000e+00 0.000000e+00
      outer loop
         vertex 3.750000e+01 7.637977e-312 -2.850000e+01
         vertex 2.715380e+01 7.637977e-312 -2.767183e+01
         vertex 2.739898e+01 7.637977e-312 -2.850000e+01
      endloop
   endfacet
   facet normal 0.000000e+00 -1.000000e+00 -0.000000e+00
      outer loop
         vertex 3.750000e+01 7.637977e-312 -2.250000e+01
         vertex 2.715380e+01 7.637977e-312 -2.767183e+01
         vertex 3.750000e+01 7.637977e-312 -2.850000e+01
      endloop
   endfacet
   facet normal 0.000000e+00 -1.000000e+00 0.000000e+00
      outer loop
         vertex -1.828990e+01 7.637977e-312 -2.119846e+01
         vertex -1.815809e+01 7.637977e-312 -2.702053e+01
         vertex -1.779616e+01 7.637977e-312 -2.780474e+01
      endloop
   endfacet
   facet normal -0.000000e+00 -1.000000e+00 0.000000e+00
      outer loop
         vertex 1.815809e+01 7.637977e-312 -2.702053e+01
         vertex 1.913176e+01 7.637977e-312 -2.142404e+01
         vertex 1.779616e+01 7.637977e-312 -2.780474e+01
      endloop
   endfacet
   facet normal 0.000000e+00 -1.000000e+00 -0.000000e+00
      outer loop
         vertex -3.650000e+01 7.637977e-312 -2.150000e+01
         vertex -3.750000e+01 7.637977e-312 -2.250000e+01
         vertex -2.715380e+01 7.637977e-312 -2.767183e+01
      endloop
   endfacet
   facet normal -0.000000e+00 -1.000000e+00 0.000000e+00
      outer loop
         vertex -2.676975e+01 7.637977e-312 -2.689822e+01
         vertex -3.650000e+01 7.637977e-312 -2.150000e+01
         vertex -2.715380e+01 7.637977e-312 -2.767183e+01
      endloop
   endfacet
   facet normal 0.000000e+00 -1.000000e+00 0.000000e+00
      outer loop
         vertex 3.750000e+01 7.637977e-312 -2.250000e+01
         vertex 2.676975e+01 7.637977e-312 -2.689822e+01
         vertex 2.715380e+01 7.637977e-312 -2.767183e+01
      endloop
   endfacet
   facet normal 0.000000e+00 -1.000000e+00 0.000000e+00
      outer loop
         vertex -1.913176e+01 7.637977e-312 -2.142404e+01
         vertex -1.864957e+01 7.637977e-312 -2.631030e+01
         vertex -1.815809e+01 7.637977e-312 -2.702053e+01
      endloop
   endfacet
   facet normal 0.000000e+00 -1.000000e+00 -0.000000e+00
      outer loop
         vertex -1.828990e+01 7.637977e-312 -2.119846e+01
         vertex -1.913176e+01 7.637977e-312 -2.142404e+01
         vertex -1.815809e+01 7.637977e-312 -2.702053e+01
      endloop
   endfacet
   facet normal -0.000000e+00 -1.000000e+00 0.000000e+00
      outer loop
         vertex 1.864957e+01 7.637977e-312 -2.631030e+01
         vertex 1.913176e+01 7.637977e-312 -2.142404e+01
         vertex 1.815809e+01 7.637977e-312 -2.702053e+01
      endloop
   endfacet
   facet normal -0.000000e+00 -1.000000e+00 0.000000e+00
      outer loop
         vertex -2.625829e+01 7.637977e-312 -2.620224e+01
         vertex -3.650000e+01 7.637977e-312 -2.150000e+01
         vertex -2.676975e+01 7.637977e-312 -2.689822e+01
      endloop
   endfacet
   facet normal -0.000000e+00 -1.000000e+00 0.000000e+00
      outer loop
         vertex 3.750000e+01 7.637977e-312 -2.250000e+01
         vertex 3.650000e+01 7.637977e-312 -2.150000e+01
         vertex 2.676975e+01 7.637977e-312 -2.689822e+01
      endloop
   endfacet
   facet normal 0.000000e+00 -1.000000e+00 0.000000e+00
      outer loop
         vertex 3.650000e+01 7.637977e-312 -2.150000e+01
         vertex 2.625829e+01 7.637977e-312 -2.620224e+01
         vertex 2.676975e+01 7.637977e-312 -2.689822e+01
      endloop
   endfacet
   facet normal 0.000000e+00 -1.000000e+00 -0.000000e+00
      outer loop
         vertex -1.913176e+01 7.637977e-312 -2.142404e+01
         vertex -1.925594e+01 7.637977e-312 -2.569525e+01
         vertex -1.864957e+01 7.637977e-312 -2.631030e+01
      endloop
   endfacet
   facet normal -0.000000e+00 -1.000000e+00 0.000000e+00
      outer loop
         vertex 1.925594e+01 7.637977e-312 -2.569525e+01
         vertex 1.913176e+01 7.637977e-312 -2.142404e+01
         vertex 1.864957e+01 7.637977e-312 -2.631030e+01
      endloop
   endfacet
   facet normal -0.000000e+00 -1.000000e+00 0.000000e+00
      outer loop
         vertex -2.563470e+01 7.637977e-312 -2.560466e+01
         vertex -3.650000e+01 7.637977e-312 -2.150000e+01
         vertex -2.625829e+01 7.637977e-312 -2.620224e+01
      endloop
   endfacet
   facet normal 0.000000e+00 -1.000000e+00 0.000000e+00
      outer loop
         vertex 3.650000e+01 7.637977e-312 -2.150000e+01
         vertex 2.563470e+01 7.637977e-312 -2.560466e+01
         vertex 2.625829e+01 7.637977e-312 -2.620224e+01
      endloop
   endfacet
   facet normal 0.000000e+00 -1.000000e+00 0.000000e+00
      outer loop
         vertex -1.913176e+01 7.637977e-312 -2.142404e+01
         vertex -1.995912e+01 7.637977e-312 -2.519374e+01
         vertex -1.925594e+01 7.637977e-312 -2.569525e+01
      endloop
   endfacet
   facet normal -0.000000e+00 -1.000000e+00 0.000000e+00
      outer loop
         vertex 1.995912e+01 7.637977e-312 -2.519374e+01
         vertex 1.913176e+01 7.637977e-312 -2.142404e+01
         vertex 1.925594e+01 7.637977e-312 -2.569525e+01
      endloop
   endfacet
   facet normal -0.000000e+00 -1.000000e+00 0.000000e+00
      outer loop
         vertex -2.491757e+01 7.637977e-312 -2.512331e+01
         vertex -3.650000e+01 7.637977e-312 -2.150000e+01
         vertex -2.563470e+01 7.637977e-312 -2.560466e+01
      endloop
   endfacet
   facet normal 0.000000e+00 -1.000000e+00 0.000000e+00
      outer loop
         vertex 3.650000e+01 7.637977e-312 -2.150000e+01
         vertex 2.491757e+01 7.637977e-312 -2.512331e+01
         vertex 2.563470e+01 7.637977e-312 -2.560466e+01
      endloop
   endfacet
   facet normal 0.000000e+00 -1.000000e+00 0.000000e+00
      outer loop
         vertex -1.913176e+01 7.637977e-312 -2.142404e+01
         vertex -2.073811e+01 7.637977e-312 -2.482071e+01
         vertex -1.995912e+01 7.637977e-312 -2.519374e+01
      endloop
   endfacet
   facet normal -0.000000e+00 -1.000000e+00 0.000000e+00
      outer loop
         vertex 2.073811e+01 7.637977e-312 -2.482071e+01
         vertex 1.913176e+01 7.637977e-312 -2.142404e+01
         vertex 1.995912e+01 7.637977e-312 -2.519374e+01
      endloop
   endfacet
   facet normal -0.000000e+00 -1.000000e+00 0.000000e+00
      outer loop
         vertex -2.412829e+01 7.637977e-312 -2.477256e+01
         vertex -3.650000e+01 7.637977e-312 -2.150000e+01
         vertex -2.491757e+01 7.637977e-312 -2.512331e+01
      endloop
   endfacet
   facet normal 0.000000e+00 -1.000000e+00 0.000000e+00
      outer loop
         vertex 3.650000e+01 7.637977e-312 -2.150000e+01
         vertex 2.412829e+01 7.637977e-312 -2.477256e+01
         vertex 2.491757e+01 7.637977e-312 -2.512331e+01
      endloop
   endfacet
   facet normal 0.000000e+00 -1.000000e+00 0.000000e+00
      outer loop
         vertex -1.913176e+01 7.637977e-312 -2.142404e+01
         vertex -2.156967e+01 7.637977e-312 -2.458731e+01
         vertex -2.073811e+01 7.637977e-312 -2.482071e+01
      endloop
   endfacet
   facet normal -0.000000e+00 -1.000000e+00 -0.000000e+00
      outer loop
         vertex 2.000000e+01 7.637977e-312 -2.150000e+01
         vertex 1.913176e+01 7.637977e-312 -2.142404e+01
         vertex 2.073811e+01 7.637977e-312 -2.482071e+01
      endloop
   endfacet
   facet normal -0.000000e+00 -1.000000e+00 0.000000e+00
      outer loop
         vertex 2.156967e+01 7.637977e-312 -2.458731e+01
         vertex 2.000000e+01 7.637977e-312 -2.150000e+01
         vertex 2.073811e+01 7.637977e-312 -2.482071e+01
      endloop
   endfacet
   facet normal -0.000000e+00 -1.000000e+00 0.000000e+00
      outer loop
         vertex -2.000000e+01 7.637977e-312 -2.150000e+01
         vertex -3.650000e+01 7.637977e-312 -2.150000e+01
         vertex -2.412829e+01 7.637977e-312 -2.477256e+01
      endloop
   endfacet
   facet normal -0.000000e+00 -1.000000e+00 0.000000e+00
      outer loop
         vertex -2.329044e+01 7.637977e-312 -2.456287e+01
         vertex -2.000000e+01 7.637977e-312 -2.150000e+01
         vertex -2.412829e+01 7.637977e-312 -2.477256e+01
      endloop
   endfacet
   facet normal 0.000000e+00 -1.000000e+00 0.000000e+00
      outer loop
         vertex 3.650000e+01 7.637977e-312 -2.150000e+01
         vertex 2.329044e+01 7.637977e-312 -2.456287e+01
         vertex 2.412829e+01 7.637977e-312 -2.477256e+01
      endloop
   endfacet
   facet normal 0.000000e+00 -1.000000e+00 0.000000e+00
      outer loop
         vertex -2.000000e+01 7.637977e-312 -2.150000e+01
         vertex -2.242899e+01 7.637977e-312 -2.450050e+01
         vertex -2.156967e+01 7.637977e-312 -2.458731e+01
      endloop
   endfacet
   facet normal 0.000000e+00 -1.000000e+00 0.000000e+00
      outer loop
         vertex -1.913176e+01 7.637977e-312 -2.142404e+01
         vertex -2.000000e+01 7.637977e-312 -2.150000e+01
         vertex -2.156967e+01 7.637977e-312 -2.458731e+01
      endloop
   endfacet
   facet normal -0.000000e+00 -1.000000e+00 0.000000e+00
      outer loop
         vertex 2.242899e+01 7.637977e-312 -2.450050e+01
         vertex 2.000000e+01 7.637977e-312 -2.150000e+01
         vertex 2.156967e+01 7.637977e-312 -2.458731e+01
      endloop
   endfacet
   facet normal -0.000000e+00 -1.000000e+00 0.000000e+00
      outer loop
         vertex -2.242899e+01 7.637977e-312 -2.450050e+01
         vertex -2.000000e+01 7.637977e-312 -2.150000e+01
         vertex -2.329044e+01 7.637977e-312 -2.456287e+01
      endloop
   endfacet
   facet normal 0.000000e+00 -1.000000e+00 0.000000e+00
      outer loop
         vertex 2.000000e+01 7.637977e-312 -2.150000e+01
         vertex 2.242899e+01 7.637977e-312 -2.450050e+01
         vertex 2.329044e+01 7.637977e-312 -2.456287e+01
      endloop
   endfacet
   facet normal -0.000000e+00 -1.000000e+00 0.000000e+00
      outer loop
         vertex 3.650000e+01 7.637977e-312 -2.150000e+01
         vertex 2.000000e+01 7.637977e-312 -2.150000e+01
         vertex 2.329044e+01 7.637977e-312 -2.456287e+01
      endloop
   endfacet
   facet normal -0.000000e+00 -1.000000e+00 -0.000000e+00
      outer loop
         vertex 1.530154e+01 7.637977e-312 -1.821010e+01
         vertex 3.671246e-16 7.637977e-312 -5.000000e-01
         vertex 1.566987e+01 7.637977e-312 -1.900000e+01
      endloop
   endfacet
   facet normal 0.000000e+00 -1.000000e+00 0.000000e+00
      outer loop
         vertex -1.026060e+00 7.637977e-312 1.368092e+01
         vertex -1.507596e+01 7.637977e-312 -1.736824e+01
         vertex -1.530154e+01 7.637977e-312 -1.821010e+01
      endloop
   endfacet
   facet normal 0.000000e+00 -1.000000e+00 -0.000000e+00
      outer loop
         vertex 5.209445e-01 7.637977e-312 -4.544233e-01
         vertex 3.671246e-16 7.637977e-312 -5.000000e-01
         vertex 1.530154e+01 7.637977e-312 -1.821010e+01
      endloop
   endfacet
   facet normal -0.000000e+00 -1.000000e+00 -0.000000e+00
      outer loop
         vertex 1.507596e+01 7.637977e-312 -1.736824e+01
         vertex 1.500000e+00 7.637977e-312 -9.807621e-02
         vertex 1.530154e+01 7.637977e-312 -1.821010e+01
      endloop
   endfacet
   facet normal 0.000000e+00 -1.000000e+00 -0.000000e+00
      outer loop
         vertex 1.500000e+00 7.637977e-312 -9.807621e-02
         vertex 1.026060e+00 7.637977e-312 -3.190779e-01
         vertex 1.530154e+01 7.637977e-312 -1.821010e+01
      endloop
   endfacet
   facet normal 0.000000e+00 -1.000000e+00 -0.000000e+00
      outer loop
         vertex 1.026060e+00 7.637977e-312 -3.190779e-01
         vertex 5.209445e-01 7.637977e-312 -4.544233e-01
         vertex 1.530154e+01 7.637977e-312 -1.821010e+01
      endloop
   endfacet
   facet normal 0.000000e+00 -1.000000e+00 0.000000e+00
      outer loop
         vertex -1.026060e+00 7.637977e-312 1.368092e+01
         vertex -1.500000e+01 7.637977e-312 -1.650000e+01
         vertex -1.507596e+01 7.637977e-312 -1.736824e+01
      endloop
   endfacet
   facet normal -0.000000e+00 -1.000000e+00 -0.000000e+00
      outer loop
         vertex 1.500000e+01 7.637977e-312 -1.650000e+01
         vertex 1.928363e+00 7.637977e-312 2.018667e-01
         vertex 1.507596e+01 7.637977e-312 -1.736824e+01
      endloop
   endfacet
   facet normal 0.000000e+00 -1.000000e+00 -0.000000e+00
      outer loop
         vertex 1.928363e+00 7.637977e-312 2.018667e-01
         vertex 1.500000e+00 7.637977e-312 -9.807621e-02
         vertex 1.507596e+01 7.637977e-312 -1.736824e+01
      endloop
   endfacet
   facet normal -0.000000e+00 -1.000000e+00 0.000000e+00
      outer loop
         vertex -1.500000e+00 7.637977e-312 2.790192e+01
         vertex -1.928363e+00 7.637977e-312 2.820187e+01
         vertex -1.500000e+01 7.637977e-312 -1.650000e+01
      endloop
   endfacet
   facet normal -0.000000e+00 -1.000000e+00 0.000000e+00
      outer loop
         vertex -1.026060e+00 7.637977e-312 1.368092e+01
         vertex -1.500000e+00 7.637977e-312 1.390192e+01
         vertex -1.500000e+01 7.637977e-312 -1.650000e+01
      endloop
   endfacet
   facet normal -0.000000e+00 -1.000000e+00 0.000000e+00
      outer loop
         vertex -1.500000e+00 7.637977e-312 1.390192e+01
         vertex -1.928363e+00 7.637977e-312 1.420187e+01
         vertex -1.500000e+01 7.637977e-312 -1.650000e+01
      endloop
   endfacet
   facet normal -0.000000e+00 -1.000000e+00 0.000000e+00
      outer loop
         vertex -1.928363e+00 7.637977e-312 1.420187e+01
         vertex -2.298133e+00 7.637977e-312 1.457164e+01
         vertex -1.500000e+01 7.637977e-312 -1.650000e+01
      endloop
   endfacet
   facet normal -0.000000e+00 -1.000000e+00 0.000000e+00
      outer loop
         vertex -2.298133e+00 7.637977e-312 1.457164e+01
         vertex -2.598076e+00 7.637977e-312 1.500000e+01
         vertex -1.500000e+01 7.637977e-312 -1.650000e+01
      endloop
   endfacet
   facet normal -0.000000e+00 -1.000000e+00 0.000000e+00
      outer loop
         vertex -3.000000e+00 7.637977e-312 1.650000e+01
         vertex -2.954423e+00 7.637977e-312 1.702094e+01
         vertex -1.500000e+01 7.637977e-312 -1.650000e+01
      endloop
   endfacet
   facet normal -0.000000e+00 -1.000000e+00 0.000000e+00
      outer loop
         vertex -2.954423e+00 7.637977e-312 1.702094e+01
         vertex -1.026060e+00 7.637977e-312 2.768092e+01
         vertex -1.500000e+01 7.637977e-312 -1.650000e+01
      endloop
   endfacet
   facet normal -0.000000e+00 -1.000000e+00 0.000000e+00
      outer loop
         vertex -1.026060e+00 7.637977e-312 2.768092e+01
         vertex -1.500000e+00 7.637977e-312 2.790192e+01
         vertex -1.500000e+01 7.637977e-312 -1.650000e+01
      endloop
   endfacet
   facet normal -0.000000e+00 -1.000000e+00 0.000000e+00
      outer loop
         vertex -1.928363e+00 7.637977e-312 2.820187e+01
         vertex -2.298133e+00 7.637977e-312 2.857164e+01
         vertex -1.500000e+01 7.637977e-312 -1.650000e+01
      endloop
   endfacet
   facet normal -0.000000e+00 -1.000000e+00 0.000000e+00
      outer loop
         vertex -2.298133e+00 7.637977e-312 2.857164e+01
         vertex -2.598076e+00 7.637977e-312 2.900000e+01
         vertex -1.500000e+01 7.637977e-312 -1.650000e+01
      endloop
   endfacet
   facet normal -0.000000e+00 -1.000000e+00 0.000000e+00
      outer loop
         vertex -2.598076e+00 7.637977e-312 2.900000e+01
         vertex -1.500000e+01 7.637977e-312 3.550000e+01
         vertex -1.500000e+01 7.637977e-312 -1.650000e+01
      endloop
   endfacet
   facet normal -0.000000e+00 -1.000000e+00 0.000000e+00
      outer loop
         vertex -2.598076e+00 7.637977e-312 1.500000e+01
         vertex -2.819078e+00 7.637977e-312 1.547394e+01
         vertex -1.500000e+01 7.637977e-312 -1.650000e+01
      endloop
   endfacet
   facet normal -0.000000e+00 -1.000000e+00 0.000000e+00
      outer loop
         vertex -2.819078e+00 7.637977e-312 1.547394e+01
         vertex -2.954423e+00 7.637977e-312 1.597906e+01
         vertex -1.500000e+01 7.637977e-312 -1.650000e+01
      endloop
   endfacet
   facet normal -0.000000e+00 -1.000000e+00 0.000000e+00
      outer loop
         vertex -2.954423e+00 7.637977e-312 1.597906e+01
         vertex -3.000000e+00 7.637977e-312 1.650000e+01
         vertex -1.500000e+01 7.637977e-312 -1.650000e+01
      endloop
   endfacet
   facet normal 0.000000e+00 -1.000000e+00 -0.000000e+00
      outer loop
         vertex 2.819078e+00 7.637977e-312 1.473940e+00
         vertex 2.598076e+00 7.637977e-312 1.000000e+00
         vertex 1.500000e+01 7.637977e-312 -1.650000e+01
      endloop
   endfacet
   facet normal 0.000000e+00 -1.000000e+00 -0.000000e+00
      outer loop
         vertex 2.954423e+00 7.637977e-312 1.979056e+00
         vertex 2.819078e+00 7.637977e-312 1.473940e+00
         vertex 1.500000e+01 7.637977e-312 -1.650000e+01
      endloop
   endfacet
   facet normal 0.000000e+00 -1.000000e+00 -0.000000e+00
      outer loop
         vertex 1.500000e+01 7.637977e-312 3.550000e+01
         vertex 2.954423e+00 7.637977e-312 3.020945e+00
         vertex 1.500000e+01 7.637977e-312 -1.650000e+01
      endloop
   endfacet
   facet normal 0.000000e+00 -1.000000e+00 0.000000e+00
      outer loop
         vertex 2.954423e+00 7.637977e-312 3.020945e+00
         vertex 3.000000e+00 7.637977e-312 2.500000e+00
         vertex 1.500000e+01 7.637977e-312 -1.650000e+01
      endloop
   endfacet
   facet normal 0.000000e+00 -1.000000e+00 -0.000000e+00
      outer loop
         vertex 3.000000e+00 7.637977e-312 2.500000e+00
         vertex 2.954423e+00 7.637977e-312 1.979056e+00
         vertex 1.500000e+01 7.637977e-312 -1.650000e+01
      endloop
   endfacet
   facet normal 0.000000e+00 -1.000000e+00 -0.000000e+00
      outer loop
         vertex 2.598076e+00 7.637977e-312 1.000000e+00
         vertex 2.298133e+00 7.637977e-312 5.716372e-01
         vertex 1.500000e+01 7.637977e-312 -1.650000e+01
      endloop
   endfacet
   facet normal 0.000000e+00 -1.000000e+00 -0.000000e+00
      outer loop
         vertex 2.298133e+00 7.637977e-312 5.716372e-01
         vertex 1.928363e+00 7.637977e-312 2.018667e-01
         vertex 1.500000e+01 7.637977e-312 -1.650000e+01
      endloop
   endfacet
   facet normal -0.000000e+00 -1.000000e+00 0.000000e+00
      outer loop
         vertex -5.209445e-01 7.637977e-312 1.354558e+01
         vertex -1.026060e+00 7.637977e-312 1.368092e+01
         vertex -2.954423e+00 7.637977e-312 3.020945e+00
      endloop
   endfacet
   facet normal -0.000000e+00 -1.000000e+00 0.000000e+00
      outer loop
         vertex -2.819078e+00 7.637977e-312 3.526060e+00
         vertex -5.209445e-01 7.637977e-312 1.354558e+01
         vertex -2.954423e+00 7.637977e-312 3.020945e+00
      endloop
   endfacet
   facet normal 0.000000e+00 -1.000000e+00 0.000000e+00
      outer loop
         vertex 1.500000e+01 7.637977e-312 3.550000e+01
         vertex 2.819078e+00 7.637977e-312 3.526060e+00
         vertex 2.954423e+00 7.637977e-312 3.020945e+00
      endloop
   endfacet
   facet normal -0.000000e+00 -1.000000e+00 0.000000e+00
      outer loop
         vertex 3.836841e-15 7.637977e-312 1.350000e+01
         vertex -5.209445e-01 7.637977e-312 1.354558e+01
         vertex -2.819078e+00 7.637977e-312 3.526060e+00
      endloop
   endfacet
   facet normal -0.000000e+00 -1.000000e+00 0.000000e+00
      outer loop
         vertex -2.598076e+00 7.637977e-312 4.000000e+00
         vertex 3.836841e-15 7.637977e-312 1.350000e+01
         vertex -2.819078e+00 7.637977e-312 3.526060e+00
      endloop
   endfacet
   facet normal 0.000000e+00 -1.000000e+00 0.000000e+00
      outer loop
         vertex 1.500000e+01 7.637977e-312 3.550000e+01
         vertex 2.598076e+00 7.637977e-312 4.000000e+00
         vertex 2.819078e+00 7.637977e-312 3.526060e+00
      endloop
   endfacet
   facet normal -0.000000e+00 -1.000000e+00 0.000000e+00
      outer loop
         vertex -2.298133e+00 7.637977e-312 4.428363e+00
         vertex 3.836841e-15 7.637977e-312 1.350000e+01
         vertex -2.598076e+00 7.637977e-312 4.000000e+00
      endloop
   endfacet
   facet normal 0.000000e+00 -1.000000e+00 0.000000e+00
      outer loop
         vertex 1.500000e+01 7.637977e-312 3.550000e+01
         vertex 2.298133e+00 7.637977e-312 4.428363e+00
         vertex 2.598076e+00 7.637977e-312 4.000000e+00
      endloop
   endfacet
   facet normal 0.000000e+00 -1.000000e+00 0.000000e+00
      outer loop
         vertex 2.598076e+00 7.637977e-312 1.500000e+01
         vertex 2.298133e+00 7.637977e-312 1.457164e+01
         vertex -2.298133e+00 7.637977e-312 4.428363e+00
      endloop
   endfacet
   facet normal 0.000000e+00 -1.000000e+00 0.000000e+00
      outer loop
         vertex 2.298133e+00 7.637977e-312 1.457164e+01
         vertex 1.928363e+00 7.637977e-312 1.420187e+01
         vertex -2.298133e+00 7.637977e-312 4.428363e+00
      endloop
   endfacet
   facet normal 0.000000e+00 -1.000000e+00 0.000000e+00
      outer loop
         vertex 1.928363e+00 7.637977e-312 1.420187e+01
         vertex 1.500000e+00 7.637977e-312 1.390192e+01
         vertex -2.298133e+00 7.637977e-312 4.428363e+00
      endloop
   endfacet
   facet normal 0.000000e+00 -1.000000e+00 0.000000e+00
      outer loop
         vertex 1.500000e+00 7.637977e-312 1.390192e+01
         vertex 1.026060e+00 7.637977e-312 1.368092e+01
         vertex -2.298133e+00 7.637977e-312 4.428363e+00
      endloop
   endfacet
   facet normal 0.000000e+00 -1.000000e+00 0.000000e+00
      outer loop
         vertex 1.026060e+00 7.637977e-312 1.368092e+01
         vertex 5.209445e-01 7.637977e-312 1.354558e+01
         vertex -2.298133e+00 7.637977e-312 4.428363e+00
      endloop
   endfacet
   facet normal 0.000000e+00 -1.000000e+00 0.000000e+00
      outer loop
         vertex 5.209445e-01 7.637977e-312 1.354558e+01
         vertex 3.836841e-15 7.637977e-312 1.350000e+01
         vertex -2.298133e+00 7.637977e-312 4.428363e+00
      endloop
   endfacet
   facet normal -0.000000e+00 -1.000000e+00 0.000000e+00
      outer loop
         vertex -1.928363e+00 7.637977e-312 4.798133e+00
         vertex 2.598076e+00 7.637977e-312 1.500000e+01
         vertex -2.298133e+00 7.637977e-312 4.428363e+00
      endloop
   endfacet
   facet normal 0.000000e+00 -1.000000e+00 0.000000e+00
      outer loop
         vertex 1.500000e+01 7.637977e-312 3.550000e+01
         vertex 1.928363e+00 7.637977e-312 4.798133e+00
         vertex 2.298133e+00 7.637977e-312 4.428363e+00
      endloop
   endfacet
   facet normal -0.000000e+00 -1.000000e+00 0.000000e+00
      outer loop
         vertex -1.500000e+00 7.637977e-312 5.098076e+00
         vertex 2.598076e+00 7.637977e-312 1.500000e+01
         vertex -1.928363e+00 7.637977e-312 4.798133e+00
      endloop
   endfacet
   facet normal 0.000000e+00 -1.000000e+00 0.000000e+00
      outer loop
         vertex 1.500000e+01 7.637977e-312 3.550000e+01
         vertex 1.500000e+00 7.637977e-312 5.098076e+00
         vertex 1.928363e+00 7.637977e-312 4.798133e+00
      endloop
   endfacet
   facet normal -0.000000e+00 -1.000000e+00 0.000000e+00
      outer loop
         vertex -1.026060e+00 7.637977e-312 5.319078e+00
         vertex 2.598076e+00 7.637977e-312 1.500000e+01
         vertex -1.500000e+00 7.637977e-312 5.098076e+00
      endloop
   endfacet
   facet normal 0.000000e+00 -1.000000e+00 0.000000e+00
      outer loop
         vertex 1.500000e+01 7.637977e-312 3.550000e+01
         vertex 1.026060e+00 7.637977e-312 5.319078e+00
         vertex 1.500000e+00 7.637977e-312 5.098076e+00
      endloop
   endfacet
   facet normal -0.000000e+00 -1.000000e+00 0.000000e+00
      outer loop
         vertex -5.209445e-01 7.637977e-312 5.454423e+00
         vertex 2.598076e+00 7.637977e-312 1.500000e+01
         vertex -1.026060e+00 7.637977e-312 5.319078e+00
      endloop
   endfacet
   facet normal 0.000000e+00 -1.000000e+00 0.000000e+00
      outer loop
         vertex 2.954423e+00 7.637977e-312 1.597906e+01
         vertex 5.209445e-01 7.637977e-312 5.454423e+00
         vertex 1.026060e+00 7.637977e-312 5.319078e+00
      endloop
   endfacet
   facet normal 0.000000e+00 -1.000000e+00 0.000000e+00
      outer loop
         vertex 1.500000e+01 7.637977e-312 3.550000e+01
         vertex 2.954423e+00 7.637977e-312 1.597906e+01
         vertex 1.026060e+00 7.637977e-312 5.319078e+00
      endloop
   endfacet
   facet normal -0.000000e+00 -1.000000e+00 0.000000e+00
      outer loop
         vertex -7.350576e-16 7.637977e-312 5.500000e+00
         vertex 2.598076e+00 7.637977e-312 1.500000e+01
         vertex -5.209445e-01 7.637977e-312 5.454423e+00
      endloop
   endfacet
   facet normal 0.000000e+00 -1.000000e+00 0.000000e+00
      outer loop
         vertex 2.819078e+00 7.637977e-312 1.547394e+01
         vertex -7.350576e-16 7.637977e-312 5.500000e+00
         vertex 5.209445e-01 7.637977e-312 5.454423e+00
      endloop
   endfacet
   facet normal 0.000000e+00 -1.000000e+00 0.000000e+00
      outer loop
         vertex 2.954423e+00 7.637977e-312 1.597906e+01
         vertex 2.819078e+00 7.637977e-312 1.547394e+01
         vertex 5.209445e-01 7.637977e-312 5.454423e+00
      endloop
   endfacet
   facet normal 0.000000e+00 -1.000000e+00 0.000000e+00
      outer loop
         vertex 2.819078e+00 7.637977e-312 1.547394e+01
         vertex 2.598076e+00 7.637977e-312 1.500000e+01
         vertex -7.350576e-16 7.637977e-312 5.500000e+00
      endloop
   endfacet
   facet normal 0.000000e+00 -1.000000e+00 0.000000e+00
      outer loop
         vertex 1.500000e+01 7.637977e-312 3.550000e+01
         vertex 3.000000e+00 7.637977e-312 1.650000e+01
         vertex 2.954423e+00 7.637977e-312 1.597906e+01
      endloop
   endfacet
   facet normal 0.000000e+00 -1.000000e+00 0.000000e+00
      outer loop
         vertex 1.500000e+01 7.637977e-312 3.550000e+01
         vertex 2.954423e+00 7.637977e-312 1.702094e+01
         vertex 3.000000e+00 7.637977e-312 1.650000e+01
      endloop
   endfacet
   facet normal -0.000000e+00 -1.000000e+00 0.000000e+00
      outer loop
         vertex -5.209445e-01 7.637977e-312 2.754558e+01
         vertex -1.026060e+00 7.637977e-312 2.768092e+01
         vertex -2.954423e+00 7.637977e-312 1.702094e+01
      endloop
   endfacet
   facet normal -0.000000e+00 -1.000000e+00 0.000000e+00
      outer loop
         vertex -2.819078e+00 7.637977e-312 1.752606e+01
         vertex -5.209445e-01 7.637977e-312 2.754558e+01
         vertex -2.954423e+00 7.637977e-312 1.702094e+01
      endloop
   endfacet
   facet normal 0.000000e+00 -1.000000e+00 0.000000e+00
      outer loop
         vertex 1.500000e+01 7.637977e-312 3.550000e+01
         vertex 2.819078e+00 7.637977e-312 1.752606e+01
         vertex 2.954423e+00 7.637977e-312 1.702094e+01
      endloop
   endfacet
   facet normal -0.000000e+00 -1.000000e+00 0.000000e+00
      outer loop
         vertex 3.836841e-15 7.637977e-312 2.750000e+01
         vertex -5.209445e-01 7.637977e-312 2.754558e+01
         vertex -2.819078e+00 7.637977e-312 1.752606e+01
      endloop
   endfacet
   facet normal -0.000000e+00 -1.000000e+00 0.000000e+00
      outer loop
         vertex -2.598076e+00 7.637977e-312 1.800000e+01
         vertex 3.836841e-15 7.637977e-312 2.750000e+01
         vertex -2.819078e+00 7.637977e-312 1.752606e+01
      endloop
   endfacet
   facet normal 0.000000e+00 -1.000000e+00 0.000000e+00
      outer loop
         vertex 1.500000e+01 7.637977e-312 3.550000e+01
         vertex 2.598076e+00 7.637977e-312 1.800000e+01
         vertex 2.819078e+00 7.637977e-312 1.752606e+01
      endloop
   endfacet
   facet normal -0.000000e+00 -1.000000e+00 0.000000e+00
      outer loop
         vertex -2.298133e+00 7.637977e-312 1.842836e+01
         vertex 3.836841e-15 7.637977e-312 2.750000e+01
         vertex -2.598076e+00 7.637977e-312 1.800000e+01
      endloop
   endfacet
   facet normal 0.000000e+00 -1.000000e+00 0.000000e+00
      outer loop
         vertex 1.500000e+01 7.637977e-312 3.550000e+01
         vertex 2.298133e+00 7.637977e-312 1.842836e+01
         vertex 2.598076e+00 7.637977e-312 1.800000e+01
      endloop
   endfacet
   facet normal -0.000000e+00 -1.000000e+00 0.000000e+00
      outer loop
         vertex -1.928363e+00 7.637977e-312 1.879813e+01
         vertex 3.836841e-15 7.637977e-312 2.750000e+01
         vertex -2.298133e+00 7.637977e-312 1.842836e+01
      endloop
   endfacet
   facet normal 0.000000e+00 -1.000000e+00 0.000000e+00
      outer loop
         vertex 1.500000e+01 7.637977e-312 3.550000e+01
         vertex 1.928363e+00 7.637977e-312 1.879813e+01
         vertex 2.298133e+00 7.637977e-312 1.842836e+01
      endloop
   endfacet
   facet normal -0.000000e+00 -1.000000e+00 0.000000e+00
      outer loop
         vertex -1.500000e+00 7.637977e-312 1.909808e+01
         vertex 3.836841e-15 7.637977e-312 2.750000e+01
         vertex -1.928363e+00 7.637977e-312 1.879813e+01
      endloop
   endfacet
   facet normal 0.000000e+00 -1.000000e+00 0.000000e+00
      outer loop
         vertex 1.500000e+01 7.637977e-312 3.550000e+01
         vertex 1.500000e+00 7.637977e-312 1.909808e+01
         vertex 1.928363e+00 7.637977e-312 1.879813e+01
      endloop
   endfacet
   facet normal -0.000000e+00 -1.000000e+00 0.000000e+00
      outer loop
         vertex -1.026060e+00 7.637977e-312 1.931908e+01
         vertex 3.836841e-15 7.637977e-312 2.750000e+01
         vertex -1.500000e+00 7.637977e-312 1.909808e+01
      endloop
   endfacet
   facet normal 0.000000e+00 -1.000000e+00 0.000000e+00
      outer loop
         vertex 1.500000e+01 7.637977e-312 3.550000e+01
         vertex 2.954423e+00 7.637977e-312 2.997906e+01
         vertex 1.500000e+00 7.637977e-312 1.909808e+01
      endloop
   endfacet
   facet normal 0.000000e+00 -1.000000e+00 0.000000e+00
      outer loop
         vertex 2.954423e+00 7.637977e-312 2.997906e+01
         vertex 1.026060e+00 7.637977e-312 1.931908e+01
         vertex 1.500000e+00 7.637977e-312 1.909808e+01
      endloop
   endfacet
   facet normal -0.000000e+00 -1.000000e+00 0.000000e+00
      outer loop
         vertex -5.209445e-01 7.637977e-312 1.945442e+01
         vertex 3.836841e-15 7.637977e-312 2.750000e+01
         vertex -1.026060e+00 7.637977e-312 1.931908e+01
      endloop
   endfacet
   facet normal 0.000000e+00 -1.000000e+00 0.000000e+00
      outer loop
         vertex 2.298133e+00 7.637977e-312 2.857164e+01
         vertex 1.928363e+00 7.637977e-312 2.820187e+01
         vertex 1.026060e+00 7.637977e-312 1.931908e+01
      endloop
   endfacet
   facet normal 0.000000e+00 -1.000000e+00 0.000000e+00
      outer loop
         vertex 2.598076e+00 7.637977e-312 2.900000e+01
         vertex 2.298133e+00 7.637977e-312 2.857164e+01
         vertex 1.026060e+00 7.637977e-312 1.931908e+01
      endloop
   endfacet
   facet normal 0.000000e+00 -1.000000e+00 0.000000e+00
      outer loop
         vertex 1.928363e+00 7.637977e-312 2.820187e+01
         vertex 1.500000e+00 7.637977e-312 2.790192e+01
         vertex 1.026060e+00 7.637977e-312 1.931908e+01
      endloop
   endfacet
   facet normal 0.000000e+00 -1.000000e+00 0.000000e+00
      outer loop
         vertex 1.500000e+00 7.637977e-312 2.790192e+01
         vertex 1.026060e+00 7.637977e-312 2.768092e+01
         vertex 1.026060e+00 7.637977e-312 1.931908e+01
      endloop
   endfacet
   facet normal 0.000000e+00 -1.000000e+00 -0.000000e+00
      outer loop
         vertex 1.026060e+00 7.637977e-312 2.768092e+01
         vertex 5.209445e-01 7.637977e-312 2.754558e+01
         vertex 1.026060e+00 7.637977e-312 1.931908e+01
      endloop
   endfacet
   facet normal 0.000000e+00 -1.000000e+00 0.000000e+00
      outer loop
         vertex 5.209445e-01 7.637977e-312 2.754558e+01
         vertex 5.209445e-01 7.637977e-312 1.945442e+01
         vertex 1.026060e+00 7.637977e-312 1.931908e+01
      endloop
   endfacet
   facet normal 0.000000e+00 -1.000000e+00 0.000000e+00
      outer loop
         vertex 2.954423e+00 7.637977e-312 2.997906e+01
         vertex 2.819078e+00 7.637977e-312 2.947394e+01
         vertex 1.026060e+00 7.637977e-312 1.931908e+01
      endloop
   endfacet
   facet normal 0.000000e+00 -1.000000e+00 0.000000e+00
      outer loop
         vertex 2.819078e+00 7.637977e-312 2.947394e+01
         vertex 2.598076e+00 7.637977e-312 2.900000e+01
         vertex 1.026060e+00 7.637977e-312 1.931908e+01
      endloop
   endfacet
   facet normal -0.000000e+00 -1.000000e+00 0.000000e+00
      outer loop
         vertex 2.734659e-15 7.637977e-312 1.950000e+01
         vertex 3.836841e-15 7.637977e-312 2.750000e+01
         vertex -5.209445e-01 7.637977e-312 1.945442e+01
      endloop
   endfacet
   facet normal 0.000000e+00 -1.000000e+00 -0.000000e+00
      outer loop
         vertex 5.209445e-01 7.637977e-312 2.754558e+01
         vertex 2.734659e-15 7.637977e-312 1.950000e+01
         vertex 5.209445e-01 7.637977e-312 1.945442e+01
      endloop
   endfacet
   facet normal 0.000000e+00 -1.000000e+00 0.000000e+00
      outer loop
         vertex 5.209445e-01 7.637977e-312 2.754558e+01
         vertex 3.836841e-15 7.637977e-312 2.750000e+01
         vertex 2.734659e-15 7.637977e-312 1.950000e+01
      endloop
   endfacet
   facet normal -0.000000e+00 -1.000000e+00 -0.000000e+00
      outer loop
         vertex -2.819078e+00 7.637977e-312 2.947394e+01
         vertex -1.500000e+01 7.637977e-312 3.550000e+01
         vertex -2.598076e+00 7.637977e-312 2.900000e+01
      endloop
   endfacet
   facet normal -0.000000e+00 -1.000000e+00 -0.000000e+00
      outer loop
         vertex -2.954423e+00 7.637977e-312 2.997906e+01
         vertex -1.500000e+01 7.637977e-312 3.550000e+01
         vertex -2.819078e+00 7.637977e-312 2.947394e+01
      endloop
   endfacet
   facet normal -0.000000e+00 -1.000000e+00 -0.000000e+00
      outer loop
         vertex -3.000000e+00 7.637977e-312 3.050000e+01
         vertex -1.500000e+01 7.637977e-312 3.550000e+01
         vertex -2.954423e+00 7.637977e-312 2.997906e+01
      endloop
   endfacet
   facet normal 0.000000e+00 -1.000000e+00 0.000000e+00
      outer loop
         vertex 1.500000e+01 7.637977e-312 3.550000e+01
         vertex 3.000000e+00 7.637977e-312 3.050000e+01
         vertex 2.954423e+00 7.637977e-312 2.997906e+01
      endloop
   endfacet
   facet normal -0.000000e+00 -1.000000e+00 0.000000e+00
      outer loop
         vertex -2.954423e+00 7.637977e-312 3.102094e+01
         vertex -1.500000e+01 7.637977e-312 3.550000e+01
         vertex -3.000000e+00 7.637977e-312 3.050000e+01
      endloop
   endfacet
   facet normal 0.000000e+00 -1.000000e+00 0.000000e+00
      outer loop
         vertex 1.500000e+01 7.637977e-312 3.550000e+01
         vertex 2.954423e+00 7.637977e-312 3.102094e+01
         vertex 3.000000e+00 7.637977e-312 3.050000e+01
      endloop
   endfacet
   facet normal -0.000000e+00 -1.000000e+00 0.000000e+00
      outer loop
         vertex -2.819078e+00 7.637977e-312 3.152606e+01
         vertex -1.500000e+01 7.637977e-312 3.550000e+01
         vertex -2.954423e+00 7.637977e-312 3.102094e+01
      endloop
   endfacet
   facet normal 0.000000e+00 -1.000000e+00 0.000000e+00
      outer loop
         vertex 1.500000e+01 7.637977e-312 3.550000e+01
         vertex 2.819078e+00 7.637977e-312 3.152606e+01
         vertex 2.954423e+00 7.637977e-312 3.102094e+01
      endloop
   endfacet
   facet normal 0.000000e+00 -1.000000e+00 -0.000000e+00
      outer loop
         vertex -1.300000e+01 7.637977e-312 3.750000e+01
         vertex -1.500000e+01 7.637977e-312 3.550000e+01
         vertex -2.819078e+00 7.637977e-312 3.152606e+01
      endloop
   endfacet
   facet normal -0.000000e+00 -1.000000e+00 0.000000e+00
      outer loop
         vertex -2.598076e+00 7.637977e-312 3.200000e+01
         vertex -1.300000e+01 7.637977e-312 3.750000e+01
         vertex -2.819078e+00 7.637977e-312 3.152606e+01
      endloop
   endfacet
   facet normal 0.000000e+00 -1.000000e+00 0.000000e+00
      outer loop
         vertex 1.500000e+01 7.637977e-312 3.550000e+01
         vertex 2.598076e+00 7.637977e-312 3.200000e+01
         vertex 2.819078e+00 7.637977e-312 3.152606e+01
      endloop
   endfacet
   facet normal -0.000000e+00 -1.000000e+00 0.000000e+00
      outer loop
         vertex -2.298133e+00 7.637977e-312 3.242836e+01
         vertex -1.300000e+01 7.637977e-312 3.750000e+01
         vertex -2.598076e+00 7.637977e-312 3.200000e+01
      endloop
   endfacet
   facet normal -0.000000e+00 -1.000000e+00 0.000000e+00
      outer loop
         vertex 1.500000e+01 7.637977e-312 3.550000e+01
         vertex 1.300000e+01 7.637977e-312 3.750000e+01
         vertex 2.598076e+00 7.637977e-312 3.200000e+01
      endloop
   endfacet
   facet normal 0.000000e+00 -1.000000e+00 0.000000e+00
      outer loop
         vertex 1.300000e+01 7.637977e-312 3.750000e+01
         vertex 2.298133e+00 7.637977e-312 3.242836e+01
         vertex 2.598076e+00 7.637977e-312 3.200000e+01
      endloop
   endfacet
   facet normal -0.000000e+00 -1.000000e+00 0.000000e+00
      outer loop
         vertex -1.928363e+00 7.637977e-312 3.279813e+01
         vertex -1.300000e+01 7.637977e-312 3.750000e+01
         vertex -2.298133e+00 7.637977e-312 3.242836e+01
      endloop
   endfacet
   facet normal 0.000000e+00 -1.000000e+00 0.000000e+00
      outer loop
         vertex 1.300000e+01 7.637977e-312 3.750000e+01
         vertex 1.928363e+00 7.637977e-312 3.279813e+01
         vertex 2.298133e+00 7.637977e-312 3.242836e+01
      endloop
   endfacet
   facet normal -0.000000e+00 -1.000000e+00 0.000000e+00
      outer loop
         vertex -1.500000e+00 7.637977e-312 3.309808e+01
         vertex -1.300000e+01 7.637977e-312 3.750000e+01
         vertex -1.928363e+00 7.637977e-312 3.279813e+01
      endloop
   endfacet
   facet normal 0.000000e+00 -1.000000e+00 0.000000e+00
      outer loop
         vertex 1.300000e+01 7.637977e-312 3.750000e+01
         vertex 1.500000e+00 7.637977e-312 3.309808e+01
         vertex 1.928363e+00 7.637977e-312 3.279813e+01
      endloop
   endfacet
   facet normal -0.000000e+00 -1.000000e+00 0.000000e+00
      outer loop
         vertex -1.026060e+00 7.637977e-312 3.331908e+01
         vertex -1.300000e+01 7.637977e-312 3.750000e+01
         vertex -1.500000e+00 7.637977e-312 3.309808e+01
      endloop
   endfacet
   facet normal 0.000000e+00 -1.000000e+00 0.000000e+00
      outer loop
         vertex 1.300000e+01 7.637977e-312 3.750000e+01
         vertex 1.026060e+00 7.637977e-312 3.331908e+01
         vertex 1.500000e+00 7.637977e-312 3.309808e+01
      endloop
   endfacet
   facet normal -0.000000e+00 -1.000000e+00 0.000000e+00
      outer loop
         vertex -5.209445e-01 7.637977e-312 3.345442e+01
         vertex -1.300000e+01 7.637977e-312 3.750000e+01
         vertex -1.026060e+00 7.637977e-312 3.331908e+01
      endloop
   endfacet
   facet normal 0.000000e+00 -1.000000e+00 0.000000e+00
      outer loop
         vertex 1.300000e+01 7.637977e-312 3.750000e+01
         vertex 5.209445e-01 7.637977e-312 3.345442e+01
         vertex 1.026060e+00 7.637977e-312 3.331908e+01
      endloop
   endfacet
   facet normal -0.000000e+00 -1.000000e+00 0.000000e+00
      outer loop
         vertex 2.734659e-15 7.637977e-312 3.350000e+01
         vertex -1.300000e+01 7.637977e-312 3.750000e+01
         vertex -5.209445e-01 7.637977e-312 3.345442e+01
      endloop
   endfacet
   facet normal 0.000000e+00 -1.000000e+00 0.000000e+00
      outer loop
         vertex 1.300000e+01 7.637977e-312 3.750000e+01
         vertex 2.734659e-15 7.637977e-312 3.350000e+01
         vertex 5.209445e-01 7.637977e-312 3.345442e+01
      endloop
   endfacet
   facet normal -0.000000e+00 -1.000000e+00 0.000000e+00
      outer loop
         vertex 1.300000e+01 7.637977e-312 3.750000e+01
         vertex -1.300000e+01 7.637977e-312 3.750000e+01
         vertex 2.734659e-15 7.637977e-312 3.350000e+01
      endloop
   endfacet
   facet normal 0.000000e+00 1.000000e+00 0.000000e+00
      outer loop
         vertex -2.625829e+01 1.600000e+01 -3.279776e+01
         vertex -2.563470e+01 1.600000e+01 -3.339534e+01
         vertex -3.650000e+01 1.600000e+01 -3.750000e+01
      endloop
   endfacet
   facet normal -0.000000e+00 1.000000e+00 0.000000e+00
      outer loop
         vertex -3.750000e+01 1.600000e+01 -3.650000e+01
         vertex -2.715380e+01 1.600000e+01 -3.132816e+01
         vertex -3.650000e+01 1.600000e+01 -3.750000e+01
      endloop
   endfacet
   facet normal 0.000000e+00 1.000000e+00 0.000000e+00
      outer loop
         vertex -2.715380e+01 1.600000e+01 -3.132816e+01
         vertex -2.676975e+01 1.600000e+01 -3.210178e+01
         vertex -3.650000e+01 1.600000e+01 -3.750000e+01
      endloop
   endfacet
   facet normal 0.000000e+00 1.000000e+00 0.000000e+00
      outer loop
         vertex -2.676975e+01 1.600000e+01 -3.210178e+01
         vertex -2.625829e+01 1.600000e+01 -3.279776e+01
         vertex -3.650000e+01 1.600000e+01 -3.750000e+01
      endloop
   endfacet
   facet normal 0.000000e+00 1.000000e+00 0.000000e+00
      outer loop
         vertex -2.563470e+01 1.600000e+01 -3.339534e+01
         vertex -2.491757e+01 1.600000e+01 -3.387669e+01
         vertex -3.650000e+01 1.600000e+01 -3.750000e+01
      endloop
   endfacet
   facet normal 0.000000e+00 1.000000e+00 0.000000e+00
      outer loop
         vertex -2.491757e+01 1.600000e+01 -3.387669e+01
         vertex -2.412829e+01 1.600000e+01 -3.422744e+01
         vertex -3.650000e+01 1.600000e+01 -3.750000e+01
      endloop
   endfacet
   facet normal 0.000000e+00 1.000000e+00 0.000000e+00
      outer loop
         vertex -2.412829e+01 1.600000e+01 -3.422744e+01
         vertex -2.329044e+01 1.600000e+01 -3.443712e+01
         vertex -3.650000e+01 1.600000e+01 -3.750000e+01
      endloop
   endfacet
   facet normal 0.000000e+00 1.000000e+00 0.000000e+00
      outer loop
         vertex 2.156967e+01 1.600000e+01 -3.441269e+01
         vertex 3.650000e+01 1.600000e+01 -3.750000e+01
         vertex -3.650000e+01 1.600000e+01 -3.750000e+01
      endloop
   endfacet
   facet normal 0.000000e+00 1.000000e+00 0.000000e+00
      outer loop
         vertex 2.073811e+01 1.600000e+01 -3.417929e+01
         vertex 2.156967e+01 1.600000e+01 -3.441269e+01
         vertex -3.650000e+01 1.600000e+01 -3.750000e+01
      endloop
   endfacet
   facet normal 0.000000e+00 1.000000e+00 0.000000e+00
      outer loop
         vertex 1.757460e+01 1.600000e+01 -3.036047e+01
         vertex 1.779616e+01 1.600000e+01 -3.119526e+01
         vertex -3.650000e+01 1.600000e+01 -3.750000e+01
      endloop
   endfacet
   facet normal 0.000000e+00 1.000000e+00 0.000000e+00
      outer loop
         vertex 1.779616e+01 1.600000e+01 -3.119526e+01
         vertex 1.815809e+01 1.600000e+01 -3.197948e+01
         vertex -3.650000e+01 1.600000e+01 -3.750000e+01
      endloop
   endfacet
   facet normal 0.000000e+00 1.000000e+00 0.000000e+00
      outer loop
         vertex 1.815809e+01 1.600000e+01 -3.197948e+01
         vertex 1.864957e+01 1.600000e+01 -3.268970e+01
         vertex -3.650000e+01 1.600000e+01 -3.750000e+01
      endloop
   endfacet
   facet normal 0.000000e+00 1.000000e+00 0.000000e+00
      outer loop
         vertex 1.864957e+01 1.600000e+01 -3.268970e+01
         vertex 1.925594e+01 1.600000e+01 -3.330475e+01
         vertex -3.650000e+01 1.600000e+01 -3.750000e+01
      endloop
   endfacet
   facet normal 0.000000e+00 1.000000e+00 0.000000e+00
      outer loop
         vertex 1.925594e+01 1.600000e+01 -3.330475e+01
         vertex 1.995912e+01 1.600000e+01 -3.380626e+01
         vertex -3.650000e+01 1.600000e+01 -3.750000e+01
      endloop
   endfacet
   facet normal 0.000000e+00 1.000000e+00 0.000000e+00
      outer loop
         vertex 1.995912e+01 1.600000e+01 -3.380626e+01
         vertex 2.073811e+01 1.600000e+01 -3.417929e+01
         vertex -3.650000e+01 1.600000e+01 -3.750000e+01
      endloop
   endfacet
   facet normal 0.000000e+00 1.000000e+00 0.000000e+00
      outer loop
         vertex -2.329044e+01 1.600000e+01 -3.443712e+01
         vertex -2.242899e+01 1.600000e+01 -3.449950e+01
         vertex -3.650000e+01 1.600000e+01 -3.750000e+01
      endloop
   endfacet
   facet normal -0.000000e+00 1.000000e+00 0.000000e+00
      outer loop
         vertex -2.242899e+01 1.600000e+01 -3.449950e+01
         vertex -2.156967e+01 1.600000e+01 -3.441269e+01
         vertex -3.650000e+01 1.600000e+01 -3.750000e+01
      endloop
   endfacet
   facet normal -0.000000e+00 1.000000e+00 0.000000e+00
      outer loop
         vertex -2.156967e+01 1.600000e+01 -3.441269e+01
         vertex 1.757460e+01 1.600000e+01 -3.036047e+01
         vertex -3.650000e+01 1.600000e+01 -3.750000e+01
      endloop
   endfacet
   facet normal 0.000000e+00 1.000000e+00 0.000000e+00
      outer loop
         vertex 2.676975e+01 1.600000e+01 -3.210178e+01
         vertex 3.750000e+01 1.600000e+01 -3.650000e+01
         vertex 3.650000e+01 1.600000e+01 -3.750000e+01
      endloop
   endfacet
   facet normal 0.000000e+00 1.000000e+00 0.000000e+00
      outer loop
         vertex 2.156967e+01 1.600000e+01 -3.441269e+01
         vertex 2.242899e+01 1.600000e+01 -3.449950e+01
         vertex 3.650000e+01 1.600000e+01 -3.750000e+01
      endloop
   endfacet
   facet normal -0.000000e+00 1.000000e+00 0.000000e+00
      outer loop
         vertex 2.242899e+01 1.600000e+01 -3.449950e+01
         vertex 2.329044e+01 1.600000e+01 -3.443712e+01
         vertex 3.650000e+01 1.600000e+01 -3.750000e+01
      endloop
   endfacet
   facet normal -0.000000e+00 1.000000e+00 0.000000e+00
      outer loop
         vertex 2.329044e+01 1.600000e+01 -3.443712e+01
         vertex 2.412829e+01 1.600000e+01 -3.422744e+01
         vertex 3.650000e+01 1.600000e+01 -3.750000e+01
      endloop
   endfacet
   facet normal -0.000000e+00 1.000000e+00 0.000000e+00
      outer loop
         vertex 2.412829e+01 1.600000e+01 -3.422744e+01
         vertex 2.491757e+01 1.600000e+01 -3.387669e+01
         vertex 3.650000e+01 1.600000e+01 -3.750000e+01
      endloop
   endfacet
   facet normal -0.000000e+00 1.000000e+00 0.000000e+00
      outer loop
         vertex 2.491757e+01 1.600000e+01 -3.387669e+01
         vertex 2.563470e+01 1.600000e+01 -3.339534e+01
         vertex 3.650000e+01 1.600000e+01 -3.750000e+01
      endloop
   endfacet
   facet normal -0.000000e+00 1.000000e+00 0.000000e+00
      outer loop
         vertex 2.563470e+01 1.600000e+01 -3.339534e+01
         vertex 2.625829e+01 1.600000e+01 -3.279776e+01
         vertex 3.650000e+01 1.600000e+01 -3.750000e+01
      endloop
   endfacet
   facet normal -0.000000e+00 1.000000e+00 0.000000e+00
      outer loop
         vertex 2.625829e+01 1.600000e+01 -3.279776e+01
         vertex 2.676975e+01 1.600000e+01 -3.210178e+01
         vertex 3.650000e+01 1.600000e+01 -3.750000e+01
      endloop
   endfacet
   facet normal -0.000000e+00 1.000000e+00 0.000000e+00
      outer loop
         vertex -3.750000e+01 1.600000e+01 -3.050000e+01
         vertex -2.739898e+01 1.600000e+01 -3.050000e+01
         vertex -3.750000e+01 1.600000e+01 -3.650000e+01
      endloop
   endfacet
   facet normal 0.000000e+00 1.000000e+00 0.000000e+00
      outer loop
         vertex -2.739898e+01 1.600000e+01 -3.050000e+01
         vertex -2.715380e+01 1.600000e+01 -3.132816e+01
         vertex -3.750000e+01 1.600000e+01 -3.650000e+01
      endloop
   endfacet
   facet normal -0.000000e+00 1.000000e+00 0.000000e+00
      outer loop
         vertex 2.715380e+01 1.600000e+01 -3.132816e+01
         vertex 3.750000e+01 1.600000e+01 -3.050000e+01
         vertex 3.750000e+01 1.600000e+01 -3.650000e+01
      endloop
   endfacet
   facet normal -0.000000e+00 1.000000e+00 0.000000e+00
      outer loop
         vertex 2.676975e+01 1.600000e+01 -3.210178e+01
         vertex 2.715380e+01 1.600000e+01 -3.132816e+01
         vertex 3.750000e+01 1.600000e+01 -3.650000e+01
      endloop
   endfacet
   facet normal -0.000000e+00 1.000000e+00 0.000000e+00
      outer loop
         vertex -2.073811e+01 1.600000e+01 -3.417929e+01
         vertex 1.757460e+01 1.600000e+01 -3.036047e+01
         vertex -2.156967e+01 1.600000e+01 -3.441269e+01
      endloop
   endfacet
   facet normal -0.000000e+00 1.000000e+00 0.000000e+00
      outer loop
         vertex -1.995912e+01 1.600000e+01 -3.380626e+01
         vertex 1.566987e+01 1.600000e+01 -1.900000e+01
         vertex -2.073811e+01 1.600000e+01 -3.417929e+01
      endloop
   endfacet
   facet normal 0.000000e+00 1.000000e+00 0.000000e+00
      outer loop
         vertex 1.566987e+01 1.600000e+01 -1.900000e+01
         vertex 1.616978e+01 1.600000e+01 -1.971394e+01
         vertex -2.073811e+01 1.600000e+01 -3.417929e+01
      endloop
   endfacet
   facet normal 0.000000e+00 1.000000e+00 0.000000e+00
      outer loop
         vertex 1.616978e+01 1.600000e+01 -1.971394e+01
         vertex 1.678606e+01 1.600000e+01 -2.033022e+01
         vertex -2.073811e+01 1.600000e+01 -3.417929e+01
      endloop
   endfacet
   facet normal 0.000000e+00 1.000000e+00 0.000000e+00
      outer loop
         vertex 1.678606e+01 1.600000e+01 -2.033022e+01
         vertex 1.750000e+01 1.600000e+01 -2.083013e+01
         vertex -2.073811e+01 1.600000e+01 -3.417929e+01
      endloop
   endfacet
   facet normal 0.000000e+00 1.000000e+00 0.000000e+00
      outer loop
         vertex 1.750000e+01 1.600000e+01 -2.950000e+01
         vertex 1.757460e+01 1.600000e+01 -3.036047e+01
         vertex -2.073811e+01 1.600000e+01 -3.417929e+01
      endloop
   endfacet
   facet normal 0.000000e+00 1.000000e+00 0.000000e+00
      outer loop
         vertex 1.750000e+01 1.600000e+01 -2.083013e+01
         vertex 1.750000e+01 1.600000e+01 -2.950000e+01
         vertex -2.073811e+01 1.600000e+01 -3.417929e+01
      endloop
   endfacet
   facet normal -0.000000e+00 1.000000e+00 0.000000e+00
      outer loop
         vertex -1.925594e+01 1.600000e+01 -3.330475e+01
         vertex 1.566987e+01 1.600000e+01 -1.900000e+01
         vertex -1.995912e+01 1.600000e+01 -3.380626e+01
      endloop
   endfacet
   facet normal -0.000000e+00 1.000000e+00 0.000000e+00
      outer loop
         vertex -1.864957e+01 1.600000e+01 -3.268970e+01
         vertex 1.566987e+01 1.600000e+01 -1.900000e+01
         vertex -1.925594e+01 1.600000e+01 -3.330475e+01
      endloop
   endfacet
   facet normal -0.000000e+00 1.000000e+00 0.000000e+00
      outer loop
         vertex -1.815809e+01 1.600000e+01 -3.197948e+01
         vertex 1.566987e+01 1.600000e+01 -1.900000e+01
         vertex -1.864957e+01 1.600000e+01 -3.268970e+01
      endloop
   endfacet
   facet normal -0.000000e+00 1.000000e+00 0.000000e+00
      outer loop
         vertex -1.779616e+01 1.600000e+01 -3.119526e+01
         vertex 1.566987e+01 1.600000e+01 -1.900000e+01
         vertex -1.815809e+01 1.600000e+01 -3.197948e+01
      endloop
   endfacet
   facet normal -0.000000e+00 1.000000e+00 0.000000e+00
      outer loop
         vertex 2.739898e+01 1.600000e+01 -3.050000e+01
         vertex 3.750000e+01 1.600000e+01 -3.050000e+01
         vertex 2.715380e+01 1.600000e+01 -3.132816e+01
      endloop
   endfacet
   facet normal 0.000000e+00 1.000000e+00 0.000000e+00
      outer loop
         vertex 1.530154e+01 1.600000e+01 -1.821010e+01
         vertex 1.566987e+01 1.600000e+01 -1.900000e+01
         vertex -1.779616e+01 1.600000e+01 -3.119526e+01
      endloop
   endfacet
   facet normal -0.000000e+00 1.000000e+00 0.000000e+00
      outer loop
         vertex -1.757460e+01 1.600000e+01 -3.036047e+01
         vertex 1.530154e+01 1.600000e+01 -1.821010e+01
         vertex -1.779616e+01 1.600000e+01 -3.119526e+01
      endloop
   endfacet
   facet normal -0.000000e+00 1.000000e+00 0.000000e+00
      outer loop
         vertex -1.750000e+01 1.600000e+01 -2.950000e+01
         vertex 1.530154e+01 1.600000e+01 -1.821010e+01
         vertex -1.757460e+01 1.600000e+01 -3.036047e+01
      endloop
   endfacet
   facet normal -0.000000e+00 1.000000e+00 0.000000e+00
      outer loop
         vertex -1.750000e+01 1.600000e+01 -2.083013e+01
         vertex -1.678606e+01 1.600000e+01 -2.033022e+01
         vertex -1.750000e+01 1.600000e+01 -2.950000e+01
      endloop
   endfacet
   facet normal -0.000000e+00 1.000000e+00 0.000000e+00
      outer loop
         vertex -1.757460e+01 1.600000e+01 -2.863953e+01
         vertex -1.750000e+01 1.600000e+01 -2.083013e+01
         vertex -1.750000e+01 1.600000e+01 -2.950000e+01
      endloop
   endfacet
   facet normal -0.000000e+00 1.000000e+00 0.000000e+00
      outer loop
         vertex -1.678606e+01 1.600000e+01 -2.033022e+01
         vertex -1.616978e+01 1.600000e+01 -1.971394e+01
         vertex -1.750000e+01 1.600000e+01 -2.950000e+01
      endloop
   endfacet
   facet normal -0.000000e+00 1.000000e+00 0.000000e+00
      outer loop
         vertex -1.616978e+01 1.600000e+01 -1.971394e+01
         vertex 1.530154e+01 1.600000e+01 -1.821010e+01
         vertex -1.750000e+01 1.600000e+01 -2.950000e+01
      endloop
   endfacet
   facet normal 0.000000e+00 1.000000e+00 0.000000e+00
      outer loop
         vertex 1.750000e+01 1.600000e+01 -2.083013e+01
         vertex 1.757460e+01 1.600000e+01 -2.863953e+01
         vertex 1.750000e+01 1.600000e+01 -2.950000e+01
      endloop
   endfacet
   facet normal -0.000000e+00 1.000000e+00 0.000000e+00
      outer loop
         vertex -1.828990e+01 1.600000e+01 -2.119846e+01
         vertex -1.750000e+01 1.600000e+01 -2.083013e+01
         vertex -1.757460e+01 1.600000e+01 -2.863953e+01
      endloop
   endfacet
   facet normal -0.000000e+00 1.000000e+00 0.000000e+00
      outer loop
         vertex -1.913176e+01 1.600000e+01 -2.142404e+01
         vertex -1.828990e+01 1.600000e+01 -2.119846e+01
         vertex -1.757460e+01 1.600000e+01 -2.863953e+01
      endloop
   endfacet
   facet normal -0.000000e+00 1.000000e+00 -0.000000e+00
      outer loop
         vertex -1.779616e+01 1.600000e+01 -2.780474e+01
         vertex -1.913176e+01 1.600000e+01 -2.142404e+01
         vertex -1.757460e+01 1.600000e+01 -2.863953e+01
      endloop
   endfacet
   facet normal 0.000000e+00 1.000000e+00 0.000000e+00
      outer loop
         vertex 1.750000e+01 1.600000e+01 -2.083013e+01
         vertex 1.828990e+01 1.600000e+01 -2.119846e+01
         vertex 1.757460e+01 1.600000e+01 -2.863953e+01
      endloop
   endfacet
   facet normal 0.000000e+00 1.000000e+00 0.000000e+00
      outer loop
         vertex 1.828990e+01 1.600000e+01 -2.119846e+01
         vertex 1.779616e+01 1.600000e+01 -2.780474e+01
         vertex 1.757460e+01 1.600000e+01 -2.863953e+01
      endloop
   endfacet
   facet normal 0.000000e+00 1.000000e+00 0.000000e+00
      outer loop
         vertex -2.715380e+01 1.600000e+01 -2.767183e+01
         vertex -2.739898e+01 1.600000e+01 -2.850000e+01
         vertex -3.750000e+01 1.600000e+01 -2.850000e+01
      endloop
   endfacet
   facet normal 0.000000e+00 1.000000e+00 0.000000e+00
      outer loop
         vertex -3.750000e+01 1.600000e+01 -2.250000e+01
         vertex -2.715380e+01 1.600000e+01 -2.767183e+01
         vertex -3.750000e+01 1.600000e+01 -2.850000e+01
      endloop
   endfacet
   facet normal 0.000000e+00 1.000000e+00 0.000000e+00
      outer loop
         vertex 3.750000e+01 1.600000e+01 -2.250000e+01
         vertex 3.750000e+01 1.600000e+01 -2.850000e+01
         vertex 2.739898e+01 1.600000e+01 -2.850000e+01
      endloop
   endfacet
   facet normal -0.000000e+00 1.000000e+00 0.000000e+00
      outer loop
         vertex 2.715380e+01 1.600000e+01 -2.767183e+01
         vertex 3.750000e+01 1.600000e+01 -2.250000e+01
         vertex 2.739898e+01 1.600000e+01 -2.850000e+01
      endloop
   endfacet
   facet normal -0.000000e+00 1.000000e+00 -0.000000e+00
      outer loop
         vertex -1.815809e+01 1.600000e+01 -2.702053e+01
         vertex -1.913176e+01 1.600000e+01 -2.142404e+01
         vertex -1.779616e+01 1.600000e+01 -2.780474e+01
      endloop
   endfacet
   facet normal 0.000000e+00 1.000000e+00 0.000000e+00
      outer loop
         vertex 1.828990e+01 1.600000e+01 -2.119846e+01
         vertex 1.815809e+01 1.600000e+01 -2.702053e+01
         vertex 1.779616e+01 1.600000e+01 -2.780474e+01
      endloop
   endfacet
   facet normal 0.000000e+00 1.000000e+00 0.000000e+00
      outer loop
         vertex -3.750000e+01 1.600000e+01 -2.250000e+01
         vertex -2.676975e+01 1.600000e+01 -2.689822e+01
         vertex -2.715380e+01 1.600000e+01 -2.767183e+01
      endloop
   endfacet
   facet normal 0.000000e+00 1.000000e+00 0.000000e+00
      outer loop
         vertex 3.650000e+01 1.600000e+01 -2.150000e+01
         vertex 3.750000e+01 1.600000e+01 -2.250000e+01
         vertex 2.715380e+01 1.600000e+01 -2.767183e+01
      endloop
   endfacet
   facet normal -0.000000e+00 1.000000e+00 0.000000e+00
      outer loop
         vertex 2.676975e+01 1.600000e+01 -2.689822e+01
         vertex 3.650000e+01 1.600000e+01 -2.150000e+01
         vertex 2.715380e+01 1.600000e+01 -2.767183e+01
      endloop
   endfacet
   facet normal -0.000000e+00 1.000000e+00 -0.000000e+00
      outer loop
         vertex -1.864957e+01 1.600000e+01 -2.631030e+01
         vertex -1.913176e+01 1.600000e+01 -2.142404e+01
         vertex -1.815809e+01 1.600000e+01 -2.702053e+01
      endloop
   endfacet
   facet normal 0.000000e+00 1.000000e+00 0.000000e+00
      outer loop
         vertex 1.828990e+01 1.600000e+01 -2.119846e+01
         vertex 1.864957e+01 1.600000e+01 -2.631030e+01
         vertex 1.815809e+01 1.600000e+01 -2.702053e+01
      endloop
   endfacet
   facet normal -0.000000e+00 1.000000e+00 0.000000e+00
      outer loop
         vertex -3.750000e+01 1.600000e+01 -2.250000e+01
         vertex -3.650000e+01 1.600000e+01 -2.150000e+01
         vertex -2.676975e+01 1.600000e+01 -2.689822e+01
      endloop
   endfacet
   facet normal 0.000000e+00 1.000000e+00 0.000000e+00
      outer loop
         vertex -3.650000e+01 1.600000e+01 -2.150000e+01
         vertex -2.625829e+01 1.600000e+01 -2.620224e+01
         vertex -2.676975e+01 1.600000e+01 -2.689822e+01
      endloop
   endfacet
   facet normal -0.000000e+00 1.000000e+00 0.000000e+00
      outer loop
         vertex 2.625829e+01 1.600000e+01 -2.620224e+01
         vertex 3.650000e+01 1.600000e+01 -2.150000e+01
         vertex 2.676975e+01 1.600000e+01 -2.689822e+01
      endloop
   endfacet
   facet normal -0.000000e+00 1.000000e+00 0.000000e+00
      outer loop
         vertex -1.925594e+01 1.600000e+01 -2.569525e+01
         vertex -1.913176e+01 1.600000e+01 -2.142404e+01
         vertex -1.864957e+01 1.600000e+01 -2.631030e+01
      endloop
   endfacet
   facet normal 0.000000e+00 1.000000e+00 0.000000e+00
      outer loop
         vertex 1.828990e+01 1.600000e+01 -2.119846e+01
         vertex 1.925594e+01 1.600000e+01 -2.569525e+01
         vertex 1.864957e+01 1.600000e+01 -2.631030e+01
      endloop
   endfacet
   facet normal 0.000000e+00 1.000000e+00 0.000000e+00
      outer loop
         vertex -3.650000e+01 1.600000e+01 -2.150000e+01
         vertex -2.563470e+01 1.600000e+01 -2.560466e+01
         vertex -2.625829e+01 1.600000e+01 -2.620224e+01
      endloop
   endfacet
   facet normal -0.000000e+00 1.000000e+00 0.000000e+00
      outer loop
         vertex 2.563470e+01 1.600000e+01 -2.560466e+01
         vertex 3.650000e+01 1.600000e+01 -2.150000e+01
         vertex 2.625829e+01 1.600000e+01 -2.620224e+01
      endloop
   endfacet
   facet normal -0.000000e+00 1.000000e+00 0.000000e+00
      outer loop
         vertex -1.995912e+01 1.600000e+01 -2.519374e+01
         vertex -1.913176e+01 1.600000e+01 -2.142404e+01
         vertex -1.925594e+01 1.600000e+01 -2.569525e+01
      endloop
   endfacet
   facet normal 0.000000e+00 1.000000e+00 0.000000e+00
      outer loop
         vertex 1.828990e+01 1.600000e+01 -2.119846e+01
         vertex 1.995912e+01 1.600000e+01 -2.519374e+01
         vertex 1.925594e+01 1.600000e+01 -2.569525e+01
      endloop
   endfacet
   facet normal 0.000000e+00 1.000000e+00 0.000000e+00
      outer loop
         vertex -3.650000e+01 1.600000e+01 -2.150000e+01
         vertex -2.491757e+01 1.600000e+01 -2.512331e+01
         vertex -2.563470e+01 1.600000e+01 -2.560466e+01
      endloop
   endfacet
   facet normal -0.000000e+00 1.000000e+00 0.000000e+00
      outer loop
         vertex 2.491757e+01 1.600000e+01 -2.512331e+01
         vertex 3.650000e+01 1.600000e+01 -2.150000e+01
         vertex 2.563470e+01 1.600000e+01 -2.560466e+01
      endloop
   endfacet
   facet normal -0.000000e+00 1.000000e+00 0.000000e+00
      outer loop
         vertex -2.073811e+01 1.600000e+01 -2.482071e+01
         vertex -1.913176e+01 1.600000e+01 -2.142404e+01
         vertex -1.995912e+01 1.600000e+01 -2.519374e+01
      endloop
   endfacet
   facet normal 0.000000e+00 1.000000e+00 0.000000e+00
      outer loop
         vertex 1.828990e+01 1.600000e+01 -2.119846e+01
         vertex 2.073811e+01 1.600000e+01 -2.482071e+01
         vertex 1.995912e+01 1.600000e+01 -2.519374e+01
      endloop
   endfacet
   facet normal 0.000000e+00 1.000000e+00 0.000000e+00
      outer loop
         vertex -3.650000e+01 1.600000e+01 -2.150000e+01
         vertex -2.412829e+01 1.600000e+01 -2.477256e+01
         vertex -2.491757e+01 1.600000e+01 -2.512331e+01
      endloop
   endfacet
   facet normal -0.000000e+00 1.000000e+00 0.000000e+00
      outer loop
         vertex 2.000000e+01 1.600000e+01 -2.150000e+01
         vertex 3.650000e+01 1.600000e+01 -2.150000e+01
         vertex 2.491757e+01 1.600000e+01 -2.512331e+01
      endloop
   endfacet
   facet normal 0.000000e+00 1.000000e+00 0.000000e+00
      outer loop
         vertex 1.913176e+01 1.600000e+01 -2.142404e+01
         vertex 2.000000e+01 1.600000e+01 -2.150000e+01
         vertex 2.491757e+01 1.600000e+01 -2.512331e+01
      endloop
   endfacet
   facet normal -0.000000e+00 1.000000e+00 -0.000000e+00
      outer loop
         vertex 2.412829e+01 1.600000e+01 -2.477256e+01
         vertex 1.913176e+01 1.600000e+01 -2.142404e+01
         vertex 2.491757e+01 1.600000e+01 -2.512331e+01
      endloop
   endfacet
   facet normal -0.000000e+00 1.000000e+00 0.000000e+00
      outer loop
         vertex -2.000000e+01 1.600000e+01 -2.150000e+01
         vertex -1.913176e+01 1.600000e+01 -2.142404e+01
         vertex -2.073811e+01 1.600000e+01 -2.482071e+01
      endloop
   endfacet
   facet normal -0.000000e+00 1.000000e+00 0.000000e+00
      outer loop
         vertex -2.156967e+01 1.600000e+01 -2.458731e+01
         vertex -2.000000e+01 1.600000e+01 -2.150000e+01
         vertex -2.073811e+01 1.600000e+01 -2.482071e+01
      endloop
   endfacet
   facet normal 0.000000e+00 1.000000e+00 0.000000e+00
      outer loop
         vertex 1.913176e+01 1.600000e+01 -2.142404e+01
         vertex 2.156967e+01 1.600000e+01 -2.458731e+01
         vertex 2.073811e+01 1.600000e+01 -2.482071e+01
      endloop
   endfacet
   facet normal 0.000000e+00 1.000000e+00 0.000000e+00
      outer loop
         vertex 1.828990e+01 1.600000e+01 -2.119846e+01
         vertex 1.913176e+01 1.600000e+01 -2.142404e+01
         vertex 2.073811e+01 1.600000e+01 -2.482071e+01
      endloop
   endfacet
   facet normal 0.000000e+00 1.000000e+00 0.000000e+00
      outer loop
         vertex -3.650000e+01 1.600000e+01 -2.150000e+01
         vertex -2.329044e+01 1.600000e+01 -2.456287e+01
         vertex -2.412829e+01 1.600000e+01 -2.477256e+01
      endloop
   endfacet
   facet normal -0.000000e+00 1.000000e+00 -0.000000e+00
      outer loop
         vertex 2.329044e+01 1.600000e+01 -2.456287e+01
         vertex 1.913176e+01 1.600000e+01 -2.142404e+01
         vertex 2.412829e+01 1.600000e+01 -2.477256e+01
      endloop
   endfacet
   facet normal -0.000000e+00 1.000000e+00 0.000000e+00
      outer loop
         vertex -2.242899e+01 1.600000e+01 -2.450050e+01
         vertex -2.000000e+01 1.600000e+01 -2.150000e+01
         vertex -2.156967e+01 1.600000e+01 -2.458731e+01
      endloop
   endfacet
   facet normal 0.000000e+00 1.000000e+00 0.000000e+00
      outer loop
         vertex 1.913176e+01 1.600000e+01 -2.142404e+01
         vertex 2.242899e+01 1.600000e+01 -2.450050e+01
         vertex 2.156967e+01 1.600000e+01 -2.458731e+01
      endloop
   endfacet
   facet normal 0.000000e+00 1.000000e+00 0.000000e+00
      outer loop
         vertex -2.000000e+01 1.600000e+01 -2.150000e+01
         vertex -2.242899e+01 1.600000e+01 -2.450050e+01
         vertex -2.329044e+01 1.600000e+01 -2.456287e+01
      endloop
   endfacet
   facet normal -0.000000e+00 1.000000e+00 0.000000e+00
      outer loop
         vertex -3.650000e+01 1.600000e+01 -2.150000e+01
         vertex -2.000000e+01 1.600000e+01 -2.150000e+01
         vertex -2.329044e+01 1.600000e+01 -2.456287e+01
      endloop
   endfacet
   facet normal -0.000000e+00 1.000000e+00 -0.000000e+00
      outer loop
         vertex 2.242899e+01 1.600000e+01 -2.450050e+01
         vertex 1.913176e+01 1.600000e+01 -2.142404e+01
         vertex 2.329044e+01 1.600000e+01 -2.456287e+01
      endloop
   endfacet
   facet normal -0.000000e+00 1.000000e+00 0.000000e+00
      outer loop
         vertex -1.566987e+01 1.600000e+01 -1.900000e+01
         vertex 1.530154e+01 1.600000e+01 -1.821010e+01
         vertex -1.616978e+01 1.600000e+01 -1.971394e+01
      endloop
   endfacet
   facet normal -0.000000e+00 1.000000e+00 0.000000e+00
      outer loop
         vertex -1.530154e+01 1.600000e+01 -1.821010e+01
         vertex 1.530154e+01 1.600000e+01 -1.821010e+01
         vertex -1.566987e+01 1.600000e+01 -1.900000e+01
      endloop
   endfacet
   facet normal 0.000000e+00 1.000000e+00 0.000000e+00
      outer loop
         vertex -1.507596e+01 1.600000e+01 -1.736824e+01
         vertex 1.530154e+01 1.600000e+01 -1.821010e+01
         vertex -1.530154e+01 1.600000e+01 -1.821010e+01
      endloop
   endfacet
   facet normal -0.000000e+00 1.000000e+00 0.000000e+00
      outer loop
         vertex -1.507596e+01 1.600000e+01 -1.736824e+01
         vertex 1.507596e+01 1.600000e+01 -1.736824e+01
         vertex 1.530154e+01 1.600000e+01 -1.821010e+01
      endloop
   endfacet
   facet normal 0.000000e+00 1.000000e+00 0.000000e+00
      outer loop
         vertex -1.500000e+01 1.600000e+01 -1.650000e+01
         vertex 1.507596e+01 1.600000e+01 -1.736824e+01
         vertex -1.507596e+01 1.600000e+01 -1.736824e+01
      endloop
   endfacet
   facet normal -0.000000e+00 1.000000e+00 0.000000e+00
      outer loop
         vertex -1.500000e+01 1.600000e+01 -1.650000e+01
         vertex 1.500000e+01 1.600000e+01 -1.650000e+01
         vertex 1.507596e+01 1.600000e+01 -1.736824e+01
      endloop
   endfacet
   facet normal -0.000000e+00 1.000000e+00 0.000000e+00
      outer loop
         vertex -1.500000e+01 1.600000e+01 -9.500000e+00
         vertex -1.300000e+01 1.600000e+01 -7.500000e+00
         vertex -1.500000e+01 1.600000e+01 -1.650000e+01
      endloop
   endfacet
   facet normal -0.000000e+00 1.000000e+00 0.000000e+00
      outer loop
         vertex -1.300000e+01 1.600000e+01 -7.500000e+00
         vertex 1.300000e+01 1.600000e+01 -7.500000e+00
         vertex -1.500000e+01 1.600000e+01 -1.650000e+01
      endloop
   endfacet
   facet normal 0.000000e+00 1.000000e+00 0.000000e+00
      outer loop
         vertex 1.300000e+01 1.600000e+01 -7.500000e+00
         vertex 1.500000e+01 1.600000e+01 -9.500000e+00
         vertex -1.500000e+01 1.600000e+01 -1.650000e+01
      endloop
   endfacet
   facet normal 0.000000e+00 1.000000e+00 0.000000e+00
      outer loop
         vertex 1.500000e+01 1.600000e+01 -9.500000e+00
         vertex 1.500000e+01 1.600000e+01 -1.650000e+01
         vertex -1.500000e+01 1.600000e+01 -1.650000e+01
      endloop
   endfacet
endsolid