solid part01-10
   facet normal -7.071069e-01 0.000000e+00 7.071066e-01
      outer loop
         vertex -1.300000e+01 7.681741e-312 3.750000e+01
         vertex -1.500000e+01 9.000000e+00 3.550000e+01
         vertex -1.500000e+01 7.681741e-312 3.550000e+01
      endloop
   endfacet
   facet normal 7.071069e-01 0.000000e+00 7.071066e-01
      outer loop
         vertex 1.300000e+01 9.000000e+00 3.750000e+01
         vertex 1.300000e+01 7.681741e-312 3.750000e+01
         vertex 1.500000e+01 7.681741e-312 3.550000e+01
      endloop
   endfacet
   facet normal 7.071069e-01 0.000000e+00 7.071066e-01
      outer loop
         vertex 1.500000e+01 9.000000e+00 3.550000e+01
         vertex 1.300000e+01 9.000000e+00 3.750000e+01
         vertex 1.500000e+01 7.681741e-312 3.550000e+01
      endloop
   endfacet
   facet normal -7.071069e-01 0.000000e+00 7.071066e-01
      outer loop
         vertex -1.300000e+01 9.000000e+00 3.750000e+01
         vertex -1.500000e+01 9.000000e+00 3.550000e+01
         vertex -1.300000e+01 7.681741e-312 3.750000e+01
      endloop
   endfacet
endsolid