solid part01-2
   facet normal 0.000000e+00 0.000000e+00 1.000000e+00
      outer loop
         vertex -3.193412e+01 5.537981e+00 -2.150000e+01
         vertex -3.235505e+01 5.650769e+00 -2.150000e+01
         vertex -3.650000e+01 7.652603e-312 -2.150000e+01
      endloop
   endfacet
   facet normal 0.000000e+00 0.000000e+00 1.000000e+00
      outer loop
         vertex -3.400000e+01 8.000000e+00 -2.150000e+01
         vertex -3.650000e+01 1.600000e+01 -2.150000e+01
         vertex -3.650000e+01 7.652603e-312 -2.150000e+01
      endloop
   endfacet
   facet normal 0.000000e+00 0.000000e+00 1.000000e+00
      outer loop
         vertex -3.396202e+01 7.565880e+00 -2.150000e+01
         vertex -3.400000e+01 8.000000e+00 -2.150000e+01
         vertex -3.650000e+01 7.652603e-312 -2.150000e+01
      endloop
   endfacet
   facet normal 0.000000e+00 0.000000e+00 1.000000e+00
      outer loop
         vertex -3.341511e+01 6.393031e+00 -2.150000e+01
         vertex -3.366506e+01 6.750000e+00 -2.150000e+01
         vertex -3.650000e+01 7.652603e-312 -2.150000e+01
      endloop
   endfacet
   facet normal 0.000000e+00 0.000000e+00 1.000000e+00
      outer loop
         vertex -3.366506e+01 6.750000e+00 -2.150000e+01
         vertex -3.384923e+01 7.144950e+00 -2.150000e+01
         vertex -3.650000e+01 7.652603e-312 -2.150000e+01
      endloop
   endfacet
   facet normal 0.000000e+00 0.000000e+00 1.000000e+00
      outer loop
         vertex -3.384923e+01 7.144950e+00 -2.150000e+01
         vertex -3.396202e+01 7.565880e+00 -2.150000e+01
         vertex -3.650000e+01 7.652603e-312 -2.150000e+01
      endloop
   endfacet
   facet normal 0.000000e+00 0.000000e+00 1.000000e+00
      outer loop
         vertex -3.235505e+01 5.650769e+00 -2.150000e+01
         vertex -3.275000e+01 5.834937e+00 -2.150000e+01
         vertex -3.650000e+01 7.652603e-312 -2.150000e+01
      endloop
   endfacet
   facet normal 0.000000e+00 0.000000e+00 1.000000e+00
      outer loop
         vertex -3.275000e+01 5.834937e+00 -2.150000e+01
         vertex -3.310697e+01 6.084889e+00 -2.150000e+01
         vertex -3.650000e+01 7.652603e-312 -2.150000e+01
      endloop
   endfacet
   facet normal 0.000000e+00 0.000000e+00 1.000000e+00
      outer loop
         vertex -3.310697e+01 6.084889e+00 -2.150000e+01
         vertex -3.341511e+01 6.393031e+00 -2.150000e+01
         vertex -3.650000e+01 7.652603e-312 -2.150000e+01
      endloop
   endfacet
   facet normal 0.000000e+00 0.000000e+00 1.000000e+00
      outer loop
         vertex -2.000000e+01 7.652603e-312 -2.150000e+01
         vertex -3.106588e+01 5.537981e+00 -2.150000e+01
         vertex -3.650000e+01 7.652603e-312 -2.150000e+01
      endloop
   endfacet
   facet normal 0.000000e+00 0.000000e+00 1.000000e+00
      outer loop
         vertex -3.106588e+01 5.537981e+00 -2.150000e+01
         vertex -3.150000e+01 5.500000e+00 -2.150000e+01
         vertex -3.650000e+01 7.652603e-312 -2.150000e+01
      endloop
   endfacet
   facet normal 0.000000e+00 0.000000e+00 1.000000e+00
      outer loop
         vertex -3.150000e+01 5.500000e+00 -2.150000e+01
         vertex -3.193412e+01 5.537981e+00 -2.150000e+01
         vertex -3.650000e+01 7.652603e-312 -2.150000e+01
      endloop
   endfacet
   facet normal 0.000000e+00 0.000000e+00 1.000000e+00
      outer loop
         vertex -2.915077e+01 7.144950e+00 -2.150000e+01
         vertex -2.933494e+01 6.750000e+00 -2.150000e+01
         vertex -2.000000e+01 7.652603e-312 -2.150000e+01
      endloop
   endfacet
   facet normal 0.000000e+00 0.000000e+00 1.000000e+00
      outer loop
         vertex -2.933494e+01 6.750000e+00 -2.150000e+01
         vertex -2.958489e+01 6.393031e+00 -2.150000e+01
         vertex -2.000000e+01 7.652603e-312 -2.150000e+01
      endloop
   endfacet
   facet normal 0.000000e+00 0.000000e+00 1.000000e+00
      outer loop
         vertex -2.958489e+01 6.393031e+00 -2.150000e+01
         vertex -2.989303e+01 6.084889e+00 -2.150000e+01
         vertex -2.000000e+01 7.652603e-312 -2.150000e+01
      endloop
   endfacet
   facet normal 0.000000e+00 0.000000e+00 1.000000e+00
      outer loop
         vertex -2.989303e+01 6.084889e+00 -2.150000e+01
         vertex -3.025000e+01 5.834937e+00 -2.150000e+01
         vertex -2.000000e+01 7.652603e-312 -2.150000e+01
      endloop
   endfacet
   facet normal 0.000000e+00 0.000000e+00 1.000000e+00
      outer loop
         vertex -2.000000e+01 1.600000e+01 -2.150000e+01
         vertex -2.900000e+01 8.000000e+00 -2.150000e+01
         vertex -2.000000e+01 7.652603e-312 -2.150000e+01
      endloop
   endfacet
   facet normal 0.000000e+00 0.000000e+00 1.000000e+00
      outer loop
         vertex -2.900000e+01 8.000000e+00 -2.150000e+01
         vertex -2.903798e+01 7.565880e+00 -2.150000e+01
         vertex -2.000000e+01 7.652603e-312 -2.150000e+01
      endloop
   endfacet
   facet normal 0.000000e+00 0.000000e+00 1.000000e+00
      outer loop
         vertex -2.903798e+01 7.565880e+00 -2.150000e+01
         vertex -2.915077e+01 7.144950e+00 -2.150000e+01
         vertex -2.000000e+01 7.652603e-312 -2.150000e+01
      endloop
   endfacet
   facet normal 0.000000e+00 0.000000e+00 1.000000e+00
      outer loop
         vertex -3.025000e+01 5.834937e+00 -2.150000e+01
         vertex -3.064495e+01 5.650769e+00 -2.150000e+01
         vertex -2.000000e+01 7.652603e-312 -2.150000e+01
      endloop
   endfacet
   facet normal 0.000000e+00 0.000000e+00 1.000000e+00
      outer loop
         vertex -3.064495e+01 5.650769e+00 -2.150000e+01
         vertex -3.106588e+01 5.537981e+00 -2.150000e+01
         vertex -2.000000e+01 7.652603e-312 -2.150000e+01
      endloop
   endfacet
   facet normal -8.715711e-02 0.000000e+00 9.961946e-01
      outer loop
         vertex -1.913176e+01 7.652603e-312 -2.142404e+01
         vertex -1.913176e+01 1.600000e+01 -2.142404e+01
         vertex -2.000000e+01 7.652603e-312 -2.150000e+01
      endloop
   endfacet
   facet normal -8.715711e-02 0.000000e+00 9.961946e-01
      outer loop
         vertex -1.913176e+01 1.600000e+01 -2.142404e+01
         vertex -2.000000e+01 1.600000e+01 -2.150000e+01
         vertex -2.000000e+01 7.652603e-312 -2.150000e+01
      endloop
   endfacet
   facet normal 0.000000e+00 0.000000e+00 1.000000e+00
      outer loop
         vertex 3.064495e+01 5.650769e+00 -2.150000e+01
         vertex 3.025000e+01 5.834937e+00 -2.150000e+01
         vertex 2.000000e+01 7.652603e-312 -2.150000e+01
      endloop
   endfacet
   facet normal 0.000000e+00 0.000000e+00 1.000000e+00
      outer loop
         vertex 3.025000e+01 5.834937e+00 -2.150000e+01
         vertex 2.989303e+01 6.084889e+00 -2.150000e+01
         vertex 2.000000e+01 7.652603e-312 -2.150000e+01
      endloop
   endfacet
   facet normal 0.000000e+00 0.000000e+00 1.000000e+00
      outer loop
         vertex 2.989303e+01 6.084889e+00 -2.150000e+01
         vertex 2.958489e+01 6.393031e+00 -2.150000e+01
         vertex 2.000000e+01 7.652603e-312 -2.150000e+01
      endloop
   endfacet
   facet normal 0.000000e+00 0.000000e+00 1.000000e+00
      outer loop
         vertex 2.958489e+01 6.393031e+00 -2.150000e+01
         vertex 2.933494e+01 6.750000e+00 -2.150000e+01
         vertex 2.000000e+01 7.652603e-312 -2.150000e+01
      endloop
   endfacet
   facet normal 0.000000e+00 0.000000e+00 1.000000e+00
      outer loop
         vertex 2.933494e+01 6.750000e+00 -2.150000e+01
         vertex 2.915077e+01 7.144950e+00 -2.150000e+01
         vertex 2.000000e+01 7.652603e-312 -2.150000e+01
      endloop
   endfacet
   facet normal 0.000000e+00 0.000000e+00 1.000000e+00
      outer loop
         vertex 2.915077e+01 7.144950e+00 -2.150000e+01
         vertex 2.903798e+01 7.565880e+00 -2.150000e+01
         vertex 2.000000e+01 7.652603e-312 -2.150000e+01
      endloop
   endfacet
   facet normal 0.000000e+00 0.000000e+00 1.000000e+00
      outer loop
         vertex 2.903798e+01 7.565880e+00 -2.150000e+01
         vertex 2.000000e+01 1.600000e+01 -2.150000e+01
         vertex 2.000000e+01 7.652603e-312 -2.150000e+01
      endloop
   endfacet
   facet normal 0.000000e+00 0.000000e+00 1.000000e+00
      outer loop
         vertex 3.650000e+01 7.652603e-312 -2.150000e+01
         vertex 3.150000e+01 5.500000e+00 -2.150000e+01
         vertex 2.000000e+01 7.652603e-312 -2.150000e+01
      endloop
   endfacet
   facet normal 0.000000e+00 0.000000e+00 1.000000e+00
      outer loop
         vertex 3.150000e+01 5.500000e+00 -2.150000e+01
         vertex 3.106588e+01 5.537981e+00 -2.150000e+01
         vertex 2.000000e+01 7.652603e-312 -2.150000e+01
      endloop
   endfacet
   facet normal 0.000000e+00 0.000000e+00 1.000000e+00
      outer loop
         vertex 3.106588e+01 5.537981e+00 -2.150000e+01
         vertex 3.064495e+01 5.650769e+00 -2.150000e+01
         vertex 2.000000e+01 7.652603e-312 -2.150000e+01
      endloop
   endfacet
   facet normal 8.715711e-02 0.000000e+00 9.961946e-01
      outer loop
         vertex 2.000000e+01 1.600000e+01 -2.150000e+01
         vertex 1.913176e+01 7.652603e-312 -2.142404e+01
         vertex 2.000000e+01 7.652603e-312 -2.150000e+01
      endloop
   endfacet
   facet normal 0.000000e+00 0.000000e+00 1.000000e+00
      outer loop
         vertex 3.366506e+01 6.750000e+00 -2.150000e+01
         vertex 3.341511e+01 6.393031e+00 -2.150000e+01
         vertex 3.650000e+01 7.652603e-312 -2.150000e+01
      endloop
   endfacet
   facet normal 0.000000e+00 0.000000e+00 1.000000e+00
      outer loop
         vertex 3.384923e+01 7.144950e+00 -2.150000e+01
         vertex 3.366506e+01 6.750000e+00 -2.150000e+01
         vertex 3.650000e+01 7.652603e-312 -2.150000e+01
      endloop
   endfacet
   facet normal 0.000000e+00 0.000000e+00 1.000000e+00
      outer loop
         vertex 3.650000e+01 1.600000e+01 -2.150000e+01
         vertex 3.400000e+01 8.000000e+00 -2.150000e+01
         vertex 3.650000e+01 7.652603e-312 -2.150000e+01
      endloop
   endfacet
   facet normal 0.000000e+00 0.000000e+00 1.000000e+00
      outer loop
         vertex 3.400000e+01 8.000000e+00 -2.150000e+01
         vertex 3.396202e+01 7.565880e+00 -2.150000e+01
         vertex 3.650000e+01 7.652603e-312 -2.150000e+01
      endloop
   endfacet
   facet normal 0.000000e+00 0.000000e+00 1.000000e+00
      outer loop
         vertex 3.396202e+01 7.565880e+00 -2.150000e+01
         vertex 3.384923e+01 7.144950e+00 -2.150000e+01
         vertex 3.650000e+01 7.652603e-312 -2.150000e+01
      endloop
   endfacet
   facet normal 0.000000e+00 0.000000e+00 1.000000e+00
      outer loop
         vertex 3.341511e+01 6.393031e+00 -2.150000e+01
         vertex 3.310697e+01 6.084889e+00 -2.150000e+01
         vertex 3.650000e+01 7.652603e-312 -2.150000e+01
      endloop
   endfacet
   facet normal 0.000000e+00 0.000000e+00 1.000000e+00
      outer loop
         vertex 3.310697e+01 6.084889e+00 -2.150000e+01
         vertex 3.275000e+01 5.834937e+00 -2.150000e+01
         vertex 3.650000e+01 7.652603e-312 -2.150000e+01
      endloop
   endfacet
   facet normal 0.000000e+00 0.000000e+00 1.000000e+00
      outer loop
         vertex 3.275000e+01 5.834937e+00 -2.150000e+01
         vertex 3.235505e+01 5.650769e+00 -2.150000e+01
         vertex 3.650000e+01 7.652603e-312 -2.150000e+01
      endloop
   endfacet
   facet normal 0.000000e+00 0.000000e+00 1.000000e+00
      outer loop
         vertex 3.235505e+01 5.650769e+00 -2.150000e+01
         vertex 3.193412e+01 5.537981e+00 -2.150000e+01
         vertex 3.650000e+01 7.652603e-312 -2.150000e+01
      endloop
   endfacet
   facet normal 0.000000e+00 0.000000e+00 1.000000e+00
      outer loop
         vertex 3.193412e+01 5.537981e+00 -2.150000e+01
         vertex 3.150000e+01 5.500000e+00 -2.150000e+01
         vertex 3.650000e+01 7.652603e-312 -2.150000e+01
      endloop
   endfacet
   facet normal -2.588191e-01 0.000000e+00 9.659258e-01
      outer loop
         vertex -1.828990e+01 7.652603e-312 -2.119846e+01
         vertex -1.828990e+01 1.600000e+01 -2.119846e+01
         vertex -1.913176e+01 7.652603e-312 -2.142404e+01
      endloop
   endfacet
   facet normal -2.588191e-01 0.000000e+00 9.659258e-01
      outer loop
         vertex -1.828990e+01 1.600000e+01 -2.119846e+01
         vertex -1.913176e+01 1.600000e+01 -2.142404e+01
         vertex -1.913176e+01 7.652603e-312 -2.142404e+01
      endloop
   endfacet
   facet normal 8.715711e-02 0.000000e+00 9.961946e-01
      outer loop
         vertex 2.000000e+01 1.600000e+01 -2.150000e+01
         vertex 1.913176e+01 1.600000e+01 -2.142404e+01
         vertex 1.913176e+01 7.652603e-312 -2.142404e+01
      endloop
   endfacet
   facet normal 2.588191e-01 0.000000e+00 9.659258e-01
      outer loop
         vertex 1.913176e+01 1.600000e+01 -2.142404e+01
         vertex 1.828990e+01 7.652603e-312 -2.119846e+01
         vertex 1.913176e+01 7.652603e-312 -2.142404e+01
      endloop
   endfacet
   facet normal -4.226183e-01 0.000000e+00 9.063077e-01
      outer loop
         vertex -1.750000e+01 7.652603e-312 -2.083013e+01
         vertex -1.750000e+01 1.600000e+01 -2.083013e+01
         vertex -1.828990e+01 7.652603e-312 -2.119846e+01
      endloop
   endfacet
   facet normal -4.226183e-01 0.000000e+00 9.063077e-01
      outer loop
         vertex -1.750000e+01 1.600000e+01 -2.083013e+01
         vertex -1.828990e+01 1.600000e+01 -2.119846e+01
         vertex -1.828990e+01 7.652603e-312 -2.119846e+01
      endloop
   endfacet
   facet normal 2.588191e-01 0.000000e+00 9.659258e-01
      outer loop
         vertex 1.913176e+01 1.600000e+01 -2.142404e+01
         vertex 1.828990e+01 1.600000e+01 -2.119846e+01
         vertex 1.828990e+01 7.652603e-312 -2.119846e+01
      endloop
   endfacet
   facet normal 4.226183e-01 0.000000e+00 9.063077e-01
      outer loop
         vertex 1.828990e+01 1.600000e+01 -2.119846e+01
         vertex 1.750000e+01 7.652603e-312 -2.083013e+01
         vertex 1.828990e+01 7.652603e-312 -2.119846e+01
      endloop
   endfacet
   facet normal -5.735755e-01 0.000000e+00 8.191527e-01
      outer loop
         vertex -1.678606e+01 7.652603e-312 -2.033022e+01
         vertex -1.678606e+01 1.600000e+01 -2.033022e+01
         vertex -1.750000e+01 7.652603e-312 -2.083013e+01
      endloop
   endfacet
   facet normal -5.735755e-01 0.000000e+00 8.191527e-01
      outer loop
         vertex -1.678606e+01 1.600000e+01 -2.033022e+01
         vertex -1.750000e+01 1.600000e+01 -2.083013e+01
         vertex -1.750000e+01 7.652603e-312 -2.083013e+01
      endloop
   endfacet
   facet normal 4.226183e-01 0.000000e+00 9.063077e-01
      outer loop
         vertex 1.828990e+01 1.600000e+01 -2.119846e+01
         vertex 1.750000e+01 1.600000e+01 -2.083013e+01
         vertex 1.750000e+01 7.652603e-312 -2.083013e+01
      endloop
   endfacet
   facet normal 5.735755e-01 0.000000e+00 8.191527e-01
      outer loop
         vertex 1.750000e+01 1.600000e+01 -2.083013e+01
         vertex 1.678606e+01 7.652603e-312 -2.033022e+01
         vertex 1.750000e+01 7.652603e-312 -2.083013e+01
      endloop
   endfacet
   facet normal -7.071068e-01 0.000000e+00 7.071068e-01
      outer loop
         vertex -1.616978e+01 7.652603e-312 -1.971394e+01
         vertex -1.616978e+01 1.600000e+01 -1.971394e+01
         vertex -1.678606e+01 7.652603e-312 -2.033022e+01
      endloop
   endfacet
   facet normal -7.071068e-01 0.000000e+00 7.071068e-01
      outer loop
         vertex -1.616978e+01 1.600000e+01 -1.971394e+01
         vertex -1.678606e+01 1.600000e+01 -2.033022e+01
         vertex -1.678606e+01 7.652603e-312 -2.033022e+01
      endloop
   endfacet
   facet normal 5.735755e-01 0.000000e+00 8.191527e-01
      outer loop
         vertex 1.750000e+01 1.600000e+01 -2.083013e+01
         vertex 1.678606e+01 1.600000e+01 -2.033022e+01
         vertex 1.678606e+01 7.652603e-312 -2.033022e+01
      endloop
   endfacet
   facet normal 7.071068e-01 0.000000e+00 7.071068e-01
      outer loop
         vertex 1.678606e+01 1.600000e+01 -2.033022e+01
         vertex 1.616978e+01 7.652603e-312 -1.971394e+01
         vertex 1.678606e+01 7.652603e-312 -2.033022e+01
      endloop
   endfacet
   facet normal -8.191527e-01 0.000000e+00 5.735755e-01
      outer loop
         vertex -1.566987e+01 7.652603e-312 -1.900000e+01
         vertex -1.566987e+01 1.600000e+01 -1.900000e+01
         vertex -1.616978e+01 7.652603e-312 -1.971394e+01
      endloop
   endfacet
   facet normal -8.191527e-01 0.000000e+00 5.735755e-01
      outer loop
         vertex -1.566987e+01 1.600000e+01 -1.900000e+01
         vertex -1.616978e+01 1.600000e+01 -1.971394e+01
         vertex -1.616978e+01 7.652603e-312 -1.971394e+01
      endloop
   endfacet
   facet normal 7.071068e-01 0.000000e+00 7.071068e-01
      outer loop
         vertex 1.678606e+01 1.600000e+01 -2.033022e+01
         vertex 1.616978e+01 1.600000e+01 -1.971394e+01
         vertex 1.616978e+01 7.652603e-312 -1.971394e+01
      endloop
   endfacet
   facet normal 8.191527e-01 0.000000e+00 5.735755e-01
      outer loop
         vertex 1.616978e+01 1.600000e+01 -1.971394e+01
         vertex 1.566987e+01 7.652603e-312 -1.900000e+01
         vertex 1.616978e+01 7.652603e-312 -1.971394e+01
      endloop
   endfacet
   facet normal -9.063077e-01 0.000000e+00 4.226183e-01
      outer loop
         vertex -1.530154e+01 7.652603e-312 -1.821010e+01
         vertex -1.530154e+01 1.600000e+01 -1.821010e+01
         vertex -1.566987e+01 7.652603e-312 -1.900000e+01
      endloop
   endfacet
   facet normal -9.063077e-01 0.000000e+00 4.226183e-01
      outer loop
         vertex -1.530154e+01 1.600000e+01 -1.821010e+01
         vertex -1.566987e+01 1.600000e+01 -1.900000e+01
         vertex -1.566987e+01 7.652603e-312 -1.900000e+01
      endloop
   endfacet
   facet normal 8.191527e-01 0.000000e+00 5.735755e-01
      outer loop
         vertex 1.616978e+01 1.600000e+01 -1.971394e+01
         vertex 1.566987e+01 1.600000e+01 -1.900000e+01
         vertex 1.566987e+01 7.652603e-312 -1.900000e+01
      endloop
   endfacet
   facet normal 9.063077e-01 0.000000e+00 4.226183e-01
      outer loop
         vertex 1.566987e+01 1.600000e+01 -1.900000e+01
         vertex 1.530154e+01 7.652603e-312 -1.821010e+01
         vertex 1.566987e+01 7.652603e-312 -1.900000e+01
      endloop
   endfacet
   facet normal -9.659258e-01 0.000000e+00 2.588191e-01
      outer loop
         vertex -1.507596e+01 7.652603e-312 -1.736824e+01
         vertex -1.507596e+01 1.600000e+01 -1.736824e+01
         vertex -1.530154e+01 7.652603e-312 -1.821010e+01
      endloop
   endfacet
   facet normal -9.659258e-01 0.000000e+00 2.588191e-01
      outer loop
         vertex -1.507596e+01 1.600000e+01 -1.736824e+01
         vertex -1.530154e+01 1.600000e+01 -1.821010e+01
         vertex -1.530154e+01 7.652603e-312 -1.821010e+01
      endloop
   endfacet
   facet normal 9.063077e-01 0.000000e+00 4.226183e-01
      outer loop
         vertex 1.566987e+01 1.600000e+01 -1.900000e+01
         vertex 1.530154e+01 1.600000e+01 -1.821010e+01
         vertex 1.530154e+01 7.652603e-312 -1.821010e+01
      endloop
   endfacet
   facet normal 9.659258e-01 0.000000e+00 2.588191e-01
      outer loop
         vertex 1.530154e+01 1.600000e+01 -1.821010e+01
         vertex 1.507596e+01 7.652603e-312 -1.736824e+01
         vertex 1.530154e+01 7.652603e-312 -1.821010e+01
      endloop
   endfacet
   facet normal -9.961947e-01 0.000000e+00 8.715605e-02
      outer loop
         vertex -1.500000e+01 7.652603e-312 -1.650000e+01
         vertex -1.500000e+01 1.600000e+01 -1.650000e+01
         vertex -1.507596e+01 7.652603e-312 -1.736824e+01
      endloop
   endfacet
   facet normal -9.961947e-01 0.000000e+00 8.715605e-02
      outer loop
         vertex -1.500000e+01 1.600000e+01 -1.650000e+01
         vertex -1.507596e+01 1.600000e+01 -1.736824e+01
         vertex -1.507596e+01 7.652603e-312 -1.736824e+01
      endloop
   endfacet
   facet normal 9.659258e-01 0.000000e+00 2.588191e-01
      outer loop
         vertex 1.530154e+01 1.600000e+01 -1.821010e+01
         vertex 1.507596e+01 1.600000e+01 -1.736824e+01
         vertex 1.507596e+01 7.652603e-312 -1.736824e+01
      endloop
   endfacet
   facet normal 9.961947e-01 0.000000e+00 8.715605e-02
      outer loop
         vertex 1.507596e+01 1.600000e+01 -1.736824e+01
         vertex 1.500000e+01 7.652603e-312 -1.650000e+01
         vertex 1.507596e+01 7.652603e-312 -1.736824e+01
      endloop
   endfacet
   facet normal -1.000000e+00 0.000000e+00 -0.000000e+00
      outer loop
         vertex -1.500000e+01 9.000000e+00 -9.500000e+00
         vertex -1.500000e+01 1.600000e+01 -1.650000e+01
         vertex -1.500000e+01 7.652603e-312 -1.650000e+01
      endloop
   endfacet
   facet normal -1.000000e+00 0.000000e+00 -0.000000e+00
      outer loop
         vertex -1.500000e+01 9.000000e+00 3.550000e+01
         vertex -1.500000e+01 9.000000e+00 -9.500000e+00
         vertex -1.500000e+01 7.652603e-312 -1.650000e+01
      endloop
   endfacet
   facet normal -1.000000e+00 0.000000e+00 0.000000e+00
      outer loop
         vertex -1.500000e+01 7.652603e-312 3.550000e+01
         vertex -1.500000e+01 9.000000e+00 3.550000e+01
         vertex -1.500000e+01 7.652603e-312 -1.650000e+01
      endloop
   endfacet
   facet normal 1.000000e+00 0.000000e+00 0.000000e+00
      outer loop
         vertex 1.500000e+01 9.000000e+00 -9.500000e+00
         vertex 1.500000e+01 7.652603e-312 3.550000e+01
         vertex 1.500000e+01 7.652603e-312 -1.650000e+01
      endloop
   endfacet
   facet normal 1.000000e+00 0.000000e+00 0.000000e+00
      outer loop
         vertex 1.500000e+01 1.600000e+01 -9.500000e+00
         vertex 1.500000e+01 9.000000e+00 -9.500000e+00
         vertex 1.500000e+01 7.652603e-312 -1.650000e+01
      endloop
   endfacet
   facet normal 1.000000e+00 0.000000e+00 -0.000000e+00
      outer loop
         vertex 1.500000e+01 1.600000e+01 -1.650000e+01
         vertex 1.500000e+01 1.600000e+01 -9.500000e+00
         vertex 1.500000e+01 7.652603e-312 -1.650000e+01
      endloop
   endfacet
   facet normal 9.961947e-01 0.000000e+00 8.715605e-02
      outer loop
         vertex 1.507596e+01 1.600000e+01 -1.736824e+01
         vertex 1.500000e+01 1.600000e+01 -1.650000e+01
         vertex 1.500000e+01 7.652603e-312 -1.650000e+01
      endloop
   endfacet
   facet normal 1.000000e+00 0.000000e+00 -0.000000e+00
      outer loop
         vertex 1.500000e+01 9.000000e+00 -9.500000e+00
         vertex 1.500000e+01 9.000000e+00 3.550000e+01
         vertex 1.500000e+01 7.652603e-312 3.550000e+01
      endloop
   endfacet
   facet normal 0.000000e+00 0.000000e+00 1.000000e+00
      outer loop
         vertex 2.900000e+01 8.000000e+00 -2.150000e+01
         vertex 2.000000e+01 1.600000e+01 -2.150000e+01
         vertex 2.903798e+01 7.565880e+00 -2.150000e+01
      endloop
   endfacet
   facet normal 0.000000e+00 0.000000e+00 1.000000e+00
      outer loop
         vertex -3.396202e+01 8.434121e+00 -2.150000e+01
         vertex -3.650000e+01 1.600000e+01 -2.150000e+01
         vertex -3.400000e+01 8.000000e+00 -2.150000e+01
      endloop
   endfacet
   facet normal 0.000000e+00 0.000000e+00 1.000000e+00
      outer loop
         vertex -2.000000e+01 1.600000e+01 -2.150000e+01
         vertex -2.903798e+01 8.434121e+00 -2.150000e+01
         vertex -2.900000e+01 8.000000e+00 -2.150000e+01
      endloop
   endfacet
   facet normal 0.000000e+00 0.000000e+00 1.000000e+00
      outer loop
         vertex 2.903798e+01 8.434121e+00 -2.150000e+01
         vertex 2.000000e+01 1.600000e+01 -2.150000e+01
         vertex 2.900000e+01 8.000000e+00 -2.150000e+01
      endloop
   endfacet
   facet normal 0.000000e+00 0.000000e+00 1.000000e+00
      outer loop
         vertex 3.650000e+01 1.600000e+01 -2.150000e+01
         vertex 3.396202e+01 8.434121e+00 -2.150000e+01
         vertex 3.400000e+01 8.000000e+00 -2.150000e+01
      endloop
   endfacet
   facet normal 0.000000e+00 0.000000e+00 1.000000e+00
      outer loop
         vertex -3.384923e+01 8.855050e+00 -2.150000e+01
         vertex -3.650000e+01 1.600000e+01 -2.150000e+01
         vertex -3.396202e+01 8.434121e+00 -2.150000e+01
      endloop
   endfacet
   facet normal 0.000000e+00 0.000000e+00 1.000000e+00
      outer loop
         vertex -2.000000e+01 1.600000e+01 -2.150000e+01
         vertex -2.915077e+01 8.855050e+00 -2.150000e+01
         vertex -2.903798e+01 8.434121e+00 -2.150000e+01
      endloop
   endfacet
   facet normal 0.000000e+00 0.000000e+00 1.000000e+00
      outer loop
         vertex 2.915077e+01 8.855050e+00 -2.150000e+01
         vertex 2.000000e+01 1.600000e+01 -2.150000e+01
         vertex 2.903798e+01 8.434121e+00 -2.150000e+01
      endloop
   endfacet
   facet normal 0.000000e+00 0.000000e+00 1.000000e+00
      outer loop
         vertex 3.650000e+01 1.600000e+01 -2.150000e+01
         vertex 3.384923e+01 8.855050e+00 -2.150000e+01
         vertex 3.396202e+01 8.434121e+00 -2.150000e+01
      endloop
   endfacet
   facet normal 0.000000e+00 0.000000e+00 1.000000e+00
      outer loop
         vertex -3.366506e+01 9.250000e+00 -2.150000e+01
         vertex -3.650000e+01 1.600000e+01 -2.150000e+01
         vertex -3.384923e+01 8.855050e+00 -2.150000e+01
      endloop
   endfacet
   facet normal 0.000000e+00 0.000000e+00 1.000000e+00
      outer loop
         vertex -2.000000e+01 1.600000e+01 -2.150000e+01
         vertex -2.933494e+01 9.250000e+00 -2.150000e+01
         vertex -2.915077e+01 8.855050e+00 -2.150000e+01
      endloop
   endfacet
   facet normal 0.000000e+00 0.000000e+00 1.000000e+00
      outer loop
         vertex 2.933494e+01 9.250000e+00 -2.150000e+01
         vertex 2.000000e+01 1.600000e+01 -2.150000e+01
         vertex 2.915077e+01 8.855050e+00 -2.150000e+01
      endloop
   endfacet
   facet normal 0.000000e+00 0.000000e+00 1.000000e+00
      outer loop
         vertex 3.650000e+01 1.600000e+01 -2.150000e+01
         vertex 3.366506e+01 9.250000e+00 -2.150000e+01
         vertex 3.384923e+01 8.855050e+00 -2.150000e+01
      endloop
   endfacet
   facet normal -1.000000e+00 -0.000000e+00 -0.000000e+00
      outer loop
         vertex -1.500000e+01 1.600000e+01 -9.500000e+00
         vertex -1.500000e+01 1.600000e+01 -1.650000e+01
         vertex -1.500000e+01 9.000000e+00 -9.500000e+00
      endloop
   endfacet
   facet normal 0.000000e+00 0.000000e+00 1.000000e+00
      outer loop
         vertex -3.341511e+01 9.606969e+00 -2.150000e+01
         vertex -3.650000e+01 1.600000e+01 -2.150000e+01
         vertex -3.366506e+01 9.250000e+00 -2.150000e+01
      endloop
   endfacet
   facet normal 0.000000e+00 0.000000e+00 1.000000e+00
      outer loop
         vertex -2.000000e+01 1.600000e+01 -2.150000e+01
         vertex -2.958489e+01 9.606969e+00 -2.150000e+01
         vertex -2.933494e+01 9.250000e+00 -2.150000e+01
      endloop
   endfacet
   facet normal 0.000000e+00 0.000000e+00 1.000000e+00
      outer loop
         vertex 2.958489e+01 9.606969e+00 -2.150000e+01
         vertex 2.000000e+01 1.600000e+01 -2.150000e+01
         vertex 2.933494e+01 9.250000e+00 -2.150000e+01
      endloop
   endfacet
   facet normal 0.000000e+00 0.000000e+00 1.000000e+00
      outer loop
         vertex 3.650000e+01 1.600000e+01 -2.150000e+01
         vertex 3.341511e+01 9.606969e+00 -2.150000e+01
         vertex 3.366506e+01 9.250000e+00 -2.150000e+01
      endloop
   endfacet
   facet normal 0.000000e+00 0.000000e+00 1.000000e+00
      outer loop
         vertex -3.310697e+01 9.915111e+00 -2.150000e+01
         vertex -3.650000e+01 1.600000e+01 -2.150000e+01
         vertex -3.341511e+01 9.606969e+00 -2.150000e+01
      endloop
   endfacet
   facet normal 0.000000e+00 0.000000e+00 1.000000e+00
      outer loop
         vertex -2.000000e+01 1.600000e+01 -2.150000e+01
         vertex -2.989303e+01 9.915111e+00 -2.150000e+01
         vertex -2.958489e+01 9.606969e+00 -2.150000e+01
      endloop
   endfacet
   facet normal 0.000000e+00 0.000000e+00 1.000000e+00
      outer loop
         vertex 2.989303e+01 9.915111e+00 -2.150000e+01
         vertex 2.000000e+01 1.600000e+01 -2.150000e+01
         vertex 2.958489e+01 9.606969e+00 -2.150000e+01
      endloop
   endfacet
   facet normal 0.000000e+00 0.000000e+00 1.000000e+00
      outer loop
         vertex 3.650000e+01 1.600000e+01 -2.150000e+01
         vertex 3.310697e+01 9.915111e+00 -2.150000e+01
         vertex 3.341511e+01 9.606969e+00 -2.150000e+01
      endloop
   endfacet
   facet normal 0.000000e+00 0.000000e+00 1.000000e+00
      outer loop
         vertex -3.275000e+01 1.016506e+01 -2.150000e+01
         vertex -3.650000e+01 1.600000e+01 -2.150000e+01
         vertex -3.310697e+01 9.915111e+00 -2.150000e+01
      endloop
   endfacet
   facet normal 0.000000e+00 0.000000e+00 1.000000e+00
      outer loop
         vertex -2.000000e+01 1.600000e+01 -2.150000e+01
         vertex -3.025000e+01 1.016506e+01 -2.150000e+01
         vertex -2.989303e+01 9.915111e+00 -2.150000e+01
      endloop
   endfacet
   facet normal 0.000000e+00 0.000000e+00 1.000000e+00
      outer loop
         vertex 3.025000e+01 1.016506e+01 -2.150000e+01
         vertex 2.000000e+01 1.600000e+01 -2.150000e+01
         vertex 2.989303e+01 9.915111e+00 -2.150000e+01
      endloop
   endfacet
   facet normal 0.000000e+00 0.000000e+00 1.000000e+00
      outer loop
         vertex 3.650000e+01 1.600000e+01 -2.150000e+01
         vertex 3.275000e+01 1.016506e+01 -2.150000e+01
         vertex 3.310697e+01 9.915111e+00 -2.150000e+01
      endloop
   endfacet
   facet normal 0.000000e+00 0.000000e+00 1.000000e+00
      outer loop
         vertex -3.235505e+01 1.034923e+01 -2.150000e+01
         vertex -3.650000e+01 1.600000e+01 -2.150000e+01
         vertex -3.275000e+01 1.016506e+01 -2.150000e+01
      endloop
   endfacet
   facet normal 0.000000e+00 0.000000e+00 1.000000e+00
      outer loop
         vertex -2.000000e+01 1.600000e+01 -2.150000e+01
         vertex -3.064495e+01 1.034923e+01 -2.150000e+01
         vertex -3.025000e+01 1.016506e+01 -2.150000e+01
      endloop
   endfacet
   facet normal 0.000000e+00 0.000000e+00 1.000000e+00
      outer loop
         vertex 3.064495e+01 1.034923e+01 -2.150000e+01
         vertex 2.000000e+01 1.600000e+01 -2.150000e+01
         vertex 3.025000e+01 1.016506e+01 -2.150000e+01
      endloop
   endfacet
   facet normal 0.000000e+00 0.000000e+00 1.000000e+00
      outer loop
         vertex 3.650000e+01 1.600000e+01 -2.150000e+01
         vertex 3.235505e+01 1.034923e+01 -2.150000e+01
         vertex 3.275000e+01 1.016506e+01 -2.150000e+01
      endloop
   endfacet
   facet normal 0.000000e+00 0.000000e+00 1.000000e+00
      outer loop
         vertex -3.193412e+01 1.046202e+01 -2.150000e+01
         vertex -3.650000e+01 1.600000e+01 -2.150000e+01
         vertex -3.235505e+01 1.034923e+01 -2.150000e+01
      endloop
   endfacet
   facet normal 0.000000e+00 0.000000e+00 1.000000e+00
      outer loop
         vertex -2.000000e+01 1.600000e+01 -2.150000e+01
         vertex -3.106588e+01 1.046202e+01 -2.150000e+01
         vertex -3.064495e+01 1.034923e+01 -2.150000e+01
      endloop
   endfacet
   facet normal 0.000000e+00 0.000000e+00 1.000000e+00
      outer loop
         vertex 3.106588e+01 1.046202e+01 -2.150000e+01
         vertex 2.000000e+01 1.600000e+01 -2.150000e+01
         vertex 3.064495e+01 1.034923e+01 -2.150000e+01
      endloop
   endfacet
   facet normal 0.000000e+00 0.000000e+00 1.000000e+00
      outer loop
         vertex 3.650000e+01 1.600000e+01 -2.150000e+01
         vertex 3.193412e+01 1.046202e+01 -2.150000e+01
         vertex 3.235505e+01 1.034923e+01 -2.150000e+01
      endloop
   endfacet
   facet normal 0.000000e+00 0.000000e+00 1.000000e+00
      outer loop
         vertex -3.150000e+01 1.050000e+01 -2.150000e+01
         vertex -3.650000e+01 1.600000e+01 -2.150000e+01
         vertex -3.193412e+01 1.046202e+01 -2.150000e+01
      endloop
   endfacet
   facet normal 0.000000e+00 0.000000e+00 1.000000e+00
      outer loop
         vertex -2.000000e+01 1.600000e+01 -2.150000e+01
         vertex -3.150000e+01 1.050000e+01 -2.150000e+01
         vertex -3.106588e+01 1.046202e+01 -2.150000e+01
      endloop
   endfacet
   facet normal 0.000000e+00 0.000000e+00 1.000000e+00
      outer loop
         vertex 3.650000e+01 1.600000e+01 -2.150000e+01
         vertex 2.000000e+01 1.600000e+01 -2.150000e+01
         vertex 3.106588e+01 1.046202e+01 -2.150000e+01
      endloop
   endfacet
   facet normal 0.000000e+00 -0.000000e+00 1.000000e+00
      outer loop
         vertex 3.150000e+01 1.050000e+01 -2.150000e+01
         vertex 3.650000e+01 1.600000e+01 -2.150000e+01
         vertex 3.106588e+01 1.046202e+01 -2.150000e+01
      endloop
   endfacet
   facet normal 0.000000e+00 0.000000e+00 1.000000e+00
      outer loop
         vertex 3.650000e+01 1.600000e+01 -2.150000e+01
         vertex 3.150000e+01 1.050000e+01 -2.150000e+01
         vertex 3.193412e+01 1.046202e+01 -2.150000e+01
      endloop
   endfacet
   facet normal 0.000000e+00 0.000000e+00 1.000000e+00
      outer loop
         vertex -2.000000e+01 1.600000e+01 -2.150000e+01
         vertex -3.650000e+01 1.600000e+01 -2.150000e+01
         vertex -3.150000e+01 1.050000e+01 -2.150000e+01
      endloop
   endfacet
endsolid