solid part01-7
   facet normal -1.000000e+00 0.000000e+00 -0.000000e+00
      outer loop
         vertex -3.750000e+01 1.600000e+01 -3.050000e+01
         vertex -3.750000e+01 1.600000e+01 -3.650000e+01
         vertex -3.750000e+01 7.679443e-312 -3.650000e+01
      endloop
   endfacet
   facet normal -1.000000e+00 0.000000e+00 0.000000e+00
      outer loop
         vertex -3.750000e+01 7.679443e-312 -3.050000e+01
         vertex -3.750000e+01 1.600000e+01 -3.050000e+01
         vertex -3.750000e+01 7.679443e-312 -3.650000e+01
      endloop
   endfacet
   facet normal 1.000000e+00 0.000000e+00 0.000000e+00
      outer loop
         vertex 3.750000e+01 1.600000e+01 -3.050000e+01
         vertex 3.750000e+01 7.679443e-312 -3.050000e+01
         vertex 3.750000e+01 7.679443e-312 -3.650000e+01
      endloop
   endfacet
   facet normal 1.000000e+00 0.000000e+00 -0.000000e+00
      outer loop
         vertex 3.750000e+01 1.600000e+01 -3.650000e+01
         vertex 3.750000e+01 1.600000e+01 -3.050000e+01
         vertex 3.750000e+01 7.679443e-312 -3.650000e+01
      endloop
   endfacet
   facet normal -1.000000e+00 0.000000e+00 0.000000e+00
      outer loop
         vertex -3.750000e+01 7.679443e-312 -2.250000e+01
         vertex -3.750000e+01 1.600000e+01 -2.250000e+01
         vertex -3.750000e+01 7.679443e-312 -2.850000e+01
      endloop
   endfacet
   facet normal -1.000000e+00 0.000000e+00 -0.000000e+00
      outer loop
         vertex -3.750000e+01 1.600000e+01 -2.250000e+01
         vertex -3.750000e+01 1.600000e+01 -2.850000e+01
         vertex -3.750000e+01 7.679443e-312 -2.850000e+01
      endloop
   endfacet
   facet normal 1.000000e+00 0.000000e+00 -0.000000e+00
      outer loop
         vertex 3.750000e+01 1.600000e+01 -2.850000e+01
         vertex 3.750000e+01 1.600000e+01 -2.250000e+01
         vertex 3.750000e+01 7.679443e-312 -2.850000e+01
      endloop
   endfacet
   facet normal 1.000000e+00 0.000000e+00 0.000000e+00
      outer loop
         vertex 3.750000e+01 1.600000e+01 -2.250000e+01
         vertex 3.750000e+01 7.679443e-312 -2.250000e+01
         vertex 3.750000e+01 7.679443e-312 -2.850000e+01
      endloop
   endfacet
endsolid