solid part01-12
   facet normal -7.071061e-01 0.000000e+00 7.071074e-01
      outer loop
         vertex -3.650000e+01 3.588213e-312 -2.150000e+01
         vertex -3.750000e+01 1.600000e+01 -2.250000e+01
         vertex -3.750000e+01 3.588213e-312 -2.250000e+01
      endloop
   endfacet
   facet normal 7.071061e-01 0.000000e+00 7.071074e-01
      outer loop
         vertex 3.650000e+01 1.600000e+01 -2.150000e+01
         vertex 3.650000e+01 3.588213e-312 -2.150000e+01
         vertex 3.750000e+01 3.588213e-312 -2.250000e+01
      endloop
   endfacet
   facet normal 7.071061e-01 0.000000e+00 7.071074e-01
      outer loop
         vertex 3.750000e+01 1.600000e+01 -2.250000e+01
         vertex 3.650000e+01 1.600000e+01 -2.150000e+01
         vertex 3.750000e+01 3.588213e-312 -2.250000e+01
      endloop
   endfacet
   facet normal -7.071061e-01 0.000000e+00 7.071074e-01
      outer loop
         vertex -3.650000e+01 1.600000e+01 -2.150000e+01
         vertex -3.750000e+01 1.600000e+01 -2.250000e+01
         vertex -3.650000e+01 3.588213e-312 -2.150000e+01
      endloop
   endfacet
endsolid