solid 7-4
   facet normal -1.000000e+00 0.000000e+00 0.000000e+00
      outer loop
         vertex -2.500000e+01 1.500000e+01 3.500000e+01
         vertex -2.500000e+01 5.500000e+01 -3.500000e+01
         vertex -2.500000e+01 1.500000e+01 -3.500000e+01
      endloop
   endfacet
   facet normal 1.000000e+00 0.000000e+00 -0.000000e+00
      outer loop
         vertex 2.500000e+01 5.500000e+01 -3.500000e+01
         vertex 2.500000e+01 5.500000e+01 3.500000e+01
         vertex 2.500000e+01 1.500000e+01 -3.500000e+01
      endloop
   endfacet
   facet normal 1.000000e+00 0.000000e+00 0.000000e+00
      outer loop
         vertex 2.500000e+01 5.500000e+01 3.500000e+01
         vertex 2.500000e+01 1.500000e+01 3.500000e+01
         vertex 2.500000e+01 1.500000e+01 -3.500000e+01
      endloop
   endfacet
   facet normal -1.000000e+00 -0.000000e+00 -0.000000e+00
      outer loop
         vertex -2.500000e+01 5.500000e+01 3.500000e+01
         vertex -2.500000e+01 5.500000e+01 -3.500000e+01
         vertex -2.500000e+01 1.500000e+01 3.500000e+01
      endloop
   endfacet
endsolid