solid 7-5
   facet normal -1.000000e+00 0.000000e+00 -0.000000e+00
      outer loop
         vertex -5.000000e+01 1.500000e+01 3.500000e+01
         vertex -5.000000e+01 1.500000e+01 -3.500000e+01
         vertex -5.000000e+01 7.340883e-313 -3.500000e+01
      endloop
   endfacet
   facet normal -1.000000e+00 0.000000e+00 0.000000e+00
      outer loop
         vertex -5.000000e+01 7.340883e-313 1.600000e+01
         vertex -5.000000e+01 1.500000e+01 3.500000e+01
         vertex -5.000000e+01 7.340883e-313 -3.500000e+01
      endloop
   endfacet
   facet normal 1.000000e+00 0.000000e+00 0.000000e+00
      outer loop
         vertex 5.000000e+01 1.500000e+01 -3.500000e+01
         vertex 5.000000e+01 7.340883e-313 1.600000e+01
         vertex 5.000000e+01 7.340883e-313 -3.500000e+01
      endloop
   endfacet
   facet normal -1.000000e+00 0.000000e+00 0.000000e+00
      outer loop
         vertex -5.000000e+01 7.340883e-313 3.500000e+01
         vertex -5.000000e+01 1.500000e+01 3.500000e+01
         vertex -5.000000e+01 7.340883e-313 1.600000e+01
      endloop
   endfacet
   facet normal 1.000000e+00 0.000000e+00 -0.000000e+00
      outer loop
         vertex 5.000000e+01 1.500000e+01 -3.500000e+01
         vertex 5.000000e+01 1.500000e+01 3.500000e+01
         vertex 5.000000e+01 7.340883e-313 1.600000e+01
      endloop
   endfacet
   facet normal 1.000000e+00 0.000000e+00 0.000000e+00
      outer loop
         vertex 5.000000e+01 1.500000e+01 3.500000e+01
         vertex 5.000000e+01 7.340883e-313 3.500000e+01
         vertex 5.000000e+01 7.340883e-313 1.600000e+01
      endloop
   endfacet
endsolid