solid 7-6
   facet normal -8.715730e-02 0.000000e+00 9.961946e-01
      outer loop
         vertex -4.113176e+01 6.521133e-312 -3.192404e+01
         vertex -4.113176e+01 1.500000e+01 -3.192404e+01
         vertex -4.200000e+01 6.521133e-312 -3.200000e+01
      endloop
   endfacet
   facet normal -8.715730e-02 0.000000e+00 9.961946e-01
      outer loop
         vertex -4.113176e+01 1.500000e+01 -3.192404e+01
         vertex -4.200000e+01 1.500000e+01 -3.200000e+01
         vertex -4.200000e+01 6.521133e-312 -3.200000e+01
      endloop
   endfacet
   facet normal 8.715693e-02 0.000000e+00 9.961946e-01
      outer loop
         vertex -4.200000e+01 1.500000e+01 -3.200000e+01
         vertex -4.286824e+01 6.521133e-312 -3.192404e+01
         vertex -4.200000e+01 6.521133e-312 -3.200000e+01
      endloop
   endfacet
   facet normal -8.715693e-02 0.000000e+00 9.961946e-01
      outer loop
         vertex 4.286824e+01 6.521133e-312 -3.192404e+01
         vertex 4.286824e+01 1.500000e+01 -3.192404e+01
         vertex 4.200000e+01 6.521133e-312 -3.200000e+01
      endloop
   endfacet
   facet normal -8.715693e-02 0.000000e+00 9.961946e-01
      outer loop
         vertex 4.286824e+01 1.500000e+01 -3.192404e+01
         vertex 4.200000e+01 1.500000e+01 -3.200000e+01
         vertex 4.200000e+01 6.521133e-312 -3.200000e+01
      endloop
   endfacet
   facet normal 8.715730e-02 0.000000e+00 9.961946e-01
      outer loop
         vertex 4.200000e+01 1.500000e+01 -3.200000e+01
         vertex 4.113176e+01 6.521133e-312 -3.192404e+01
         vertex 4.200000e+01 6.521133e-312 -3.200000e+01
      endloop
   endfacet
   facet normal 8.715693e-02 0.000000e+00 9.961946e-01
      outer loop
         vertex -4.200000e+01 1.500000e+01 -3.200000e+01
         vertex -4.286824e+01 1.500000e+01 -3.192404e+01
         vertex -4.286824e+01 6.521133e-312 -3.192404e+01
      endloop
   endfacet
   facet normal 2.588210e-01 0.000000e+00 9.659253e-01
      outer loop
         vertex -4.286824e+01 1.500000e+01 -3.192404e+01
         vertex -4.371010e+01 6.521133e-312 -3.169846e+01
         vertex -4.286824e+01 6.521133e-312 -3.192404e+01
      endloop
   endfacet
   facet normal -2.588200e-01 0.000000e+00 9.659256e-01
      outer loop
         vertex -4.028990e+01 6.521133e-312 -3.169846e+01
         vertex -4.028990e+01 1.500000e+01 -3.169846e+01
         vertex -4.113176e+01 6.521133e-312 -3.192404e+01
      endloop
   endfacet
   facet normal -2.588200e-01 0.000000e+00 9.659256e-01
      outer loop
         vertex -4.028990e+01 1.500000e+01 -3.169846e+01
         vertex -4.113176e+01 1.500000e+01 -3.192404e+01
         vertex -4.113176e+01 6.521133e-312 -3.192404e+01
      endloop
   endfacet
   facet normal 8.715730e-02 0.000000e+00 9.961946e-01
      outer loop
         vertex 4.200000e+01 1.500000e+01 -3.200000e+01
         vertex 4.113176e+01 1.500000e+01 -3.192404e+01
         vertex 4.113176e+01 6.521133e-312 -3.192404e+01
      endloop
   endfacet
   facet normal 2.588200e-01 0.000000e+00 9.659256e-01
      outer loop
         vertex 4.113176e+01 1.500000e+01 -3.192404e+01
         vertex 4.028990e+01 6.521133e-312 -3.169846e+01
         vertex 4.113176e+01 6.521133e-312 -3.192404e+01
      endloop
   endfacet
   facet normal -2.588210e-01 0.000000e+00 9.659253e-01
      outer loop
         vertex 4.371010e+01 6.521133e-312 -3.169846e+01
         vertex 4.371010e+01 1.500000e+01 -3.169846e+01
         vertex 4.286824e+01 6.521133e-312 -3.192404e+01
      endloop
   endfacet
   facet normal -2.588210e-01 0.000000e+00 9.659253e-01
      outer loop
         vertex 4.371010e+01 1.500000e+01 -3.169846e+01
         vertex 4.286824e+01 1.500000e+01 -3.192404e+01
         vertex 4.286824e+01 6.521133e-312 -3.192404e+01
      endloop
   endfacet
   facet normal 2.588210e-01 0.000000e+00 9.659253e-01
      outer loop
         vertex -4.286824e+01 1.500000e+01 -3.192404e+01
         vertex -4.371010e+01 1.500000e+01 -3.169846e+01
         vertex -4.371010e+01 6.521133e-312 -3.169846e+01
      endloop
   endfacet
   facet normal 4.226166e-01 0.000000e+00 9.063086e-01
      outer loop
         vertex -4.371010e+01 1.500000e+01 -3.169846e+01
         vertex -4.450000e+01 6.521133e-312 -3.133013e+01
         vertex -4.371010e+01 6.521133e-312 -3.169846e+01
      endloop
   endfacet
   facet normal -4.226182e-01 0.000000e+00 9.063078e-01
      outer loop
         vertex -3.950000e+01 6.521133e-312 -3.133013e+01
         vertex -3.950000e+01 1.500000e+01 -3.133013e+01
         vertex -4.028990e+01 6.521133e-312 -3.169846e+01
      endloop
   endfacet
   facet normal -4.226182e-01 0.000000e+00 9.063078e-01
      outer loop
         vertex -3.950000e+01 1.500000e+01 -3.133013e+01
         vertex -4.028990e+01 1.500000e+01 -3.169846e+01
         vertex -4.028990e+01 6.521133e-312 -3.169846e+01
      endloop
   endfacet
   facet normal 2.588200e-01 0.000000e+00 9.659256e-01
      outer loop
         vertex 4.113176e+01 1.500000e+01 -3.192404e+01
         vertex 4.028990e+01 1.500000e+01 -3.169846e+01
         vertex 4.028990e+01 6.521133e-312 -3.169846e+01
      endloop
   endfacet
   facet normal 4.226182e-01 0.000000e+00 9.063078e-01
      outer loop
         vertex 4.028990e+01 1.500000e+01 -3.169846e+01
         vertex 3.950000e+01 6.521133e-312 -3.133013e+01
         vertex 4.028990e+01 6.521133e-312 -3.169846e+01
      endloop
   endfacet
   facet normal -4.226166e-01 0.000000e+00 9.063086e-01
      outer loop
         vertex 4.450000e+01 6.521133e-312 -3.133013e+01
         vertex 4.450000e+01 1.500000e+01 -3.133013e+01
         vertex 4.371010e+01 6.521133e-312 -3.169846e+01
      endloop
   endfacet
   facet normal -4.226166e-01 0.000000e+00 9.063086e-01
      outer loop
         vertex 4.450000e+01 1.500000e+01 -3.133013e+01
         vertex 4.371010e+01 1.500000e+01 -3.169846e+01
         vertex 4.371010e+01 6.521133e-312 -3.169846e+01
      endloop
   endfacet
   facet normal 4.226166e-01 0.000000e+00 9.063086e-01
      outer loop
         vertex -4.371010e+01 1.500000e+01 -3.169846e+01
         vertex -4.450000e+01 1.500000e+01 -3.133013e+01
         vertex -4.450000e+01 6.521133e-312 -3.133013e+01
      endloop
   endfacet
   facet normal 5.735765e-01 0.000000e+00 8.191520e-01
      outer loop
         vertex -4.450000e+01 1.500000e+01 -3.133013e+01
         vertex -4.521394e+01 6.521133e-312 -3.083022e+01
         vertex -4.450000e+01 6.521133e-312 -3.133013e+01
      endloop
   endfacet
   facet normal -5.735745e-01 0.000000e+00 8.191534e-01
      outer loop
         vertex -3.878606e+01 6.521133e-312 -3.083022e+01
         vertex -3.878606e+01 1.500000e+01 -3.083022e+01
         vertex -3.950000e+01 6.521133e-312 -3.133013e+01
      endloop
   endfacet
   facet normal -5.735745e-01 0.000000e+00 8.191534e-01
      outer loop
         vertex -3.878606e+01 1.500000e+01 -3.083022e+01
         vertex -3.950000e+01 1.500000e+01 -3.133013e+01
         vertex -3.950000e+01 6.521133e-312 -3.133013e+01
      endloop
   endfacet
   facet normal 4.226182e-01 0.000000e+00 9.063078e-01
      outer loop
         vertex 4.028990e+01 1.500000e+01 -3.169846e+01
         vertex 3.950000e+01 1.500000e+01 -3.133013e+01
         vertex 3.950000e+01 6.521133e-312 -3.133013e+01
      endloop
   endfacet
   facet normal 5.735745e-01 0.000000e+00 8.191534e-01
      outer loop
         vertex 3.950000e+01 1.500000e+01 -3.133013e+01
         vertex 3.878606e+01 6.521133e-312 -3.083022e+01
         vertex 3.950000e+01 6.521133e-312 -3.133013e+01
      endloop
   endfacet
   facet normal -5.735765e-01 0.000000e+00 8.191520e-01
      outer loop
         vertex 4.521394e+01 6.521133e-312 -3.083022e+01
         vertex 4.521394e+01 1.500000e+01 -3.083022e+01
         vertex 4.450000e+01 6.521133e-312 -3.133013e+01
      endloop
   endfacet
   facet normal -5.735765e-01 0.000000e+00 8.191520e-01
      outer loop
         vertex 4.521394e+01 1.500000e+01 -3.083022e+01
         vertex 4.450000e+01 1.500000e+01 -3.133013e+01
         vertex 4.450000e+01 6.521133e-312 -3.133013e+01
      endloop
   endfacet
   facet normal 5.735765e-01 0.000000e+00 8.191520e-01
      outer loop
         vertex -4.450000e+01 1.500000e+01 -3.133013e+01
         vertex -4.521394e+01 1.500000e+01 -3.083022e+01
         vertex -4.521394e+01 6.521133e-312 -3.083022e+01
      endloop
   endfacet
   facet normal 7.071068e-01 0.000000e+00 7.071068e-01
      outer loop
         vertex -4.521394e+01 1.500000e+01 -3.083022e+01
         vertex -4.583022e+01 6.521133e-312 -3.021394e+01
         vertex -4.521394e+01 6.521133e-312 -3.083022e+01
      endloop
   endfacet
   facet normal -7.071089e-01 0.000000e+00 7.071046e-01
      outer loop
         vertex -3.816978e+01 6.521133e-312 -3.021394e+01
         vertex -3.816978e+01 1.500000e+01 -3.021394e+01
         vertex -3.878606e+01 6.521133e-312 -3.083022e+01
      endloop
   endfacet
   facet normal -7.071089e-01 0.000000e+00 7.071046e-01
      outer loop
         vertex -3.816978e+01 1.500000e+01 -3.021394e+01
         vertex -3.878606e+01 1.500000e+01 -3.083022e+01
         vertex -3.878606e+01 6.521133e-312 -3.083022e+01
      endloop
   endfacet
   facet normal 5.735745e-01 0.000000e+00 8.191534e-01
      outer loop
         vertex 3.950000e+01 1.500000e+01 -3.133013e+01
         vertex 3.878606e+01 1.500000e+01 -3.083022e+01
         vertex 3.878606e+01 6.521133e-312 -3.083022e+01
      endloop
   endfacet
   facet normal 7.071089e-01 0.000000e+00 7.071046e-01
      outer loop
         vertex 3.878606e+01 1.500000e+01 -3.083022e+01
         vertex 3.816978e+01 6.521133e-312 -3.021394e+01
         vertex 3.878606e+01 6.521133e-312 -3.083022e+01
      endloop
   endfacet
   facet normal -7.071068e-01 0.000000e+00 7.071068e-01
      outer loop
         vertex 4.583022e+01 6.521133e-312 -3.021394e+01
         vertex 4.583022e+01 1.500000e+01 -3.021394e+01
         vertex 4.521394e+01 6.521133e-312 -3.083022e+01
      endloop
   endfacet
   facet normal -7.071068e-01 0.000000e+00 7.071068e-01
      outer loop
         vertex 4.583022e+01 1.500000e+01 -3.021394e+01
         vertex 4.521394e+01 1.500000e+01 -3.083022e+01
         vertex 4.521394e+01 6.521133e-312 -3.083022e+01
      endloop
   endfacet
   facet normal 7.071068e-01 0.000000e+00 7.071068e-01
      outer loop
         vertex -4.521394e+01 1.500000e+01 -3.083022e+01
         vertex -4.583022e+01 1.500000e+01 -3.021394e+01
         vertex -4.583022e+01 6.521133e-312 -3.021394e+01
      endloop
   endfacet
   facet normal 8.191520e-01 0.000000e+00 5.735765e-01
      outer loop
         vertex -4.583022e+01 1.500000e+01 -3.021394e+01
         vertex -4.633013e+01 6.521133e-312 -2.950000e+01
         vertex -4.583022e+01 6.521133e-312 -3.021394e+01
      endloop
   endfacet
   facet normal -8.191520e-01 0.000000e+00 5.735765e-01
      outer loop
         vertex -3.766987e+01 6.521133e-312 -2.950000e+01
         vertex -3.766987e+01 1.500000e+01 -2.950000e+01
         vertex -3.816978e+01 6.521133e-312 -3.021394e+01
      endloop
   endfacet
   facet normal -8.191520e-01 0.000000e+00 5.735765e-01
      outer loop
         vertex -3.766987e+01 1.500000e+01 -2.950000e+01
         vertex -3.816978e+01 1.500000e+01 -3.021394e+01
         vertex -3.816978e+01 6.521133e-312 -3.021394e+01
      endloop
   endfacet
   facet normal 7.071089e-01 0.000000e+00 7.071046e-01
      outer loop
         vertex 3.878606e+01 1.500000e+01 -3.083022e+01
         vertex 3.816978e+01 1.500000e+01 -3.021394e+01
         vertex 3.816978e+01 6.521133e-312 -3.021394e+01
      endloop
   endfacet
   facet normal 8.191520e-01 0.000000e+00 5.735765e-01
      outer loop
         vertex 3.816978e+01 1.500000e+01 -3.021394e+01
         vertex 3.766987e+01 6.521133e-312 -2.950000e+01
         vertex 3.816978e+01 6.521133e-312 -3.021394e+01
      endloop
   endfacet
   facet normal -8.191520e-01 0.000000e+00 5.735765e-01
      outer loop
         vertex 4.633013e+01 6.521133e-312 -2.950000e+01
         vertex 4.633013e+01 1.500000e+01 -2.950000e+01
         vertex 4.583022e+01 6.521133e-312 -3.021394e+01
      endloop
   endfacet
   facet normal -8.191520e-01 0.000000e+00 5.735765e-01
      outer loop
         vertex 4.633013e+01 1.500000e+01 -2.950000e+01
         vertex 4.583022e+01 1.500000e+01 -3.021394e+01
         vertex 4.583022e+01 6.521133e-312 -3.021394e+01
      endloop
   endfacet
   facet normal 8.191520e-01 0.000000e+00 5.735765e-01
      outer loop
         vertex -4.583022e+01 1.500000e+01 -3.021394e+01
         vertex -4.633013e+01 1.500000e+01 -2.950000e+01
         vertex -4.633013e+01 6.521133e-312 -2.950000e+01
      endloop
   endfacet
   facet normal 9.063086e-01 0.000000e+00 4.226166e-01
      outer loop
         vertex -4.633013e+01 1.500000e+01 -2.950000e+01
         vertex -4.669846e+01 6.521133e-312 -2.871010e+01
         vertex -4.633013e+01 6.521133e-312 -2.950000e+01
      endloop
   endfacet
   facet normal -9.063069e-01 0.000000e+00 4.226201e-01
      outer loop
         vertex -3.730154e+01 6.521133e-312 -2.871010e+01
         vertex -3.730154e+01 1.500000e+01 -2.871010e+01
         vertex -3.766987e+01 6.521133e-312 -2.950000e+01
      endloop
   endfacet
   facet normal -9.063069e-01 0.000000e+00 4.226201e-01
      outer loop
         vertex -3.730154e+01 1.500000e+01 -2.871010e+01
         vertex -3.766987e+01 1.500000e+01 -2.950000e+01
         vertex -3.766987e+01 6.521133e-312 -2.950000e+01
      endloop
   endfacet
   facet normal 8.191520e-01 0.000000e+00 5.735765e-01
      outer loop
         vertex 3.816978e+01 1.500000e+01 -3.021394e+01
         vertex 3.766987e+01 1.500000e+01 -2.950000e+01
         vertex 3.766987e+01 6.521133e-312 -2.950000e+01
      endloop
   endfacet
   facet normal 9.063069e-01 0.000000e+00 4.226201e-01
      outer loop
         vertex 3.766987e+01 1.500000e+01 -2.950000e+01
         vertex 3.730154e+01 6.521133e-312 -2.871010e+01
         vertex 3.766987e+01 6.521133e-312 -2.950000e+01
      endloop
   endfacet
   facet normal -9.063086e-01 0.000000e+00 4.226166e-01
      outer loop
         vertex 4.669846e+01 6.521133e-312 -2.871010e+01
         vertex 4.669846e+01 1.500000e+01 -2.871010e+01
         vertex 4.633013e+01 6.521133e-312 -2.950000e+01
      endloop
   endfacet
   facet normal -9.063086e-01 0.000000e+00 4.226166e-01
      outer loop
         vertex 4.669846e+01 1.500000e+01 -2.871010e+01
         vertex 4.633013e+01 1.500000e+01 -2.950000e+01
         vertex 4.633013e+01 6.521133e-312 -2.950000e+01
      endloop
   endfacet
   facet normal 9.063086e-01 0.000000e+00 4.226166e-01
      outer loop
         vertex -4.633013e+01 1.500000e+01 -2.950000e+01
         vertex -4.669846e+01 1.500000e+01 -2.871010e+01
         vertex -4.669846e+01 6.521133e-312 -2.871010e+01
      endloop
   endfacet
   facet normal 9.659253e-01 0.000000e+00 2.588210e-01
      outer loop
         vertex -4.669846e+01 1.500000e+01 -2.871010e+01
         vertex -4.692404e+01 6.521133e-312 -2.786824e+01
         vertex -4.669846e+01 6.521133e-312 -2.871010e+01
      endloop
   endfacet
   facet normal -9.659264e-01 0.000000e+00 2.588171e-01
      outer loop
         vertex -3.707596e+01 6.521133e-312 -2.786824e+01
         vertex -3.707596e+01 1.500000e+01 -2.786824e+01
         vertex -3.730154e+01 6.521133e-312 -2.871010e+01
      endloop
   endfacet
   facet normal -9.659264e-01 0.000000e+00 2.588171e-01
      outer loop
         vertex -3.707596e+01 1.500000e+01 -2.786824e+01
         vertex -3.730154e+01 1.500000e+01 -2.871010e+01
         vertex -3.730154e+01 6.521133e-312 -2.871010e+01
      endloop
   endfacet
   facet normal 9.063069e-01 0.000000e+00 4.226201e-01
      outer loop
         vertex 3.766987e+01 1.500000e+01 -2.950000e+01
         vertex 3.730154e+01 1.500000e+01 -2.871010e+01
         vertex 3.730154e+01 6.521133e-312 -2.871010e+01
      endloop
   endfacet
   facet normal 9.659264e-01 0.000000e+00 2.588171e-01
      outer loop
         vertex 3.730154e+01 1.500000e+01 -2.871010e+01
         vertex 3.707596e+01 6.521133e-312 -2.786824e+01
         vertex 3.730154e+01 6.521133e-312 -2.871010e+01
      endloop
   endfacet
   facet normal -9.659253e-01 0.000000e+00 2.588210e-01
      outer loop
         vertex 4.692404e+01 6.521133e-312 -2.786824e+01
         vertex 4.692404e+01 1.500000e+01 -2.786824e+01
         vertex 4.669846e+01 6.521133e-312 -2.871010e+01
      endloop
   endfacet
   facet normal -9.659253e-01 0.000000e+00 2.588210e-01
      outer loop
         vertex 4.692404e+01 1.500000e+01 -2.786824e+01
         vertex 4.669846e+01 1.500000e+01 -2.871010e+01
         vertex 4.669846e+01 6.521133e-312 -2.871010e+01
      endloop
   endfacet
   facet normal 9.659253e-01 0.000000e+00 2.588210e-01
      outer loop
         vertex -4.669846e+01 1.500000e+01 -2.871010e+01
         vertex -4.692404e+01 1.500000e+01 -2.786824e+01
         vertex -4.692404e+01 6.521133e-312 -2.786824e+01
      endloop
   endfacet
   facet normal 9.961949e-01 0.000000e+00 8.715287e-02
      outer loop
         vertex -4.692404e+01 1.500000e+01 -2.786824e+01
         vertex -4.700000e+01 6.521133e-312 -2.700000e+01
         vertex -4.692404e+01 6.521133e-312 -2.786824e+01
      endloop
   endfacet
   facet normal -9.961946e-01 0.000000e+00 8.715711e-02
      outer loop
         vertex -3.700000e+01 6.521133e-312 -2.700000e+01
         vertex -3.700000e+01 1.500000e+01 -2.700000e+01
         vertex -3.707596e+01 6.521133e-312 -2.786824e+01
      endloop
   endfacet
   facet normal -9.961946e-01 0.000000e+00 8.715711e-02
      outer loop
         vertex -3.700000e+01 1.500000e+01 -2.700000e+01
         vertex -3.707596e+01 1.500000e+01 -2.786824e+01
         vertex -3.707596e+01 6.521133e-312 -2.786824e+01
      endloop
   endfacet
   facet normal 9.659264e-01 0.000000e+00 2.588171e-01
      outer loop
         vertex 3.730154e+01 1.500000e+01 -2.871010e+01
         vertex 3.707596e+01 1.500000e+01 -2.786824e+01
         vertex 3.707596e+01 6.521133e-312 -2.786824e+01
      endloop
   endfacet
   facet normal 9.961946e-01 0.000000e+00 8.715711e-02
      outer loop
         vertex 3.707596e+01 1.500000e+01 -2.786824e+01
         vertex 3.700000e+01 6.521133e-312 -2.700000e+01
         vertex 3.707596e+01 6.521133e-312 -2.786824e+01
      endloop
   endfacet
   facet normal -9.961949e-01 0.000000e+00 8.715287e-02
      outer loop
         vertex 4.700000e+01 6.521133e-312 -2.700000e+01
         vertex 4.700000e+01 1.500000e+01 -2.700000e+01
         vertex 4.692404e+01 6.521133e-312 -2.786824e+01
      endloop
   endfacet
   facet normal -9.961949e-01 0.000000e+00 8.715287e-02
      outer loop
         vertex 4.700000e+01 1.500000e+01 -2.700000e+01
         vertex 4.692404e+01 1.500000e+01 -2.786824e+01
         vertex 4.692404e+01 6.521133e-312 -2.786824e+01
      endloop
   endfacet
   facet normal 9.961949e-01 0.000000e+00 8.715287e-02
      outer loop
         vertex -4.692404e+01 1.500000e+01 -2.786824e+01
         vertex -4.700000e+01 1.500000e+01 -2.700000e+01
         vertex -4.700000e+01 6.521133e-312 -2.700000e+01
      endloop
   endfacet
   facet normal 9.961950e-01 0.000000e+00 -8.715269e-02
      outer loop
         vertex -4.700000e+01 1.500000e+01 -2.700000e+01
         vertex -4.692404e+01 6.521133e-312 -2.613176e+01
         vertex -4.700000e+01 6.521133e-312 -2.700000e+01
      endloop
   endfacet
   facet normal -9.961946e-01 0.000000e+00 -8.715693e-02
      outer loop
         vertex -3.707596e+01 6.521133e-312 -2.613176e+01
         vertex -3.707596e+01 1.500000e+01 -2.613176e+01
         vertex -3.700000e+01 6.521133e-312 -2.700000e+01
      endloop
   endfacet
   facet normal -9.961946e-01 0.000000e+00 -8.715693e-02
      outer loop
         vertex -3.707596e+01 1.500000e+01 -2.613176e+01
         vertex -3.700000e+01 1.500000e+01 -2.700000e+01
         vertex -3.700000e+01 6.521133e-312 -2.700000e+01
      endloop
   endfacet
   facet normal 9.961946e-01 0.000000e+00 8.715711e-02
      outer loop
         vertex 3.707596e+01 1.500000e+01 -2.786824e+01
         vertex 3.700000e+01 1.500000e+01 -2.700000e+01
         vertex 3.700000e+01 6.521133e-312 -2.700000e+01
      endloop
   endfacet
   facet normal 9.961946e-01 0.000000e+00 -8.715693e-02
      outer loop
         vertex 3.700000e+01 1.500000e+01 -2.700000e+01
         vertex 3.707596e+01 6.521133e-312 -2.613176e+01
         vertex 3.700000e+01 6.521133e-312 -2.700000e+01
      endloop
   endfacet
   facet normal -9.961950e-01 0.000000e+00 -8.715269e-02
      outer loop
         vertex 4.692404e+01 6.521133e-312 -2.613176e+01
         vertex 4.692404e+01 1.500000e+01 -2.613176e+01
         vertex 4.700000e+01 6.521133e-312 -2.700000e+01
      endloop
   endfacet
   facet normal -9.961950e-01 0.000000e+00 -8.715269e-02
      outer loop
         vertex 4.692404e+01 1.500000e+01 -2.613176e+01
         vertex 4.700000e+01 1.500000e+01 -2.700000e+01
         vertex 4.700000e+01 6.521133e-312 -2.700000e+01
      endloop
   endfacet
   facet normal 9.961950e-01 0.000000e+00 -8.715269e-02
      outer loop
         vertex -4.700000e+01 1.500000e+01 -2.700000e+01
         vertex -4.692404e+01 1.500000e+01 -2.613176e+01
         vertex -4.692404e+01 6.521133e-312 -2.613176e+01
      endloop
   endfacet
   facet normal 9.659253e-01 0.000000e+00 -2.588210e-01
      outer loop
         vertex -4.692404e+01 1.500000e+01 -2.613176e+01
         vertex -4.669846e+01 6.521133e-312 -2.528990e+01
         vertex -4.692404e+01 6.521133e-312 -2.613176e+01
      endloop
   endfacet
   facet normal -9.659264e-01 0.000000e+00 -2.588171e-01
      outer loop
         vertex -3.730154e+01 6.521133e-312 -2.528990e+01
         vertex -3.730154e+01 1.500000e+01 -2.528990e+01
         vertex -3.707596e+01 6.521133e-312 -2.613176e+01
      endloop
   endfacet
   facet normal -9.659264e-01 0.000000e+00 -2.588171e-01
      outer loop
         vertex -3.730154e+01 1.500000e+01 -2.528990e+01
         vertex -3.707596e+01 1.500000e+01 -2.613176e+01
         vertex -3.707596e+01 6.521133e-312 -2.613176e+01
      endloop
   endfacet
   facet normal 9.961946e-01 0.000000e+00 -8.715693e-02
      outer loop
         vertex 3.700000e+01 1.500000e+01 -2.700000e+01
         vertex 3.707596e+01 1.500000e+01 -2.613176e+01
         vertex 3.707596e+01 6.521133e-312 -2.613176e+01
      endloop
   endfacet
   facet normal 9.659264e-01 0.000000e+00 -2.588171e-01
      outer loop
         vertex 3.707596e+01 1.500000e+01 -2.613176e+01
         vertex 3.730154e+01 6.521133e-312 -2.528990e+01
         vertex 3.707596e+01 6.521133e-312 -2.613176e+01
      endloop
   endfacet
   facet normal -9.659253e-01 0.000000e+00 -2.588210e-01
      outer loop
         vertex 4.669846e+01 6.521133e-312 -2.528990e+01
         vertex 4.669846e+01 1.500000e+01 -2.528990e+01
         vertex 4.692404e+01 6.521133e-312 -2.613176e+01
      endloop
   endfacet
   facet normal -9.659253e-01 0.000000e+00 -2.588210e-01
      outer loop
         vertex 4.669846e+01 1.500000e+01 -2.528990e+01
         vertex 4.692404e+01 1.500000e+01 -2.613176e+01
         vertex 4.692404e+01 6.521133e-312 -2.613176e+01
      endloop
   endfacet
   facet normal 9.659253e-01 0.000000e+00 -2.588210e-01
      outer loop
         vertex -4.692404e+01 1.500000e+01 -2.613176e+01
         vertex -4.669846e+01 1.500000e+01 -2.528990e+01
         vertex -4.669846e+01 6.521133e-312 -2.528990e+01
      endloop
   endfacet
   facet normal 9.063086e-01 0.000000e+00 -4.226166e-01
      outer loop
         vertex -4.669846e+01 1.500000e+01 -2.528990e+01
         vertex -4.633013e+01 6.521133e-312 -2.450000e+01
         vertex -4.669846e+01 6.521133e-312 -2.528990e+01
      endloop
   endfacet
   facet normal -9.063069e-01 0.000000e+00 -4.226201e-01
      outer loop
         vertex -3.766987e+01 6.521133e-312 -2.450000e+01
         vertex -3.766987e+01 1.500000e+01 -2.450000e+01
         vertex -3.730154e+01 6.521133e-312 -2.528990e+01
      endloop
   endfacet
   facet normal -9.063069e-01 0.000000e+00 -4.226201e-01
      outer loop
         vertex -3.766987e+01 1.500000e+01 -2.450000e+01
         vertex -3.730154e+01 1.500000e+01 -2.528990e+01
         vertex -3.730154e+01 6.521133e-312 -2.528990e+01
      endloop
   endfacet
   facet normal 9.659264e-01 0.000000e+00 -2.588171e-01
      outer loop
         vertex 3.707596e+01 1.500000e+01 -2.613176e+01
         vertex 3.730154e+01 1.500000e+01 -2.528990e+01
         vertex 3.730154e+01 6.521133e-312 -2.528990e+01
      endloop
   endfacet
   facet normal 9.063069e-01 0.000000e+00 -4.226201e-01
      outer loop
         vertex 3.730154e+01 1.500000e+01 -2.528990e+01
         vertex 3.766987e+01 6.521133e-312 -2.450000e+01
         vertex 3.730154e+01 6.521133e-312 -2.528990e+01
      endloop
   endfacet
   facet normal -9.063086e-01 0.000000e+00 -4.226166e-01
      outer loop
         vertex 4.633013e+01 6.521133e-312 -2.450000e+01
         vertex 4.633013e+01 1.500000e+01 -2.450000e+01
         vertex 4.669846e+01 6.521133e-312 -2.528990e+01
      endloop
   endfacet
   facet normal -9.063086e-01 0.000000e+00 -4.226166e-01
      outer loop
         vertex 4.633013e+01 1.500000e+01 -2.450000e+01
         vertex 4.669846e+01 1.500000e+01 -2.528990e+01
         vertex 4.669846e+01 6.521133e-312 -2.528990e+01
      endloop
   endfacet
   facet normal 9.063086e-01 0.000000e+00 -4.226166e-01
      outer loop
         vertex -4.669846e+01 1.500000e+01 -2.528990e+01
         vertex -4.633013e+01 1.500000e+01 -2.450000e+01
         vertex -4.633013e+01 6.521133e-312 -2.450000e+01
      endloop
   endfacet
   facet normal 8.191520e-01 0.000000e+00 -5.735765e-01
      outer loop
         vertex -4.633013e+01 1.500000e+01 -2.450000e+01
         vertex -4.583022e+01 6.521133e-312 -2.378606e+01
         vertex -4.633013e+01 6.521133e-312 -2.450000e+01
      endloop
   endfacet
   facet normal -8.191520e-01 0.000000e+00 -5.735765e-01
      outer loop
         vertex -3.816978e+01 6.521133e-312 -2.378606e+01
         vertex -3.816978e+01 1.500000e+01 -2.378606e+01
         vertex -3.766987e+01 6.521133e-312 -2.450000e+01
      endloop
   endfacet
   facet normal -8.191520e-01 0.000000e+00 -5.735765e-01
      outer loop
         vertex -3.816978e+01 1.500000e+01 -2.378606e+01
         vertex -3.766987e+01 1.500000e+01 -2.450000e+01
         vertex -3.766987e+01 6.521133e-312 -2.450000e+01
      endloop
   endfacet
   facet normal 9.063069e-01 0.000000e+00 -4.226201e-01
      outer loop
         vertex 3.730154e+01 1.500000e+01 -2.528990e+01
         vertex 3.766987e+01 1.500000e+01 -2.450000e+01
         vertex 3.766987e+01 6.521133e-312 -2.450000e+01
      endloop
   endfacet
   facet normal 8.191520e-01 0.000000e+00 -5.735765e-01
      outer loop
         vertex 3.766987e+01 1.500000e+01 -2.450000e+01
         vertex 3.816978e+01 6.521133e-312 -2.378606e+01
         vertex 3.766987e+01 6.521133e-312 -2.450000e+01
      endloop
   endfacet
   facet normal -8.191520e-01 0.000000e+00 -5.735765e-01
      outer loop
         vertex 4.583022e+01 6.521133e-312 -2.378606e+01
         vertex 4.583022e+01 1.500000e+01 -2.378606e+01
         vertex 4.633013e+01 6.521133e-312 -2.450000e+01
      endloop
   endfacet
   facet normal -8.191520e-01 0.000000e+00 -5.735765e-01
      outer loop
         vertex 4.583022e+01 1.500000e+01 -2.378606e+01
         vertex 4.633013e+01 1.500000e+01 -2.450000e+01
         vertex 4.633013e+01 6.521133e-312 -2.450000e+01
      endloop
   endfacet
   facet normal 8.191520e-01 0.000000e+00 -5.735765e-01
      outer loop
         vertex -4.633013e+01 1.500000e+01 -2.450000e+01
         vertex -4.583022e+01 1.500000e+01 -2.378606e+01
         vertex -4.583022e+01 6.521133e-312 -2.378606e+01
      endloop
   endfacet
   facet normal 7.071057e-01 0.000000e+00 -7.071078e-01
      outer loop
         vertex -4.583022e+01 1.500000e+01 -2.378606e+01
         vertex -4.521394e+01 6.521133e-312 -2.316978e+01
         vertex -4.583022e+01 6.521133e-312 -2.378606e+01
      endloop
   endfacet
   facet normal -7.071078e-01 0.000000e+00 -7.071057e-01
      outer loop
         vertex -3.878606e+01 6.521133e-312 -2.316978e+01
         vertex -3.878606e+01 1.500000e+01 -2.316978e+01
         vertex -3.816978e+01 6.521133e-312 -2.378606e+01
      endloop
   endfacet
   facet normal -7.071078e-01 0.000000e+00 -7.071057e-01
      outer loop
         vertex -3.878606e+01 1.500000e+01 -2.316978e+01
         vertex -3.816978e+01 1.500000e+01 -2.378606e+01
         vertex -3.816978e+01 6.521133e-312 -2.378606e+01
      endloop
   endfacet
   facet normal 8.191520e-01 0.000000e+00 -5.735765e-01
      outer loop
         vertex 3.766987e+01 1.500000e+01 -2.450000e+01
         vertex 3.816978e+01 1.500000e+01 -2.378606e+01
         vertex 3.816978e+01 6.521133e-312 -2.378606e+01
      endloop
   endfacet
   facet normal 7.071078e-01 0.000000e+00 -7.071057e-01
      outer loop
         vertex 3.816978e+01 1.500000e+01 -2.378606e+01
         vertex 3.878606e+01 6.521133e-312 -2.316978e+01
         vertex 3.816978e+01 6.521133e-312 -2.378606e+01
      endloop
   endfacet
   facet normal -7.071057e-01 0.000000e+00 -7.071078e-01
      outer loop
         vertex 4.521394e+01 6.521133e-312 -2.316978e+01
         vertex 4.521394e+01 1.500000e+01 -2.316978e+01
         vertex 4.583022e+01 6.521133e-312 -2.378606e+01
      endloop
   endfacet
   facet normal -7.071057e-01 0.000000e+00 -7.071078e-01
      outer loop
         vertex 4.521394e+01 1.500000e+01 -2.316978e+01
         vertex 4.583022e+01 1.500000e+01 -2.378606e+01
         vertex 4.583022e+01 6.521133e-312 -2.378606e+01
      endloop
   endfacet
   facet normal 7.071057e-01 0.000000e+00 -7.071078e-01
      outer loop
         vertex -4.583022e+01 1.500000e+01 -2.378606e+01
         vertex -4.521394e+01 1.500000e+01 -2.316978e+01
         vertex -4.521394e+01 6.521133e-312 -2.316978e+01
      endloop
   endfacet
   facet normal 5.735779e-01 0.000000e+00 -8.191510e-01
      outer loop
         vertex -4.521394e+01 1.500000e+01 -2.316978e+01
         vertex -4.450000e+01 6.521133e-312 -2.266987e+01
         vertex -4.521394e+01 6.521133e-312 -2.316978e+01
      endloop
   endfacet
   facet normal -5.735759e-01 0.000000e+00 -8.191524e-01
      outer loop
         vertex -3.950000e+01 6.521133e-312 -2.266987e+01
         vertex -3.950000e+01 1.500000e+01 -2.266987e+01
         vertex -3.878606e+01 6.521133e-312 -2.316978e+01
      endloop
   endfacet
   facet normal -5.735759e-01 0.000000e+00 -8.191524e-01
      outer loop
         vertex -3.950000e+01 1.500000e+01 -2.266987e+01
         vertex -3.878606e+01 1.500000e+01 -2.316978e+01
         vertex -3.878606e+01 6.521133e-312 -2.316978e+01
      endloop
   endfacet
   facet normal 7.071078e-01 0.000000e+00 -7.071057e-01
      outer loop
         vertex 3.816978e+01 1.500000e+01 -2.378606e+01
         vertex 3.878606e+01 1.500000e+01 -2.316978e+01
         vertex 3.878606e+01 6.521133e-312 -2.316978e+01
      endloop
   endfacet
   facet normal 5.735759e-01 0.000000e+00 -8.191524e-01
      outer loop
         vertex 3.878606e+01 1.500000e+01 -2.316978e+01
         vertex 3.950000e+01 6.521133e-312 -2.266987e+01
         vertex 3.878606e+01 6.521133e-312 -2.316978e+01
      endloop
   endfacet
   facet normal -5.735779e-01 0.000000e+00 -8.191510e-01
      outer loop
         vertex 4.450000e+01 6.521133e-312 -2.266987e+01
         vertex 4.450000e+01 1.500000e+01 -2.266987e+01
         vertex 4.521394e+01 6.521133e-312 -2.316978e+01
      endloop
   endfacet
   facet normal -5.735779e-01 0.000000e+00 -8.191510e-01
      outer loop
         vertex 4.450000e+01 1.500000e+01 -2.266987e+01
         vertex 4.521394e+01 1.500000e+01 -2.316978e+01
         vertex 4.521394e+01 6.521133e-312 -2.316978e+01
      endloop
   endfacet
   facet normal 5.735779e-01 0.000000e+00 -8.191510e-01
      outer loop
         vertex -4.521394e+01 1.500000e+01 -2.316978e+01
         vertex -4.450000e+01 1.500000e+01 -2.266987e+01
         vertex -4.450000e+01 6.521133e-312 -2.266987e+01
      endloop
   endfacet
   facet normal 4.226183e-01 0.000000e+00 -9.063077e-01
      outer loop
         vertex -4.450000e+01 1.500000e+01 -2.266987e+01
         vertex -4.371010e+01 6.521133e-312 -2.230154e+01
         vertex -4.450000e+01 6.521133e-312 -2.266987e+01
      endloop
   endfacet
   facet normal -4.226200e-01 0.000000e+00 -9.063070e-01
      outer loop
         vertex -4.028990e+01 6.521133e-312 -2.230154e+01
         vertex -4.028990e+01 1.500000e+01 -2.230154e+01
         vertex -3.950000e+01 6.521133e-312 -2.266987e+01
      endloop
   endfacet
   facet normal -4.226200e-01 0.000000e+00 -9.063070e-01
      outer loop
         vertex -4.028990e+01 1.500000e+01 -2.230154e+01
         vertex -3.950000e+01 1.500000e+01 -2.266987e+01
         vertex -3.950000e+01 6.521133e-312 -2.266987e+01
      endloop
   endfacet
   facet normal 5.735759e-01 0.000000e+00 -8.191524e-01
      outer loop
         vertex 3.878606e+01 1.500000e+01 -2.316978e+01
         vertex 3.950000e+01 1.500000e+01 -2.266987e+01
         vertex 3.950000e+01 6.521133e-312 -2.266987e+01
      endloop
   endfacet
   facet normal 4.226200e-01 0.000000e+00 -9.063070e-01
      outer loop
         vertex 3.950000e+01 1.500000e+01 -2.266987e+01
         vertex 4.028990e+01 6.521133e-312 -2.230154e+01
         vertex 3.950000e+01 6.521133e-312 -2.266987e+01
      endloop
   endfacet
   facet normal -4.226183e-01 0.000000e+00 -9.063077e-01
      outer loop
         vertex 4.371010e+01 6.521133e-312 -2.230154e+01
         vertex 4.371010e+01 1.500000e+01 -2.230154e+01
         vertex 4.450000e+01 6.521133e-312 -2.266987e+01
      endloop
   endfacet
   facet normal -4.226183e-01 0.000000e+00 -9.063077e-01
      outer loop
         vertex 4.371010e+01 1.500000e+01 -2.230154e+01
         vertex 4.450000e+01 1.500000e+01 -2.266987e+01
         vertex 4.450000e+01 6.521133e-312 -2.266987e+01
      endloop
   endfacet
   facet normal 4.226183e-01 0.000000e+00 -9.063077e-01
      outer loop
         vertex -4.450000e+01 1.500000e+01 -2.266987e+01
         vertex -4.371010e+01 1.500000e+01 -2.230154e+01
         vertex -4.371010e+01 6.521133e-312 -2.230154e+01
      endloop
   endfacet
   facet normal 2.588191e-01 0.000000e+00 -9.659258e-01
      outer loop
         vertex -4.371010e+01 1.500000e+01 -2.230154e+01
         vertex -4.286824e+01 6.521133e-312 -2.207596e+01
         vertex -4.371010e+01 6.521133e-312 -2.230154e+01
      endloop
   endfacet
   facet normal -2.588180e-01 0.000000e+00 -9.659261e-01
      outer loop
         vertex -4.113176e+01 6.521133e-312 -2.207596e+01
         vertex -4.113176e+01 1.500000e+01 -2.207596e+01
         vertex -4.028990e+01 6.521133e-312 -2.230154e+01
      endloop
   endfacet
   facet normal -2.588180e-01 0.000000e+00 -9.659261e-01
      outer loop
         vertex -4.113176e+01 1.500000e+01 -2.207596e+01
         vertex -4.028990e+01 1.500000e+01 -2.230154e+01
         vertex -4.028990e+01 6.521133e-312 -2.230154e+01
      endloop
   endfacet
   facet normal 4.226200e-01 0.000000e+00 -9.063070e-01
      outer loop
         vertex 3.950000e+01 1.500000e+01 -2.266987e+01
         vertex 4.028990e+01 1.500000e+01 -2.230154e+01
         vertex 4.028990e+01 6.521133e-312 -2.230154e+01
      endloop
   endfacet
   facet normal 2.588180e-01 0.000000e+00 -9.659261e-01
      outer loop
         vertex 4.028990e+01 1.500000e+01 -2.230154e+01
         vertex 4.113176e+01 6.521133e-312 -2.207596e+01
         vertex 4.028990e+01 6.521133e-312 -2.230154e+01
      endloop
   endfacet
   facet normal -2.588191e-01 0.000000e+00 -9.659258e-01
      outer loop
         vertex 4.286824e+01 6.521133e-312 -2.207596e+01
         vertex 4.286824e+01 1.500000e+01 -2.207596e+01
         vertex 4.371010e+01 6.521133e-312 -2.230154e+01
      endloop
   endfacet
   facet normal -2.588191e-01 0.000000e+00 -9.659258e-01
      outer loop
         vertex 4.286824e+01 1.500000e+01 -2.207596e+01
         vertex 4.371010e+01 1.500000e+01 -2.230154e+01
         vertex 4.371010e+01 6.521133e-312 -2.230154e+01
      endloop
   endfacet
   facet normal 2.588191e-01 0.000000e+00 -9.659258e-01
      outer loop
         vertex -4.371010e+01 1.500000e+01 -2.230154e+01
         vertex -4.286824e+01 1.500000e+01 -2.207596e+01
         vertex -4.286824e+01 6.521133e-312 -2.207596e+01
      endloop
   endfacet
   facet normal 8.715481e-02 0.000000e+00 -9.961948e-01
      outer loop
         vertex -4.286824e+01 1.500000e+01 -2.207596e+01
         vertex -4.200000e+01 6.521133e-312 -2.200000e+01
         vertex -4.286824e+01 6.521133e-312 -2.207596e+01
      endloop
   endfacet
   facet normal -8.715518e-02 0.000000e+00 -9.961947e-01
      outer loop
         vertex -4.200000e+01 6.521133e-312 -2.200000e+01
         vertex -4.200000e+01 1.500000e+01 -2.200000e+01
         vertex -4.113176e+01 6.521133e-312 -2.207596e+01
      endloop
   endfacet
   facet normal -8.715518e-02 0.000000e+00 -9.961947e-01
      outer loop
         vertex -4.200000e+01 1.500000e+01 -2.200000e+01
         vertex -4.113176e+01 1.500000e+01 -2.207596e+01
         vertex -4.113176e+01 6.521133e-312 -2.207596e+01
      endloop
   endfacet
   facet normal 2.588180e-01 0.000000e+00 -9.659261e-01
      outer loop
         vertex 4.028990e+01 1.500000e+01 -2.230154e+01
         vertex 4.113176e+01 1.500000e+01 -2.207596e+01
         vertex 4.113176e+01 6.521133e-312 -2.207596e+01
      endloop
   endfacet
   facet normal 8.715518e-02 0.000000e+00 -9.961947e-01
      outer loop
         vertex 4.113176e+01 1.500000e+01 -2.207596e+01
         vertex 4.200000e+01 6.521133e-312 -2.200000e+01
         vertex 4.113176e+01 6.521133e-312 -2.207596e+01
      endloop
   endfacet
   facet normal -8.715481e-02 0.000000e+00 -9.961948e-01
      outer loop
         vertex 4.200000e+01 6.521133e-312 -2.200000e+01
         vertex 4.200000e+01 1.500000e+01 -2.200000e+01
         vertex 4.286824e+01 6.521133e-312 -2.207596e+01
      endloop
   endfacet
   facet normal -8.715481e-02 0.000000e+00 -9.961948e-01
      outer loop
         vertex 4.200000e+01 1.500000e+01 -2.200000e+01
         vertex 4.286824e+01 1.500000e+01 -2.207596e+01
         vertex 4.286824e+01 6.521133e-312 -2.207596e+01
      endloop
   endfacet
   facet normal 8.715481e-02 0.000000e+00 -9.961948e-01
      outer loop
         vertex -4.286824e+01 1.500000e+01 -2.207596e+01
         vertex -4.200000e+01 1.500000e+01 -2.200000e+01
         vertex -4.200000e+01 6.521133e-312 -2.200000e+01
      endloop
   endfacet
   facet normal 8.715518e-02 0.000000e+00 -9.961947e-01
      outer loop
         vertex 4.113176e+01 1.500000e+01 -2.207596e+01
         vertex 4.200000e+01 1.500000e+01 -2.200000e+01
         vertex 4.200000e+01 6.521133e-312 -2.200000e+01
      endloop
   endfacet
   facet normal -8.715547e-02 0.000000e+00 9.961947e-01
      outer loop
         vertex 1.736482e+00 6.521133e-312 -9.848078e+00
         vertex 1.736482e+00 5.500000e+01 -9.848078e+00
         vertex 1.224647e-15 6.521133e-312 -1.000000e+01
      endloop
   endfacet
   facet normal -8.715547e-02 0.000000e+00 9.961947e-01
      outer loop
         vertex 1.736482e+00 5.500000e+01 -9.848078e+00
         vertex 1.224647e-15 5.500000e+01 -1.000000e+01
         vertex 1.224647e-15 6.521133e-312 -1.000000e+01
      endloop
   endfacet
   facet normal 8.715547e-02 0.000000e+00 9.961947e-01
      outer loop
         vertex 1.224647e-15 5.500000e+01 -1.000000e+01
         vertex -1.736482e+00 6.521133e-312 -9.848078e+00
         vertex 1.224647e-15 6.521133e-312 -1.000000e+01
      endloop
   endfacet
   facet normal 8.715547e-02 0.000000e+00 9.961947e-01
      outer loop
         vertex 1.224647e-15 5.500000e+01 -1.000000e+01
         vertex -1.736482e+00 5.500000e+01 -9.848078e+00
         vertex -1.736482e+00 6.521133e-312 -9.848078e+00
      endloop
   endfacet
   facet normal 2.588190e-01 0.000000e+00 9.659258e-01
      outer loop
         vertex -1.736482e+00 5.500000e+01 -9.848078e+00
         vertex -3.420201e+00 6.521133e-312 -9.396926e+00
         vertex -1.736482e+00 6.521133e-312 -9.848078e+00
      endloop
   endfacet
   facet normal -2.588190e-01 0.000000e+00 9.659258e-01
      outer loop
         vertex 3.420201e+00 6.521133e-312 -9.396926e+00
         vertex 3.420201e+00 5.500000e+01 -9.396926e+00
         vertex 1.736482e+00 6.521133e-312 -9.848078e+00
      endloop
   endfacet
   facet normal -2.588190e-01 0.000000e+00 9.659258e-01
      outer loop
         vertex 3.420201e+00 5.500000e+01 -9.396926e+00
         vertex 1.736482e+00 5.500000e+01 -9.848078e+00
         vertex 1.736482e+00 6.521133e-312 -9.848078e+00
      endloop
   endfacet
   facet normal 2.588190e-01 0.000000e+00 9.659258e-01
      outer loop
         vertex -1.736482e+00 5.500000e+01 -9.848078e+00
         vertex -3.420201e+00 5.500000e+01 -9.396926e+00
         vertex -3.420201e+00 6.521133e-312 -9.396926e+00
      endloop
   endfacet
   facet normal 4.226184e-01 0.000000e+00 9.063077e-01
      outer loop
         vertex -3.420201e+00 5.500000e+01 -9.396926e+00
         vertex -5.000000e+00 6.521133e-312 -8.660254e+00
         vertex -3.420201e+00 6.521133e-312 -9.396926e+00
      endloop
   endfacet
   facet normal -4.226184e-01 0.000000e+00 9.063077e-01
      outer loop
         vertex 5.000000e+00 6.521133e-312 -8.660254e+00
         vertex 5.000000e+00 5.500000e+01 -8.660254e+00
         vertex 3.420201e+00 6.521133e-312 -9.396926e+00
      endloop
   endfacet
   facet normal -4.226184e-01 0.000000e+00 9.063077e-01
      outer loop
         vertex 5.000000e+00 5.500000e+01 -8.660254e+00
         vertex 3.420201e+00 5.500000e+01 -9.396926e+00
         vertex 3.420201e+00 6.521133e-312 -9.396926e+00
      endloop
   endfacet
   facet normal 4.226184e-01 0.000000e+00 9.063077e-01
      outer loop
         vertex -3.420201e+00 5.500000e+01 -9.396926e+00
         vertex -5.000000e+00 5.500000e+01 -8.660254e+00
         vertex -5.000000e+00 6.521133e-312 -8.660254e+00
      endloop
   endfacet
   facet normal 5.735764e-01 0.000000e+00 8.191521e-01
      outer loop
         vertex -5.000000e+00 5.500000e+01 -8.660254e+00
         vertex -6.427876e+00 6.521133e-312 -7.660444e+00
         vertex -5.000000e+00 6.521133e-312 -8.660254e+00
      endloop
   endfacet
   facet normal -5.735764e-01 0.000000e+00 8.191521e-01
      outer loop
         vertex 6.427876e+00 6.521133e-312 -7.660444e+00
         vertex 6.427876e+00 5.500000e+01 -7.660444e+00
         vertex 5.000000e+00 6.521133e-312 -8.660254e+00
      endloop
   endfacet
   facet normal -5.735764e-01 0.000000e+00 8.191521e-01
      outer loop
         vertex 6.427876e+00 5.500000e+01 -7.660444e+00
         vertex 5.000000e+00 5.500000e+01 -8.660254e+00
         vertex 5.000000e+00 6.521133e-312 -8.660254e+00
      endloop
   endfacet
   facet normal 5.735764e-01 0.000000e+00 8.191521e-01
      outer loop
         vertex -5.000000e+00 5.500000e+01 -8.660254e+00
         vertex -6.427876e+00 5.500000e+01 -7.660444e+00
         vertex -6.427876e+00 6.521133e-312 -7.660444e+00
      endloop
   endfacet
   facet normal 7.071068e-01 0.000000e+00 7.071068e-01
      outer loop
         vertex -6.427876e+00 5.500000e+01 -7.660444e+00
         vertex -7.660444e+00 6.521133e-312 -6.427876e+00
         vertex -6.427876e+00 6.521133e-312 -7.660444e+00
      endloop
   endfacet
   facet normal -7.071068e-01 0.000000e+00 7.071068e-01
      outer loop
         vertex 7.660444e+00 6.521133e-312 -6.427876e+00
         vertex 7.660444e+00 5.500000e+01 -6.427876e+00
         vertex 6.427876e+00 6.521133e-312 -7.660444e+00
      endloop
   endfacet
   facet normal -7.071068e-01 0.000000e+00 7.071068e-01
      outer loop
         vertex 7.660444e+00 5.500000e+01 -6.427876e+00
         vertex 6.427876e+00 5.500000e+01 -7.660444e+00
         vertex 6.427876e+00 6.521133e-312 -7.660444e+00
      endloop
   endfacet
   facet normal 7.071068e-01 0.000000e+00 7.071068e-01
      outer loop
         vertex -6.427876e+00 5.500000e+01 -7.660444e+00
         vertex -7.660444e+00 5.500000e+01 -6.427876e+00
         vertex -7.660444e+00 6.521133e-312 -6.427876e+00
      endloop
   endfacet
   facet normal 8.191521e-01 0.000000e+00 5.735764e-01
      outer loop
         vertex -7.660444e+00 5.500000e+01 -6.427876e+00
         vertex -8.660254e+00 6.521133e-312 -5.000000e+00
         vertex -7.660444e+00 6.521133e-312 -6.427876e+00
      endloop
   endfacet
   facet normal -8.191521e-01 0.000000e+00 5.735764e-01
      outer loop
         vertex 8.660254e+00 6.521133e-312 -5.000000e+00
         vertex 8.660254e+00 5.500000e+01 -5.000000e+00
         vertex 7.660444e+00 6.521133e-312 -6.427876e+00
      endloop
   endfacet
   facet normal -8.191521e-01 0.000000e+00 5.735764e-01
      outer loop
         vertex 8.660254e+00 5.500000e+01 -5.000000e+00
         vertex 7.660444e+00 5.500000e+01 -6.427876e+00
         vertex 7.660444e+00 6.521133e-312 -6.427876e+00
      endloop
   endfacet
   facet normal 8.191521e-01 0.000000e+00 5.735764e-01
      outer loop
         vertex -7.660444e+00 5.500000e+01 -6.427876e+00
         vertex -8.660254e+00 5.500000e+01 -5.000000e+00
         vertex -8.660254e+00 6.521133e-312 -5.000000e+00
      endloop
   endfacet
   facet normal 9.063077e-01 0.000000e+00 4.226184e-01
      outer loop
         vertex -8.660254e+00 5.500000e+01 -5.000000e+00
         vertex -9.396926e+00 6.521133e-312 -3.420201e+00
         vertex -8.660254e+00 6.521133e-312 -5.000000e+00
      endloop
   endfacet
   facet normal -9.063077e-01 0.000000e+00 4.226184e-01
      outer loop
         vertex 9.396926e+00 6.521133e-312 -3.420201e+00
         vertex 9.396926e+00 5.500000e+01 -3.420201e+00
         vertex 8.660254e+00 6.521133e-312 -5.000000e+00
      endloop
   endfacet
   facet normal -9.063077e-01 0.000000e+00 4.226184e-01
      outer loop
         vertex 9.396926e+00 5.500000e+01 -3.420201e+00
         vertex 8.660254e+00 5.500000e+01 -5.000000e+00
         vertex 8.660254e+00 6.521133e-312 -5.000000e+00
      endloop
   endfacet
   facet normal 9.063077e-01 0.000000e+00 4.226184e-01
      outer loop
         vertex -8.660254e+00 5.500000e+01 -5.000000e+00
         vertex -9.396926e+00 5.500000e+01 -3.420201e+00
         vertex -9.396926e+00 6.521133e-312 -3.420201e+00
      endloop
   endfacet
   facet normal 9.659258e-01 0.000000e+00 2.588190e-01
      outer loop
         vertex -9.396926e+00 5.500000e+01 -3.420201e+00
         vertex -9.848078e+00 6.521133e-312 -1.736482e+00
         vertex -9.396926e+00 6.521133e-312 -3.420201e+00
      endloop
   endfacet
   facet normal -9.659258e-01 0.000000e+00 2.588190e-01
      outer loop
         vertex 9.848078e+00 6.521133e-312 -1.736482e+00
         vertex 9.848078e+00 5.500000e+01 -1.736482e+00
         vertex 9.396926e+00 6.521133e-312 -3.420201e+00
      endloop
   endfacet
   facet normal -9.659258e-01 0.000000e+00 2.588190e-01
      outer loop
         vertex 9.848078e+00 5.500000e+01 -1.736482e+00
         vertex 9.396926e+00 5.500000e+01 -3.420201e+00
         vertex 9.396926e+00 6.521133e-312 -3.420201e+00
      endloop
   endfacet
   facet normal 9.659258e-01 0.000000e+00 2.588190e-01
      outer loop
         vertex -9.396926e+00 5.500000e+01 -3.420201e+00
         vertex -9.848078e+00 5.500000e+01 -1.736482e+00
         vertex -9.848078e+00 6.521133e-312 -1.736482e+00
      endloop
   endfacet
   facet normal 9.961947e-01 0.000000e+00 8.715547e-02
      outer loop
         vertex -9.848078e+00 5.500000e+01 -1.736482e+00
         vertex -1.000000e+01 6.521133e-312 -1.836970e-15
         vertex -9.848078e+00 6.521133e-312 -1.736482e+00
      endloop
   endfacet
   facet normal -9.961947e-01 0.000000e+00 8.715547e-02
      outer loop
         vertex 1.000000e+01 6.521133e-312 6.123234e-16
         vertex 1.000000e+01 5.500000e+01 6.123234e-16
         vertex 9.848078e+00 6.521133e-312 -1.736482e+00
      endloop
   endfacet
   facet normal -9.961947e-01 0.000000e+00 8.715547e-02
      outer loop
         vertex 1.000000e+01 5.500000e+01 6.123234e-16
         vertex 9.848078e+00 5.500000e+01 -1.736482e+00
         vertex 9.848078e+00 6.521133e-312 -1.736482e+00
      endloop
   endfacet
   facet normal 9.961947e-01 0.000000e+00 8.715547e-02
      outer loop
         vertex -9.848078e+00 5.500000e+01 -1.736482e+00
         vertex -1.000000e+01 5.500000e+01 -1.836970e-15
         vertex -1.000000e+01 6.521133e-312 -1.836970e-15
      endloop
   endfacet
   facet normal 9.961947e-01 0.000000e+00 -8.715547e-02
      outer loop
         vertex -1.000000e+01 5.500000e+01 -1.836970e-15
         vertex -9.848078e+00 6.521133e-312 1.736482e+00
         vertex -1.000000e+01 6.521133e-312 -1.836970e-15
      endloop
   endfacet
   facet normal -9.961947e-01 0.000000e+00 -8.715547e-02
      outer loop
         vertex 9.848078e+00 6.521133e-312 1.736482e+00
         vertex 9.848078e+00 5.500000e+01 1.736482e+00
         vertex 1.000000e+01 6.521133e-312 6.123234e-16
      endloop
   endfacet
   facet normal -9.961947e-01 0.000000e+00 -8.715547e-02
      outer loop
         vertex 9.848078e+00 5.500000e+01 1.736482e+00
         vertex 1.000000e+01 5.500000e+01 6.123234e-16
         vertex 1.000000e+01 6.521133e-312 6.123234e-16
      endloop
   endfacet
   facet normal 9.961947e-01 0.000000e+00 -8.715547e-02
      outer loop
         vertex -1.000000e+01 5.500000e+01 -1.836970e-15
         vertex -9.848078e+00 5.500000e+01 1.736482e+00
         vertex -9.848078e+00 6.521133e-312 1.736482e+00
      endloop
   endfacet
   facet normal 9.659258e-01 0.000000e+00 -2.588190e-01
      outer loop
         vertex -9.848078e+00 5.500000e+01 1.736482e+00
         vertex -9.396926e+00 6.521133e-312 3.420201e+00
         vertex -9.848078e+00 6.521133e-312 1.736482e+00
      endloop
   endfacet
   facet normal -9.659258e-01 0.000000e+00 -2.588190e-01
      outer loop
         vertex 9.396926e+00 6.521133e-312 3.420201e+00
         vertex 9.396926e+00 5.500000e+01 3.420201e+00
         vertex 9.848078e+00 6.521133e-312 1.736482e+00
      endloop
   endfacet
   facet normal -9.659258e-01 0.000000e+00 -2.588190e-01
      outer loop
         vertex 9.396926e+00 5.500000e+01 3.420201e+00
         vertex 9.848078e+00 5.500000e+01 1.736482e+00
         vertex 9.848078e+00 6.521133e-312 1.736482e+00
      endloop
   endfacet
   facet normal 9.659258e-01 0.000000e+00 -2.588190e-01
      outer loop
         vertex -9.848078e+00 5.500000e+01 1.736482e+00
         vertex -9.396926e+00 5.500000e+01 3.420201e+00
         vertex -9.396926e+00 6.521133e-312 3.420201e+00
      endloop
   endfacet
   facet normal 9.063077e-01 0.000000e+00 -4.226184e-01
      outer loop
         vertex -9.396926e+00 5.500000e+01 3.420201e+00
         vertex -8.660254e+00 6.521133e-312 5.000000e+00
         vertex -9.396926e+00 6.521133e-312 3.420201e+00
      endloop
   endfacet
   facet normal -9.063077e-01 0.000000e+00 -4.226184e-01
      outer loop
         vertex 8.660254e+00 6.521133e-312 5.000000e+00
         vertex 8.660254e+00 5.500000e+01 5.000000e+00
         vertex 9.396926e+00 6.521133e-312 3.420201e+00
      endloop
   endfacet
   facet normal -9.063077e-01 0.000000e+00 -4.226184e-01
      outer loop
         vertex 8.660254e+00 5.500000e+01 5.000000e+00
         vertex 9.396926e+00 5.500000e+01 3.420201e+00
         vertex 9.396926e+00 6.521133e-312 3.420201e+00
      endloop
   endfacet
   facet normal 9.063077e-01 0.000000e+00 -4.226184e-01
      outer loop
         vertex -9.396926e+00 5.500000e+01 3.420201e+00
         vertex -8.660254e+00 5.500000e+01 5.000000e+00
         vertex -8.660254e+00 6.521133e-312 5.000000e+00
      endloop
   endfacet
   facet normal 8.191521e-01 0.000000e+00 -5.735764e-01
      outer loop
         vertex -8.660254e+00 5.500000e+01 5.000000e+00
         vertex -7.660444e+00 6.521133e-312 6.427876e+00
         vertex -8.660254e+00 6.521133e-312 5.000000e+00
      endloop
   endfacet
   facet normal -8.191521e-01 0.000000e+00 -5.735764e-01
      outer loop
         vertex 7.660444e+00 6.521133e-312 6.427876e+00
         vertex 7.660444e+00 5.500000e+01 6.427876e+00
         vertex 8.660254e+00 6.521133e-312 5.000000e+00
      endloop
   endfacet
   facet normal -8.191521e-01 0.000000e+00 -5.735764e-01
      outer loop
         vertex 7.660444e+00 5.500000e+01 6.427876e+00
         vertex 8.660254e+00 5.500000e+01 5.000000e+00
         vertex 8.660254e+00 6.521133e-312 5.000000e+00
      endloop
   endfacet
   facet normal 8.191521e-01 0.000000e+00 -5.735764e-01
      outer loop
         vertex -8.660254e+00 5.500000e+01 5.000000e+00
         vertex -7.660444e+00 5.500000e+01 6.427876e+00
         vertex -7.660444e+00 6.521133e-312 6.427876e+00
      endloop
   endfacet
   facet normal 7.071068e-01 0.000000e+00 -7.071068e-01
      outer loop
         vertex -7.660444e+00 5.500000e+01 6.427876e+00
         vertex -6.427876e+00 6.521133e-312 7.660444e+00
         vertex -7.660444e+00 6.521133e-312 6.427876e+00
      endloop
   endfacet
   facet normal -7.071068e-01 0.000000e+00 -7.071068e-01
      outer loop
         vertex 6.427876e+00 6.521133e-312 7.660444e+00
         vertex 6.427876e+00 5.500000e+01 7.660444e+00
         vertex 7.660444e+00 6.521133e-312 6.427876e+00
      endloop
   endfacet
   facet normal -7.071068e-01 0.000000e+00 -7.071068e-01
      outer loop
         vertex 6.427876e+00 5.500000e+01 7.660444e+00
         vertex 7.660444e+00 5.500000e+01 6.427876e+00
         vertex 7.660444e+00 6.521133e-312 6.427876e+00
      endloop
   endfacet
   facet normal 7.071068e-01 0.000000e+00 -7.071068e-01
      outer loop
         vertex -7.660444e+00 5.500000e+01 6.427876e+00
         vertex -6.427876e+00 5.500000e+01 7.660444e+00
         vertex -6.427876e+00 6.521133e-312 7.660444e+00
      endloop
   endfacet
   facet normal 5.735764e-01 0.000000e+00 -8.191521e-01
      outer loop
         vertex -6.427876e+00 5.500000e+01 7.660444e+00
         vertex -5.000000e+00 6.521133e-312 8.660254e+00
         vertex -6.427876e+00 6.521133e-312 7.660444e+00
      endloop
   endfacet
   facet normal -5.735764e-01 0.000000e+00 -8.191521e-01
      outer loop
         vertex 5.000000e+00 6.521133e-312 8.660254e+00
         vertex 5.000000e+00 5.500000e+01 8.660254e+00
         vertex 6.427876e+00 6.521133e-312 7.660444e+00
      endloop
   endfacet
   facet normal -5.735764e-01 0.000000e+00 -8.191521e-01
      outer loop
         vertex 5.000000e+00 5.500000e+01 8.660254e+00
         vertex 6.427876e+00 5.500000e+01 7.660444e+00
         vertex 6.427876e+00 6.521133e-312 7.660444e+00
      endloop
   endfacet
   facet normal 5.735764e-01 0.000000e+00 -8.191521e-01
      outer loop
         vertex -6.427876e+00 5.500000e+01 7.660444e+00
         vertex -5.000000e+00 5.500000e+01 8.660254e+00
         vertex -5.000000e+00 6.521133e-312 8.660254e+00
      endloop
   endfacet
   facet normal 4.226184e-01 0.000000e+00 -9.063077e-01
      outer loop
         vertex -5.000000e+00 5.500000e+01 8.660254e+00
         vertex -3.420201e+00 6.521133e-312 9.396926e+00
         vertex -5.000000e+00 6.521133e-312 8.660254e+00
      endloop
   endfacet
   facet normal -4.226184e-01 0.000000e+00 -9.063077e-01
      outer loop
         vertex 3.420201e+00 6.521133e-312 9.396926e+00
         vertex 3.420201e+00 5.500000e+01 9.396926e+00
         vertex 5.000000e+00 6.521133e-312 8.660254e+00
      endloop
   endfacet
   facet normal -4.226184e-01 0.000000e+00 -9.063077e-01
      outer loop
         vertex 3.420201e+00 5.500000e+01 9.396926e+00
         vertex 5.000000e+00 5.500000e+01 8.660254e+00
         vertex 5.000000e+00 6.521133e-312 8.660254e+00
      endloop
   endfacet
   facet normal 4.226184e-01 0.000000e+00 -9.063077e-01
      outer loop
         vertex -5.000000e+00 5.500000e+01 8.660254e+00
         vertex -3.420201e+00 5.500000e+01 9.396926e+00
         vertex -3.420201e+00 6.521133e-312 9.396926e+00
      endloop
   endfacet
   facet normal 2.588190e-01 0.000000e+00 -9.659258e-01
      outer loop
         vertex -3.420201e+00 5.500000e+01 9.396926e+00
         vertex -1.736482e+00 6.521133e-312 9.848078e+00
         vertex -3.420201e+00 6.521133e-312 9.396926e+00
      endloop
   endfacet
   facet normal -2.588190e-01 0.000000e+00 -9.659258e-01
      outer loop
         vertex 1.736482e+00 6.521133e-312 9.848078e+00
         vertex 1.736482e+00 5.500000e+01 9.848078e+00
         vertex 3.420201e+00 6.521133e-312 9.396926e+00
      endloop
   endfacet
   facet normal -2.588190e-01 0.000000e+00 -9.659258e-01
      outer loop
         vertex 1.736482e+00 5.500000e+01 9.848078e+00
         vertex 3.420201e+00 5.500000e+01 9.396926e+00
         vertex 3.420201e+00 6.521133e-312 9.396926e+00
      endloop
   endfacet
   facet normal 2.588190e-01 0.000000e+00 -9.659258e-01
      outer loop
         vertex -3.420201e+00 5.500000e+01 9.396926e+00
         vertex -1.736482e+00 5.500000e+01 9.848078e+00
         vertex -1.736482e+00 6.521133e-312 9.848078e+00
      endloop
   endfacet
   facet normal 8.715547e-02 0.000000e+00 -9.961947e-01
      outer loop
         vertex -1.736482e+00 5.500000e+01 9.848078e+00
         vertex -2.449294e-15 6.521133e-312 1.000000e+01
         vertex -1.736482e+00 6.521133e-312 9.848078e+00
      endloop
   endfacet
   facet normal -8.715547e-02 3.881261e-18 -9.961947e-01
      outer loop
         vertex -2.449294e-15 6.521133e-312 1.000000e+01
         vertex 0.000000e+00 5.500000e+01 1.000000e+01
         vertex 1.736482e+00 6.521133e-312 9.848078e+00
      endloop
   endfacet
   facet normal -8.715547e-02 0.000000e+00 -9.961947e-01
      outer loop
         vertex 0.000000e+00 5.500000e+01 1.000000e+01
         vertex 1.736482e+00 5.500000e+01 9.848078e+00
         vertex 1.736482e+00 6.521133e-312 9.848078e+00
      endloop
   endfacet
   facet normal 8.715547e-02 -3.865358e-18 -9.961947e-01
      outer loop
         vertex -1.736482e+00 5.500000e+01 9.848078e+00
         vertex 0.000000e+00 5.500000e+01 1.000000e+01
         vertex -2.449294e-15 6.521133e-312 1.000000e+01
      endloop
   endfacet
   facet normal -8.715518e-02 0.000000e+00 9.961947e-01
      outer loop
         vertex -4.113176e+01 6.521133e-312 2.207596e+01
         vertex -4.113176e+01 1.500000e+01 2.207596e+01
         vertex -4.200000e+01 6.521133e-312 2.200000e+01
      endloop
   endfacet
   facet normal -8.715518e-02 0.000000e+00 9.961947e-01
      outer loop
         vertex -4.113176e+01 1.500000e+01 2.207596e+01
         vertex -4.200000e+01 1.500000e+01 2.200000e+01
         vertex -4.200000e+01 6.521133e-312 2.200000e+01
      endloop
   endfacet
   facet normal 8.715481e-02 0.000000e+00 9.961948e-01
      outer loop
         vertex -4.200000e+01 1.500000e+01 2.200000e+01
         vertex -4.286824e+01 6.521133e-312 2.207596e+01
         vertex -4.200000e+01 6.521133e-312 2.200000e+01
      endloop
   endfacet
   facet normal -8.715481e-02 0.000000e+00 9.961948e-01
      outer loop
         vertex 4.286824e+01 6.521133e-312 2.207596e+01
         vertex 4.286824e+01 1.500000e+01 2.207596e+01
         vertex 4.200000e+01 6.521133e-312 2.200000e+01
      endloop
   endfacet
   facet normal -8.715481e-02 0.000000e+00 9.961948e-01
      outer loop
         vertex 4.286824e+01 1.500000e+01 2.207596e+01
         vertex 4.200000e+01 1.500000e+01 2.200000e+01
         vertex 4.200000e+01 6.521133e-312 2.200000e+01
      endloop
   endfacet
   facet normal 8.715518e-02 0.000000e+00 9.961947e-01
      outer loop
         vertex 4.200000e+01 1.500000e+01 2.200000e+01
         vertex 4.113176e+01 6.521133e-312 2.207596e+01
         vertex 4.200000e+01 6.521133e-312 2.200000e+01
      endloop
   endfacet
   facet normal 8.715481e-02 0.000000e+00 9.961948e-01
      outer loop
         vertex -4.200000e+01 1.500000e+01 2.200000e+01
         vertex -4.286824e+01 1.500000e+01 2.207596e+01
         vertex -4.286824e+01 6.521133e-312 2.207596e+01
      endloop
   endfacet
   facet normal 2.588191e-01 0.000000e+00 9.659258e-01
      outer loop
         vertex -4.286824e+01 1.500000e+01 2.207596e+01
         vertex -4.371010e+01 6.521133e-312 2.230154e+01
         vertex -4.286824e+01 6.521133e-312 2.207596e+01
      endloop
   endfacet
   facet normal -2.588180e-01 0.000000e+00 9.659261e-01
      outer loop
         vertex -4.028990e+01 6.521133e-312 2.230154e+01
         vertex -4.028990e+01 1.500000e+01 2.230154e+01
         vertex -4.113176e+01 6.521133e-312 2.207596e+01
      endloop
   endfacet
   facet normal -2.588180e-01 0.000000e+00 9.659261e-01
      outer loop
         vertex -4.028990e+01 1.500000e+01 2.230154e+01
         vertex -4.113176e+01 1.500000e+01 2.207596e+01
         vertex -4.113176e+01 6.521133e-312 2.207596e+01
      endloop
   endfacet
   facet normal 8.715518e-02 0.000000e+00 9.961947e-01
      outer loop
         vertex 4.200000e+01 1.500000e+01 2.200000e+01
         vertex 4.113176e+01 1.500000e+01 2.207596e+01
         vertex 4.113176e+01 6.521133e-312 2.207596e+01
      endloop
   endfacet
   facet normal 2.588180e-01 0.000000e+00 9.659261e-01
      outer loop
         vertex 4.113176e+01 1.500000e+01 2.207596e+01
         vertex 4.028990e+01 6.521133e-312 2.230154e+01
         vertex 4.113176e+01 6.521133e-312 2.207596e+01
      endloop
   endfacet
   facet normal -2.588191e-01 0.000000e+00 9.659258e-01
      outer loop
         vertex 4.371010e+01 6.521133e-312 2.230154e+01
         vertex 4.371010e+01 1.500000e+01 2.230154e+01
         vertex 4.286824e+01 6.521133e-312 2.207596e+01
      endloop
   endfacet
   facet normal -2.588191e-01 0.000000e+00 9.659258e-01
      outer loop
         vertex 4.371010e+01 1.500000e+01 2.230154e+01
         vertex 4.286824e+01 1.500000e+01 2.207596e+01
         vertex 4.286824e+01 6.521133e-312 2.207596e+01
      endloop
   endfacet
   facet normal 2.588191e-01 0.000000e+00 9.659258e-01
      outer loop
         vertex -4.286824e+01 1.500000e+01 2.207596e+01
         vertex -4.371010e+01 1.500000e+01 2.230154e+01
         vertex -4.371010e+01 6.521133e-312 2.230154e+01
      endloop
   endfacet
   facet normal 4.226183e-01 0.000000e+00 9.063077e-01
      outer loop
         vertex -4.371010e+01 1.500000e+01 2.230154e+01
         vertex -4.450000e+01 6.521133e-312 2.266987e+01
         vertex -4.371010e+01 6.521133e-312 2.230154e+01
      endloop
   endfacet
   facet normal -4.226200e-01 0.000000e+00 9.063070e-01
      outer loop
         vertex -3.950000e+01 6.521133e-312 2.266987e+01
         vertex -3.950000e+01 1.500000e+01 2.266987e+01
         vertex -4.028990e+01 6.521133e-312 2.230154e+01
      endloop
   endfacet
   facet normal -4.226200e-01 0.000000e+00 9.063070e-01
      outer loop
         vertex -3.950000e+01 1.500000e+01 2.266987e+01
         vertex -4.028990e+01 1.500000e+01 2.230154e+01
         vertex -4.028990e+01 6.521133e-312 2.230154e+01
      endloop
   endfacet
   facet normal 2.588180e-01 0.000000e+00 9.659261e-01
      outer loop
         vertex 4.113176e+01 1.500000e+01 2.207596e+01
         vertex 4.028990e+01 1.500000e+01 2.230154e+01
         vertex 4.028990e+01 6.521133e-312 2.230154e+01
      endloop
   endfacet
   facet normal 4.226200e-01 0.000000e+00 9.063070e-01
      outer loop
         vertex 4.028990e+01 1.500000e+01 2.230154e+01
         vertex 3.950000e+01 6.521133e-312 2.266987e+01
         vertex 4.028990e+01 6.521133e-312 2.230154e+01
      endloop
   endfacet
   facet normal -4.226183e-01 0.000000e+00 9.063077e-01
      outer loop
         vertex 4.450000e+01 6.521133e-312 2.266987e+01
         vertex 4.450000e+01 1.500000e+01 2.266987e+01
         vertex 4.371010e+01 6.521133e-312 2.230154e+01
      endloop
   endfacet
   facet normal -4.226183e-01 0.000000e+00 9.063077e-01
      outer loop
         vertex 4.450000e+01 1.500000e+01 2.266987e+01
         vertex 4.371010e+01 1.500000e+01 2.230154e+01
         vertex 4.371010e+01 6.521133e-312 2.230154e+01
      endloop
   endfacet
   facet normal 4.226183e-01 0.000000e+00 9.063077e-01
      outer loop
         vertex -4.371010e+01 1.500000e+01 2.230154e+01
         vertex -4.450000e+01 1.500000e+01 2.266987e+01
         vertex -4.450000e+01 6.521133e-312 2.266987e+01
      endloop
   endfacet
   facet normal 5.735779e-01 0.000000e+00 8.191510e-01
      outer loop
         vertex -4.450000e+01 1.500000e+01 2.266987e+01
         vertex -4.521394e+01 6.521133e-312 2.316978e+01
         vertex -4.450000e+01 6.521133e-312 2.266987e+01
      endloop
   endfacet
   facet normal -5.735759e-01 0.000000e+00 8.191524e-01
      outer loop
         vertex -3.878606e+01 6.521133e-312 2.316978e+01
         vertex -3.878606e+01 1.500000e+01 2.316978e+01
         vertex -3.950000e+01 6.521133e-312 2.266987e+01
      endloop
   endfacet
   facet normal -5.735759e-01 0.000000e+00 8.191524e-01
      outer loop
         vertex -3.878606e+01 1.500000e+01 2.316978e+01
         vertex -3.950000e+01 1.500000e+01 2.266987e+01
         vertex -3.950000e+01 6.521133e-312 2.266987e+01
      endloop
   endfacet
   facet normal 4.226200e-01 0.000000e+00 9.063070e-01
      outer loop
         vertex 4.028990e+01 1.500000e+01 2.230154e+01
         vertex 3.950000e+01 1.500000e+01 2.266987e+01
         vertex 3.950000e+01 6.521133e-312 2.266987e+01
      endloop
   endfacet
   facet normal 5.735759e-01 0.000000e+00 8.191524e-01
      outer loop
         vertex 3.950000e+01 1.500000e+01 2.266987e+01
         vertex 3.878606e+01 6.521133e-312 2.316978e+01
         vertex 3.950000e+01 6.521133e-312 2.266987e+01
      endloop
   endfacet
   facet normal -5.735779e-01 0.000000e+00 8.191510e-01
      outer loop
         vertex 4.521394e+01 6.521133e-312 2.316978e+01
         vertex 4.521394e+01 1.500000e+01 2.316978e+01
         vertex 4.450000e+01 6.521133e-312 2.266987e+01
      endloop
   endfacet
   facet normal -5.735779e-01 0.000000e+00 8.191510e-01
      outer loop
         vertex 4.521394e+01 1.500000e+01 2.316978e+01
         vertex 4.450000e+01 1.500000e+01 2.266987e+01
         vertex 4.450000e+01 6.521133e-312 2.266987e+01
      endloop
   endfacet
   facet normal 5.735779e-01 0.000000e+00 8.191510e-01
      outer loop
         vertex -4.450000e+01 1.500000e+01 2.266987e+01
         vertex -4.521394e+01 1.500000e+01 2.316978e+01
         vertex -4.521394e+01 6.521133e-312 2.316978e+01
      endloop
   endfacet
   facet normal 7.071057e-01 0.000000e+00 7.071078e-01
      outer loop
         vertex -4.521394e+01 1.500000e+01 2.316978e+01
         vertex -4.583022e+01 6.521133e-312 2.378606e+01
         vertex -4.521394e+01 6.521133e-312 2.316978e+01
      endloop
   endfacet
   facet normal -7.071078e-01 0.000000e+00 7.071057e-01
      outer loop
         vertex -3.816978e+01 6.521133e-312 2.378606e+01
         vertex -3.816978e+01 1.500000e+01 2.378606e+01
         vertex -3.878606e+01 6.521133e-312 2.316978e+01
      endloop
   endfacet
   facet normal -7.071078e-01 0.000000e+00 7.071057e-01
      outer loop
         vertex -3.816978e+01 1.500000e+01 2.378606e+01
         vertex -3.878606e+01 1.500000e+01 2.316978e+01
         vertex -3.878606e+01 6.521133e-312 2.316978e+01
      endloop
   endfacet
   facet normal 5.735759e-01 0.000000e+00 8.191524e-01
      outer loop
         vertex 3.950000e+01 1.500000e+01 2.266987e+01
         vertex 3.878606e+01 1.500000e+01 2.316978e+01
         vertex 3.878606e+01 6.521133e-312 2.316978e+01
      endloop
   endfacet
   facet normal 7.071078e-01 0.000000e+00 7.071057e-01
      outer loop
         vertex 3.878606e+01 1.500000e+01 2.316978e+01
         vertex 3.816978e+01 6.521133e-312 2.378606e+01
         vertex 3.878606e+01 6.521133e-312 2.316978e+01
      endloop
   endfacet
   facet normal -7.071057e-01 0.000000e+00 7.071078e-01
      outer loop
         vertex 4.583022e+01 6.521133e-312 2.378606e+01
         vertex 4.583022e+01 1.500000e+01 2.378606e+01
         vertex 4.521394e+01 6.521133e-312 2.316978e+01
      endloop
   endfacet
   facet normal -7.071057e-01 0.000000e+00 7.071078e-01
      outer loop
         vertex 4.583022e+01 1.500000e+01 2.378606e+01
         vertex 4.521394e+01 1.500000e+01 2.316978e+01
         vertex 4.521394e+01 6.521133e-312 2.316978e+01
      endloop
   endfacet
   facet normal 7.071057e-01 0.000000e+00 7.071078e-01
      outer loop
         vertex -4.521394e+01 1.500000e+01 2.316978e+01
         vertex -4.583022e+01 1.500000e+01 2.378606e+01
         vertex -4.583022e+01 6.521133e-312 2.378606e+01
      endloop
   endfacet
   facet normal 8.191520e-01 0.000000e+00 5.735765e-01
      outer loop
         vertex -4.583022e+01 1.500000e+01 2.378606e+01
         vertex -4.633013e+01 6.521133e-312 2.450000e+01
         vertex -4.583022e+01 6.521133e-312 2.378606e+01
      endloop
   endfacet
   facet normal -8.191520e-01 0.000000e+00 5.735765e-01
      outer loop
         vertex -3.766987e+01 6.521133e-312 2.450000e+01
         vertex -3.766987e+01 1.500000e+01 2.450000e+01
         vertex -3.816978e+01 6.521133e-312 2.378606e+01
      endloop
   endfacet
   facet normal -8.191520e-01 0.000000e+00 5.735765e-01
      outer loop
         vertex -3.766987e+01 1.500000e+01 2.450000e+01
         vertex -3.816978e+01 1.500000e+01 2.378606e+01
         vertex -3.816978e+01 6.521133e-312 2.378606e+01
      endloop
   endfacet
   facet normal 7.071078e-01 0.000000e+00 7.071057e-01
      outer loop
         vertex 3.878606e+01 1.500000e+01 2.316978e+01
         vertex 3.816978e+01 1.500000e+01 2.378606e+01
         vertex 3.816978e+01 6.521133e-312 2.378606e+01
      endloop
   endfacet
   facet normal 8.191520e-01 0.000000e+00 5.735765e-01
      outer loop
         vertex 3.816978e+01 1.500000e+01 2.378606e+01
         vertex 3.766987e+01 6.521133e-312 2.450000e+01
         vertex 3.816978e+01 6.521133e-312 2.378606e+01
      endloop
   endfacet
   facet normal -8.191520e-01 0.000000e+00 5.735765e-01
      outer loop
         vertex 4.633013e+01 6.521133e-312 2.450000e+01
         vertex 4.633013e+01 1.500000e+01 2.450000e+01
         vertex 4.583022e+01 6.521133e-312 2.378606e+01
      endloop
   endfacet
   facet normal -8.191520e-01 0.000000e+00 5.735765e-01
      outer loop
         vertex 4.633013e+01 1.500000e+01 2.450000e+01
         vertex 4.583022e+01 1.500000e+01 2.378606e+01
         vertex 4.583022e+01 6.521133e-312 2.378606e+01
      endloop
   endfacet
   facet normal 8.191520e-01 0.000000e+00 5.735765e-01
      outer loop
         vertex -4.583022e+01 1.500000e+01 2.378606e+01
         vertex -4.633013e+01 1.500000e+01 2.450000e+01
         vertex -4.633013e+01 6.521133e-312 2.450000e+01
      endloop
   endfacet
   facet normal 9.063086e-01 0.000000e+00 4.226166e-01
      outer loop
         vertex -4.633013e+01 1.500000e+01 2.450000e+01
         vertex -4.669846e+01 6.521133e-312 2.528990e+01
         vertex -4.633013e+01 6.521133e-312 2.450000e+01
      endloop
   endfacet
   facet normal -9.063069e-01 0.000000e+00 4.226201e-01
      outer loop
         vertex -3.730154e+01 6.521133e-312 2.528990e+01
         vertex -3.730154e+01 1.500000e+01 2.528990e+01
         vertex -3.766987e+01 6.521133e-312 2.450000e+01
      endloop
   endfacet
   facet normal -9.063069e-01 0.000000e+00 4.226201e-01
      outer loop
         vertex -3.730154e+01 1.500000e+01 2.528990e+01
         vertex -3.766987e+01 1.500000e+01 2.450000e+01
         vertex -3.766987e+01 6.521133e-312 2.450000e+01
      endloop
   endfacet
   facet normal 8.191520e-01 0.000000e+00 5.735765e-01
      outer loop
         vertex 3.816978e+01 1.500000e+01 2.378606e+01
         vertex 3.766987e+01 1.500000e+01 2.450000e+01
         vertex 3.766987e+01 6.521133e-312 2.450000e+01
      endloop
   endfacet
   facet normal 9.063069e-01 0.000000e+00 4.226201e-01
      outer loop
         vertex 3.766987e+01 1.500000e+01 2.450000e+01
         vertex 3.730154e+01 6.521133e-312 2.528990e+01
         vertex 3.766987e+01 6.521133e-312 2.450000e+01
      endloop
   endfacet
   facet normal -9.063086e-01 0.000000e+00 4.226166e-01
      outer loop
         vertex 4.669846e+01 6.521133e-312 2.528990e+01
         vertex 4.669846e+01 1.500000e+01 2.528990e+01
         vertex 4.633013e+01 6.521133e-312 2.450000e+01
      endloop
   endfacet
   facet normal -9.063086e-01 0.000000e+00 4.226166e-01
      outer loop
         vertex 4.669846e+01 1.500000e+01 2.528990e+01
         vertex 4.633013e+01 1.500000e+01 2.450000e+01
         vertex 4.633013e+01 6.521133e-312 2.450000e+01
      endloop
   endfacet
   facet normal 9.063086e-01 0.000000e+00 4.226166e-01
      outer loop
         vertex -4.633013e+01 1.500000e+01 2.450000e+01
         vertex -4.669846e+01 1.500000e+01 2.528990e+01
         vertex -4.669846e+01 6.521133e-312 2.528990e+01
      endloop
   endfacet
   facet normal 9.659253e-01 0.000000e+00 2.588210e-01
      outer loop
         vertex -4.669846e+01 1.500000e+01 2.528990e+01
         vertex -4.692404e+01 6.521133e-312 2.613176e+01
         vertex -4.669846e+01 6.521133e-312 2.528990e+01
      endloop
   endfacet
   facet normal -9.659264e-01 0.000000e+00 2.588171e-01
      outer loop
         vertex -3.707596e+01 6.521133e-312 2.613176e+01
         vertex -3.707596e+01 1.500000e+01 2.613176e+01
         vertex -3.730154e+01 6.521133e-312 2.528990e+01
      endloop
   endfacet
   facet normal -9.659264e-01 0.000000e+00 2.588171e-01
      outer loop
         vertex -3.707596e+01 1.500000e+01 2.613176e+01
         vertex -3.730154e+01 1.500000e+01 2.528990e+01
         vertex -3.730154e+01 6.521133e-312 2.528990e+01
      endloop
   endfacet
   facet normal 9.063069e-01 0.000000e+00 4.226201e-01
      outer loop
         vertex 3.766987e+01 1.500000e+01 2.450000e+01
         vertex 3.730154e+01 1.500000e+01 2.528990e+01
         vertex 3.730154e+01 6.521133e-312 2.528990e+01
      endloop
   endfacet
   facet normal 9.659264e-01 0.000000e+00 2.588171e-01
      outer loop
         vertex 3.730154e+01 1.500000e+01 2.528990e+01
         vertex 3.707596e+01 6.521133e-312 2.613176e+01
         vertex 3.730154e+01 6.521133e-312 2.528990e+01
      endloop
   endfacet
   facet normal -9.659253e-01 0.000000e+00 2.588210e-01
      outer loop
         vertex 4.692404e+01 6.521133e-312 2.613176e+01
         vertex 4.692404e+01 1.500000e+01 2.613176e+01
         vertex 4.669846e+01 6.521133e-312 2.528990e+01
      endloop
   endfacet
   facet normal -9.659253e-01 0.000000e+00 2.588210e-01
      outer loop
         vertex 4.692404e+01 1.500000e+01 2.613176e+01
         vertex 4.669846e+01 1.500000e+01 2.528990e+01
         vertex 4.669846e+01 6.521133e-312 2.528990e+01
      endloop
   endfacet
   facet normal 9.659253e-01 0.000000e+00 2.588210e-01
      outer loop
         vertex -4.669846e+01 1.500000e+01 2.528990e+01
         vertex -4.692404e+01 1.500000e+01 2.613176e+01
         vertex -4.692404e+01 6.521133e-312 2.613176e+01
      endloop
   endfacet
   facet normal 9.961950e-01 0.000000e+00 8.715269e-02
      outer loop
         vertex -4.692404e+01 1.500000e+01 2.613176e+01
         vertex -4.700000e+01 6.521133e-312 2.700000e+01
         vertex -4.692404e+01 6.521133e-312 2.613176e+01
      endloop
   endfacet
   facet normal -9.961946e-01 0.000000e+00 8.715693e-02
      outer loop
         vertex -3.700000e+01 6.521133e-312 2.700000e+01
         vertex -3.700000e+01 1.500000e+01 2.700000e+01
         vertex -3.707596e+01 6.521133e-312 2.613176e+01
      endloop
   endfacet
   facet normal -9.961946e-01 0.000000e+00 8.715693e-02
      outer loop
         vertex -3.700000e+01 1.500000e+01 2.700000e+01
         vertex -3.707596e+01 1.500000e+01 2.613176e+01
         vertex -3.707596e+01 6.521133e-312 2.613176e+01
      endloop
   endfacet
   facet normal 9.659264e-01 0.000000e+00 2.588171e-01
      outer loop
         vertex 3.730154e+01 1.500000e+01 2.528990e+01
         vertex 3.707596e+01 1.500000e+01 2.613176e+01
         vertex 3.707596e+01 6.521133e-312 2.613176e+01
      endloop
   endfacet
   facet normal 9.961946e-01 0.000000e+00 8.715693e-02
      outer loop
         vertex 3.707596e+01 1.500000e+01 2.613176e+01
         vertex 3.700000e+01 6.521133e-312 2.700000e+01
         vertex 3.707596e+01 6.521133e-312 2.613176e+01
      endloop
   endfacet
   facet normal -9.961950e-01 0.000000e+00 8.715269e-02
      outer loop
         vertex 4.700000e+01 6.521133e-312 2.700000e+01
         vertex 4.700000e+01 1.500000e+01 2.700000e+01
         vertex 4.692404e+01 6.521133e-312 2.613176e+01
      endloop
   endfacet
   facet normal -9.961950e-01 0.000000e+00 8.715269e-02
      outer loop
         vertex 4.700000e+01 1.500000e+01 2.700000e+01
         vertex 4.692404e+01 1.500000e+01 2.613176e+01
         vertex 4.692404e+01 6.521133e-312 2.613176e+01
      endloop
   endfacet
   facet normal 9.961950e-01 0.000000e+00 8.715269e-02
      outer loop
         vertex -4.692404e+01 1.500000e+01 2.613176e+01
         vertex -4.700000e+01 1.500000e+01 2.700000e+01
         vertex -4.700000e+01 6.521133e-312 2.700000e+01
      endloop
   endfacet
   facet normal 9.961949e-01 0.000000e+00 -8.715287e-02
      outer loop
         vertex -4.700000e+01 1.500000e+01 2.700000e+01
         vertex -4.692404e+01 6.521133e-312 2.786824e+01
         vertex -4.700000e+01 6.521133e-312 2.700000e+01
      endloop
   endfacet
   facet normal -9.961946e-01 0.000000e+00 -8.715711e-02
      outer loop
         vertex -3.707596e+01 6.521133e-312 2.786824e+01
         vertex -3.707596e+01 1.500000e+01 2.786824e+01
         vertex -3.700000e+01 6.521133e-312 2.700000e+01
      endloop
   endfacet
   facet normal -9.961946e-01 0.000000e+00 -8.715711e-02
      outer loop
         vertex -3.707596e+01 1.500000e+01 2.786824e+01
         vertex -3.700000e+01 1.500000e+01 2.700000e+01
         vertex -3.700000e+01 6.521133e-312 2.700000e+01
      endloop
   endfacet
   facet normal 9.961946e-01 0.000000e+00 8.715693e-02
      outer loop
         vertex 3.707596e+01 1.500000e+01 2.613176e+01
         vertex 3.700000e+01 1.500000e+01 2.700000e+01
         vertex 3.700000e+01 6.521133e-312 2.700000e+01
      endloop
   endfacet
   facet normal 9.961946e-01 0.000000e+00 -8.715711e-02
      outer loop
         vertex 3.700000e+01 1.500000e+01 2.700000e+01
         vertex 3.707596e+01 6.521133e-312 2.786824e+01
         vertex 3.700000e+01 6.521133e-312 2.700000e+01
      endloop
   endfacet
   facet normal -9.961949e-01 0.000000e+00 -8.715287e-02
      outer loop
         vertex 4.692404e+01 6.521133e-312 2.786824e+01
         vertex 4.692404e+01 1.500000e+01 2.786824e+01
         vertex 4.700000e+01 6.521133e-312 2.700000e+01
      endloop
   endfacet
   facet normal -9.961949e-01 0.000000e+00 -8.715287e-02
      outer loop
         vertex 4.692404e+01 1.500000e+01 2.786824e+01
         vertex 4.700000e+01 1.500000e+01 2.700000e+01
         vertex 4.700000e+01 6.521133e-312 2.700000e+01
      endloop
   endfacet
   facet normal 9.961949e-01 0.000000e+00 -8.715287e-02
      outer loop
         vertex -4.700000e+01 1.500000e+01 2.700000e+01
         vertex -4.692404e+01 1.500000e+01 2.786824e+01
         vertex -4.692404e+01 6.521133e-312 2.786824e+01
      endloop
   endfacet
   facet normal 9.659253e-01 0.000000e+00 -2.588210e-01
      outer loop
         vertex -4.692404e+01 1.500000e+01 2.786824e+01
         vertex -4.669846e+01 6.521133e-312 2.871010e+01
         vertex -4.692404e+01 6.521133e-312 2.786824e+01
      endloop
   endfacet
   facet normal -9.659264e-01 0.000000e+00 -2.588171e-01
      outer loop
         vertex -3.730154e+01 6.521133e-312 2.871010e+01
         vertex -3.730154e+01 1.500000e+01 2.871010e+01
         vertex -3.707596e+01 6.521133e-312 2.786824e+01
      endloop
   endfacet
   facet normal -9.659264e-01 0.000000e+00 -2.588171e-01
      outer loop
         vertex -3.730154e+01 1.500000e+01 2.871010e+01
         vertex -3.707596e+01 1.500000e+01 2.786824e+01
         vertex -3.707596e+01 6.521133e-312 2.786824e+01
      endloop
   endfacet
   facet normal 9.961946e-01 0.000000e+00 -8.715711e-02
      outer loop
         vertex 3.700000e+01 1.500000e+01 2.700000e+01
         vertex 3.707596e+01 1.500000e+01 2.786824e+01
         vertex 3.707596e+01 6.521133e-312 2.786824e+01
      endloop
   endfacet
   facet normal 9.659264e-01 0.000000e+00 -2.588171e-01
      outer loop
         vertex 3.707596e+01 1.500000e+01 2.786824e+01
         vertex 3.730154e+01 6.521133e-312 2.871010e+01
         vertex 3.707596e+01 6.521133e-312 2.786824e+01
      endloop
   endfacet
   facet normal -9.659253e-01 0.000000e+00 -2.588210e-01
      outer loop
         vertex 4.669846e+01 6.521133e-312 2.871010e+01
         vertex 4.669846e+01 1.500000e+01 2.871010e+01
         vertex 4.692404e+01 6.521133e-312 2.786824e+01
      endloop
   endfacet
   facet normal -9.659253e-01 0.000000e+00 -2.588210e-01
      outer loop
         vertex 4.669846e+01 1.500000e+01 2.871010e+01
         vertex 4.692404e+01 1.500000e+01 2.786824e+01
         vertex 4.692404e+01 6.521133e-312 2.786824e+01
      endloop
   endfacet
   facet normal 9.659253e-01 0.000000e+00 -2.588210e-01
      outer loop
         vertex -4.692404e+01 1.500000e+01 2.786824e+01
         vertex -4.669846e+01 1.500000e+01 2.871010e+01
         vertex -4.669846e+01 6.521133e-312 2.871010e+01
      endloop
   endfacet
   facet normal 9.063086e-01 0.000000e+00 -4.226166e-01
      outer loop
         vertex -4.669846e+01 1.500000e+01 2.871010e+01
         vertex -4.633013e+01 6.521133e-312 2.950000e+01
         vertex -4.669846e+01 6.521133e-312 2.871010e+01
      endloop
   endfacet
   facet normal -9.063069e-01 0.000000e+00 -4.226201e-01
      outer loop
         vertex -3.766987e+01 6.521133e-312 2.950000e+01
         vertex -3.766987e+01 1.500000e+01 2.950000e+01
         vertex -3.730154e+01 6.521133e-312 2.871010e+01
      endloop
   endfacet
   facet normal -9.063069e-01 0.000000e+00 -4.226201e-01
      outer loop
         vertex -3.766987e+01 1.500000e+01 2.950000e+01
         vertex -3.730154e+01 1.500000e+01 2.871010e+01
         vertex -3.730154e+01 6.521133e-312 2.871010e+01
      endloop
   endfacet
   facet normal 9.659264e-01 0.000000e+00 -2.588171e-01
      outer loop
         vertex 3.707596e+01 1.500000e+01 2.786824e+01
         vertex 3.730154e+01 1.500000e+01 2.871010e+01
         vertex 3.730154e+01 6.521133e-312 2.871010e+01
      endloop
   endfacet
   facet normal 9.063069e-01 0.000000e+00 -4.226201e-01
      outer loop
         vertex 3.730154e+01 1.500000e+01 2.871010e+01
         vertex 3.766987e+01 6.521133e-312 2.950000e+01
         vertex 3.730154e+01 6.521133e-312 2.871010e+01
      endloop
   endfacet
   facet normal -9.063086e-01 0.000000e+00 -4.226166e-01
      outer loop
         vertex 4.633013e+01 6.521133e-312 2.950000e+01
         vertex 4.633013e+01 1.500000e+01 2.950000e+01
         vertex 4.669846e+01 6.521133e-312 2.871010e+01
      endloop
   endfacet
   facet normal -9.063086e-01 0.000000e+00 -4.226166e-01
      outer loop
         vertex 4.633013e+01 1.500000e+01 2.950000e+01
         vertex 4.669846e+01 1.500000e+01 2.871010e+01
         vertex 4.669846e+01 6.521133e-312 2.871010e+01
      endloop
   endfacet
   facet normal 9.063086e-01 0.000000e+00 -4.226166e-01
      outer loop
         vertex -4.669846e+01 1.500000e+01 2.871010e+01
         vertex -4.633013e+01 1.500000e+01 2.950000e+01
         vertex -4.633013e+01 6.521133e-312 2.950000e+01
      endloop
   endfacet
   facet normal 8.191520e-01 0.000000e+00 -5.735765e-01
      outer loop
         vertex -4.633013e+01 1.500000e+01 2.950000e+01
         vertex -4.583022e+01 6.521133e-312 3.021394e+01
         vertex -4.633013e+01 6.521133e-312 2.950000e+01
      endloop
   endfacet
   facet normal -8.191520e-01 0.000000e+00 -5.735765e-01
      outer loop
         vertex -3.816978e+01 6.521133e-312 3.021394e+01
         vertex -3.816978e+01 1.500000e+01 3.021394e+01
         vertex -3.766987e+01 6.521133e-312 2.950000e+01
      endloop
   endfacet
   facet normal -8.191520e-01 0.000000e+00 -5.735765e-01
      outer loop
         vertex -3.816978e+01 1.500000e+01 3.021394e+01
         vertex -3.766987e+01 1.500000e+01 2.950000e+01
         vertex -3.766987e+01 6.521133e-312 2.950000e+01
      endloop
   endfacet
   facet normal 9.063069e-01 0.000000e+00 -4.226201e-01
      outer loop
         vertex 3.730154e+01 1.500000e+01 2.871010e+01
         vertex 3.766987e+01 1.500000e+01 2.950000e+01
         vertex 3.766987e+01 6.521133e-312 2.950000e+01
      endloop
   endfacet
   facet normal 8.191520e-01 0.000000e+00 -5.735765e-01
      outer loop
         vertex 3.766987e+01 1.500000e+01 2.950000e+01
         vertex 3.816978e+01 6.521133e-312 3.021394e+01
         vertex 3.766987e+01 6.521133e-312 2.950000e+01
      endloop
   endfacet
   facet normal -8.191520e-01 0.000000e+00 -5.735765e-01
      outer loop
         vertex 4.583022e+01 6.521133e-312 3.021394e+01
         vertex 4.583022e+01 1.500000e+01 3.021394e+01
         vertex 4.633013e+01 6.521133e-312 2.950000e+01
      endloop
   endfacet
   facet normal -8.191520e-01 0.000000e+00 -5.735765e-01
      outer loop
         vertex 4.583022e+01 1.500000e+01 3.021394e+01
         vertex 4.633013e+01 1.500000e+01 2.950000e+01
         vertex 4.633013e+01 6.521133e-312 2.950000e+01
      endloop
   endfacet
   facet normal 8.191520e-01 0.000000e+00 -5.735765e-01
      outer loop
         vertex -4.633013e+01 1.500000e+01 2.950000e+01
         vertex -4.583022e+01 1.500000e+01 3.021394e+01
         vertex -4.583022e+01 6.521133e-312 3.021394e+01
      endloop
   endfacet
   facet normal 7.071068e-01 0.000000e+00 -7.071068e-01
      outer loop
         vertex -4.583022e+01 1.500000e+01 3.021394e+01
         vertex -4.521394e+01 6.521133e-312 3.083022e+01
         vertex -4.583022e+01 6.521133e-312 3.021394e+01
      endloop
   endfacet
   facet normal -7.071089e-01 0.000000e+00 -7.071046e-01
      outer loop
         vertex -3.878606e+01 6.521133e-312 3.083022e+01
         vertex -3.878606e+01 1.500000e+01 3.083022e+01
         vertex -3.816978e+01 6.521133e-312 3.021394e+01
      endloop
   endfacet
   facet normal -7.071089e-01 0.000000e+00 -7.071046e-01
      outer loop
         vertex -3.878606e+01 1.500000e+01 3.083022e+01
         vertex -3.816978e+01 1.500000e+01 3.021394e+01
         vertex -3.816978e+01 6.521133e-312 3.021394e+01
      endloop
   endfacet
   facet normal 8.191520e-01 0.000000e+00 -5.735765e-01
      outer loop
         vertex 3.766987e+01 1.500000e+01 2.950000e+01
         vertex 3.816978e+01 1.500000e+01 3.021394e+01
         vertex 3.816978e+01 6.521133e-312 3.021394e+01
      endloop
   endfacet
   facet normal 7.071089e-01 0.000000e+00 -7.071046e-01
      outer loop
         vertex 3.816978e+01 1.500000e+01 3.021394e+01
         vertex 3.878606e+01 6.521133e-312 3.083022e+01
         vertex 3.816978e+01 6.521133e-312 3.021394e+01
      endloop
   endfacet
   facet normal -7.071068e-01 0.000000e+00 -7.071068e-01
      outer loop
         vertex 4.521394e+01 6.521133e-312 3.083022e+01
         vertex 4.521394e+01 1.500000e+01 3.083022e+01
         vertex 4.583022e+01 6.521133e-312 3.021394e+01
      endloop
   endfacet
   facet normal -7.071068e-01 0.000000e+00 -7.071068e-01
      outer loop
         vertex 4.521394e+01 1.500000e+01 3.083022e+01
         vertex 4.583022e+01 1.500000e+01 3.021394e+01
         vertex 4.583022e+01 6.521133e-312 3.021394e+01
      endloop
   endfacet
   facet normal 7.071068e-01 0.000000e+00 -7.071068e-01
      outer loop
         vertex -4.583022e+01 1.500000e+01 3.021394e+01
         vertex -4.521394e+01 1.500000e+01 3.083022e+01
         vertex -4.521394e+01 6.521133e-312 3.083022e+01
      endloop
   endfacet
   facet normal 5.735765e-01 0.000000e+00 -8.191520e-01
      outer loop
         vertex -4.521394e+01 1.500000e+01 3.083022e+01
         vertex -4.450000e+01 6.521133e-312 3.133013e+01
         vertex -4.521394e+01 6.521133e-312 3.083022e+01
      endloop
   endfacet
   facet normal -5.735745e-01 0.000000e+00 -8.191534e-01
      outer loop
         vertex -3.950000e+01 6.521133e-312 3.133013e+01
         vertex -3.950000e+01 1.500000e+01 3.133013e+01
         vertex -3.878606e+01 6.521133e-312 3.083022e+01
      endloop
   endfacet
   facet normal -5.735745e-01 0.000000e+00 -8.191534e-01
      outer loop
         vertex -3.950000e+01 1.500000e+01 3.133013e+01
         vertex -3.878606e+01 1.500000e+01 3.083022e+01
         vertex -3.878606e+01 6.521133e-312 3.083022e+01
      endloop
   endfacet
   facet normal 7.071089e-01 0.000000e+00 -7.071046e-01
      outer loop
         vertex 3.816978e+01 1.500000e+01 3.021394e+01
         vertex 3.878606e+01 1.500000e+01 3.083022e+01
         vertex 3.878606e+01 6.521133e-312 3.083022e+01
      endloop
   endfacet
   facet normal 5.735745e-01 0.000000e+00 -8.191534e-01
      outer loop
         vertex 3.878606e+01 1.500000e+01 3.083022e+01
         vertex 3.950000e+01 6.521133e-312 3.133013e+01
         vertex 3.878606e+01 6.521133e-312 3.083022e+01
      endloop
   endfacet
   facet normal -5.735765e-01 0.000000e+00 -8.191520e-01
      outer loop
         vertex 4.450000e+01 6.521133e-312 3.133013e+01
         vertex 4.450000e+01 1.500000e+01 3.133013e+01
         vertex 4.521394e+01 6.521133e-312 3.083022e+01
      endloop
   endfacet
   facet normal -5.735765e-01 0.000000e+00 -8.191520e-01
      outer loop
         vertex 4.450000e+01 1.500000e+01 3.133013e+01
         vertex 4.521394e+01 1.500000e+01 3.083022e+01
         vertex 4.521394e+01 6.521133e-312 3.083022e+01
      endloop
   endfacet
   facet normal 5.735765e-01 0.000000e+00 -8.191520e-01
      outer loop
         vertex -4.521394e+01 1.500000e+01 3.083022e+01
         vertex -4.450000e+01 1.500000e+01 3.133013e+01
         vertex -4.450000e+01 6.521133e-312 3.133013e+01
      endloop
   endfacet
   facet normal 4.226166e-01 0.000000e+00 -9.063086e-01
      outer loop
         vertex -4.450000e+01 1.500000e+01 3.133013e+01
         vertex -4.371010e+01 6.521133e-312 3.169846e+01
         vertex -4.450000e+01 6.521133e-312 3.133013e+01
      endloop
   endfacet
   facet normal -4.226182e-01 0.000000e+00 -9.063078e-01
      outer loop
         vertex -4.028990e+01 6.521133e-312 3.169846e+01
         vertex -4.028990e+01 1.500000e+01 3.169846e+01
         vertex -3.950000e+01 6.521133e-312 3.133013e+01
      endloop
   endfacet
   facet normal -4.226182e-01 0.000000e+00 -9.063078e-01
      outer loop
         vertex -4.028990e+01 1.500000e+01 3.169846e+01
         vertex -3.950000e+01 1.500000e+01 3.133013e+01
         vertex -3.950000e+01 6.521133e-312 3.133013e+01
      endloop
   endfacet
   facet normal 5.735745e-01 0.000000e+00 -8.191534e-01
      outer loop
         vertex 3.878606e+01 1.500000e+01 3.083022e+01
         vertex 3.950000e+01 1.500000e+01 3.133013e+01
         vertex 3.950000e+01 6.521133e-312 3.133013e+01
      endloop
   endfacet
   facet normal 4.226182e-01 0.000000e+00 -9.063078e-01
      outer loop
         vertex 3.950000e+01 1.500000e+01 3.133013e+01
         vertex 4.028990e+01 6.521133e-312 3.169846e+01
         vertex 3.950000e+01 6.521133e-312 3.133013e+01
      endloop
   endfacet
   facet normal -4.226166e-01 0.000000e+00 -9.063086e-01
      outer loop
         vertex 4.371010e+01 6.521133e-312 3.169846e+01
         vertex 4.371010e+01 1.500000e+01 3.169846e+01
         vertex 4.450000e+01 6.521133e-312 3.133013e+01
      endloop
   endfacet
   facet normal -4.226166e-01 0.000000e+00 -9.063086e-01
      outer loop
         vertex 4.371010e+01 1.500000e+01 3.169846e+01
         vertex 4.450000e+01 1.500000e+01 3.133013e+01
         vertex 4.450000e+01 6.521133e-312 3.133013e+01
      endloop
   endfacet
   facet normal 4.226166e-01 0.000000e+00 -9.063086e-01
      outer loop
         vertex -4.450000e+01 1.500000e+01 3.133013e+01
         vertex -4.371010e+01 1.500000e+01 3.169846e+01
         vertex -4.371010e+01 6.521133e-312 3.169846e+01
      endloop
   endfacet
   facet normal 2.588210e-01 0.000000e+00 -9.659253e-01
      outer loop
         vertex -4.371010e+01 1.500000e+01 3.169846e+01
         vertex -4.286824e+01 6.521133e-312 3.192404e+01
         vertex -4.371010e+01 6.521133e-312 3.169846e+01
      endloop
   endfacet
   facet normal -2.588200e-01 0.000000e+00 -9.659256e-01
      outer loop
         vertex -4.113176e+01 6.521133e-312 3.192404e+01
         vertex -4.113176e+01 1.500000e+01 3.192404e+01
         vertex -4.028990e+01 6.521133e-312 3.169846e+01
      endloop
   endfacet
   facet normal -2.588200e-01 0.000000e+00 -9.659256e-01
      outer loop
         vertex -4.113176e+01 1.500000e+01 3.192404e+01
         vertex -4.028990e+01 1.500000e+01 3.169846e+01
         vertex -4.028990e+01 6.521133e-312 3.169846e+01
      endloop
   endfacet
   facet normal 4.226182e-01 0.000000e+00 -9.063078e-01
      outer loop
         vertex 3.950000e+01 1.500000e+01 3.133013e+01
         vertex 4.028990e+01 1.500000e+01 3.169846e+01
         vertex 4.028990e+01 6.521133e-312 3.169846e+01
      endloop
   endfacet
   facet normal 2.588200e-01 0.000000e+00 -9.659256e-01
      outer loop
         vertex 4.028990e+01 1.500000e+01 3.169846e+01
         vertex 4.113176e+01 6.521133e-312 3.192404e+01
         vertex 4.028990e+01 6.521133e-312 3.169846e+01
      endloop
   endfacet
   facet normal -2.588210e-01 0.000000e+00 -9.659253e-01
      outer loop
         vertex 4.286824e+01 6.521133e-312 3.192404e+01
         vertex 4.286824e+01 1.500000e+01 3.192404e+01
         vertex 4.371010e+01 6.521133e-312 3.169846e+01
      endloop
   endfacet
   facet normal -2.588210e-01 0.000000e+00 -9.659253e-01
      outer loop
         vertex 4.286824e+01 1.500000e+01 3.192404e+01
         vertex 4.371010e+01 1.500000e+01 3.169846e+01
         vertex 4.371010e+01 6.521133e-312 3.169846e+01
      endloop
   endfacet
   facet normal 2.588210e-01 0.000000e+00 -9.659253e-01
      outer loop
         vertex -4.371010e+01 1.500000e+01 3.169846e+01
         vertex -4.286824e+01 1.500000e+01 3.192404e+01
         vertex -4.286824e+01 6.521133e-312 3.192404e+01
      endloop
   endfacet
   facet normal 8.715693e-02 0.000000e+00 -9.961946e-01
      outer loop
         vertex -4.286824e+01 1.500000e+01 3.192404e+01
         vertex -4.200000e+01 6.521133e-312 3.200000e+01
         vertex -4.286824e+01 6.521133e-312 3.192404e+01
      endloop
   endfacet
   facet normal -8.715730e-02 0.000000e+00 -9.961946e-01
      outer loop
         vertex -4.200000e+01 6.521133e-312 3.200000e+01
         vertex -4.200000e+01 1.500000e+01 3.200000e+01
         vertex -4.113176e+01 6.521133e-312 3.192404e+01
      endloop
   endfacet
   facet normal -8.715730e-02 0.000000e+00 -9.961946e-01
      outer loop
         vertex -4.200000e+01 1.500000e+01 3.200000e+01
         vertex -4.113176e+01 1.500000e+01 3.192404e+01
         vertex -4.113176e+01 6.521133e-312 3.192404e+01
      endloop
   endfacet
   facet normal 2.588200e-01 0.000000e+00 -9.659256e-01
      outer loop
         vertex 4.028990e+01 1.500000e+01 3.169846e+01
         vertex 4.113176e+01 1.500000e+01 3.192404e+01
         vertex 4.113176e+01 6.521133e-312 3.192404e+01
      endloop
   endfacet
   facet normal 8.715730e-02 0.000000e+00 -9.961946e-01
      outer loop
         vertex 4.113176e+01 1.500000e+01 3.192404e+01
         vertex 4.200000e+01 6.521133e-312 3.200000e+01
         vertex 4.113176e+01 6.521133e-312 3.192404e+01
      endloop
   endfacet
   facet normal -8.715693e-02 0.000000e+00 -9.961946e-01
      outer loop
         vertex 4.200000e+01 6.521133e-312 3.200000e+01
         vertex 4.200000e+01 1.500000e+01 3.200000e+01
         vertex 4.286824e+01 6.521133e-312 3.192404e+01
      endloop
   endfacet
   facet normal -8.715693e-02 0.000000e+00 -9.961946e-01
      outer loop
         vertex 4.200000e+01 1.500000e+01 3.200000e+01
         vertex 4.286824e+01 1.500000e+01 3.192404e+01
         vertex 4.286824e+01 6.521133e-312 3.192404e+01
      endloop
   endfacet
   facet normal 8.715693e-02 0.000000e+00 -9.961946e-01
      outer loop
         vertex -4.286824e+01 1.500000e+01 3.192404e+01
         vertex -4.200000e+01 1.500000e+01 3.200000e+01
         vertex -4.200000e+01 6.521133e-312 3.200000e+01
      endloop
   endfacet
   facet normal 8.715730e-02 0.000000e+00 -9.961946e-01
      outer loop
         vertex 4.113176e+01 1.500000e+01 3.192404e+01
         vertex 4.200000e+01 1.500000e+01 3.200000e+01
         vertex 4.200000e+01 6.521133e-312 3.200000e+01
      endloop
   endfacet
endsolid