solid 5-1
   facet normal -0.000000e+00 -1.000000e+00 0.000000e+00
      outer loop
         vertex -3.242404e+01 5.649588e-312 1.913176e+01
         vertex -4.000000e+01 5.649588e-312 4.000000e+01
         vertex -4.000000e+01 5.649588e-312 -4.000000e+01
      endloop
   endfacet
   facet normal -0.000000e+00 -1.000000e+00 0.000000e+00
      outer loop
         vertex -3.219846e+01 5.649588e-312 1.828990e+01
         vertex -3.242404e+01 5.649588e-312 1.913176e+01
         vertex -4.000000e+01 5.649588e-312 -4.000000e+01
      endloop
   endfacet
   facet normal -0.000000e+00 -1.000000e+00 0.000000e+00
      outer loop
         vertex -3.006515e+01 5.649588e-312 -3.704770e+01
         vertex -3.125000e+01 5.649588e-312 -3.649519e+01
         vertex -4.000000e+01 5.649588e-312 -4.000000e+01
      endloop
   endfacet
   facet normal -0.000000e+00 -1.000000e+00 0.000000e+00
      outer loop
         vertex -3.125000e+01 5.649588e-312 -3.649519e+01
         vertex -3.232091e+01 5.649588e-312 -3.574533e+01
         vertex -4.000000e+01 5.649588e-312 -4.000000e+01
      endloop
   endfacet
   facet normal -0.000000e+00 -1.000000e+00 0.000000e+00
      outer loop
         vertex -3.071394e+01 5.649588e-312 1.616978e+01
         vertex -3.133022e+01 5.649588e-312 1.678606e+01
         vertex -4.000000e+01 5.649588e-312 -4.000000e+01
      endloop
   endfacet
   facet normal -0.000000e+00 -1.000000e+00 0.000000e+00
      outer loop
         vertex -3.133022e+01 5.649588e-312 1.678606e+01
         vertex -3.183013e+01 5.649588e-312 1.750000e+01
         vertex -4.000000e+01 5.649588e-312 -4.000000e+01
      endloop
   endfacet
   facet normal -0.000000e+00 -1.000000e+00 0.000000e+00
      outer loop
         vertex -3.183013e+01 5.649588e-312 1.750000e+01
         vertex -3.219846e+01 5.649588e-312 1.828990e+01
         vertex -4.000000e+01 5.649588e-312 -4.000000e+01
      endloop
   endfacet
   facet normal -0.000000e+00 -1.000000e+00 0.000000e+00
      outer loop
         vertex -3.232091e+01 5.649588e-312 -3.574533e+01
         vertex -3.324533e+01 5.649588e-312 -3.482091e+01
         vertex -4.000000e+01 5.649588e-312 -4.000000e+01
      endloop
   endfacet
   facet normal -0.000000e+00 -1.000000e+00 0.000000e+00
      outer loop
         vertex -3.324533e+01 5.649588e-312 -3.482091e+01
         vertex -3.399519e+01 5.649588e-312 -3.375000e+01
         vertex -4.000000e+01 5.649588e-312 -4.000000e+01
      endloop
   endfacet
   facet normal -0.000000e+00 -1.000000e+00 0.000000e+00
      outer loop
         vertex -3.399519e+01 5.649588e-312 -3.375000e+01
         vertex -3.454769e+01 5.649588e-312 -3.256515e+01
         vertex -4.000000e+01 5.649588e-312 -4.000000e+01
      endloop
   endfacet
   facet normal 0.000000e+00 -1.000000e+00 0.000000e+00
      outer loop
         vertex 4.000000e+01 5.649588e-312 -4.000000e+01
         vertex -2.750000e+01 5.649588e-312 -3.750000e+01
         vertex -4.000000e+01 5.649588e-312 -4.000000e+01
      endloop
   endfacet
   facet normal -0.000000e+00 -1.000000e+00 0.000000e+00
      outer loop
         vertex -2.750000e+01 5.649588e-312 -3.750000e+01
         vertex -2.880236e+01 5.649588e-312 -3.738606e+01
         vertex -4.000000e+01 5.649588e-312 -4.000000e+01
      endloop
   endfacet
   facet normal -0.000000e+00 -1.000000e+00 0.000000e+00
      outer loop
         vertex -2.880236e+01 5.649588e-312 -3.738606e+01
         vertex -3.006515e+01 5.649588e-312 -3.704770e+01
         vertex -4.000000e+01 5.649588e-312 -4.000000e+01
      endloop
   endfacet
   facet normal -0.000000e+00 -1.000000e+00 0.000000e+00
      outer loop
         vertex -3.454769e+01 5.649588e-312 -3.256515e+01
         vertex -3.488606e+01 5.649588e-312 -3.130236e+01
         vertex -4.000000e+01 5.649588e-312 -4.000000e+01
      endloop
   endfacet
   facet normal -0.000000e+00 -1.000000e+00 0.000000e+00
      outer loop
         vertex -3.488606e+01 5.649588e-312 -3.130236e+01
         vertex -3.500000e+01 5.649588e-312 -3.000000e+01
         vertex -4.000000e+01 5.649588e-312 -4.000000e+01
      endloop
   endfacet
   facet normal -0.000000e+00 -1.000000e+00 0.000000e+00
      outer loop
         vertex -3.500000e+01 5.649588e-312 -3.000000e+01
         vertex -3.488606e+01 5.649588e-312 -2.869764e+01
         vertex -4.000000e+01 5.649588e-312 -4.000000e+01
      endloop
   endfacet
   facet normal -0.000000e+00 -1.000000e+00 0.000000e+00
      outer loop
         vertex -3.488606e+01 5.649588e-312 -2.869764e+01
         vertex -2.921010e+01 5.649588e-312 1.530154e+01
         vertex -4.000000e+01 5.649588e-312 -4.000000e+01
      endloop
   endfacet
   facet normal -0.000000e+00 -1.000000e+00 0.000000e+00
      outer loop
         vertex -2.921010e+01 5.649588e-312 1.530154e+01
         vertex -3.000000e+01 5.649588e-312 1.566987e+01
         vertex -4.000000e+01 5.649588e-312 -4.000000e+01
      endloop
   endfacet
   facet normal -0.000000e+00 -1.000000e+00 0.000000e+00
      outer loop
         vertex -3.000000e+01 5.649588e-312 1.566987e+01
         vertex -3.071394e+01 5.649588e-312 1.616978e+01
         vertex -4.000000e+01 5.649588e-312 -4.000000e+01
      endloop
   endfacet
   facet normal 0.000000e+00 -1.000000e+00 -0.000000e+00
      outer loop
         vertex 3.006515e+01 5.649588e-312 -3.704770e+01
         vertex 2.880236e+01 5.649588e-312 -3.738606e+01
         vertex 4.000000e+01 5.649588e-312 -4.000000e+01
      endloop
   endfacet
   facet normal 0.000000e+00 -1.000000e+00 -0.000000e+00
      outer loop
         vertex -2.175467e+01 5.649588e-312 -3.482091e+01
         vertex -2.267909e+01 5.649588e-312 -3.574533e+01
         vertex 4.000000e+01 5.649588e-312 -4.000000e+01
      endloop
   endfacet
   facet normal 0.000000e+00 -1.000000e+00 -0.000000e+00
      outer loop
         vertex -2.267909e+01 5.649588e-312 -3.574533e+01
         vertex -2.375000e+01 5.649588e-312 -3.649519e+01
         vertex 4.000000e+01 5.649588e-312 -4.000000e+01
      endloop
   endfacet
   facet normal 0.000000e+00 -1.000000e+00 -0.000000e+00
      outer loop
         vertex -2.375000e+01 5.649588e-312 -3.649519e+01
         vertex -2.493485e+01 5.649588e-312 -3.704770e+01
         vertex 4.000000e+01 5.649588e-312 -4.000000e+01
      endloop
   endfacet
   facet normal 0.000000e+00 -1.000000e+00 -0.000000e+00
      outer loop
         vertex -2.493485e+01 5.649588e-312 -3.704770e+01
         vertex -2.619764e+01 5.649588e-312 -3.738606e+01
         vertex 4.000000e+01 5.649588e-312 -4.000000e+01
      endloop
   endfacet
   facet normal 0.000000e+00 -1.000000e+00 -0.000000e+00
      outer loop
         vertex -2.619764e+01 5.649588e-312 -3.738606e+01
         vertex -2.750000e+01 5.649588e-312 -3.750000e+01
         vertex 4.000000e+01 5.649588e-312 -4.000000e+01
      endloop
   endfacet
   facet normal 0.000000e+00 -1.000000e+00 -0.000000e+00
      outer loop
         vertex 4.000000e+01 5.649588e-312 4.000000e+01
         vertex 3.488606e+01 5.649588e-312 -2.869764e+01
         vertex 4.000000e+01 5.649588e-312 -4.000000e+01
      endloop
   endfacet
   facet normal 0.000000e+00 -1.000000e+00 0.000000e+00
      outer loop
         vertex 3.488606e+01 5.649588e-312 -2.869764e+01
         vertex 3.500000e+01 5.649588e-312 -3.000000e+01
         vertex 4.000000e+01 5.649588e-312 -4.000000e+01
      endloop
   endfacet
   facet normal 0.000000e+00 -1.000000e+00 -0.000000e+00
      outer loop
         vertex 3.500000e+01 5.649588e-312 -3.000000e+01
         vertex 3.488606e+01 5.649588e-312 -3.130236e+01
         vertex 4.000000e+01 5.649588e-312 -4.000000e+01
      endloop
   endfacet
   facet normal 0.000000e+00 -1.000000e+00 -0.000000e+00
      outer loop
         vertex 3.488606e+01 5.649588e-312 -3.130236e+01
         vertex 3.454769e+01 5.649588e-312 -3.256515e+01
         vertex 4.000000e+01 5.649588e-312 -4.000000e+01
      endloop
   endfacet
   facet normal 0.000000e+00 -1.000000e+00 -0.000000e+00
      outer loop
         vertex 3.454769e+01 5.649588e-312 -3.256515e+01
         vertex 3.399519e+01 5.649588e-312 -3.375000e+01
         vertex 4.000000e+01 5.649588e-312 -4.000000e+01
      endloop
   endfacet
   facet normal 0.000000e+00 -1.000000e+00 -0.000000e+00
      outer loop
         vertex 3.399519e+01 5.649588e-312 -3.375000e+01
         vertex 3.324533e+01 5.649588e-312 -3.482091e+01
         vertex 4.000000e+01 5.649588e-312 -4.000000e+01
      endloop
   endfacet
   facet normal 0.000000e+00 -1.000000e+00 -0.000000e+00
      outer loop
         vertex 3.324533e+01 5.649588e-312 -3.482091e+01
         vertex 3.232091e+01 5.649588e-312 -3.574533e+01
         vertex 4.000000e+01 5.649588e-312 -4.000000e+01
      endloop
   endfacet
   facet normal 0.000000e+00 -1.000000e+00 -0.000000e+00
      outer loop
         vertex 3.232091e+01 5.649588e-312 -3.574533e+01
         vertex 3.125000e+01 5.649588e-312 -3.649519e+01
         vertex 4.000000e+01 5.649588e-312 -4.000000e+01
      endloop
   endfacet
   facet normal 0.000000e+00 -1.000000e+00 -0.000000e+00
      outer loop
         vertex 3.125000e+01 5.649588e-312 -3.649519e+01
         vertex 3.006515e+01 5.649588e-312 -3.704770e+01
         vertex 4.000000e+01 5.649588e-312 -4.000000e+01
      endloop
   endfacet
   facet normal 0.000000e+00 -1.000000e+00 -0.000000e+00
      outer loop
         vertex 2.880236e+01 5.649588e-312 -3.738606e+01
         vertex 2.750000e+01 5.649588e-312 -3.750000e+01
         vertex 4.000000e+01 5.649588e-312 -4.000000e+01
      endloop
   endfacet
   facet normal -0.000000e+00 -1.000000e+00 -0.000000e+00
      outer loop
         vertex 2.750000e+01 5.649588e-312 -3.750000e+01
         vertex 2.619764e+01 5.649588e-312 -3.738606e+01
         vertex 4.000000e+01 5.649588e-312 -4.000000e+01
      endloop
   endfacet
   facet normal -0.000000e+00 -1.000000e+00 -0.000000e+00
      outer loop
         vertex 2.619764e+01 5.649588e-312 -3.738606e+01
         vertex -2.175467e+01 5.649588e-312 -3.482091e+01
         vertex 4.000000e+01 5.649588e-312 -4.000000e+01
      endloop
   endfacet
   facet normal -0.000000e+00 -1.000000e+00 -0.000000e+00
      outer loop
         vertex 2.493485e+01 5.649588e-312 -3.704770e+01
         vertex -2.175467e+01 5.649588e-312 -3.482091e+01
         vertex 2.619764e+01 5.649588e-312 -3.738606e+01
      endloop
   endfacet
   facet normal -0.000000e+00 -1.000000e+00 -0.000000e+00
      outer loop
         vertex 2.375000e+01 5.649588e-312 -3.649519e+01
         vertex -2.175467e+01 5.649588e-312 -3.482091e+01
         vertex 2.493485e+01 5.649588e-312 -3.704770e+01
      endloop
   endfacet
   facet normal -0.000000e+00 -1.000000e+00 -0.000000e+00
      outer loop
         vertex 2.267909e+01 5.649588e-312 -3.574533e+01
         vertex -2.175467e+01 5.649588e-312 -3.482091e+01
         vertex 2.375000e+01 5.649588e-312 -3.649519e+01
      endloop
   endfacet
   facet normal -0.000000e+00 -1.000000e+00 -0.000000e+00
      outer loop
         vertex 2.175467e+01 5.649588e-312 -3.482091e+01
         vertex -2.175467e+01 5.649588e-312 -3.482091e+01
         vertex 2.267909e+01 5.649588e-312 -3.574533e+01
      endloop
   endfacet
   facet normal 0.000000e+00 -1.000000e+00 0.000000e+00
      outer loop
         vertex -1.086824e+01 5.649588e-312 -1.992404e+01
         vertex -2.100481e+01 5.649588e-312 -3.375000e+01
         vertex -2.175467e+01 5.649588e-312 -3.482091e+01
      endloop
   endfacet
   facet normal 0.000000e+00 -1.000000e+00 0.000000e+00
      outer loop
         vertex 2.175467e+01 5.649588e-312 -3.482091e+01
         vertex 1.000000e+01 5.649588e-312 -2.000000e+01
         vertex -2.175467e+01 5.649588e-312 -3.482091e+01
      endloop
   endfacet
   facet normal -0.000000e+00 -1.000000e+00 0.000000e+00
      outer loop
         vertex 1.000000e+01 5.649588e-312 -2.000000e+01
         vertex -1.000000e+01 5.649588e-312 -2.000000e+01
         vertex -2.175467e+01 5.649588e-312 -3.482091e+01
      endloop
   endfacet
   facet normal -0.000000e+00 -1.000000e+00 0.000000e+00
      outer loop
         vertex -1.000000e+01 5.649588e-312 -2.000000e+01
         vertex -1.086824e+01 5.649588e-312 -1.992404e+01
         vertex -2.175467e+01 5.649588e-312 -3.482091e+01
      endloop
   endfacet
   facet normal -0.000000e+00 -1.000000e+00 -0.000000e+00
      outer loop
         vertex 2.100481e+01 5.649588e-312 -3.375000e+01
         vertex 1.086824e+01 5.649588e-312 -1.992404e+01
         vertex 2.175467e+01 5.649588e-312 -3.482091e+01
      endloop
   endfacet
   facet normal 0.000000e+00 -1.000000e+00 -0.000000e+00
      outer loop
         vertex 1.086824e+01 5.649588e-312 -1.992404e+01
         vertex 1.000000e+01 5.649588e-312 -2.000000e+01
         vertex 2.175467e+01 5.649588e-312 -3.482091e+01
      endloop
   endfacet
   facet normal 0.000000e+00 -1.000000e+00 0.000000e+00
      outer loop
         vertex -1.250000e+01 5.649588e-312 -1.933013e+01
         vertex -2.045231e+01 5.649588e-312 -3.256515e+01
         vertex -2.100481e+01 5.649588e-312 -3.375000e+01
      endloop
   endfacet
   facet normal -0.000000e+00 -1.000000e+00 0.000000e+00
      outer loop
         vertex -1.171010e+01 5.649588e-312 -1.969846e+01
         vertex -1.250000e+01 5.649588e-312 -1.933013e+01
         vertex -2.100481e+01 5.649588e-312 -3.375000e+01
      endloop
   endfacet
   facet normal -0.000000e+00 -1.000000e+00 0.000000e+00
      outer loop
         vertex -1.086824e+01 5.649588e-312 -1.992404e+01
         vertex -1.171010e+01 5.649588e-312 -1.969846e+01
         vertex -2.100481e+01 5.649588e-312 -3.375000e+01
      endloop
   endfacet
   facet normal -0.000000e+00 -1.000000e+00 -0.000000e+00
      outer loop
         vertex 2.045231e+01 5.649588e-312 -3.256515e+01
         vertex 1.250000e+01 5.649588e-312 -1.933013e+01
         vertex 2.100481e+01 5.649588e-312 -3.375000e+01
      endloop
   endfacet
   facet normal 0.000000e+00 -1.000000e+00 -0.000000e+00
      outer loop
         vertex 1.250000e+01 5.649588e-312 -1.933013e+01
         vertex 1.171010e+01 5.649588e-312 -1.969846e+01
         vertex 2.100481e+01 5.649588e-312 -3.375000e+01
      endloop
   endfacet
   facet normal 0.000000e+00 -1.000000e+00 -0.000000e+00
      outer loop
         vertex 1.171010e+01 5.649588e-312 -1.969846e+01
         vertex 1.086824e+01 5.649588e-312 -1.992404e+01
         vertex 2.100481e+01 5.649588e-312 -3.375000e+01
      endloop
   endfacet
   facet normal 0.000000e+00 -1.000000e+00 0.000000e+00
      outer loop
         vertex -1.250000e+01 5.649588e-312 -1.933013e+01
         vertex -2.011394e+01 5.649588e-312 -3.130236e+01
         vertex -2.045231e+01 5.649588e-312 -3.256515e+01
      endloop
   endfacet
   facet normal -0.000000e+00 -1.000000e+00 -0.000000e+00
      outer loop
         vertex 2.011394e+01 5.649588e-312 -3.130236e+01
         vertex 1.250000e+01 5.649588e-312 -1.933013e+01
         vertex 2.045231e+01 5.649588e-312 -3.256515e+01
      endloop
   endfacet
   facet normal 0.000000e+00 -1.000000e+00 0.000000e+00
      outer loop
         vertex -1.250000e+01 5.649588e-312 -1.933013e+01
         vertex -2.000000e+01 5.649588e-312 -3.000000e+01
         vertex -2.011394e+01 5.649588e-312 -3.130236e+01
      endloop
   endfacet
   facet normal 0.000000e+00 -1.000000e+00 -0.000000e+00
      outer loop
         vertex 1.321394e+01 5.649588e-312 -1.883022e+01
         vertex 1.250000e+01 5.649588e-312 -1.933013e+01
         vertex 2.011394e+01 5.649588e-312 -3.130236e+01
      endloop
   endfacet
   facet normal -0.000000e+00 -1.000000e+00 -0.000000e+00
      outer loop
         vertex 2.000000e+01 5.649588e-312 -3.000000e+01
         vertex 1.321394e+01 5.649588e-312 -1.883022e+01
         vertex 2.011394e+01 5.649588e-312 -3.130236e+01
      endloop
   endfacet
   facet normal 0.000000e+00 -1.000000e+00 0.000000e+00
      outer loop
         vertex -1.250000e+01 5.649588e-312 -1.933013e+01
         vertex -2.011394e+01 5.649588e-312 -2.869764e+01
         vertex -2.000000e+01 5.649588e-312 -3.000000e+01
      endloop
   endfacet
   facet normal -0.000000e+00 -1.000000e+00 0.000000e+00
      outer loop
         vertex 2.011394e+01 5.649588e-312 -2.869764e+01
         vertex 2.366978e+01 5.649588e-312 1.678606e+01
         vertex 2.000000e+01 5.649588e-312 -3.000000e+01
      endloop
   endfacet
   facet normal 0.000000e+00 -1.000000e+00 -0.000000e+00
      outer loop
         vertex 1.500000e+01 5.649588e-312 -1.500000e+01
         vertex 1.492404e+01 5.649588e-312 -1.586824e+01
         vertex 2.000000e+01 5.649588e-312 -3.000000e+01
      endloop
   endfacet
   facet normal 0.000000e+00 -1.000000e+00 -0.000000e+00
      outer loop
         vertex 1.492404e+01 5.649588e-312 -1.586824e+01
         vertex 1.469846e+01 5.649588e-312 -1.671010e+01
         vertex 2.000000e+01 5.649588e-312 -3.000000e+01
      endloop
   endfacet
   facet normal 0.000000e+00 -1.000000e+00 -0.000000e+00
      outer loop
         vertex 1.469846e+01 5.649588e-312 -1.671010e+01
         vertex 1.433013e+01 5.649588e-312 -1.750000e+01
         vertex 2.000000e+01 5.649588e-312 -3.000000e+01
      endloop
   endfacet
   facet normal 0.000000e+00 -1.000000e+00 -0.000000e+00
      outer loop
         vertex 1.383022e+01 5.649588e-312 -1.821394e+01
         vertex 1.321394e+01 5.649588e-312 -1.883022e+01
         vertex 2.000000e+01 5.649588e-312 -3.000000e+01
      endloop
   endfacet
   facet normal 0.000000e+00 -1.000000e+00 -0.000000e+00
      outer loop
         vertex 1.433013e+01 5.649588e-312 -1.750000e+01
         vertex 1.383022e+01 5.649588e-312 -1.821394e+01
         vertex 2.000000e+01 5.649588e-312 -3.000000e+01
      endloop
   endfacet
   facet normal -0.000000e+00 -1.000000e+00 0.000000e+00
      outer loop
         vertex 2.366978e+01 5.649588e-312 1.678606e+01
         vertex 2.316987e+01 5.649588e-312 1.750000e+01
         vertex 2.000000e+01 5.649588e-312 -3.000000e+01
      endloop
   endfacet
   facet normal -0.000000e+00 -1.000000e+00 0.000000e+00
      outer loop
         vertex 2.316987e+01 5.649588e-312 1.750000e+01
         vertex 2.280154e+01 5.649588e-312 1.828990e+01
         vertex 2.000000e+01 5.649588e-312 -3.000000e+01
      endloop
   endfacet
   facet normal 0.000000e+00 -1.000000e+00 0.000000e+00
      outer loop
         vertex 2.280154e+01 5.649588e-312 1.828990e+01
         vertex 1.500000e+01 5.649588e-312 -1.500000e+01
         vertex 2.000000e+01 5.649588e-312 -3.000000e+01
      endloop
   endfacet
   facet normal -0.000000e+00 -1.000000e+00 0.000000e+00
      outer loop
         vertex -3.454769e+01 5.649588e-312 -2.743485e+01
         vertex -2.750000e+01 5.649588e-312 1.500000e+01
         vertex -3.488606e+01 5.649588e-312 -2.869764e+01
      endloop
   endfacet
   facet normal -0.000000e+00 -1.000000e+00 0.000000e+00
      outer loop
         vertex -2.750000e+01 5.649588e-312 1.500000e+01
         vertex -2.836824e+01 5.649588e-312 1.507596e+01
         vertex -3.488606e+01 5.649588e-312 -2.869764e+01
      endloop
   endfacet
   facet normal -0.000000e+00 -1.000000e+00 0.000000e+00
      outer loop
         vertex -2.836824e+01 5.649588e-312 1.507596e+01
         vertex -2.921010e+01 5.649588e-312 1.530154e+01
         vertex -3.488606e+01 5.649588e-312 -2.869764e+01
      endloop
   endfacet
   facet normal 0.000000e+00 -1.000000e+00 0.000000e+00
      outer loop
         vertex -1.250000e+01 5.649588e-312 -1.933013e+01
         vertex -2.045231e+01 5.649588e-312 -2.743485e+01
         vertex -2.011394e+01 5.649588e-312 -2.869764e+01
      endloop
   endfacet
   facet normal 0.000000e+00 -1.000000e+00 0.000000e+00
      outer loop
         vertex 2.836824e+01 5.649588e-312 1.507596e+01
         vertex 2.750000e+01 5.649588e-312 1.500000e+01
         vertex 2.011394e+01 5.649588e-312 -2.869764e+01
      endloop
   endfacet
   facet normal 0.000000e+00 -1.000000e+00 0.000000e+00
      outer loop
         vertex 3.133022e+01 5.649588e-312 1.678606e+01
         vertex 3.071394e+01 5.649588e-312 1.616978e+01
         vertex 2.011394e+01 5.649588e-312 -2.869764e+01
      endloop
   endfacet
   facet normal 0.000000e+00 -1.000000e+00 0.000000e+00
      outer loop
         vertex 3.183013e+01 5.649588e-312 1.750000e+01
         vertex 3.133022e+01 5.649588e-312 1.678606e+01
         vertex 2.011394e+01 5.649588e-312 -2.869764e+01
      endloop
   endfacet
   facet normal 0.000000e+00 -1.000000e+00 0.000000e+00
      outer loop
         vertex 3.071394e+01 5.649588e-312 1.616978e+01
         vertex 3.000000e+01 5.649588e-312 1.566987e+01
         vertex 2.011394e+01 5.649588e-312 -2.869764e+01
      endloop
   endfacet
   facet normal 0.000000e+00 -1.000000e+00 0.000000e+00
      outer loop
         vertex 3.000000e+01 5.649588e-312 1.566987e+01
         vertex 2.921010e+01 5.649588e-312 1.530154e+01
         vertex 2.011394e+01 5.649588e-312 -2.869764e+01
      endloop
   endfacet
   facet normal 0.000000e+00 -1.000000e+00 0.000000e+00
      outer loop
         vertex 2.921010e+01 5.649588e-312 1.530154e+01
         vertex 2.836824e+01 5.649588e-312 1.507596e+01
         vertex 2.011394e+01 5.649588e-312 -2.869764e+01
      endloop
   endfacet
   facet normal -0.000000e+00 -1.000000e+00 0.000000e+00
      outer loop
         vertex 2.045231e+01 5.649588e-312 -2.743485e+01
         vertex 3.183013e+01 5.649588e-312 1.750000e+01
         vertex 2.011394e+01 5.649588e-312 -2.869764e+01
      endloop
   endfacet
   facet normal -0.000000e+00 -1.000000e+00 0.000000e+00
      outer loop
         vertex 2.750000e+01 5.649588e-312 1.500000e+01
         vertex 2.663176e+01 5.649588e-312 1.507596e+01
         vertex 2.011394e+01 5.649588e-312 -2.869764e+01
      endloop
   endfacet
   facet normal -0.000000e+00 -1.000000e+00 0.000000e+00
      outer loop
         vertex 2.663176e+01 5.649588e-312 1.507596e+01
         vertex 2.578990e+01 5.649588e-312 1.530154e+01
         vertex 2.011394e+01 5.649588e-312 -2.869764e+01
      endloop
   endfacet
   facet normal -0.000000e+00 -1.000000e+00 0.000000e+00
      outer loop
         vertex 2.578990e+01 5.649588e-312 1.530154e+01
         vertex 2.500000e+01 5.649588e-312 1.566987e+01
         vertex 2.011394e+01 5.649588e-312 -2.869764e+01
      endloop
   endfacet
   facet normal -0.000000e+00 -1.000000e+00 0.000000e+00
      outer loop
         vertex 2.500000e+01 5.649588e-312 1.566987e+01
         vertex 2.428606e+01 5.649588e-312 1.616978e+01
         vertex 2.011394e+01 5.649588e-312 -2.869764e+01
      endloop
   endfacet
   facet normal -0.000000e+00 -1.000000e+00 0.000000e+00
      outer loop
         vertex 2.428606e+01 5.649588e-312 1.616978e+01
         vertex 2.366978e+01 5.649588e-312 1.678606e+01
         vertex 2.011394e+01 5.649588e-312 -2.869764e+01
      endloop
   endfacet
   facet normal 0.000000e+00 -1.000000e+00 0.000000e+00
      outer loop
         vertex 4.000000e+01 5.649588e-312 4.000000e+01
         vertex 3.454769e+01 5.649588e-312 -2.743485e+01
         vertex 3.488606e+01 5.649588e-312 -2.869764e+01
      endloop
   endfacet
   facet normal -0.000000e+00 -1.000000e+00 0.000000e+00
      outer loop
         vertex -3.399519e+01 5.649588e-312 -2.625000e+01
         vertex -2.750000e+01 5.649588e-312 1.500000e+01
         vertex -3.454769e+01 5.649588e-312 -2.743485e+01
      endloop
   endfacet
   facet normal -0.000000e+00 -1.000000e+00 0.000000e+00
      outer loop
         vertex -1.250000e+01 5.649588e-312 -1.933013e+01
         vertex -1.321394e+01 5.649588e-312 -1.883022e+01
         vertex -2.045231e+01 5.649588e-312 -2.743485e+01
      endloop
   endfacet
   facet normal 0.000000e+00 -1.000000e+00 0.000000e+00
      outer loop
         vertex -1.321394e+01 5.649588e-312 -1.883022e+01
         vertex -2.100481e+01 5.649588e-312 -2.625000e+01
         vertex -2.045231e+01 5.649588e-312 -2.743485e+01
      endloop
   endfacet
   facet normal -0.000000e+00 -1.000000e+00 0.000000e+00
      outer loop
         vertex 2.100481e+01 5.649588e-312 -2.625000e+01
         vertex 3.183013e+01 5.649588e-312 1.750000e+01
         vertex 2.045231e+01 5.649588e-312 -2.743485e+01
      endloop
   endfacet
   facet normal 0.000000e+00 -1.000000e+00 0.000000e+00
      outer loop
         vertex 4.000000e+01 5.649588e-312 4.000000e+01
         vertex 3.399519e+01 5.649588e-312 -2.625000e+01
         vertex 3.454769e+01 5.649588e-312 -2.743485e+01
      endloop
   endfacet
   facet normal -0.000000e+00 -1.000000e+00 0.000000e+00
      outer loop
         vertex -3.324533e+01 5.649588e-312 -2.517909e+01
         vertex -2.750000e+01 5.649588e-312 1.500000e+01
         vertex -3.399519e+01 5.649588e-312 -2.625000e+01
      endloop
   endfacet
   facet normal 0.000000e+00 -1.000000e+00 0.000000e+00
      outer loop
         vertex -1.321394e+01 5.649588e-312 -1.883022e+01
         vertex -2.175467e+01 5.649588e-312 -2.517909e+01
         vertex -2.100481e+01 5.649588e-312 -2.625000e+01
      endloop
   endfacet
   facet normal -0.000000e+00 -1.000000e+00 0.000000e+00
      outer loop
         vertex 2.175467e+01 5.649588e-312 -2.517909e+01
         vertex 3.183013e+01 5.649588e-312 1.750000e+01
         vertex 2.100481e+01 5.649588e-312 -2.625000e+01
      endloop
   endfacet
   facet normal 0.000000e+00 -1.000000e+00 0.000000e+00
      outer loop
         vertex 4.000000e+01 5.649588e-312 4.000000e+01
         vertex 3.324533e+01 5.649588e-312 -2.517909e+01
         vertex 3.399519e+01 5.649588e-312 -2.625000e+01
      endloop
   endfacet
   facet normal -0.000000e+00 -1.000000e+00 0.000000e+00
      outer loop
         vertex -3.232091e+01 5.649588e-312 -2.425467e+01
         vertex -2.750000e+01 5.649588e-312 1.500000e+01
         vertex -3.324533e+01 5.649588e-312 -2.517909e+01
      endloop
   endfacet
   facet normal 0.000000e+00 -1.000000e+00 0.000000e+00
      outer loop
         vertex -1.383022e+01 5.649588e-312 -1.821394e+01
         vertex -2.267909e+01 5.649588e-312 -2.425467e+01
         vertex -2.175467e+01 5.649588e-312 -2.517909e+01
      endloop
   endfacet
   facet normal -0.000000e+00 -1.000000e+00 0.000000e+00
      outer loop
         vertex -1.321394e+01 5.649588e-312 -1.883022e+01
         vertex -1.383022e+01 5.649588e-312 -1.821394e+01
         vertex -2.175467e+01 5.649588e-312 -2.517909e+01
      endloop
   endfacet
   facet normal -0.000000e+00 -1.000000e+00 0.000000e+00
      outer loop
         vertex 2.267909e+01 5.649588e-312 -2.425467e+01
         vertex 3.183013e+01 5.649588e-312 1.750000e+01
         vertex 2.175467e+01 5.649588e-312 -2.517909e+01
      endloop
   endfacet
   facet normal 0.000000e+00 -1.000000e+00 0.000000e+00
      outer loop
         vertex 4.000000e+01 5.649588e-312 4.000000e+01
         vertex 3.232091e+01 5.649588e-312 -2.425467e+01
         vertex 3.324533e+01 5.649588e-312 -2.517909e+01
      endloop
   endfacet
   facet normal -0.000000e+00 -1.000000e+00 0.000000e+00
      outer loop
         vertex -3.125000e+01 5.649588e-312 -2.350481e+01
         vertex -2.750000e+01 5.649588e-312 1.500000e+01
         vertex -3.232091e+01 5.649588e-312 -2.425467e+01
      endloop
   endfacet
   facet normal 0.000000e+00 -1.000000e+00 0.000000e+00
      outer loop
         vertex -1.433013e+01 5.649588e-312 -1.750000e+01
         vertex -2.375000e+01 5.649588e-312 -2.350481e+01
         vertex -2.267909e+01 5.649588e-312 -2.425467e+01
      endloop
   endfacet
   facet normal -0.000000e+00 -1.000000e+00 0.000000e+00
      outer loop
         vertex -1.383022e+01 5.649588e-312 -1.821394e+01
         vertex -1.433013e+01 5.649588e-312 -1.750000e+01
         vertex -2.267909e+01 5.649588e-312 -2.425467e+01
      endloop
   endfacet
   facet normal -0.000000e+00 -1.000000e+00 0.000000e+00
      outer loop
         vertex 2.375000e+01 5.649588e-312 -2.350481e+01
         vertex 3.183013e+01 5.649588e-312 1.750000e+01
         vertex 2.267909e+01 5.649588e-312 -2.425467e+01
      endloop
   endfacet
   facet normal 0.000000e+00 -1.000000e+00 0.000000e+00
      outer loop
         vertex 4.000000e+01 5.649588e-312 4.000000e+01
         vertex 3.125000e+01 5.649588e-312 -2.350481e+01
         vertex 3.232091e+01 5.649588e-312 -2.425467e+01
      endloop
   endfacet
   facet normal -0.000000e+00 -1.000000e+00 0.000000e+00
      outer loop
         vertex -3.006515e+01 5.649588e-312 -2.295231e+01
         vertex -2.750000e+01 5.649588e-312 1.500000e+01
         vertex -3.125000e+01 5.649588e-312 -2.350481e+01
      endloop
   endfacet
   facet normal 0.000000e+00 -1.000000e+00 0.000000e+00
      outer loop
         vertex -1.433013e+01 5.649588e-312 -1.750000e+01
         vertex -2.493485e+01 5.649588e-312 -2.295231e+01
         vertex -2.375000e+01 5.649588e-312 -2.350481e+01
      endloop
   endfacet
   facet normal -0.000000e+00 -1.000000e+00 0.000000e+00
      outer loop
         vertex 2.493485e+01 5.649588e-312 -2.295231e+01
         vertex 3.183013e+01 5.649588e-312 1.750000e+01
         vertex 2.375000e+01 5.649588e-312 -2.350481e+01
      endloop
   endfacet
   facet normal 0.000000e+00 -1.000000e+00 0.000000e+00
      outer loop
         vertex 4.000000e+01 5.649588e-312 4.000000e+01
         vertex 3.006515e+01 5.649588e-312 -2.295231e+01
         vertex 3.125000e+01 5.649588e-312 -2.350481e+01
      endloop
   endfacet
   facet normal -0.000000e+00 -1.000000e+00 0.000000e+00
      outer loop
         vertex -2.880236e+01 5.649588e-312 -2.261394e+01
         vertex -2.750000e+01 5.649588e-312 1.500000e+01
         vertex -3.006515e+01 5.649588e-312 -2.295231e+01
      endloop
   endfacet
   facet normal 0.000000e+00 -1.000000e+00 0.000000e+00
      outer loop
         vertex -2.428606e+01 5.649588e-312 1.616978e+01
         vertex -2.500000e+01 5.649588e-312 1.566987e+01
         vertex -2.493485e+01 5.649588e-312 -2.295231e+01
      endloop
   endfacet
   facet normal 0.000000e+00 -1.000000e+00 -0.000000e+00
      outer loop
         vertex -2.500000e+01 5.649588e-312 1.566987e+01
         vertex -2.578990e+01 5.649588e-312 1.530154e+01
         vertex -2.493485e+01 5.649588e-312 -2.295231e+01
      endloop
   endfacet
   facet normal 0.000000e+00 -1.000000e+00 -0.000000e+00
      outer loop
         vertex -2.578990e+01 5.649588e-312 1.530154e+01
         vertex -2.663176e+01 5.649588e-312 1.507596e+01
         vertex -2.493485e+01 5.649588e-312 -2.295231e+01
      endloop
   endfacet
   facet normal 0.000000e+00 -1.000000e+00 0.000000e+00
      outer loop
         vertex -2.663176e+01 5.649588e-312 1.507596e+01
         vertex -2.619764e+01 5.649588e-312 -2.261394e+01
         vertex -2.493485e+01 5.649588e-312 -2.295231e+01
      endloop
   endfacet
   facet normal -0.000000e+00 -1.000000e+00 0.000000e+00
      outer loop
         vertex -1.469846e+01 5.649588e-312 -1.671010e+01
         vertex -2.428606e+01 5.649588e-312 1.616978e+01
         vertex -2.493485e+01 5.649588e-312 -2.295231e+01
      endloop
   endfacet
   facet normal -0.000000e+00 -1.000000e+00 0.000000e+00
      outer loop
         vertex -1.433013e+01 5.649588e-312 -1.750000e+01
         vertex -1.469846e+01 5.649588e-312 -1.671010e+01
         vertex -2.493485e+01 5.649588e-312 -2.295231e+01
      endloop
   endfacet
   facet normal -0.000000e+00 -1.000000e+00 0.000000e+00
      outer loop
         vertex 2.619764e+01 5.649588e-312 -2.261394e+01
         vertex 3.183013e+01 5.649588e-312 1.750000e+01
         vertex 2.493485e+01 5.649588e-312 -2.295231e+01
      endloop
   endfacet
   facet normal 0.000000e+00 -1.000000e+00 0.000000e+00
      outer loop
         vertex 4.000000e+01 5.649588e-312 4.000000e+01
         vertex 3.242404e+01 5.649588e-312 1.913176e+01
         vertex 3.006515e+01 5.649588e-312 -2.295231e+01
      endloop
   endfacet
   facet normal 0.000000e+00 -1.000000e+00 0.000000e+00
      outer loop
         vertex 3.242404e+01 5.649588e-312 1.913176e+01
         vertex 3.219846e+01 5.649588e-312 1.828990e+01
         vertex 3.006515e+01 5.649588e-312 -2.295231e+01
      endloop
   endfacet
   facet normal 0.000000e+00 -1.000000e+00 0.000000e+00
      outer loop
         vertex 3.219846e+01 5.649588e-312 1.828990e+01
         vertex 2.880236e+01 5.649588e-312 -2.261394e+01
         vertex 3.006515e+01 5.649588e-312 -2.295231e+01
      endloop
   endfacet
   facet normal -0.000000e+00 -1.000000e+00 0.000000e+00
      outer loop
         vertex -2.750000e+01 5.649588e-312 -2.250000e+01
         vertex -2.750000e+01 5.649588e-312 1.500000e+01
         vertex -2.880236e+01 5.649588e-312 -2.261394e+01
      endloop
   endfacet
   facet normal 0.000000e+00 -1.000000e+00 -0.000000e+00
      outer loop
         vertex -2.663176e+01 5.649588e-312 1.507596e+01
         vertex -2.750000e+01 5.649588e-312 -2.250000e+01
         vertex -2.619764e+01 5.649588e-312 -2.261394e+01
      endloop
   endfacet
   facet normal -0.000000e+00 -1.000000e+00 0.000000e+00
      outer loop
         vertex 2.750000e+01 5.649588e-312 -2.250000e+01
         vertex 3.183013e+01 5.649588e-312 1.750000e+01
         vertex 2.619764e+01 5.649588e-312 -2.261394e+01
      endloop
   endfacet
   facet normal 0.000000e+00 -1.000000e+00 0.000000e+00
      outer loop
         vertex 3.219846e+01 5.649588e-312 1.828990e+01
         vertex 2.750000e+01 5.649588e-312 -2.250000e+01
         vertex 2.880236e+01 5.649588e-312 -2.261394e+01
      endloop
   endfacet
   facet normal 0.000000e+00 -1.000000e+00 0.000000e+00
      outer loop
         vertex -2.663176e+01 5.649588e-312 1.507596e+01
         vertex -2.750000e+01 5.649588e-312 1.500000e+01
         vertex -2.750000e+01 5.649588e-312 -2.250000e+01
      endloop
   endfacet
   facet normal 0.000000e+00 -1.000000e+00 0.000000e+00
      outer loop
         vertex 3.219846e+01 5.649588e-312 1.828990e+01
         vertex 3.183013e+01 5.649588e-312 1.750000e+01
         vertex 2.750000e+01 5.649588e-312 -2.250000e+01
      endloop
   endfacet
   facet normal -0.000000e+00 -1.000000e+00 -0.000000e+00
      outer loop
         vertex -1.492404e+01 5.649588e-312 -1.586824e+01
         vertex -2.428606e+01 5.649588e-312 1.616978e+01
         vertex -1.469846e+01 5.649588e-312 -1.671010e+01
      endloop
   endfacet
   facet normal -0.000000e+00 -1.000000e+00 -0.000000e+00
      outer loop
         vertex -1.500000e+01 5.649588e-312 -1.500000e+01
         vertex -2.316987e+01 5.649588e-312 1.750000e+01
         vertex -1.492404e+01 5.649588e-312 -1.586824e+01
      endloop
   endfacet
   facet normal 0.000000e+00 -1.000000e+00 -0.000000e+00
      outer loop
         vertex -2.316987e+01 5.649588e-312 1.750000e+01
         vertex -2.366978e+01 5.649588e-312 1.678606e+01
         vertex -1.492404e+01 5.649588e-312 -1.586824e+01
      endloop
   endfacet
   facet normal 0.000000e+00 -1.000000e+00 -0.000000e+00
      outer loop
         vertex -2.366978e+01 5.649588e-312 1.678606e+01
         vertex -2.428606e+01 5.649588e-312 1.616978e+01
         vertex -1.492404e+01 5.649588e-312 -1.586824e+01
      endloop
   endfacet
   facet normal 0.000000e+00 -1.000000e+00 -0.000000e+00
      outer loop
         vertex -2.250000e+01 5.649588e-312 2.000000e+01
         vertex -2.257596e+01 5.649588e-312 1.913176e+01
         vertex -1.500000e+01 5.649588e-312 -1.500000e+01
      endloop
   endfacet
   facet normal 0.000000e+00 -1.000000e+00 -0.000000e+00
      outer loop
         vertex -1.500000e+01 5.649588e-312 4.000000e+01
         vertex -2.250000e+01 5.649588e-312 2.000000e+01
         vertex -1.500000e+01 5.649588e-312 -1.500000e+01
      endloop
   endfacet
   facet normal 0.000000e+00 -1.000000e+00 -0.000000e+00
      outer loop
         vertex -2.257596e+01 5.649588e-312 1.913176e+01
         vertex -2.280154e+01 5.649588e-312 1.828990e+01
         vertex -1.500000e+01 5.649588e-312 -1.500000e+01
      endloop
   endfacet
   facet normal 0.000000e+00 -1.000000e+00 -0.000000e+00
      outer loop
         vertex -2.280154e+01 5.649588e-312 1.828990e+01
         vertex -2.316987e+01 5.649588e-312 1.750000e+01
         vertex -1.500000e+01 5.649588e-312 -1.500000e+01
      endloop
   endfacet
   facet normal -5.887545e-16 -1.000000e+00 1.261617e-16
      outer loop
         vertex 2.250000e+01 5.649588e-312 2.000000e+01
         vertex 1.500000e+01 6.938894e-15 4.000000e+01
         vertex 1.500000e+01 5.649588e-312 -1.500000e+01
      endloop
   endfacet
   facet normal -0.000000e+00 -1.000000e+00 0.000000e+00
      outer loop
         vertex 2.280154e+01 5.649588e-312 1.828990e+01
         vertex 2.257596e+01 5.649588e-312 1.913176e+01
         vertex 1.500000e+01 5.649588e-312 -1.500000e+01
      endloop
   endfacet
   facet normal -0.000000e+00 -1.000000e+00 0.000000e+00
      outer loop
         vertex 2.257596e+01 5.649588e-312 1.913176e+01
         vertex 2.250000e+01 5.649588e-312 2.000000e+01
         vertex 1.500000e+01 5.649588e-312 -1.500000e+01
      endloop
   endfacet
   facet normal -0.000000e+00 -1.000000e+00 -0.000000e+00
      outer loop
         vertex -3.250000e+01 5.649588e-312 2.000000e+01
         vertex -4.000000e+01 5.649588e-312 4.000000e+01
         vertex -3.242404e+01 5.649588e-312 1.913176e+01
      endloop
   endfacet
   facet normal 0.000000e+00 -1.000000e+00 0.000000e+00
      outer loop
         vertex 4.000000e+01 5.649588e-312 4.000000e+01
         vertex 3.250000e+01 5.649588e-312 2.000000e+01
         vertex 3.242404e+01 5.649588e-312 1.913176e+01
      endloop
   endfacet
   facet normal -0.000000e+00 -1.000000e+00 0.000000e+00
      outer loop
         vertex -3.242404e+01 5.649588e-312 2.086824e+01
         vertex -4.000000e+01 5.649588e-312 4.000000e+01
         vertex -3.250000e+01 5.649588e-312 2.000000e+01
      endloop
   endfacet
   facet normal 0.000000e+00 -1.000000e+00 0.000000e+00
      outer loop
         vertex -1.500000e+01 5.649588e-312 4.000000e+01
         vertex -2.257596e+01 5.649588e-312 2.086824e+01
         vertex -2.250000e+01 5.649588e-312 2.000000e+01
      endloop
   endfacet
   facet normal -7.501705e-16 -1.000000e+00 6.563071e-17
      outer loop
         vertex 2.257596e+01 5.649588e-312 2.086824e+01
         vertex 1.500000e+01 6.938894e-15 4.000000e+01
         vertex 2.250000e+01 5.649588e-312 2.000000e+01
      endloop
   endfacet
   facet normal 0.000000e+00 -1.000000e+00 0.000000e+00
      outer loop
         vertex 4.000000e+01 5.649588e-312 4.000000e+01
         vertex 3.242404e+01 5.649588e-312 2.086824e+01
         vertex 3.250000e+01 5.649588e-312 2.000000e+01
      endloop
   endfacet
   facet normal -0.000000e+00 -1.000000e+00 0.000000e+00
      outer loop
         vertex -3.219846e+01 5.649588e-312 2.171010e+01
         vertex -4.000000e+01 5.649588e-312 4.000000e+01
         vertex -3.242404e+01 5.649588e-312 2.086824e+01
      endloop
   endfacet
   facet normal 0.000000e+00 -1.000000e+00 0.000000e+00
      outer loop
         vertex -1.500000e+01 5.649588e-312 4.000000e+01
         vertex -2.280154e+01 5.649588e-312 2.171010e+01
         vertex -2.257596e+01 5.649588e-312 2.086824e+01
      endloop
   endfacet
   facet normal -5.462706e-16 -1.000000e+00 1.463728e-16
      outer loop
         vertex 2.280154e+01 5.649588e-312 2.171010e+01
         vertex 1.500000e+01 6.938894e-15 4.000000e+01
         vertex 2.257596e+01 5.649588e-312 2.086824e+01
      endloop
   endfacet
   facet normal 0.000000e+00 -1.000000e+00 0.000000e+00
      outer loop
         vertex 4.000000e+01 5.649588e-312 4.000000e+01
         vertex 3.219846e+01 5.649588e-312 2.171010e+01
         vertex 3.242404e+01 5.649588e-312 2.086824e+01
      endloop
   endfacet
   facet normal -0.000000e+00 -1.000000e+00 0.000000e+00
      outer loop
         vertex -3.183013e+01 5.649588e-312 2.250000e+01
         vertex -4.000000e+01 5.649588e-312 4.000000e+01
         vertex -3.219846e+01 5.649588e-312 2.171010e+01
      endloop
   endfacet
   facet normal 0.000000e+00 -1.000000e+00 0.000000e+00
      outer loop
         vertex -1.500000e+01 5.649588e-312 4.000000e+01
         vertex -2.316987e+01 5.649588e-312 2.250000e+01
         vertex -2.280154e+01 5.649588e-312 2.171010e+01
      endloop
   endfacet
   facet normal -4.249102e-16 -1.000000e+00 1.981389e-16
      outer loop
         vertex 2.316987e+01 5.649588e-312 2.250000e+01
         vertex 1.500000e+01 6.938894e-15 4.000000e+01
         vertex 2.280154e+01 5.649588e-312 2.171010e+01
      endloop
   endfacet
   facet normal 0.000000e+00 -1.000000e+00 0.000000e+00
      outer loop
         vertex 4.000000e+01 5.649588e-312 4.000000e+01
         vertex 3.183013e+01 5.649588e-312 2.250000e+01
         vertex 3.219846e+01 5.649588e-312 2.171010e+01
      endloop
   endfacet
   facet normal -0.000000e+00 -1.000000e+00 0.000000e+00
      outer loop
         vertex -3.133022e+01 5.649588e-312 2.321394e+01
         vertex -4.000000e+01 5.649588e-312 4.000000e+01
         vertex -3.183013e+01 5.649588e-312 2.250000e+01
      endloop
   endfacet
   facet normal 0.000000e+00 -1.000000e+00 0.000000e+00
      outer loop
         vertex -1.500000e+01 5.649588e-312 4.000000e+01
         vertex -2.366978e+01 5.649588e-312 2.321394e+01
         vertex -2.316987e+01 5.649588e-312 2.250000e+01
      endloop
   endfacet
   facet normal -3.397504e-16 -1.000000e+00 2.378958e-16
      outer loop
         vertex 2.366978e+01 5.649588e-312 2.321394e+01
         vertex 1.500000e+01 6.938894e-15 4.000000e+01
         vertex 2.316987e+01 5.649588e-312 2.250000e+01
      endloop
   endfacet
   facet normal 0.000000e+00 -1.000000e+00 0.000000e+00
      outer loop
         vertex 4.000000e+01 5.649588e-312 4.000000e+01
         vertex 3.133022e+01 5.649588e-312 2.321394e+01
         vertex 3.183013e+01 5.649588e-312 2.250000e+01
      endloop
   endfacet
   facet normal -0.000000e+00 -1.000000e+00 0.000000e+00
      outer loop
         vertex -3.071394e+01 5.649588e-312 2.383022e+01
         vertex -4.000000e+01 5.649588e-312 4.000000e+01
         vertex -3.133022e+01 5.649588e-312 2.321394e+01
      endloop
   endfacet
   facet normal 0.000000e+00 -1.000000e+00 0.000000e+00
      outer loop
         vertex -1.500000e+01 5.649588e-312 4.000000e+01
         vertex -2.428606e+01 5.649588e-312 2.383022e+01
         vertex -2.366978e+01 5.649588e-312 2.321394e+01
      endloop
   endfacet
   facet normal -2.725856e-16 -1.000000e+00 2.725856e-16
      outer loop
         vertex 2.428606e+01 5.649588e-312 2.383022e+01
         vertex 1.500000e+01 6.938894e-15 4.000000e+01
         vertex 2.366978e+01 5.649588e-312 2.321394e+01
      endloop
   endfacet
   facet normal 0.000000e+00 -1.000000e+00 0.000000e+00
      outer loop
         vertex 4.000000e+01 5.649588e-312 4.000000e+01
         vertex 3.071394e+01 5.649588e-312 2.383022e+01
         vertex 3.133022e+01 5.649588e-312 2.321394e+01
      endloop
   endfacet
   facet normal -0.000000e+00 -1.000000e+00 0.000000e+00
      outer loop
         vertex -3.000000e+01 5.649588e-312 2.433013e+01
         vertex -4.000000e+01 5.649588e-312 4.000000e+01
         vertex -3.071394e+01 5.649588e-312 2.383022e+01
      endloop
   endfacet
   facet normal 0.000000e+00 -1.000000e+00 0.000000e+00
      outer loop
         vertex -1.500000e+01 5.649588e-312 4.000000e+01
         vertex -2.500000e+01 5.649588e-312 2.433013e+01
         vertex -2.428606e+01 5.649588e-312 2.383022e+01
      endloop
   endfacet
   facet normal -2.143026e-16 -1.000000e+00 3.060566e-16
      outer loop
         vertex 2.500000e+01 5.649588e-312 2.433013e+01
         vertex 1.500000e+01 6.938894e-15 4.000000e+01
         vertex 2.428606e+01 5.649588e-312 2.383022e+01
      endloop
   endfacet
   facet normal 0.000000e+00 -1.000000e+00 0.000000e+00
      outer loop
         vertex 4.000000e+01 5.649588e-312 4.000000e+01
         vertex 3.000000e+01 5.649588e-312 2.433013e+01
         vertex 3.071394e+01 5.649588e-312 2.383022e+01
      endloop
   endfacet
   facet normal -0.000000e+00 -1.000000e+00 0.000000e+00
      outer loop
         vertex -2.921010e+01 5.649588e-312 2.469846e+01
         vertex -4.000000e+01 5.649588e-312 4.000000e+01
         vertex -3.000000e+01 5.649588e-312 2.433013e+01
      endloop
   endfacet
   facet normal 0.000000e+00 -1.000000e+00 0.000000e+00
      outer loop
         vertex -1.500000e+01 5.649588e-312 4.000000e+01
         vertex -2.578990e+01 5.649588e-312 2.469846e+01
         vertex -2.500000e+01 5.649588e-312 2.433013e+01
      endloop
   endfacet
   facet normal -1.591338e-16 -1.000000e+00 3.412635e-16
      outer loop
         vertex 2.578990e+01 5.649588e-312 2.469846e+01
         vertex 1.500000e+01 6.938894e-15 4.000000e+01
         vertex 2.500000e+01 5.649588e-312 2.433013e+01
      endloop
   endfacet
   facet normal 0.000000e+00 -1.000000e+00 0.000000e+00
      outer loop
         vertex 4.000000e+01 5.649588e-312 4.000000e+01
         vertex 2.921010e+01 5.649588e-312 2.469846e+01
         vertex 3.000000e+01 5.649588e-312 2.433013e+01
      endloop
   endfacet
   facet normal -0.000000e+00 -1.000000e+00 0.000000e+00
      outer loop
         vertex -2.836824e+01 5.649588e-312 2.492404e+01
         vertex -4.000000e+01 5.649588e-312 4.000000e+01
         vertex -2.921010e+01 5.649588e-312 2.469846e+01
      endloop
   endfacet
   facet normal 0.000000e+00 -1.000000e+00 0.000000e+00
      outer loop
         vertex -1.500000e+01 5.649588e-312 4.000000e+01
         vertex -2.663176e+01 5.649588e-312 2.492404e+01
         vertex -2.578990e+01 5.649588e-312 2.469846e+01
      endloop
   endfacet
   facet normal -1.021988e-16 -1.000000e+00 3.814113e-16
      outer loop
         vertex 2.663176e+01 5.649588e-312 2.492404e+01
         vertex 1.500000e+01 6.938894e-15 4.000000e+01
         vertex 2.578990e+01 5.649588e-312 2.469846e+01
      endloop
   endfacet
   facet normal 0.000000e+00 -1.000000e+00 0.000000e+00
      outer loop
         vertex 4.000000e+01 5.649588e-312 4.000000e+01
         vertex 2.836824e+01 5.649588e-312 2.492404e+01
         vertex 2.921010e+01 5.649588e-312 2.469846e+01
      endloop
   endfacet
   facet normal -0.000000e+00 -1.000000e+00 0.000000e+00
      outer loop
         vertex -2.750000e+01 5.649588e-312 2.500000e+01
         vertex -4.000000e+01 5.649588e-312 4.000000e+01
         vertex -2.836824e+01 5.649588e-312 2.492404e+01
      endloop
   endfacet
   facet normal 0.000000e+00 -1.000000e+00 0.000000e+00
      outer loop
         vertex -1.500000e+01 5.649588e-312 4.000000e+01
         vertex -2.750000e+01 5.649588e-312 2.500000e+01
         vertex -2.663176e+01 5.649588e-312 2.492404e+01
      endloop
   endfacet
   facet normal -0.000000e+00 -1.000000e+00 0.000000e+00
      outer loop
         vertex 2.750000e+01 5.649588e-312 2.500000e+01
         vertex 4.000000e+01 5.649588e-312 4.000000e+01
         vertex 2.663176e+01 5.649588e-312 2.492404e+01
      endloop
   endfacet
   facet normal -2.775558e-16 -1.000000e+00 2.461158e-16
      outer loop
         vertex 4.000000e+01 5.649588e-312 4.000000e+01
         vertex 1.500000e+01 6.938894e-15 4.000000e+01
         vertex 2.663176e+01 5.649588e-312 2.492404e+01
      endloop
   endfacet
   facet normal 0.000000e+00 -1.000000e+00 0.000000e+00
      outer loop
         vertex 4.000000e+01 5.649588e-312 4.000000e+01
         vertex 2.750000e+01 5.649588e-312 2.500000e+01
         vertex 2.836824e+01 5.649588e-312 2.492404e+01
      endloop
   endfacet
   facet normal -0.000000e+00 -1.000000e+00 0.000000e+00
      outer loop
         vertex -1.500000e+01 5.649588e-312 4.000000e+01
         vertex -4.000000e+01 5.649588e-312 4.000000e+01
         vertex -2.750000e+01 5.649588e-312 2.500000e+01
      endloop
   endfacet
   facet normal 0.000000e+00 1.000000e+00 0.000000e+00
      outer loop
         vertex -4.000000e+01 2.500000e+01 4.000000e+01
         vertex -3.242404e+01 2.500000e+01 1.913176e+01
         vertex -4.000000e+01 2.500000e+01 -4.000000e+01
      endloop
   endfacet
   facet normal 0.000000e+00 1.000000e+00 0.000000e+00
      outer loop
         vertex -3.488606e+01 2.500000e+01 -3.130236e+01
         vertex -3.454769e+01 2.500000e+01 -3.256515e+01
         vertex -4.000000e+01 2.500000e+01 -4.000000e+01
      endloop
   endfacet
   facet normal 0.000000e+00 1.000000e+00 0.000000e+00
      outer loop
         vertex -3.454769e+01 2.500000e+01 -3.256515e+01
         vertex -3.399519e+01 2.500000e+01 -3.375000e+01
         vertex -4.000000e+01 2.500000e+01 -4.000000e+01
      endloop
   endfacet
   facet normal 0.000000e+00 1.000000e+00 0.000000e+00
      outer loop
         vertex -3.399519e+01 2.500000e+01 -3.375000e+01
         vertex -3.324533e+01 2.500000e+01 -3.482091e+01
         vertex -4.000000e+01 2.500000e+01 -4.000000e+01
      endloop
   endfacet
   facet normal 0.000000e+00 1.000000e+00 0.000000e+00
      outer loop
         vertex -3.242404e+01 2.500000e+01 1.913176e+01
         vertex -3.488606e+01 2.500000e+01 -2.869764e+01
         vertex -4.000000e+01 2.500000e+01 -4.000000e+01
      endloop
   endfacet
   facet normal 0.000000e+00 1.000000e+00 0.000000e+00
      outer loop
         vertex -3.488606e+01 2.500000e+01 -2.869764e+01
         vertex -3.500000e+01 2.500000e+01 -3.000000e+01
         vertex -4.000000e+01 2.500000e+01 -4.000000e+01
      endloop
   endfacet
   facet normal 0.000000e+00 1.000000e+00 0.000000e+00
      outer loop
         vertex -3.500000e+01 2.500000e+01 -3.000000e+01
         vertex -3.488606e+01 2.500000e+01 -3.130236e+01
         vertex -4.000000e+01 2.500000e+01 -4.000000e+01
      endloop
   endfacet
   facet normal 0.000000e+00 1.000000e+00 0.000000e+00
      outer loop
         vertex -3.324533e+01 2.500000e+01 -3.482091e+01
         vertex -3.232091e+01 2.500000e+01 -3.574533e+01
         vertex -4.000000e+01 2.500000e+01 -4.000000e+01
      endloop
   endfacet
   facet normal 0.000000e+00 1.000000e+00 0.000000e+00
      outer loop
         vertex -3.232091e+01 2.500000e+01 -3.574533e+01
         vertex -3.125000e+01 2.500000e+01 -3.649519e+01
         vertex -4.000000e+01 2.500000e+01 -4.000000e+01
      endloop
   endfacet
   facet normal 0.000000e+00 1.000000e+00 0.000000e+00
      outer loop
         vertex -3.125000e+01 2.500000e+01 -3.649519e+01
         vertex -3.006515e+01 2.500000e+01 -3.704770e+01
         vertex -4.000000e+01 2.500000e+01 -4.000000e+01
      endloop
   endfacet
   facet normal 0.000000e+00 1.000000e+00 0.000000e+00
      outer loop
         vertex -3.006515e+01 2.500000e+01 -3.704770e+01
         vertex -2.880236e+01 2.500000e+01 -3.738606e+01
         vertex -4.000000e+01 2.500000e+01 -4.000000e+01
      endloop
   endfacet
   facet normal 0.000000e+00 1.000000e+00 0.000000e+00
      outer loop
         vertex -2.880236e+01 2.500000e+01 -3.738606e+01
         vertex -2.750000e+01 2.500000e+01 -3.750000e+01
         vertex -4.000000e+01 2.500000e+01 -4.000000e+01
      endloop
   endfacet
   facet normal 0.000000e+00 1.000000e+00 0.000000e+00
      outer loop
         vertex -2.750000e+01 2.500000e+01 -3.750000e+01
         vertex 4.000000e+01 2.500000e+01 -4.000000e+01
         vertex -4.000000e+01 2.500000e+01 -4.000000e+01
      endloop
   endfacet
   facet normal -0.000000e+00 1.000000e+00 0.000000e+00
      outer loop
         vertex 3.219846e+01 2.500000e+01 1.828990e+01
         vertex 3.242404e+01 2.500000e+01 1.913176e+01
         vertex 4.000000e+01 2.500000e+01 -4.000000e+01
      endloop
   endfacet
   facet normal -0.000000e+00 1.000000e+00 0.000000e+00
      outer loop
         vertex 3.242404e+01 2.500000e+01 1.913176e+01
         vertex 4.000000e+01 2.500000e+01 4.000000e+01
         vertex 4.000000e+01 2.500000e+01 -4.000000e+01
      endloop
   endfacet
   facet normal -0.000000e+00 1.000000e+00 0.000000e+00
      outer loop
         vertex 3.071394e+01 2.500000e+01 1.616978e+01
         vertex 3.133022e+01 2.500000e+01 1.678606e+01
         vertex 4.000000e+01 2.500000e+01 -4.000000e+01
      endloop
   endfacet
   facet normal -0.000000e+00 1.000000e+00 0.000000e+00
      outer loop
         vertex 3.133022e+01 2.500000e+01 1.678606e+01
         vertex 3.183013e+01 2.500000e+01 1.750000e+01
         vertex 4.000000e+01 2.500000e+01 -4.000000e+01
      endloop
   endfacet
   facet normal -0.000000e+00 1.000000e+00 0.000000e+00
      outer loop
         vertex 3.183013e+01 2.500000e+01 1.750000e+01
         vertex 3.219846e+01 2.500000e+01 1.828990e+01
         vertex 4.000000e+01 2.500000e+01 -4.000000e+01
      endloop
   endfacet
   facet normal -0.000000e+00 1.000000e+00 0.000000e+00
      outer loop
         vertex 3.399519e+01 2.500000e+01 -3.375000e+01
         vertex 3.454769e+01 2.500000e+01 -3.256515e+01
         vertex 4.000000e+01 2.500000e+01 -4.000000e+01
      endloop
   endfacet
   facet normal -0.000000e+00 1.000000e+00 0.000000e+00
      outer loop
         vertex 3.454769e+01 2.500000e+01 -3.256515e+01
         vertex 3.488606e+01 2.500000e+01 -3.130236e+01
         vertex 4.000000e+01 2.500000e+01 -4.000000e+01
      endloop
   endfacet
   facet normal -0.000000e+00 1.000000e+00 0.000000e+00
      outer loop
         vertex 3.488606e+01 2.500000e+01 -3.130236e+01
         vertex 3.500000e+01 2.500000e+01 -3.000000e+01
         vertex 4.000000e+01 2.500000e+01 -4.000000e+01
      endloop
   endfacet
   facet normal -0.000000e+00 1.000000e+00 -0.000000e+00
      outer loop
         vertex 3.500000e+01 2.500000e+01 -3.000000e+01
         vertex 3.488606e+01 2.500000e+01 -2.869764e+01
         vertex 4.000000e+01 2.500000e+01 -4.000000e+01
      endloop
   endfacet
   facet normal -0.000000e+00 1.000000e+00 -0.000000e+00
      outer loop
         vertex 3.488606e+01 2.500000e+01 -2.869764e+01
         vertex 3.071394e+01 2.500000e+01 1.616978e+01
         vertex 4.000000e+01 2.500000e+01 -4.000000e+01
      endloop
   endfacet
   facet normal -0.000000e+00 1.000000e+00 0.000000e+00
      outer loop
         vertex -2.750000e+01 2.500000e+01 -3.750000e+01
         vertex -2.619764e+01 2.500000e+01 -3.738606e+01
         vertex 4.000000e+01 2.500000e+01 -4.000000e+01
      endloop
   endfacet
   facet normal -0.000000e+00 1.000000e+00 0.000000e+00
      outer loop
         vertex -2.619764e+01 2.500000e+01 -3.738606e+01
         vertex -2.493485e+01 2.500000e+01 -3.704770e+01
         vertex 4.000000e+01 2.500000e+01 -4.000000e+01
      endloop
   endfacet
   facet normal -0.000000e+00 1.000000e+00 0.000000e+00
      outer loop
         vertex -2.493485e+01 2.500000e+01 -3.704770e+01
         vertex -2.375000e+01 2.500000e+01 -3.649519e+01
         vertex 4.000000e+01 2.500000e+01 -4.000000e+01
      endloop
   endfacet
   facet normal -0.000000e+00 1.000000e+00 0.000000e+00
      outer loop
         vertex -2.375000e+01 2.500000e+01 -3.649519e+01
         vertex -2.267909e+01 2.500000e+01 -3.574533e+01
         vertex 4.000000e+01 2.500000e+01 -4.000000e+01
      endloop
   endfacet
   facet normal -0.000000e+00 1.000000e+00 0.000000e+00
      outer loop
         vertex -2.267909e+01 2.500000e+01 -3.574533e+01
         vertex -2.175467e+01 2.500000e+01 -3.482091e+01
         vertex 4.000000e+01 2.500000e+01 -4.000000e+01
      endloop
   endfacet
   facet normal -0.000000e+00 1.000000e+00 0.000000e+00
      outer loop
         vertex 3.006515e+01 2.500000e+01 -3.704770e+01
         vertex 3.125000e+01 2.500000e+01 -3.649519e+01
         vertex 4.000000e+01 2.500000e+01 -4.000000e+01
      endloop
   endfacet
   facet normal -0.000000e+00 1.000000e+00 0.000000e+00
      outer loop
         vertex 2.880236e+01 2.500000e+01 -3.738606e+01
         vertex 3.006515e+01 2.500000e+01 -3.704770e+01
         vertex 4.000000e+01 2.500000e+01 -4.000000e+01
      endloop
   endfacet
   facet normal -0.000000e+00 1.000000e+00 0.000000e+00
      outer loop
         vertex 3.125000e+01 2.500000e+01 -3.649519e+01
         vertex 3.232091e+01 2.500000e+01 -3.574533e+01
         vertex 4.000000e+01 2.500000e+01 -4.000000e+01
      endloop
   endfacet
   facet normal -0.000000e+00 1.000000e+00 0.000000e+00
      outer loop
         vertex 3.232091e+01 2.500000e+01 -3.574533e+01
         vertex 3.324533e+01 2.500000e+01 -3.482091e+01
         vertex 4.000000e+01 2.500000e+01 -4.000000e+01
      endloop
   endfacet
   facet normal -0.000000e+00 1.000000e+00 0.000000e+00
      outer loop
         vertex 3.324533e+01 2.500000e+01 -3.482091e+01
         vertex 3.399519e+01 2.500000e+01 -3.375000e+01
         vertex 4.000000e+01 2.500000e+01 -4.000000e+01
      endloop
   endfacet
   facet normal 0.000000e+00 1.000000e+00 0.000000e+00
      outer loop
         vertex -2.175467e+01 2.500000e+01 -3.482091e+01
         vertex 2.619764e+01 2.500000e+01 -3.738606e+01
         vertex 4.000000e+01 2.500000e+01 -4.000000e+01
      endloop
   endfacet
   facet normal 0.000000e+00 1.000000e+00 0.000000e+00
      outer loop
         vertex 2.619764e+01 2.500000e+01 -3.738606e+01
         vertex 2.750000e+01 2.500000e+01 -3.750000e+01
         vertex 4.000000e+01 2.500000e+01 -4.000000e+01
      endloop
   endfacet
   facet normal -0.000000e+00 1.000000e+00 0.000000e+00
      outer loop
         vertex 2.750000e+01 2.500000e+01 -3.750000e+01
         vertex 2.880236e+01 2.500000e+01 -3.738606e+01
         vertex 4.000000e+01 2.500000e+01 -4.000000e+01
      endloop
   endfacet
   facet normal 0.000000e+00 1.000000e+00 0.000000e+00
      outer loop
         vertex -2.175467e+01 2.500000e+01 -3.482091e+01
         vertex 2.493485e+01 2.500000e+01 -3.704770e+01
         vertex 2.619764e+01 2.500000e+01 -3.738606e+01
      endloop
   endfacet
   facet normal 0.000000e+00 1.000000e+00 0.000000e+00
      outer loop
         vertex -2.175467e+01 2.500000e+01 -3.482091e+01
         vertex 2.375000e+01 2.500000e+01 -3.649519e+01
         vertex 2.493485e+01 2.500000e+01 -3.704770e+01
      endloop
   endfacet
   facet normal 0.000000e+00 1.000000e+00 0.000000e+00
      outer loop
         vertex -2.175467e+01 2.500000e+01 -3.482091e+01
         vertex 2.267909e+01 2.500000e+01 -3.574533e+01
         vertex 2.375000e+01 2.500000e+01 -3.649519e+01
      endloop
   endfacet
   facet normal -0.000000e+00 1.000000e+00 0.000000e+00
      outer loop
         vertex -2.175467e+01 2.500000e+01 -3.482091e+01
         vertex 2.175467e+01 2.500000e+01 -3.482091e+01
         vertex 2.267909e+01 2.500000e+01 -3.574533e+01
      endloop
   endfacet
   facet normal -0.000000e+00 1.000000e+00 0.000000e+00
      outer loop
         vertex -2.100481e+01 2.500000e+01 -3.375000e+01
         vertex -1.086824e+01 2.500000e+01 -1.992404e+01
         vertex -2.175467e+01 2.500000e+01 -3.482091e+01
      endloop
   endfacet
   facet normal 0.000000e+00 1.000000e+00 0.000000e+00
      outer loop
         vertex -1.086824e+01 2.500000e+01 -1.992404e+01
         vertex -1.000000e+01 2.500000e+01 -2.000000e+01
         vertex -2.175467e+01 2.500000e+01 -3.482091e+01
      endloop
   endfacet
   facet normal 0.000000e+00 1.000000e+00 0.000000e+00
      outer loop
         vertex -1.000000e+01 2.500000e+01 -2.000000e+01
         vertex 2.175467e+01 2.500000e+01 -3.482091e+01
         vertex -2.175467e+01 2.500000e+01 -3.482091e+01
      endloop
   endfacet
   facet normal 0.000000e+00 1.000000e+00 0.000000e+00
      outer loop
         vertex 1.086824e+01 2.500000e+01 -1.992404e+01
         vertex 2.100481e+01 2.500000e+01 -3.375000e+01
         vertex 2.175467e+01 2.500000e+01 -3.482091e+01
      endloop
   endfacet
   facet normal -0.000000e+00 1.000000e+00 0.000000e+00
      outer loop
         vertex -1.000000e+01 2.500000e+01 -2.000000e+01
         vertex 1.000000e+01 2.500000e+01 -2.000000e+01
         vertex 2.175467e+01 2.500000e+01 -3.482091e+01
      endloop
   endfacet
   facet normal -0.000000e+00 1.000000e+00 0.000000e+00
      outer loop
         vertex 1.000000e+01 2.500000e+01 -2.000000e+01
         vertex 1.086824e+01 2.500000e+01 -1.992404e+01
         vertex 2.175467e+01 2.500000e+01 -3.482091e+01
      endloop
   endfacet
   facet normal -0.000000e+00 1.000000e+00 0.000000e+00
      outer loop
         vertex -2.045231e+01 2.500000e+01 -3.256515e+01
         vertex -1.250000e+01 2.500000e+01 -1.933013e+01
         vertex -2.100481e+01 2.500000e+01 -3.375000e+01
      endloop
   endfacet
   facet normal 0.000000e+00 1.000000e+00 0.000000e+00
      outer loop
         vertex -1.250000e+01 2.500000e+01 -1.933013e+01
         vertex -1.171010e+01 2.500000e+01 -1.969846e+01
         vertex -2.100481e+01 2.500000e+01 -3.375000e+01
      endloop
   endfacet
   facet normal 0.000000e+00 1.000000e+00 0.000000e+00
      outer loop
         vertex -1.171010e+01 2.500000e+01 -1.969846e+01
         vertex -1.086824e+01 2.500000e+01 -1.992404e+01
         vertex -2.100481e+01 2.500000e+01 -3.375000e+01
      endloop
   endfacet
   facet normal -0.000000e+00 1.000000e+00 0.000000e+00
      outer loop
         vertex 1.086824e+01 2.500000e+01 -1.992404e+01
         vertex 1.171010e+01 2.500000e+01 -1.969846e+01
         vertex 2.100481e+01 2.500000e+01 -3.375000e+01
      endloop
   endfacet
   facet normal -0.000000e+00 1.000000e+00 0.000000e+00
      outer loop
         vertex 1.171010e+01 2.500000e+01 -1.969846e+01
         vertex 1.250000e+01 2.500000e+01 -1.933013e+01
         vertex 2.100481e+01 2.500000e+01 -3.375000e+01
      endloop
   endfacet
   facet normal 0.000000e+00 1.000000e+00 0.000000e+00
      outer loop
         vertex 1.250000e+01 2.500000e+01 -1.933013e+01
         vertex 2.045231e+01 2.500000e+01 -3.256515e+01
         vertex 2.100481e+01 2.500000e+01 -3.375000e+01
      endloop
   endfacet
   facet normal -0.000000e+00 1.000000e+00 0.000000e+00
      outer loop
         vertex -2.011394e+01 2.500000e+01 -3.130236e+01
         vertex -1.250000e+01 2.500000e+01 -1.933013e+01
         vertex -2.045231e+01 2.500000e+01 -3.256515e+01
      endloop
   endfacet
   facet normal 0.000000e+00 1.000000e+00 0.000000e+00
      outer loop
         vertex 1.250000e+01 2.500000e+01 -1.933013e+01
         vertex 2.011394e+01 2.500000e+01 -3.130236e+01
         vertex 2.045231e+01 2.500000e+01 -3.256515e+01
      endloop
   endfacet
   facet normal -0.000000e+00 1.000000e+00 0.000000e+00
      outer loop
         vertex -2.000000e+01 2.500000e+01 -3.000000e+01
         vertex -1.321394e+01 2.500000e+01 -1.883022e+01
         vertex -2.011394e+01 2.500000e+01 -3.130236e+01
      endloop
   endfacet
   facet normal 0.000000e+00 1.000000e+00 0.000000e+00
      outer loop
         vertex -1.321394e+01 2.500000e+01 -1.883022e+01
         vertex -1.250000e+01 2.500000e+01 -1.933013e+01
         vertex -2.011394e+01 2.500000e+01 -3.130236e+01
      endloop
   endfacet
   facet normal 0.000000e+00 1.000000e+00 0.000000e+00
      outer loop
         vertex 1.250000e+01 2.500000e+01 -1.933013e+01
         vertex 2.000000e+01 2.500000e+01 -3.000000e+01
         vertex 2.011394e+01 2.500000e+01 -3.130236e+01
      endloop
   endfacet
   facet normal -0.000000e+00 1.000000e+00 -0.000000e+00
      outer loop
         vertex -2.011394e+01 2.500000e+01 -2.869764e+01
         vertex -2.366978e+01 2.500000e+01 1.678606e+01
         vertex -2.000000e+01 2.500000e+01 -3.000000e+01
      endloop
   endfacet
   facet normal 0.000000e+00 1.000000e+00 0.000000e+00
      outer loop
         vertex -1.433013e+01 2.500000e+01 -1.750000e+01
         vertex -1.383022e+01 2.500000e+01 -1.821394e+01
         vertex -2.000000e+01 2.500000e+01 -3.000000e+01
      endloop
   endfacet
   facet normal 0.000000e+00 1.000000e+00 0.000000e+00
      outer loop
         vertex -1.383022e+01 2.500000e+01 -1.821394e+01
         vertex -1.321394e+01 2.500000e+01 -1.883022e+01
         vertex -2.000000e+01 2.500000e+01 -3.000000e+01
      endloop
   endfacet
   facet normal 0.000000e+00 1.000000e+00 0.000000e+00
      outer loop
         vertex -1.500000e+01 2.500000e+01 -1.500000e+01
         vertex -1.492404e+01 2.500000e+01 -1.586824e+01
         vertex -2.000000e+01 2.500000e+01 -3.000000e+01
      endloop
   endfacet
   facet normal 0.000000e+00 1.000000e+00 0.000000e+00
      outer loop
         vertex -1.492404e+01 2.500000e+01 -1.586824e+01
         vertex -1.469846e+01 2.500000e+01 -1.671010e+01
         vertex -2.000000e+01 2.500000e+01 -3.000000e+01
      endloop
   endfacet
   facet normal 0.000000e+00 1.000000e+00 0.000000e+00
      outer loop
         vertex -1.469846e+01 2.500000e+01 -1.671010e+01
         vertex -1.433013e+01 2.500000e+01 -1.750000e+01
         vertex -2.000000e+01 2.500000e+01 -3.000000e+01
      endloop
   endfacet
   facet normal -0.000000e+00 1.000000e+00 0.000000e+00
      outer loop
         vertex -2.366978e+01 2.500000e+01 1.678606e+01
         vertex -2.316987e+01 2.500000e+01 1.750000e+01
         vertex -2.000000e+01 2.500000e+01 -3.000000e+01
      endloop
   endfacet
   facet normal -0.000000e+00 1.000000e+00 0.000000e+00
      outer loop
         vertex -2.316987e+01 2.500000e+01 1.750000e+01
         vertex -2.280154e+01 2.500000e+01 1.828990e+01
         vertex -2.000000e+01 2.500000e+01 -3.000000e+01
      endloop
   endfacet
   facet normal 0.000000e+00 1.000000e+00 0.000000e+00
      outer loop
         vertex -2.280154e+01 2.500000e+01 1.828990e+01
         vertex -1.500000e+01 2.500000e+01 -1.500000e+01
         vertex -2.000000e+01 2.500000e+01 -3.000000e+01
      endloop
   endfacet
   facet normal 0.000000e+00 1.000000e+00 0.000000e+00
      outer loop
         vertex 1.250000e+01 2.500000e+01 -1.933013e+01
         vertex 2.011394e+01 2.500000e+01 -2.869764e+01
         vertex 2.000000e+01 2.500000e+01 -3.000000e+01
      endloop
   endfacet
   facet normal 0.000000e+00 1.000000e+00 0.000000e+00
      outer loop
         vertex -3.242404e+01 2.500000e+01 1.913176e+01
         vertex -3.454769e+01 2.500000e+01 -2.743485e+01
         vertex -3.488606e+01 2.500000e+01 -2.869764e+01
      endloop
   endfacet
   facet normal -0.000000e+00 1.000000e+00 0.000000e+00
      outer loop
         vertex -2.428606e+01 2.500000e+01 1.616978e+01
         vertex -2.366978e+01 2.500000e+01 1.678606e+01
         vertex -2.011394e+01 2.500000e+01 -2.869764e+01
      endloop
   endfacet
   facet normal -0.000000e+00 1.000000e+00 -0.000000e+00
      outer loop
         vertex -2.045231e+01 2.500000e+01 -2.743485e+01
         vertex -2.428606e+01 2.500000e+01 1.616978e+01
         vertex -2.011394e+01 2.500000e+01 -2.869764e+01
      endloop
   endfacet
   facet normal 0.000000e+00 1.000000e+00 0.000000e+00
      outer loop
         vertex 1.250000e+01 2.500000e+01 -1.933013e+01
         vertex 2.045231e+01 2.500000e+01 -2.743485e+01
         vertex 2.011394e+01 2.500000e+01 -2.869764e+01
      endloop
   endfacet
   facet normal -0.000000e+00 1.000000e+00 -0.000000e+00
      outer loop
         vertex 3.454769e+01 2.500000e+01 -2.743485e+01
         vertex 3.071394e+01 2.500000e+01 1.616978e+01
         vertex 3.488606e+01 2.500000e+01 -2.869764e+01
      endloop
   endfacet
   facet normal 0.000000e+00 1.000000e+00 0.000000e+00
      outer loop
         vertex -3.242404e+01 2.500000e+01 1.913176e+01
         vertex -3.399519e+01 2.500000e+01 -2.625000e+01
         vertex -3.454769e+01 2.500000e+01 -2.743485e+01
      endloop
   endfacet
   facet normal -0.000000e+00 1.000000e+00 -0.000000e+00
      outer loop
         vertex -2.100481e+01 2.500000e+01 -2.625000e+01
         vertex -2.428606e+01 2.500000e+01 1.616978e+01
         vertex -2.045231e+01 2.500000e+01 -2.743485e+01
      endloop
   endfacet
   facet normal 0.000000e+00 1.000000e+00 0.000000e+00
      outer loop
         vertex 1.250000e+01 2.500000e+01 -1.933013e+01
         vertex 2.100481e+01 2.500000e+01 -2.625000e+01
         vertex 2.045231e+01 2.500000e+01 -2.743485e+01
      endloop
   endfacet
   facet normal -0.000000e+00 1.000000e+00 -0.000000e+00
      outer loop
         vertex 3.399519e+01 2.500000e+01 -2.625000e+01
         vertex 3.071394e+01 2.500000e+01 1.616978e+01
         vertex 3.454769e+01 2.500000e+01 -2.743485e+01
      endloop
   endfacet
   facet normal 0.000000e+00 1.000000e+00 0.000000e+00
      outer loop
         vertex -3.242404e+01 2.500000e+01 1.913176e+01
         vertex -3.219846e+01 2.500000e+01 1.828990e+01
         vertex -3.399519e+01 2.500000e+01 -2.625000e+01
      endloop
   endfacet
   facet normal 0.000000e+00 1.000000e+00 0.000000e+00
      outer loop
         vertex -3.219846e+01 2.500000e+01 1.828990e+01
         vertex -3.183013e+01 2.500000e+01 1.750000e+01
         vertex -3.399519e+01 2.500000e+01 -2.625000e+01
      endloop
   endfacet
   facet normal 0.000000e+00 1.000000e+00 0.000000e+00
      outer loop
         vertex -3.183013e+01 2.500000e+01 1.750000e+01
         vertex -3.133022e+01 2.500000e+01 1.678606e+01
         vertex -3.399519e+01 2.500000e+01 -2.625000e+01
      endloop
   endfacet
   facet normal 0.000000e+00 1.000000e+00 0.000000e+00
      outer loop
         vertex -3.133022e+01 2.500000e+01 1.678606e+01
         vertex -3.071394e+01 2.500000e+01 1.616978e+01
         vertex -3.399519e+01 2.500000e+01 -2.625000e+01
      endloop
   endfacet
   facet normal 0.000000e+00 1.000000e+00 0.000000e+00
      outer loop
         vertex -3.071394e+01 2.500000e+01 1.616978e+01
         vertex -3.000000e+01 2.500000e+01 1.566987e+01
         vertex -3.399519e+01 2.500000e+01 -2.625000e+01
      endloop
   endfacet
   facet normal 0.000000e+00 1.000000e+00 0.000000e+00
      outer loop
         vertex -3.000000e+01 2.500000e+01 1.566987e+01
         vertex -3.324533e+01 2.500000e+01 -2.517909e+01
         vertex -3.399519e+01 2.500000e+01 -2.625000e+01
      endloop
   endfacet
   facet normal -0.000000e+00 1.000000e+00 -0.000000e+00
      outer loop
         vertex -2.175467e+01 2.500000e+01 -2.517909e+01
         vertex -2.428606e+01 2.500000e+01 1.616978e+01
         vertex -2.100481e+01 2.500000e+01 -2.625000e+01
      endloop
   endfacet
   facet normal -0.000000e+00 1.000000e+00 0.000000e+00
      outer loop
         vertex 1.250000e+01 2.500000e+01 -1.933013e+01
         vertex 1.321394e+01 2.500000e+01 -1.883022e+01
         vertex 2.100481e+01 2.500000e+01 -2.625000e+01
      endloop
   endfacet
   facet normal 0.000000e+00 1.000000e+00 0.000000e+00
      outer loop
         vertex 1.321394e+01 2.500000e+01 -1.883022e+01
         vertex 2.175467e+01 2.500000e+01 -2.517909e+01
         vertex 2.100481e+01 2.500000e+01 -2.625000e+01
      endloop
   endfacet
   facet normal -0.000000e+00 1.000000e+00 -0.000000e+00
      outer loop
         vertex 3.324533e+01 2.500000e+01 -2.517909e+01
         vertex 3.071394e+01 2.500000e+01 1.616978e+01
         vertex 3.399519e+01 2.500000e+01 -2.625000e+01
      endloop
   endfacet
   facet normal 0.000000e+00 1.000000e+00 0.000000e+00
      outer loop
         vertex -3.000000e+01 2.500000e+01 1.566987e+01
         vertex -3.232091e+01 2.500000e+01 -2.425467e+01
         vertex -3.324533e+01 2.500000e+01 -2.517909e+01
      endloop
   endfacet
   facet normal -0.000000e+00 1.000000e+00 -0.000000e+00
      outer loop
         vertex -2.267909e+01 2.500000e+01 -2.425467e+01
         vertex -2.428606e+01 2.500000e+01 1.616978e+01
         vertex -2.175467e+01 2.500000e+01 -2.517909e+01
      endloop
   endfacet
   facet normal -0.000000e+00 1.000000e+00 0.000000e+00
      outer loop
         vertex 1.321394e+01 2.500000e+01 -1.883022e+01
         vertex 1.383022e+01 2.500000e+01 -1.821394e+01
         vertex 2.175467e+01 2.500000e+01 -2.517909e+01
      endloop
   endfacet
   facet normal 0.000000e+00 1.000000e+00 0.000000e+00
      outer loop
         vertex 1.383022e+01 2.500000e+01 -1.821394e+01
         vertex 2.267909e+01 2.500000e+01 -2.425467e+01
         vertex 2.175467e+01 2.500000e+01 -2.517909e+01
      endloop
   endfacet
   facet normal -0.000000e+00 1.000000e+00 -0.000000e+00
      outer loop
         vertex 3.232091e+01 2.500000e+01 -2.425467e+01
         vertex 3.071394e+01 2.500000e+01 1.616978e+01
         vertex 3.324533e+01 2.500000e+01 -2.517909e+01
      endloop
   endfacet
   facet normal 0.000000e+00 1.000000e+00 0.000000e+00
      outer loop
         vertex -3.000000e+01 2.500000e+01 1.566987e+01
         vertex -3.125000e+01 2.500000e+01 -2.350481e+01
         vertex -3.232091e+01 2.500000e+01 -2.425467e+01
      endloop
   endfacet
   facet normal -0.000000e+00 1.000000e+00 -0.000000e+00
      outer loop
         vertex -2.375000e+01 2.500000e+01 -2.350481e+01
         vertex -2.428606e+01 2.500000e+01 1.616978e+01
         vertex -2.267909e+01 2.500000e+01 -2.425467e+01
      endloop
   endfacet
   facet normal -0.000000e+00 1.000000e+00 0.000000e+00
      outer loop
         vertex 1.383022e+01 2.500000e+01 -1.821394e+01
         vertex 1.433013e+01 2.500000e+01 -1.750000e+01
         vertex 2.267909e+01 2.500000e+01 -2.425467e+01
      endloop
   endfacet
   facet normal 0.000000e+00 1.000000e+00 0.000000e+00
      outer loop
         vertex 1.433013e+01 2.500000e+01 -1.750000e+01
         vertex 2.375000e+01 2.500000e+01 -2.350481e+01
         vertex 2.267909e+01 2.500000e+01 -2.425467e+01
      endloop
   endfacet
   facet normal -0.000000e+00 1.000000e+00 -0.000000e+00
      outer loop
         vertex 3.125000e+01 2.500000e+01 -2.350481e+01
         vertex 3.071394e+01 2.500000e+01 1.616978e+01
         vertex 3.232091e+01 2.500000e+01 -2.425467e+01
      endloop
   endfacet
   facet normal 0.000000e+00 1.000000e+00 0.000000e+00
      outer loop
         vertex -2.836824e+01 2.500000e+01 1.507596e+01
         vertex -3.006515e+01 2.500000e+01 -2.295231e+01
         vertex -3.125000e+01 2.500000e+01 -2.350481e+01
      endloop
   endfacet
   facet normal 0.000000e+00 1.000000e+00 0.000000e+00
      outer loop
         vertex -2.921010e+01 2.500000e+01 1.530154e+01
         vertex -2.836824e+01 2.500000e+01 1.507596e+01
         vertex -3.125000e+01 2.500000e+01 -2.350481e+01
      endloop
   endfacet
   facet normal 0.000000e+00 1.000000e+00 0.000000e+00
      outer loop
         vertex -3.000000e+01 2.500000e+01 1.566987e+01
         vertex -2.921010e+01 2.500000e+01 1.530154e+01
         vertex -3.125000e+01 2.500000e+01 -2.350481e+01
      endloop
   endfacet
   facet normal -0.000000e+00 1.000000e+00 0.000000e+00
      outer loop
         vertex -2.493485e+01 2.500000e+01 -2.295231e+01
         vertex -2.428606e+01 2.500000e+01 1.616978e+01
         vertex -2.375000e+01 2.500000e+01 -2.350481e+01
      endloop
   endfacet
   facet normal -0.000000e+00 1.000000e+00 0.000000e+00
      outer loop
         vertex 1.433013e+01 2.500000e+01 -1.750000e+01
         vertex 1.469846e+01 2.500000e+01 -1.671010e+01
         vertex 2.375000e+01 2.500000e+01 -2.350481e+01
      endloop
   endfacet
   facet normal 0.000000e+00 1.000000e+00 0.000000e+00
      outer loop
         vertex 1.469846e+01 2.500000e+01 -1.671010e+01
         vertex 2.493485e+01 2.500000e+01 -2.295231e+01
         vertex 2.375000e+01 2.500000e+01 -2.350481e+01
      endloop
   endfacet
   facet normal -0.000000e+00 1.000000e+00 0.000000e+00
      outer loop
         vertex 3.006515e+01 2.500000e+01 -2.295231e+01
         vertex 3.071394e+01 2.500000e+01 1.616978e+01
         vertex 3.125000e+01 2.500000e+01 -2.350481e+01
      endloop
   endfacet
   facet normal 0.000000e+00 1.000000e+00 0.000000e+00
      outer loop
         vertex -2.836824e+01 2.500000e+01 1.507596e+01
         vertex -2.880236e+01 2.500000e+01 -2.261394e+01
         vertex -3.006515e+01 2.500000e+01 -2.295231e+01
      endloop
   endfacet
   facet normal -0.000000e+00 1.000000e+00 0.000000e+00
      outer loop
         vertex -2.500000e+01 2.500000e+01 1.566987e+01
         vertex -2.428606e+01 2.500000e+01 1.616978e+01
         vertex -2.493485e+01 2.500000e+01 -2.295231e+01
      endloop
   endfacet
   facet normal -0.000000e+00 1.000000e+00 0.000000e+00
      outer loop
         vertex -2.578990e+01 2.500000e+01 1.530154e+01
         vertex -2.500000e+01 2.500000e+01 1.566987e+01
         vertex -2.493485e+01 2.500000e+01 -2.295231e+01
      endloop
   endfacet
   facet normal -0.000000e+00 1.000000e+00 0.000000e+00
      outer loop
         vertex -2.663176e+01 2.500000e+01 1.507596e+01
         vertex -2.578990e+01 2.500000e+01 1.530154e+01
         vertex -2.493485e+01 2.500000e+01 -2.295231e+01
      endloop
   endfacet
   facet normal -0.000000e+00 1.000000e+00 -0.000000e+00
      outer loop
         vertex -2.619764e+01 2.500000e+01 -2.261394e+01
         vertex -2.663176e+01 2.500000e+01 1.507596e+01
         vertex -2.493485e+01 2.500000e+01 -2.295231e+01
      endloop
   endfacet
   facet normal -0.000000e+00 1.000000e+00 0.000000e+00
      outer loop
         vertex 1.469846e+01 2.500000e+01 -1.671010e+01
         vertex 2.500000e+01 2.500000e+01 1.566987e+01
         vertex 2.493485e+01 2.500000e+01 -2.295231e+01
      endloop
   endfacet
   facet normal 0.000000e+00 1.000000e+00 0.000000e+00
      outer loop
         vertex 2.500000e+01 2.500000e+01 1.566987e+01
         vertex 2.619764e+01 2.500000e+01 -2.261394e+01
         vertex 2.493485e+01 2.500000e+01 -2.295231e+01
      endloop
   endfacet
   facet normal -0.000000e+00 1.000000e+00 0.000000e+00
      outer loop
         vertex 3.000000e+01 2.500000e+01 1.566987e+01
         vertex 3.071394e+01 2.500000e+01 1.616978e+01
         vertex 3.006515e+01 2.500000e+01 -2.295231e+01
      endloop
   endfacet
   facet normal -0.000000e+00 1.000000e+00 -0.000000e+00
      outer loop
         vertex 2.880236e+01 2.500000e+01 -2.261394e+01
         vertex 2.836824e+01 2.500000e+01 1.507596e+01
         vertex 3.006515e+01 2.500000e+01 -2.295231e+01
      endloop
   endfacet
   facet normal -0.000000e+00 1.000000e+00 0.000000e+00
      outer loop
         vertex 2.836824e+01 2.500000e+01 1.507596e+01
         vertex 2.921010e+01 2.500000e+01 1.530154e+01
         vertex 3.006515e+01 2.500000e+01 -2.295231e+01
      endloop
   endfacet
   facet normal -0.000000e+00 1.000000e+00 0.000000e+00
      outer loop
         vertex 2.921010e+01 2.500000e+01 1.530154e+01
         vertex 3.000000e+01 2.500000e+01 1.566987e+01
         vertex 3.006515e+01 2.500000e+01 -2.295231e+01
      endloop
   endfacet
   facet normal 0.000000e+00 1.000000e+00 0.000000e+00
      outer loop
         vertex -2.836824e+01 2.500000e+01 1.507596e+01
         vertex -2.750000e+01 2.500000e+01 -2.250000e+01
         vertex -2.880236e+01 2.500000e+01 -2.261394e+01
      endloop
   endfacet
   facet normal -0.000000e+00 1.000000e+00 0.000000e+00
      outer loop
         vertex -2.750000e+01 2.500000e+01 1.500000e+01
         vertex -2.663176e+01 2.500000e+01 1.507596e+01
         vertex -2.619764e+01 2.500000e+01 -2.261394e+01
      endloop
   endfacet
   facet normal -0.000000e+00 1.000000e+00 0.000000e+00
      outer loop
         vertex -2.750000e+01 2.500000e+01 -2.250000e+01
         vertex -2.750000e+01 2.500000e+01 1.500000e+01
         vertex -2.619764e+01 2.500000e+01 -2.261394e+01
      endloop
   endfacet
   facet normal 0.000000e+00 1.000000e+00 0.000000e+00
      outer loop
         vertex 2.663176e+01 2.500000e+01 1.507596e+01
         vertex 2.750000e+01 2.500000e+01 -2.250000e+01
         vertex 2.619764e+01 2.500000e+01 -2.261394e+01
      endloop
   endfacet
   facet normal 0.000000e+00 1.000000e+00 0.000000e+00
      outer loop
         vertex 2.500000e+01 2.500000e+01 1.566987e+01
         vertex 2.578990e+01 2.500000e+01 1.530154e+01
         vertex 2.619764e+01 2.500000e+01 -2.261394e+01
      endloop
   endfacet
   facet normal 0.000000e+00 1.000000e+00 0.000000e+00
      outer loop
         vertex 2.578990e+01 2.500000e+01 1.530154e+01
         vertex 2.663176e+01 2.500000e+01 1.507596e+01
         vertex 2.619764e+01 2.500000e+01 -2.261394e+01
      endloop
   endfacet
   facet normal -0.000000e+00 1.000000e+00 0.000000e+00
      outer loop
         vertex 2.750000e+01 2.500000e+01 -2.250000e+01
         vertex 2.750000e+01 2.500000e+01 1.500000e+01
         vertex 2.880236e+01 2.500000e+01 -2.261394e+01
      endloop
   endfacet
   facet normal -0.000000e+00 1.000000e+00 0.000000e+00
      outer loop
         vertex 2.750000e+01 2.500000e+01 1.500000e+01
         vertex 2.836824e+01 2.500000e+01 1.507596e+01
         vertex 2.880236e+01 2.500000e+01 -2.261394e+01
      endloop
   endfacet
   facet normal 0.000000e+00 1.000000e+00 0.000000e+00
      outer loop
         vertex -2.836824e+01 2.500000e+01 1.507596e+01
         vertex -2.750000e+01 2.500000e+01 1.500000e+01
         vertex -2.750000e+01 2.500000e+01 -2.250000e+01
      endloop
   endfacet
   facet normal 0.000000e+00 1.000000e+00 0.000000e+00
      outer loop
         vertex 2.663176e+01 2.500000e+01 1.507596e+01
         vertex 2.750000e+01 2.500000e+01 1.500000e+01
         vertex 2.750000e+01 2.500000e+01 -2.250000e+01
      endloop
   endfacet
   facet normal -0.000000e+00 1.000000e+00 0.000000e+00
      outer loop
         vertex 1.492404e+01 2.500000e+01 -1.586824e+01
         vertex 2.500000e+01 2.500000e+01 1.566987e+01
         vertex 1.469846e+01 2.500000e+01 -1.671010e+01
      endloop
   endfacet
   facet normal 0.000000e+00 1.000000e+00 0.000000e+00
      outer loop
         vertex 2.316987e+01 2.500000e+01 1.750000e+01
         vertex 2.366978e+01 2.500000e+01 1.678606e+01
         vertex 1.492404e+01 2.500000e+01 -1.586824e+01
      endloop
   endfacet
   facet normal -0.000000e+00 1.000000e+00 0.000000e+00
      outer loop
         vertex 1.500000e+01 2.500000e+01 -1.500000e+01
         vertex 2.316987e+01 2.500000e+01 1.750000e+01
         vertex 1.492404e+01 2.500000e+01 -1.586824e+01
      endloop
   endfacet
   facet normal 0.000000e+00 1.000000e+00 0.000000e+00
      outer loop
         vertex 2.366978e+01 2.500000e+01 1.678606e+01
         vertex 2.428606e+01 2.500000e+01 1.616978e+01
         vertex 1.492404e+01 2.500000e+01 -1.586824e+01
      endloop
   endfacet
   facet normal 0.000000e+00 1.000000e+00 0.000000e+00
      outer loop
         vertex 2.428606e+01 2.500000e+01 1.616978e+01
         vertex 2.500000e+01 2.500000e+01 1.566987e+01
         vertex 1.492404e+01 2.500000e+01 -1.586824e+01
      endloop
   endfacet
   facet normal -0.000000e+00 1.000000e+00 0.000000e+00
      outer loop
         vertex -2.250000e+01 2.500000e+01 2.000000e+01
         vertex -1.500000e+01 2.500000e+01 4.000000e+01
         vertex -1.500000e+01 2.500000e+01 -1.500000e+01
      endloop
   endfacet
   facet normal -0.000000e+00 1.000000e+00 0.000000e+00
      outer loop
         vertex -2.280154e+01 2.500000e+01 1.828990e+01
         vertex -2.257596e+01 2.500000e+01 1.913176e+01
         vertex -1.500000e+01 2.500000e+01 -1.500000e+01
      endloop
   endfacet
   facet normal -0.000000e+00 1.000000e+00 0.000000e+00
      outer loop
         vertex -2.257596e+01 2.500000e+01 1.913176e+01
         vertex -2.250000e+01 2.500000e+01 2.000000e+01
         vertex -1.500000e+01 2.500000e+01 -1.500000e+01
      endloop
   endfacet
   facet normal 0.000000e+00 1.000000e+00 0.000000e+00
      outer loop
         vertex 2.250000e+01 2.500000e+01 2.000000e+01
         vertex 2.257596e+01 2.500000e+01 1.913176e+01
         vertex 1.500000e+01 2.500000e+01 -1.500000e+01
      endloop
   endfacet
   facet normal 0.000000e+00 1.000000e+00 0.000000e+00
      outer loop
         vertex 1.500000e+01 2.500000e+01 4.000000e+01
         vertex 2.250000e+01 2.500000e+01 2.000000e+01
         vertex 1.500000e+01 2.500000e+01 -1.500000e+01
      endloop
   endfacet
   facet normal 0.000000e+00 1.000000e+00 0.000000e+00
      outer loop
         vertex 2.280154e+01 2.500000e+01 1.828990e+01
         vertex 2.316987e+01 2.500000e+01 1.750000e+01
         vertex 1.500000e+01 2.500000e+01 -1.500000e+01
      endloop
   endfacet
   facet normal 0.000000e+00 1.000000e+00 0.000000e+00
      outer loop
         vertex 2.257596e+01 2.500000e+01 1.913176e+01
         vertex 2.280154e+01 2.500000e+01 1.828990e+01
         vertex 1.500000e+01 2.500000e+01 -1.500000e+01
      endloop
   endfacet
   facet normal 0.000000e+00 1.000000e+00 0.000000e+00
      outer loop
         vertex -4.000000e+01 2.500000e+01 4.000000e+01
         vertex -3.250000e+01 2.500000e+01 2.000000e+01
         vertex -3.242404e+01 2.500000e+01 1.913176e+01
      endloop
   endfacet
   facet normal -0.000000e+00 1.000000e+00 0.000000e+00
      outer loop
         vertex 3.250000e+01 2.500000e+01 2.000000e+01
         vertex 4.000000e+01 2.500000e+01 4.000000e+01
         vertex 3.242404e+01 2.500000e+01 1.913176e+01
      endloop
   endfacet
   facet normal 0.000000e+00 1.000000e+00 0.000000e+00
      outer loop
         vertex -4.000000e+01 2.500000e+01 4.000000e+01
         vertex -3.242404e+01 2.500000e+01 2.086824e+01
         vertex -3.250000e+01 2.500000e+01 2.000000e+01
      endloop
   endfacet
   facet normal -0.000000e+00 1.000000e+00 0.000000e+00
      outer loop
         vertex -2.257596e+01 2.500000e+01 2.086824e+01
         vertex -1.500000e+01 2.500000e+01 4.000000e+01
         vertex -2.250000e+01 2.500000e+01 2.000000e+01
      endloop
   endfacet
   facet normal 0.000000e+00 1.000000e+00 0.000000e+00
      outer loop
         vertex 1.500000e+01 2.500000e+01 4.000000e+01
         vertex 2.257596e+01 2.500000e+01 2.086824e+01
         vertex 2.250000e+01 2.500000e+01 2.000000e+01
      endloop
   endfacet
   facet normal -0.000000e+00 1.000000e+00 0.000000e+00
      outer loop
         vertex 3.242404e+01 2.500000e+01 2.086824e+01
         vertex 4.000000e+01 2.500000e+01 4.000000e+01
         vertex 3.250000e+01 2.500000e+01 2.000000e+01
      endloop
   endfacet
   facet normal 0.000000e+00 1.000000e+00 0.000000e+00
      outer loop
         vertex -4.000000e+01 2.500000e+01 4.000000e+01
         vertex -3.219846e+01 2.500000e+01 2.171010e+01
         vertex -3.242404e+01 2.500000e+01 2.086824e+01
      endloop
   endfacet
   facet normal -0.000000e+00 1.000000e+00 0.000000e+00
      outer loop
         vertex -2.280154e+01 2.500000e+01 2.171010e+01
         vertex -1.500000e+01 2.500000e+01 4.000000e+01
         vertex -2.257596e+01 2.500000e+01 2.086824e+01
      endloop
   endfacet
   facet normal 0.000000e+00 1.000000e+00 0.000000e+00
      outer loop
         vertex 1.500000e+01 2.500000e+01 4.000000e+01
         vertex 2.280154e+01 2.500000e+01 2.171010e+01
         vertex 2.257596e+01 2.500000e+01 2.086824e+01
      endloop
   endfacet
   facet normal -0.000000e+00 1.000000e+00 0.000000e+00
      outer loop
         vertex 3.219846e+01 2.500000e+01 2.171010e+01
         vertex 4.000000e+01 2.500000e+01 4.000000e+01
         vertex 3.242404e+01 2.500000e+01 2.086824e+01
      endloop
   endfacet
   facet normal 0.000000e+00 1.000000e+00 0.000000e+00
      outer loop
         vertex -4.000000e+01 2.500000e+01 4.000000e+01
         vertex -3.183013e+01 2.500000e+01 2.250000e+01
         vertex -3.219846e+01 2.500000e+01 2.171010e+01
      endloop
   endfacet
   facet normal -0.000000e+00 1.000000e+00 0.000000e+00
      outer loop
         vertex -2.316987e+01 2.500000e+01 2.250000e+01
         vertex -1.500000e+01 2.500000e+01 4.000000e+01
         vertex -2.280154e+01 2.500000e+01 2.171010e+01
      endloop
   endfacet
   facet normal 0.000000e+00 1.000000e+00 0.000000e+00
      outer loop
         vertex 1.500000e+01 2.500000e+01 4.000000e+01
         vertex 2.316987e+01 2.500000e+01 2.250000e+01
         vertex 2.280154e+01 2.500000e+01 2.171010e+01
      endloop
   endfacet
   facet normal -0.000000e+00 1.000000e+00 0.000000e+00
      outer loop
         vertex 3.183013e+01 2.500000e+01 2.250000e+01
         vertex 4.000000e+01 2.500000e+01 4.000000e+01
         vertex 3.219846e+01 2.500000e+01 2.171010e+01
      endloop
   endfacet
   facet normal 0.000000e+00 1.000000e+00 0.000000e+00
      outer loop
         vertex -4.000000e+01 2.500000e+01 4.000000e+01
         vertex -3.133022e+01 2.500000e+01 2.321394e+01
         vertex -3.183013e+01 2.500000e+01 2.250000e+01
      endloop
   endfacet
   facet normal -0.000000e+00 1.000000e+00 0.000000e+00
      outer loop
         vertex -2.366978e+01 2.500000e+01 2.321394e+01
         vertex -1.500000e+01 2.500000e+01 4.000000e+01
         vertex -2.316987e+01 2.500000e+01 2.250000e+01
      endloop
   endfacet
   facet normal 0.000000e+00 1.000000e+00 0.000000e+00
      outer loop
         vertex 1.500000e+01 2.500000e+01 4.000000e+01
         vertex 2.366978e+01 2.500000e+01 2.321394e+01
         vertex 2.316987e+01 2.500000e+01 2.250000e+01
      endloop
   endfacet
   facet normal -0.000000e+00 1.000000e+00 0.000000e+00
      outer loop
         vertex 3.133022e+01 2.500000e+01 2.321394e+01
         vertex 4.000000e+01 2.500000e+01 4.000000e+01
         vertex 3.183013e+01 2.500000e+01 2.250000e+01
      endloop
   endfacet
   facet normal 0.000000e+00 1.000000e+00 0.000000e+00
      outer loop
         vertex -4.000000e+01 2.500000e+01 4.000000e+01
         vertex -3.071394e+01 2.500000e+01 2.383022e+01
         vertex -3.133022e+01 2.500000e+01 2.321394e+01
      endloop
   endfacet
   facet normal -0.000000e+00 1.000000e+00 0.000000e+00
      outer loop
         vertex -2.428606e+01 2.500000e+01 2.383022e+01
         vertex -1.500000e+01 2.500000e+01 4.000000e+01
         vertex -2.366978e+01 2.500000e+01 2.321394e+01
      endloop
   endfacet
   facet normal 0.000000e+00 1.000000e+00 0.000000e+00
      outer loop
         vertex 1.500000e+01 2.500000e+01 4.000000e+01
         vertex 2.428606e+01 2.500000e+01 2.383022e+01
         vertex 2.366978e+01 2.500000e+01 2.321394e+01
      endloop
   endfacet
   facet normal -0.000000e+00 1.000000e+00 0.000000e+00
      outer loop
         vertex 3.071394e+01 2.500000e+01 2.383022e+01
         vertex 4.000000e+01 2.500000e+01 4.000000e+01
         vertex 3.133022e+01 2.500000e+01 2.321394e+01
      endloop
   endfacet
   facet normal 0.000000e+00 1.000000e+00 0.000000e+00
      outer loop
         vertex -4.000000e+01 2.500000e+01 4.000000e+01
         vertex -3.000000e+01 2.500000e+01 2.433013e+01
         vertex -3.071394e+01 2.500000e+01 2.383022e+01
      endloop
   endfacet
   facet normal -0.000000e+00 1.000000e+00 0.000000e+00
      outer loop
         vertex -2.500000e+01 2.500000e+01 2.433013e+01
         vertex -1.500000e+01 2.500000e+01 4.000000e+01
         vertex -2.428606e+01 2.500000e+01 2.383022e+01
      endloop
   endfacet
   facet normal 0.000000e+00 1.000000e+00 0.000000e+00
      outer loop
         vertex 1.500000e+01 2.500000e+01 4.000000e+01
         vertex 2.500000e+01 2.500000e+01 2.433013e+01
         vertex 2.428606e+01 2.500000e+01 2.383022e+01
      endloop
   endfacet
   facet normal -0.000000e+00 1.000000e+00 0.000000e+00
      outer loop
         vertex 3.000000e+01 2.500000e+01 2.433013e+01
         vertex 4.000000e+01 2.500000e+01 4.000000e+01
         vertex 3.071394e+01 2.500000e+01 2.383022e+01
      endloop
   endfacet
   facet normal 0.000000e+00 1.000000e+00 0.000000e+00
      outer loop
         vertex -4.000000e+01 2.500000e+01 4.000000e+01
         vertex -2.921010e+01 2.500000e+01 2.469846e+01
         vertex -3.000000e+01 2.500000e+01 2.433013e+01
      endloop
   endfacet
   facet normal -0.000000e+00 1.000000e+00 0.000000e+00
      outer loop
         vertex -2.578990e+01 2.500000e+01 2.469846e+01
         vertex -1.500000e+01 2.500000e+01 4.000000e+01
         vertex -2.500000e+01 2.500000e+01 2.433013e+01
      endloop
   endfacet
   facet normal 0.000000e+00 1.000000e+00 0.000000e+00
      outer loop
         vertex 1.500000e+01 2.500000e+01 4.000000e+01
         vertex 2.578990e+01 2.500000e+01 2.469846e+01
         vertex 2.500000e+01 2.500000e+01 2.433013e+01
      endloop
   endfacet
   facet normal -0.000000e+00 1.000000e+00 0.000000e+00
      outer loop
         vertex 2.921010e+01 2.500000e+01 2.469846e+01
         vertex 4.000000e+01 2.500000e+01 4.000000e+01
         vertex 3.000000e+01 2.500000e+01 2.433013e+01
      endloop
   endfacet
   facet normal 0.000000e+00 1.000000e+00 0.000000e+00
      outer loop
         vertex -4.000000e+01 2.500000e+01 4.000000e+01
         vertex -2.836824e+01 2.500000e+01 2.492404e+01
         vertex -2.921010e+01 2.500000e+01 2.469846e+01
      endloop
   endfacet
   facet normal -0.000000e+00 1.000000e+00 0.000000e+00
      outer loop
         vertex -2.663176e+01 2.500000e+01 2.492404e+01
         vertex -1.500000e+01 2.500000e+01 4.000000e+01
         vertex -2.578990e+01 2.500000e+01 2.469846e+01
      endloop
   endfacet
   facet normal 0.000000e+00 1.000000e+00 0.000000e+00
      outer loop
         vertex 1.500000e+01 2.500000e+01 4.000000e+01
         vertex 2.663176e+01 2.500000e+01 2.492404e+01
         vertex 2.578990e+01 2.500000e+01 2.469846e+01
      endloop
   endfacet
   facet normal -0.000000e+00 1.000000e+00 0.000000e+00
      outer loop
         vertex 2.836824e+01 2.500000e+01 2.492404e+01
         vertex 4.000000e+01 2.500000e+01 4.000000e+01
         vertex 2.921010e+01 2.500000e+01 2.469846e+01
      endloop
   endfacet
   facet normal 0.000000e+00 1.000000e+00 0.000000e+00
      outer loop
         vertex -4.000000e+01 2.500000e+01 4.000000e+01
         vertex -2.750000e+01 2.500000e+01 2.500000e+01
         vertex -2.836824e+01 2.500000e+01 2.492404e+01
      endloop
   endfacet
   facet normal -0.000000e+00 1.000000e+00 0.000000e+00
      outer loop
         vertex -2.750000e+01 2.500000e+01 2.500000e+01
         vertex -1.500000e+01 2.500000e+01 4.000000e+01
         vertex -2.663176e+01 2.500000e+01 2.492404e+01
      endloop
   endfacet
   facet normal 0.000000e+00 1.000000e+00 0.000000e+00
      outer loop
         vertex 1.500000e+01 2.500000e+01 4.000000e+01
         vertex 2.750000e+01 2.500000e+01 2.500000e+01
         vertex 2.663176e+01 2.500000e+01 2.492404e+01
      endloop
   endfacet
   facet normal -0.000000e+00 1.000000e+00 0.000000e+00
      outer loop
         vertex 2.750000e+01 2.500000e+01 2.500000e+01
         vertex 4.000000e+01 2.500000e+01 4.000000e+01
         vertex 2.836824e+01 2.500000e+01 2.492404e+01
      endloop
   endfacet
   facet normal -0.000000e+00 1.000000e+00 0.000000e+00
      outer loop
         vertex -4.000000e+01 2.500000e+01 4.000000e+01
         vertex -1.500000e+01 2.500000e+01 4.000000e+01
         vertex -2.750000e+01 2.500000e+01 2.500000e+01
      endloop
   endfacet
   facet normal -0.000000e+00 1.000000e+00 0.000000e+00
      outer loop
         vertex 1.500000e+01 2.500000e+01 4.000000e+01
         vertex 4.000000e+01 2.500000e+01 4.000000e+01
         vertex 2.750000e+01 2.500000e+01 2.500000e+01
      endloop
   endfacet
endsolid