solid 5-3
   facet normal 0.000000e+00 0.000000e+00 -1.000000e+00
      outer loop
         vertex -4.000000e+01 2.500000e+01 -4.000000e+01
         vertex 4.000000e+01 2.500000e+01 -4.000000e+01
         vertex -4.000000e+01 5.699145e-312 -4.000000e+01
      endloop
   endfacet
   facet normal 0.000000e+00 -0.000000e+00 -1.000000e+00
      outer loop
         vertex 4.000000e+01 2.500000e+01 -4.000000e+01
         vertex 4.000000e+01 5.699145e-312 -4.000000e+01
         vertex -4.000000e+01 5.699145e-312 -4.000000e+01
      endloop
   endfacet
   facet normal 0.000000e+00 0.000000e+00 1.000000e+00
      outer loop
         vertex -1.500000e+01 5.699145e-312 4.000000e+01
         vertex -4.000000e+01 2.500000e+01 4.000000e+01
         vertex -4.000000e+01 5.699145e-312 4.000000e+01
      endloop
   endfacet
   facet normal 0.000000e+00 0.000000e+00 1.000000e+00
      outer loop
         vertex -1.500000e+01 2.500000e+01 4.000000e+01
         vertex -4.000000e+01 2.500000e+01 4.000000e+01
         vertex -1.500000e+01 5.699145e-312 4.000000e+01
      endloop
   endfacet
   facet normal 0.000000e+00 0.000000e+00 1.000000e+00
      outer loop
         vertex 4.000000e+01 5.699145e-312 4.000000e+01
         vertex 1.500000e+01 2.500000e+01 4.000000e+01
         vertex 1.500000e+01 6.938894e-15 4.000000e+01
      endloop
   endfacet
   facet normal 0.000000e+00 0.000000e+00 1.000000e+00
      outer loop
         vertex 4.000000e+01 2.500000e+01 4.000000e+01
         vertex 1.500000e+01 2.500000e+01 4.000000e+01
         vertex 4.000000e+01 5.699145e-312 4.000000e+01
      endloop
   endfacet
endsolid