solid 5-4
   facet normal -8.715564e-02 0.000000e+00 9.961947e-01
      outer loop
         vertex -2.619764e+01 2.500000e+01 -3.738606e+01
         vertex -2.750000e+01 2.500000e+01 -3.750000e+01
         vertex -2.750000e+01 3.619671e-312 -3.750000e+01
      endloop
   endfacet
   facet normal -8.715564e-02 0.000000e+00 9.961947e-01
      outer loop
         vertex -2.619764e+01 3.619671e-312 -3.738606e+01
         vertex -2.619764e+01 2.500000e+01 -3.738606e+01
         vertex -2.750000e+01 3.619671e-312 -3.750000e+01
      endloop
   endfacet
   facet normal 8.715564e-02 0.000000e+00 9.961947e-01
      outer loop
         vertex -2.750000e+01 2.500000e+01 -3.750000e+01
         vertex -2.880236e+01 3.619671e-312 -3.738606e+01
         vertex -2.750000e+01 3.619671e-312 -3.750000e+01
      endloop
   endfacet
   facet normal -8.715564e-02 0.000000e+00 9.961947e-01
      outer loop
         vertex 2.880236e+01 2.500000e+01 -3.738606e+01
         vertex 2.750000e+01 2.500000e+01 -3.750000e+01
         vertex 2.750000e+01 3.619671e-312 -3.750000e+01
      endloop
   endfacet
   facet normal -8.715564e-02 0.000000e+00 9.961947e-01
      outer loop
         vertex 2.880236e+01 3.619671e-312 -3.738606e+01
         vertex 2.880236e+01 2.500000e+01 -3.738606e+01
         vertex 2.750000e+01 3.619671e-312 -3.750000e+01
      endloop
   endfacet
   facet normal 8.715564e-02 0.000000e+00 9.961947e-01
      outer loop
         vertex 2.750000e+01 2.500000e+01 -3.750000e+01
         vertex 2.619764e+01 3.619671e-312 -3.738606e+01
         vertex 2.750000e+01 3.619671e-312 -3.750000e+01
      endloop
   endfacet
   facet normal 2.588197e-01 0.000000e+00 9.659256e-01
      outer loop
         vertex -2.880236e+01 2.500000e+01 -3.738606e+01
         vertex -3.006515e+01 3.619671e-312 -3.704770e+01
         vertex -2.880236e+01 3.619671e-312 -3.738606e+01
      endloop
   endfacet
   facet normal 8.715564e-02 0.000000e+00 9.961947e-01
      outer loop
         vertex -2.750000e+01 2.500000e+01 -3.750000e+01
         vertex -2.880236e+01 2.500000e+01 -3.738606e+01
         vertex -2.880236e+01 3.619671e-312 -3.738606e+01
      endloop
   endfacet
   facet normal -2.588197e-01 0.000000e+00 9.659256e-01
      outer loop
         vertex -2.493485e+01 2.500000e+01 -3.704770e+01
         vertex -2.619764e+01 2.500000e+01 -3.738606e+01
         vertex -2.619764e+01 3.619671e-312 -3.738606e+01
      endloop
   endfacet
   facet normal -2.588197e-01 0.000000e+00 9.659256e-01
      outer loop
         vertex -2.493485e+01 3.619671e-312 -3.704770e+01
         vertex -2.493485e+01 2.500000e+01 -3.704770e+01
         vertex -2.619764e+01 3.619671e-312 -3.738606e+01
      endloop
   endfacet
   facet normal 2.588197e-01 0.000000e+00 9.659256e-01
      outer loop
         vertex 2.619764e+01 2.500000e+01 -3.738606e+01
         vertex 2.493485e+01 3.619671e-312 -3.704770e+01
         vertex 2.619764e+01 3.619671e-312 -3.738606e+01
      endloop
   endfacet
   facet normal 8.715564e-02 0.000000e+00 9.961947e-01
      outer loop
         vertex 2.750000e+01 2.500000e+01 -3.750000e+01
         vertex 2.619764e+01 2.500000e+01 -3.738606e+01
         vertex 2.619764e+01 3.619671e-312 -3.738606e+01
      endloop
   endfacet
   facet normal -2.588197e-01 0.000000e+00 9.659256e-01
      outer loop
         vertex 3.006515e+01 2.500000e+01 -3.704770e+01
         vertex 2.880236e+01 2.500000e+01 -3.738606e+01
         vertex 2.880236e+01 3.619671e-312 -3.738606e+01
      endloop
   endfacet
   facet normal -2.588197e-01 0.000000e+00 9.659256e-01
      outer loop
         vertex 3.006515e+01 3.619671e-312 -3.704770e+01
         vertex 3.006515e+01 2.500000e+01 -3.704770e+01
         vertex 2.880236e+01 3.619671e-312 -3.738606e+01
      endloop
   endfacet
   facet normal 4.226189e-01 0.000000e+00 9.063075e-01
      outer loop
         vertex -3.006515e+01 2.500000e+01 -3.704770e+01
         vertex -3.125000e+01 3.619671e-312 -3.649519e+01
         vertex -3.006515e+01 3.619671e-312 -3.704770e+01
      endloop
   endfacet
   facet normal 2.588197e-01 0.000000e+00 9.659256e-01
      outer loop
         vertex -2.880236e+01 2.500000e+01 -3.738606e+01
         vertex -3.006515e+01 2.500000e+01 -3.704770e+01
         vertex -3.006515e+01 3.619671e-312 -3.704770e+01
      endloop
   endfacet
   facet normal -4.226189e-01 0.000000e+00 9.063075e-01
      outer loop
         vertex -2.375000e+01 2.500000e+01 -3.649519e+01
         vertex -2.493485e+01 2.500000e+01 -3.704770e+01
         vertex -2.493485e+01 3.619671e-312 -3.704770e+01
      endloop
   endfacet
   facet normal -4.226189e-01 0.000000e+00 9.063075e-01
      outer loop
         vertex -2.375000e+01 3.619671e-312 -3.649519e+01
         vertex -2.375000e+01 2.500000e+01 -3.649519e+01
         vertex -2.493485e+01 3.619671e-312 -3.704770e+01
      endloop
   endfacet
   facet normal 4.226189e-01 0.000000e+00 9.063075e-01
      outer loop
         vertex 2.493485e+01 2.500000e+01 -3.704770e+01
         vertex 2.375000e+01 3.619671e-312 -3.649519e+01
         vertex 2.493485e+01 3.619671e-312 -3.704770e+01
      endloop
   endfacet
   facet normal 2.588197e-01 0.000000e+00 9.659256e-01
      outer loop
         vertex 2.619764e+01 2.500000e+01 -3.738606e+01
         vertex 2.493485e+01 2.500000e+01 -3.704770e+01
         vertex 2.493485e+01 3.619671e-312 -3.704770e+01
      endloop
   endfacet
   facet normal -4.226189e-01 0.000000e+00 9.063075e-01
      outer loop
         vertex 3.125000e+01 2.500000e+01 -3.649519e+01
         vertex 3.006515e+01 2.500000e+01 -3.704770e+01
         vertex 3.006515e+01 3.619671e-312 -3.704770e+01
      endloop
   endfacet
   facet normal -4.226189e-01 0.000000e+00 9.063075e-01
      outer loop
         vertex 3.125000e+01 3.619671e-312 -3.649519e+01
         vertex 3.125000e+01 2.500000e+01 -3.649519e+01
         vertex 3.006515e+01 3.619671e-312 -3.704770e+01
      endloop
   endfacet
   facet normal 5.735765e-01 0.000000e+00 8.191520e-01
      outer loop
         vertex -3.125000e+01 2.500000e+01 -3.649519e+01
         vertex -3.232091e+01 3.619671e-312 -3.574533e+01
         vertex -3.125000e+01 3.619671e-312 -3.649519e+01
      endloop
   endfacet
   facet normal 4.226189e-01 0.000000e+00 9.063075e-01
      outer loop
         vertex -3.006515e+01 2.500000e+01 -3.704770e+01
         vertex -3.125000e+01 2.500000e+01 -3.649519e+01
         vertex -3.125000e+01 3.619671e-312 -3.649519e+01
      endloop
   endfacet
   facet normal -5.735758e-01 0.000000e+00 8.191525e-01
      outer loop
         vertex -2.267909e+01 2.500000e+01 -3.574533e+01
         vertex -2.375000e+01 2.500000e+01 -3.649519e+01
         vertex -2.375000e+01 3.619671e-312 -3.649519e+01
      endloop
   endfacet
   facet normal -5.735758e-01 0.000000e+00 8.191525e-01
      outer loop
         vertex -2.267909e+01 3.619671e-312 -3.574533e+01
         vertex -2.267909e+01 2.500000e+01 -3.574533e+01
         vertex -2.375000e+01 3.619671e-312 -3.649519e+01
      endloop
   endfacet
   facet normal 5.735758e-01 0.000000e+00 8.191525e-01
      outer loop
         vertex 2.375000e+01 2.500000e+01 -3.649519e+01
         vertex 2.267909e+01 3.619671e-312 -3.574533e+01
         vertex 2.375000e+01 3.619671e-312 -3.649519e+01
      endloop
   endfacet
   facet normal 4.226189e-01 0.000000e+00 9.063075e-01
      outer loop
         vertex 2.493485e+01 2.500000e+01 -3.704770e+01
         vertex 2.375000e+01 2.500000e+01 -3.649519e+01
         vertex 2.375000e+01 3.619671e-312 -3.649519e+01
      endloop
   endfacet
   facet normal -5.735765e-01 0.000000e+00 8.191520e-01
      outer loop
         vertex 3.232091e+01 2.500000e+01 -3.574533e+01
         vertex 3.125000e+01 2.500000e+01 -3.649519e+01
         vertex 3.125000e+01 3.619671e-312 -3.649519e+01
      endloop
   endfacet
   facet normal -5.735765e-01 0.000000e+00 8.191520e-01
      outer loop
         vertex 3.232091e+01 3.619671e-312 -3.574533e+01
         vertex 3.232091e+01 2.500000e+01 -3.574533e+01
         vertex 3.125000e+01 3.619671e-312 -3.649519e+01
      endloop
   endfacet
   facet normal 7.071068e-01 0.000000e+00 7.071068e-01
      outer loop
         vertex -3.232091e+01 2.500000e+01 -3.574533e+01
         vertex -3.324533e+01 3.619671e-312 -3.482091e+01
         vertex -3.232091e+01 3.619671e-312 -3.574533e+01
      endloop
   endfacet
   facet normal 5.735765e-01 0.000000e+00 8.191520e-01
      outer loop
         vertex -3.125000e+01 2.500000e+01 -3.649519e+01
         vertex -3.232091e+01 2.500000e+01 -3.574533e+01
         vertex -3.232091e+01 3.619671e-312 -3.574533e+01
      endloop
   endfacet
   facet normal -7.071075e-01 0.000000e+00 7.071061e-01
      outer loop
         vertex -2.175467e+01 2.500000e+01 -3.482091e+01
         vertex -2.267909e+01 2.500000e+01 -3.574533e+01
         vertex -2.267909e+01 3.619671e-312 -3.574533e+01
      endloop
   endfacet
   facet normal -7.071075e-01 0.000000e+00 7.071061e-01
      outer loop
         vertex -2.175467e+01 3.619671e-312 -3.482091e+01
         vertex -2.175467e+01 2.500000e+01 -3.482091e+01
         vertex -2.267909e+01 3.619671e-312 -3.574533e+01
      endloop
   endfacet
   facet normal 7.071075e-01 0.000000e+00 7.071061e-01
      outer loop
         vertex 2.267909e+01 2.500000e+01 -3.574533e+01
         vertex 2.175467e+01 3.619671e-312 -3.482091e+01
         vertex 2.267909e+01 3.619671e-312 -3.574533e+01
      endloop
   endfacet
   facet normal 5.735758e-01 0.000000e+00 8.191525e-01
      outer loop
         vertex 2.375000e+01 2.500000e+01 -3.649519e+01
         vertex 2.267909e+01 2.500000e+01 -3.574533e+01
         vertex 2.267909e+01 3.619671e-312 -3.574533e+01
      endloop
   endfacet
   facet normal -7.071068e-01 0.000000e+00 7.071068e-01
      outer loop
         vertex 3.324533e+01 2.500000e+01 -3.482091e+01
         vertex 3.232091e+01 2.500000e+01 -3.574533e+01
         vertex 3.232091e+01 3.619671e-312 -3.574533e+01
      endloop
   endfacet
   facet normal -7.071068e-01 0.000000e+00 7.071068e-01
      outer loop
         vertex 3.324533e+01 3.619671e-312 -3.482091e+01
         vertex 3.324533e+01 2.500000e+01 -3.482091e+01
         vertex 3.232091e+01 3.619671e-312 -3.574533e+01
      endloop
   endfacet
   facet normal 8.191520e-01 0.000000e+00 5.735765e-01
      outer loop
         vertex -3.324533e+01 2.500000e+01 -3.482091e+01
         vertex -3.399519e+01 3.619671e-312 -3.375000e+01
         vertex -3.324533e+01 3.619671e-312 -3.482091e+01
      endloop
   endfacet
   facet normal 7.071068e-01 0.000000e+00 7.071068e-01
      outer loop
         vertex -3.232091e+01 2.500000e+01 -3.574533e+01
         vertex -3.324533e+01 2.500000e+01 -3.482091e+01
         vertex -3.324533e+01 3.619671e-312 -3.482091e+01
      endloop
   endfacet
   facet normal -8.191513e-01 0.000000e+00 5.735775e-01
      outer loop
         vertex -2.100481e+01 2.500000e+01 -3.375000e+01
         vertex -2.175467e+01 2.500000e+01 -3.482091e+01
         vertex -2.175467e+01 3.619671e-312 -3.482091e+01
      endloop
   endfacet
   facet normal -8.191513e-01 0.000000e+00 5.735775e-01
      outer loop
         vertex -2.100481e+01 3.619671e-312 -3.375000e+01
         vertex -2.100481e+01 2.500000e+01 -3.375000e+01
         vertex -2.175467e+01 3.619671e-312 -3.482091e+01
      endloop
   endfacet
   facet normal 8.191513e-01 0.000000e+00 5.735775e-01
      outer loop
         vertex 2.175467e+01 2.500000e+01 -3.482091e+01
         vertex 2.100481e+01 3.619671e-312 -3.375000e+01
         vertex 2.175467e+01 3.619671e-312 -3.482091e+01
      endloop
   endfacet
   facet normal 7.071075e-01 0.000000e+00 7.071061e-01
      outer loop
         vertex 2.267909e+01 2.500000e+01 -3.574533e+01
         vertex 2.175467e+01 2.500000e+01 -3.482091e+01
         vertex 2.175467e+01 3.619671e-312 -3.482091e+01
      endloop
   endfacet
   facet normal -8.191520e-01 0.000000e+00 5.735765e-01
      outer loop
         vertex 3.399519e+01 2.500000e+01 -3.375000e+01
         vertex 3.324533e+01 2.500000e+01 -3.482091e+01
         vertex 3.324533e+01 3.619671e-312 -3.482091e+01
      endloop
   endfacet
   facet normal -8.191520e-01 0.000000e+00 5.735765e-01
      outer loop
         vertex 3.399519e+01 3.619671e-312 -3.375000e+01
         vertex 3.399519e+01 2.500000e+01 -3.375000e+01
         vertex 3.324533e+01 3.619671e-312 -3.482091e+01
      endloop
   endfacet
   facet normal 9.063077e-01 0.000000e+00 4.226184e-01
      outer loop
         vertex -3.399519e+01 2.500000e+01 -3.375000e+01
         vertex -3.454769e+01 3.619671e-312 -3.256515e+01
         vertex -3.399519e+01 3.619671e-312 -3.375000e+01
      endloop
   endfacet
   facet normal 8.191520e-01 0.000000e+00 5.735765e-01
      outer loop
         vertex -3.324533e+01 2.500000e+01 -3.482091e+01
         vertex -3.399519e+01 2.500000e+01 -3.375000e+01
         vertex -3.399519e+01 3.619671e-312 -3.375000e+01
      endloop
   endfacet
   facet normal -9.063083e-01 0.000000e+00 4.226172e-01
      outer loop
         vertex -2.045231e+01 2.500000e+01 -3.256515e+01
         vertex -2.100481e+01 2.500000e+01 -3.375000e+01
         vertex -2.100481e+01 3.619671e-312 -3.375000e+01
      endloop
   endfacet
   facet normal -9.063083e-01 0.000000e+00 4.226172e-01
      outer loop
         vertex -2.045231e+01 3.619671e-312 -3.256515e+01
         vertex -2.045231e+01 2.500000e+01 -3.256515e+01
         vertex -2.100481e+01 3.619671e-312 -3.375000e+01
      endloop
   endfacet
   facet normal 9.063083e-01 0.000000e+00 4.226172e-01
      outer loop
         vertex 2.100481e+01 2.500000e+01 -3.375000e+01
         vertex 2.045231e+01 3.619671e-312 -3.256515e+01
         vertex 2.100481e+01 3.619671e-312 -3.375000e+01
      endloop
   endfacet
   facet normal 8.191513e-01 0.000000e+00 5.735775e-01
      outer loop
         vertex 2.175467e+01 2.500000e+01 -3.482091e+01
         vertex 2.100481e+01 2.500000e+01 -3.375000e+01
         vertex 2.100481e+01 3.619671e-312 -3.375000e+01
      endloop
   endfacet
   facet normal -9.063077e-01 0.000000e+00 4.226184e-01
      outer loop
         vertex 3.454769e+01 2.500000e+01 -3.256515e+01
         vertex 3.399519e+01 2.500000e+01 -3.375000e+01
         vertex 3.399519e+01 3.619671e-312 -3.375000e+01
      endloop
   endfacet
   facet normal -9.063077e-01 0.000000e+00 4.226184e-01
      outer loop
         vertex 3.454769e+01 3.619671e-312 -3.256515e+01
         vertex 3.454769e+01 2.500000e+01 -3.256515e+01
         vertex 3.399519e+01 3.619671e-312 -3.375000e+01
      endloop
   endfacet
   facet normal 9.659256e-01 0.000000e+00 2.588201e-01
      outer loop
         vertex -3.454769e+01 2.500000e+01 -3.256515e+01
         vertex -3.488606e+01 3.619671e-312 -3.130236e+01
         vertex -3.454769e+01 3.619671e-312 -3.256515e+01
      endloop
   endfacet
   facet normal 9.063077e-01 0.000000e+00 4.226184e-01
      outer loop
         vertex -3.399519e+01 2.500000e+01 -3.375000e+01
         vertex -3.454769e+01 2.500000e+01 -3.256515e+01
         vertex -3.454769e+01 3.619671e-312 -3.256515e+01
      endloop
   endfacet
   facet normal -9.659256e-01 0.000000e+00 2.588201e-01
      outer loop
         vertex -2.011394e+01 2.500000e+01 -3.130236e+01
         vertex -2.045231e+01 2.500000e+01 -3.256515e+01
         vertex -2.045231e+01 3.619671e-312 -3.256515e+01
      endloop
   endfacet
   facet normal -9.659256e-01 0.000000e+00 2.588201e-01
      outer loop
         vertex -2.011394e+01 3.619671e-312 -3.130236e+01
         vertex -2.011394e+01 2.500000e+01 -3.130236e+01
         vertex -2.045231e+01 3.619671e-312 -3.256515e+01
      endloop
   endfacet
   facet normal 9.659256e-01 0.000000e+00 2.588201e-01
      outer loop
         vertex 2.045231e+01 2.500000e+01 -3.256515e+01
         vertex 2.011394e+01 3.619671e-312 -3.130236e+01
         vertex 2.045231e+01 3.619671e-312 -3.256515e+01
      endloop
   endfacet
   facet normal 9.063083e-01 0.000000e+00 4.226172e-01
      outer loop
         vertex 2.100481e+01 2.500000e+01 -3.375000e+01
         vertex 2.045231e+01 2.500000e+01 -3.256515e+01
         vertex 2.045231e+01 3.619671e-312 -3.256515e+01
      endloop
   endfacet
   facet normal -9.659256e-01 0.000000e+00 2.588201e-01
      outer loop
         vertex 3.488606e+01 2.500000e+01 -3.130236e+01
         vertex 3.454769e+01 2.500000e+01 -3.256515e+01
         vertex 3.454769e+01 3.619671e-312 -3.256515e+01
      endloop
   endfacet
   facet normal -9.659256e-01 0.000000e+00 2.588201e-01
      outer loop
         vertex 3.488606e+01 3.619671e-312 -3.130236e+01
         vertex 3.488606e+01 2.500000e+01 -3.130236e+01
         vertex 3.454769e+01 3.619671e-312 -3.256515e+01
      endloop
   endfacet
   facet normal 9.961947e-01 0.000000e+00 8.715552e-02
      outer loop
         vertex -3.488606e+01 2.500000e+01 -3.130236e+01
         vertex -3.500000e+01 3.619671e-312 -3.000000e+01
         vertex -3.488606e+01 3.619671e-312 -3.130236e+01
      endloop
   endfacet
   facet normal 9.659256e-01 0.000000e+00 2.588201e-01
      outer loop
         vertex -3.454769e+01 2.500000e+01 -3.256515e+01
         vertex -3.488606e+01 2.500000e+01 -3.130236e+01
         vertex -3.488606e+01 3.619671e-312 -3.130236e+01
      endloop
   endfacet
   facet normal -9.961947e-01 0.000000e+00 8.715552e-02
      outer loop
         vertex -2.000000e+01 2.500000e+01 -3.000000e+01
         vertex -2.011394e+01 2.500000e+01 -3.130236e+01
         vertex -2.011394e+01 3.619671e-312 -3.130236e+01
      endloop
   endfacet
   facet normal -9.961947e-01 0.000000e+00 8.715552e-02
      outer loop
         vertex -2.000000e+01 3.619671e-312 -3.000000e+01
         vertex -2.000000e+01 2.500000e+01 -3.000000e+01
         vertex -2.011394e+01 3.619671e-312 -3.130236e+01
      endloop
   endfacet
   facet normal 9.961947e-01 0.000000e+00 8.715552e-02
      outer loop
         vertex 2.011394e+01 2.500000e+01 -3.130236e+01
         vertex 2.000000e+01 3.619671e-312 -3.000000e+01
         vertex 2.011394e+01 3.619671e-312 -3.130236e+01
      endloop
   endfacet
   facet normal 9.659256e-01 0.000000e+00 2.588201e-01
      outer loop
         vertex 2.045231e+01 2.500000e+01 -3.256515e+01
         vertex 2.011394e+01 2.500000e+01 -3.130236e+01
         vertex 2.011394e+01 3.619671e-312 -3.130236e+01
      endloop
   endfacet
   facet normal -9.961947e-01 0.000000e+00 8.715552e-02
      outer loop
         vertex 3.500000e+01 2.500000e+01 -3.000000e+01
         vertex 3.488606e+01 2.500000e+01 -3.130236e+01
         vertex 3.488606e+01 3.619671e-312 -3.130236e+01
      endloop
   endfacet
   facet normal -9.961947e-01 0.000000e+00 8.715552e-02
      outer loop
         vertex 3.500000e+01 3.619671e-312 -3.000000e+01
         vertex 3.500000e+01 2.500000e+01 -3.000000e+01
         vertex 3.488606e+01 3.619671e-312 -3.130236e+01
      endloop
   endfacet
   facet normal 9.961947e-01 0.000000e+00 -8.715564e-02
      outer loop
         vertex -3.500000e+01 2.500000e+01 -3.000000e+01
         vertex -3.488606e+01 3.619671e-312 -2.869764e+01
         vertex -3.500000e+01 3.619671e-312 -3.000000e+01
      endloop
   endfacet
   facet normal 9.961947e-01 0.000000e+00 8.715552e-02
      outer loop
         vertex -3.488606e+01 2.500000e+01 -3.130236e+01
         vertex -3.500000e+01 2.500000e+01 -3.000000e+01
         vertex -3.500000e+01 3.619671e-312 -3.000000e+01
      endloop
   endfacet
   facet normal -9.961947e-01 0.000000e+00 -8.715564e-02
      outer loop
         vertex -2.011394e+01 2.500000e+01 -2.869764e+01
         vertex -2.000000e+01 2.500000e+01 -3.000000e+01
         vertex -2.000000e+01 3.619671e-312 -3.000000e+01
      endloop
   endfacet
   facet normal -9.961947e-01 0.000000e+00 -8.715564e-02
      outer loop
         vertex -2.011394e+01 3.619671e-312 -2.869764e+01
         vertex -2.011394e+01 2.500000e+01 -2.869764e+01
         vertex -2.000000e+01 3.619671e-312 -3.000000e+01
      endloop
   endfacet
   facet normal 9.961947e-01 0.000000e+00 -8.715564e-02
      outer loop
         vertex 2.000000e+01 2.500000e+01 -3.000000e+01
         vertex 2.011394e+01 3.619671e-312 -2.869764e+01
         vertex 2.000000e+01 3.619671e-312 -3.000000e+01
      endloop
   endfacet
   facet normal 9.961947e-01 0.000000e+00 8.715552e-02
      outer loop
         vertex 2.011394e+01 2.500000e+01 -3.130236e+01
         vertex 2.000000e+01 2.500000e+01 -3.000000e+01
         vertex 2.000000e+01 3.619671e-312 -3.000000e+01
      endloop
   endfacet
   facet normal -9.961947e-01 0.000000e+00 -8.715564e-02
      outer loop
         vertex 3.488606e+01 2.500000e+01 -2.869764e+01
         vertex 3.500000e+01 2.500000e+01 -3.000000e+01
         vertex 3.500000e+01 3.619671e-312 -3.000000e+01
      endloop
   endfacet
   facet normal -9.961947e-01 0.000000e+00 -8.715564e-02
      outer loop
         vertex 3.488606e+01 3.619671e-312 -2.869764e+01
         vertex 3.488606e+01 2.500000e+01 -2.869764e+01
         vertex 3.500000e+01 3.619671e-312 -3.000000e+01
      endloop
   endfacet
   facet normal 9.659256e-01 0.000000e+00 -2.588197e-01
      outer loop
         vertex -3.488606e+01 2.500000e+01 -2.869764e+01
         vertex -3.454769e+01 3.619671e-312 -2.743485e+01
         vertex -3.488606e+01 3.619671e-312 -2.869764e+01
      endloop
   endfacet
   facet normal 9.961947e-01 0.000000e+00 -8.715564e-02
      outer loop
         vertex -3.500000e+01 2.500000e+01 -3.000000e+01
         vertex -3.488606e+01 2.500000e+01 -2.869764e+01
         vertex -3.488606e+01 3.619671e-312 -2.869764e+01
      endloop
   endfacet
   facet normal -9.659256e-01 0.000000e+00 -2.588197e-01
      outer loop
         vertex -2.045231e+01 2.500000e+01 -2.743485e+01
         vertex -2.011394e+01 2.500000e+01 -2.869764e+01
         vertex -2.011394e+01 3.619671e-312 -2.869764e+01
      endloop
   endfacet
   facet normal -9.659256e-01 0.000000e+00 -2.588197e-01
      outer loop
         vertex -2.045231e+01 3.619671e-312 -2.743485e+01
         vertex -2.045231e+01 2.500000e+01 -2.743485e+01
         vertex -2.011394e+01 3.619671e-312 -2.869764e+01
      endloop
   endfacet
   facet normal 9.659256e-01 0.000000e+00 -2.588197e-01
      outer loop
         vertex 2.011394e+01 2.500000e+01 -2.869764e+01
         vertex 2.045231e+01 3.619671e-312 -2.743485e+01
         vertex 2.011394e+01 3.619671e-312 -2.869764e+01
      endloop
   endfacet
   facet normal 9.961947e-01 0.000000e+00 -8.715564e-02
      outer loop
         vertex 2.000000e+01 2.500000e+01 -3.000000e+01
         vertex 2.011394e+01 2.500000e+01 -2.869764e+01
         vertex 2.011394e+01 3.619671e-312 -2.869764e+01
      endloop
   endfacet
   facet normal -9.659256e-01 0.000000e+00 -2.588197e-01
      outer loop
         vertex 3.454769e+01 2.500000e+01 -2.743485e+01
         vertex 3.488606e+01 2.500000e+01 -2.869764e+01
         vertex 3.488606e+01 3.619671e-312 -2.869764e+01
      endloop
   endfacet
   facet normal -9.659256e-01 0.000000e+00 -2.588197e-01
      outer loop
         vertex 3.454769e+01 3.619671e-312 -2.743485e+01
         vertex 3.454769e+01 2.500000e+01 -2.743485e+01
         vertex 3.488606e+01 3.619671e-312 -2.869764e+01
      endloop
   endfacet
   facet normal 9.063075e-01 0.000000e+00 -4.226189e-01
      outer loop
         vertex -3.454769e+01 2.500000e+01 -2.743485e+01
         vertex -3.399519e+01 3.619671e-312 -2.625000e+01
         vertex -3.454769e+01 3.619671e-312 -2.743485e+01
      endloop
   endfacet
   facet normal 9.659256e-01 0.000000e+00 -2.588197e-01
      outer loop
         vertex -3.488606e+01 2.500000e+01 -2.869764e+01
         vertex -3.454769e+01 2.500000e+01 -2.743485e+01
         vertex -3.454769e+01 3.619671e-312 -2.743485e+01
      endloop
   endfacet
   facet normal -9.063080e-01 0.000000e+00 -4.226178e-01
      outer loop
         vertex -2.100481e+01 2.500000e+01 -2.625000e+01
         vertex -2.045231e+01 2.500000e+01 -2.743485e+01
         vertex -2.045231e+01 3.619671e-312 -2.743485e+01
      endloop
   endfacet
   facet normal -9.063080e-01 0.000000e+00 -4.226178e-01
      outer loop
         vertex -2.100481e+01 3.619671e-312 -2.625000e+01
         vertex -2.100481e+01 2.500000e+01 -2.625000e+01
         vertex -2.045231e+01 3.619671e-312 -2.743485e+01
      endloop
   endfacet
   facet normal 9.063080e-01 0.000000e+00 -4.226178e-01
      outer loop
         vertex 2.045231e+01 2.500000e+01 -2.743485e+01
         vertex 2.100481e+01 3.619671e-312 -2.625000e+01
         vertex 2.045231e+01 3.619671e-312 -2.743485e+01
      endloop
   endfacet
   facet normal 9.659256e-01 0.000000e+00 -2.588197e-01
      outer loop
         vertex 2.011394e+01 2.500000e+01 -2.869764e+01
         vertex 2.045231e+01 2.500000e+01 -2.743485e+01
         vertex 2.045231e+01 3.619671e-312 -2.743485e+01
      endloop
   endfacet
   facet normal -9.063075e-01 0.000000e+00 -4.226189e-01
      outer loop
         vertex 3.399519e+01 2.500000e+01 -2.625000e+01
         vertex 3.454769e+01 2.500000e+01 -2.743485e+01
         vertex 3.454769e+01 3.619671e-312 -2.743485e+01
      endloop
   endfacet
   facet normal -9.063075e-01 0.000000e+00 -4.226189e-01
      outer loop
         vertex 3.399519e+01 3.619671e-312 -2.625000e+01
         vertex 3.399519e+01 2.500000e+01 -2.625000e+01
         vertex 3.454769e+01 3.619671e-312 -2.743485e+01
      endloop
   endfacet
   facet normal 8.191520e-01 0.000000e+00 -5.735765e-01
      outer loop
         vertex -3.399519e+01 2.500000e+01 -2.625000e+01
         vertex -3.324533e+01 3.619671e-312 -2.517909e+01
         vertex -3.399519e+01 3.619671e-312 -2.625000e+01
      endloop
   endfacet
   facet normal 9.063075e-01 0.000000e+00 -4.226189e-01
      outer loop
         vertex -3.454769e+01 2.500000e+01 -2.743485e+01
         vertex -3.399519e+01 2.500000e+01 -2.625000e+01
         vertex -3.399519e+01 3.619671e-312 -2.625000e+01
      endloop
   endfacet
   facet normal -8.191513e-01 0.000000e+00 -5.735775e-01
      outer loop
         vertex -2.175467e+01 2.500000e+01 -2.517909e+01
         vertex -2.100481e+01 2.500000e+01 -2.625000e+01
         vertex -2.100481e+01 3.619671e-312 -2.625000e+01
      endloop
   endfacet
   facet normal -8.191513e-01 0.000000e+00 -5.735775e-01
      outer loop
         vertex -2.175467e+01 3.619671e-312 -2.517909e+01
         vertex -2.175467e+01 2.500000e+01 -2.517909e+01
         vertex -2.100481e+01 3.619671e-312 -2.625000e+01
      endloop
   endfacet
   facet normal 8.191513e-01 0.000000e+00 -5.735775e-01
      outer loop
         vertex 2.100481e+01 2.500000e+01 -2.625000e+01
         vertex 2.175467e+01 3.619671e-312 -2.517909e+01
         vertex 2.100481e+01 3.619671e-312 -2.625000e+01
      endloop
   endfacet
   facet normal 9.063080e-01 0.000000e+00 -4.226178e-01
      outer loop
         vertex 2.045231e+01 2.500000e+01 -2.743485e+01
         vertex 2.100481e+01 2.500000e+01 -2.625000e+01
         vertex 2.100481e+01 3.619671e-312 -2.625000e+01
      endloop
   endfacet
   facet normal -8.191520e-01 0.000000e+00 -5.735765e-01
      outer loop
         vertex 3.324533e+01 2.500000e+01 -2.517909e+01
         vertex 3.399519e+01 2.500000e+01 -2.625000e+01
         vertex 3.399519e+01 3.619671e-312 -2.625000e+01
      endloop
   endfacet
   facet normal -8.191520e-01 0.000000e+00 -5.735765e-01
      outer loop
         vertex 3.324533e+01 3.619671e-312 -2.517909e+01
         vertex 3.324533e+01 2.500000e+01 -2.517909e+01
         vertex 3.399519e+01 3.619671e-312 -2.625000e+01
      endloop
   endfacet
   facet normal 7.071068e-01 0.000000e+00 -7.071068e-01
      outer loop
         vertex -3.324533e+01 2.500000e+01 -2.517909e+01
         vertex -3.232091e+01 3.619671e-312 -2.425467e+01
         vertex -3.324533e+01 3.619671e-312 -2.517909e+01
      endloop
   endfacet
   facet normal 8.191520e-01 0.000000e+00 -5.735765e-01
      outer loop
         vertex -3.399519e+01 2.500000e+01 -2.625000e+01
         vertex -3.324533e+01 2.500000e+01 -2.517909e+01
         vertex -3.324533e+01 3.619671e-312 -2.517909e+01
      endloop
   endfacet
   facet normal -7.071075e-01 0.000000e+00 -7.071061e-01
      outer loop
         vertex -2.267909e+01 2.500000e+01 -2.425467e+01
         vertex -2.175467e+01 2.500000e+01 -2.517909e+01
         vertex -2.175467e+01 3.619671e-312 -2.517909e+01
      endloop
   endfacet
   facet normal -7.071075e-01 0.000000e+00 -7.071061e-01
      outer loop
         vertex -2.267909e+01 3.619671e-312 -2.425467e+01
         vertex -2.267909e+01 2.500000e+01 -2.425467e+01
         vertex -2.175467e+01 3.619671e-312 -2.517909e+01
      endloop
   endfacet
   facet normal 7.071075e-01 0.000000e+00 -7.071061e-01
      outer loop
         vertex 2.175467e+01 2.500000e+01 -2.517909e+01
         vertex 2.267909e+01 3.619671e-312 -2.425467e+01
         vertex 2.175467e+01 3.619671e-312 -2.517909e+01
      endloop
   endfacet
   facet normal 8.191513e-01 0.000000e+00 -5.735775e-01
      outer loop
         vertex 2.100481e+01 2.500000e+01 -2.625000e+01
         vertex 2.175467e+01 2.500000e+01 -2.517909e+01
         vertex 2.175467e+01 3.619671e-312 -2.517909e+01
      endloop
   endfacet
   facet normal -7.071068e-01 0.000000e+00 -7.071068e-01
      outer loop
         vertex 3.232091e+01 2.500000e+01 -2.425467e+01
         vertex 3.324533e+01 2.500000e+01 -2.517909e+01
         vertex 3.324533e+01 3.619671e-312 -2.517909e+01
      endloop
   endfacet
   facet normal -7.071068e-01 0.000000e+00 -7.071068e-01
      outer loop
         vertex 3.232091e+01 3.619671e-312 -2.425467e+01
         vertex 3.232091e+01 2.500000e+01 -2.425467e+01
         vertex 3.324533e+01 3.619671e-312 -2.517909e+01
      endloop
   endfacet
   facet normal 5.735775e-01 0.000000e+00 -8.191513e-01
      outer loop
         vertex -3.232091e+01 2.500000e+01 -2.425467e+01
         vertex -3.125000e+01 3.619671e-312 -2.350481e+01
         vertex -3.232091e+01 3.619671e-312 -2.425467e+01
      endloop
   endfacet
   facet normal 7.071068e-01 0.000000e+00 -7.071068e-01
      outer loop
         vertex -3.324533e+01 2.500000e+01 -2.517909e+01
         vertex -3.232091e+01 2.500000e+01 -2.425467e+01
         vertex -3.232091e+01 3.619671e-312 -2.425467e+01
      endloop
   endfacet
   facet normal -5.735768e-01 0.000000e+00 -8.191518e-01
      outer loop
         vertex -2.375000e+01 2.500000e+01 -2.350481e+01
         vertex -2.267909e+01 2.500000e+01 -2.425467e+01
         vertex -2.267909e+01 3.619671e-312 -2.425467e+01
      endloop
   endfacet
   facet normal -5.735768e-01 0.000000e+00 -8.191518e-01
      outer loop
         vertex -2.375000e+01 3.619671e-312 -2.350481e+01
         vertex -2.375000e+01 2.500000e+01 -2.350481e+01
         vertex -2.267909e+01 3.619671e-312 -2.425467e+01
      endloop
   endfacet
   facet normal 5.735768e-01 0.000000e+00 -8.191518e-01
      outer loop
         vertex 2.267909e+01 2.500000e+01 -2.425467e+01
         vertex 2.375000e+01 3.619671e-312 -2.350481e+01
         vertex 2.267909e+01 3.619671e-312 -2.425467e+01
      endloop
   endfacet
   facet normal 7.071075e-01 0.000000e+00 -7.071061e-01
      outer loop
         vertex 2.175467e+01 2.500000e+01 -2.517909e+01
         vertex 2.267909e+01 2.500000e+01 -2.425467e+01
         vertex 2.267909e+01 3.619671e-312 -2.425467e+01
      endloop
   endfacet
   facet normal -5.735775e-01 0.000000e+00 -8.191513e-01
      outer loop
         vertex 3.125000e+01 2.500000e+01 -2.350481e+01
         vertex 3.232091e+01 2.500000e+01 -2.425467e+01
         vertex 3.232091e+01 3.619671e-312 -2.425467e+01
      endloop
   endfacet
   facet normal -5.735775e-01 0.000000e+00 -8.191513e-01
      outer loop
         vertex 3.125000e+01 3.619671e-312 -2.350481e+01
         vertex 3.125000e+01 2.500000e+01 -2.350481e+01
         vertex 3.232091e+01 3.619671e-312 -2.425467e+01
      endloop
   endfacet
   facet normal 4.226178e-01 0.000000e+00 -9.063080e-01
      outer loop
         vertex -3.125000e+01 2.500000e+01 -2.350481e+01
         vertex -3.006515e+01 3.619671e-312 -2.295231e+01
         vertex -3.125000e+01 3.619671e-312 -2.350481e+01
      endloop
   endfacet
   facet normal 5.735775e-01 0.000000e+00 -8.191513e-01
      outer loop
         vertex -3.232091e+01 2.500000e+01 -2.425467e+01
         vertex -3.125000e+01 2.500000e+01 -2.350481e+01
         vertex -3.125000e+01 3.619671e-312 -2.350481e+01
      endloop
   endfacet
   facet normal -4.226178e-01 0.000000e+00 -9.063080e-01
      outer loop
         vertex -2.493485e+01 2.500000e+01 -2.295231e+01
         vertex -2.375000e+01 2.500000e+01 -2.350481e+01
         vertex -2.375000e+01 3.619671e-312 -2.350481e+01
      endloop
   endfacet
   facet normal -4.226178e-01 0.000000e+00 -9.063080e-01
      outer loop
         vertex -2.493485e+01 3.619671e-312 -2.295231e+01
         vertex -2.493485e+01 2.500000e+01 -2.295231e+01
         vertex -2.375000e+01 3.619671e-312 -2.350481e+01
      endloop
   endfacet
   facet normal 4.226178e-01 0.000000e+00 -9.063080e-01
      outer loop
         vertex 2.375000e+01 2.500000e+01 -2.350481e+01
         vertex 2.493485e+01 3.619671e-312 -2.295231e+01
         vertex 2.375000e+01 3.619671e-312 -2.350481e+01
      endloop
   endfacet
   facet normal 5.735768e-01 0.000000e+00 -8.191518e-01
      outer loop
         vertex 2.267909e+01 2.500000e+01 -2.425467e+01
         vertex 2.375000e+01 2.500000e+01 -2.350481e+01
         vertex 2.375000e+01 3.619671e-312 -2.350481e+01
      endloop
   endfacet
   facet normal -4.226178e-01 0.000000e+00 -9.063080e-01
      outer loop
         vertex 3.006515e+01 2.500000e+01 -2.295231e+01
         vertex 3.125000e+01 2.500000e+01 -2.350481e+01
         vertex 3.125000e+01 3.619671e-312 -2.350481e+01
      endloop
   endfacet
   facet normal -4.226178e-01 0.000000e+00 -9.063080e-01
      outer loop
         vertex 3.006515e+01 3.619671e-312 -2.295231e+01
         vertex 3.006515e+01 2.500000e+01 -2.295231e+01
         vertex 3.125000e+01 3.619671e-312 -2.350481e+01
      endloop
   endfacet
   facet normal 2.588184e-01 0.000000e+00 -9.659260e-01
      outer loop
         vertex -3.006515e+01 2.500000e+01 -2.295231e+01
         vertex -2.880236e+01 3.619671e-312 -2.261394e+01
         vertex -3.006515e+01 3.619671e-312 -2.295231e+01
      endloop
   endfacet
   facet normal 4.226178e-01 0.000000e+00 -9.063080e-01
      outer loop
         vertex -3.125000e+01 2.500000e+01 -2.350481e+01
         vertex -3.006515e+01 2.500000e+01 -2.295231e+01
         vertex -3.006515e+01 3.619671e-312 -2.295231e+01
      endloop
   endfacet
   facet normal -2.588184e-01 0.000000e+00 -9.659260e-01
      outer loop
         vertex -2.619764e+01 2.500000e+01 -2.261394e+01
         vertex -2.493485e+01 2.500000e+01 -2.295231e+01
         vertex -2.493485e+01 3.619671e-312 -2.295231e+01
      endloop
   endfacet
   facet normal -2.588184e-01 0.000000e+00 -9.659260e-01
      outer loop
         vertex -2.619764e+01 3.619671e-312 -2.261394e+01
         vertex -2.619764e+01 2.500000e+01 -2.261394e+01
         vertex -2.493485e+01 3.619671e-312 -2.295231e+01
      endloop
   endfacet
   facet normal 2.588184e-01 0.000000e+00 -9.659260e-01
      outer loop
         vertex 2.493485e+01 2.500000e+01 -2.295231e+01
         vertex 2.619764e+01 3.619671e-312 -2.261394e+01
         vertex 2.493485e+01 3.619671e-312 -2.295231e+01
      endloop
   endfacet
   facet normal 4.226178e-01 0.000000e+00 -9.063080e-01
      outer loop
         vertex 2.375000e+01 2.500000e+01 -2.350481e+01
         vertex 2.493485e+01 2.500000e+01 -2.295231e+01
         vertex 2.493485e+01 3.619671e-312 -2.295231e+01
      endloop
   endfacet
   facet normal -2.588184e-01 0.000000e+00 -9.659260e-01
      outer loop
         vertex 2.880236e+01 2.500000e+01 -2.261394e+01
         vertex 3.006515e+01 2.500000e+01 -2.295231e+01
         vertex 3.006515e+01 3.619671e-312 -2.295231e+01
      endloop
   endfacet
   facet normal -2.588184e-01 0.000000e+00 -9.659260e-01
      outer loop
         vertex 2.880236e+01 3.619671e-312 -2.261394e+01
         vertex 2.880236e+01 2.500000e+01 -2.261394e+01
         vertex 3.006515e+01 3.619671e-312 -2.295231e+01
      endloop
   endfacet
   facet normal 8.715564e-02 0.000000e+00 -9.961947e-01
      outer loop
         vertex -2.880236e+01 2.500000e+01 -2.261394e+01
         vertex -2.750000e+01 3.619671e-312 -2.250000e+01
         vertex -2.880236e+01 3.619671e-312 -2.261394e+01
      endloop
   endfacet
   facet normal 2.588184e-01 0.000000e+00 -9.659260e-01
      outer loop
         vertex -3.006515e+01 2.500000e+01 -2.295231e+01
         vertex -2.880236e+01 2.500000e+01 -2.261394e+01
         vertex -2.880236e+01 3.619671e-312 -2.261394e+01
      endloop
   endfacet
   facet normal -8.715564e-02 0.000000e+00 -9.961947e-01
      outer loop
         vertex -2.750000e+01 2.500000e+01 -2.250000e+01
         vertex -2.619764e+01 2.500000e+01 -2.261394e+01
         vertex -2.619764e+01 3.619671e-312 -2.261394e+01
      endloop
   endfacet
   facet normal -8.715564e-02 0.000000e+00 -9.961947e-01
      outer loop
         vertex -2.750000e+01 3.619671e-312 -2.250000e+01
         vertex -2.750000e+01 2.500000e+01 -2.250000e+01
         vertex -2.619764e+01 3.619671e-312 -2.261394e+01
      endloop
   endfacet
   facet normal 8.715564e-02 0.000000e+00 -9.961947e-01
      outer loop
         vertex 2.619764e+01 2.500000e+01 -2.261394e+01
         vertex 2.750000e+01 3.619671e-312 -2.250000e+01
         vertex 2.619764e+01 3.619671e-312 -2.261394e+01
      endloop
   endfacet
   facet normal 2.588184e-01 0.000000e+00 -9.659260e-01
      outer loop
         vertex 2.493485e+01 2.500000e+01 -2.295231e+01
         vertex 2.619764e+01 2.500000e+01 -2.261394e+01
         vertex 2.619764e+01 3.619671e-312 -2.261394e+01
      endloop
   endfacet
   facet normal -8.715564e-02 0.000000e+00 -9.961947e-01
      outer loop
         vertex 2.750000e+01 2.500000e+01 -2.250000e+01
         vertex 2.880236e+01 2.500000e+01 -2.261394e+01
         vertex 2.880236e+01 3.619671e-312 -2.261394e+01
      endloop
   endfacet
   facet normal -8.715564e-02 0.000000e+00 -9.961947e-01
      outer loop
         vertex 2.750000e+01 3.619671e-312 -2.250000e+01
         vertex 2.750000e+01 2.500000e+01 -2.250000e+01
         vertex 2.880236e+01 3.619671e-312 -2.261394e+01
      endloop
   endfacet
   facet normal 8.715564e-02 0.000000e+00 -9.961947e-01
      outer loop
         vertex -2.880236e+01 2.500000e+01 -2.261394e+01
         vertex -2.750000e+01 2.500000e+01 -2.250000e+01
         vertex -2.750000e+01 3.619671e-312 -2.250000e+01
      endloop
   endfacet
   facet normal 8.715564e-02 0.000000e+00 -9.961947e-01
      outer loop
         vertex 2.619764e+01 2.500000e+01 -2.261394e+01
         vertex 2.750000e+01 2.500000e+01 -2.250000e+01
         vertex 2.750000e+01 3.619671e-312 -2.250000e+01
      endloop
   endfacet
   facet normal 0.000000e+00 0.000000e+00 1.000000e+00
      outer loop
         vertex 1.000000e+01 3.619671e-312 -2.000000e+01
         vertex -1.000000e+01 2.500000e+01 -2.000000e+01
         vertex -1.000000e+01 3.619671e-312 -2.000000e+01
      endloop
   endfacet
   facet normal 8.715490e-02 0.000000e+00 9.961948e-01
      outer loop
         vertex -1.000000e+01 2.500000e+01 -2.000000e+01
         vertex -1.086824e+01 3.619671e-312 -1.992404e+01
         vertex -1.000000e+01 3.619671e-312 -2.000000e+01
      endloop
   endfacet
   facet normal 0.000000e+00 0.000000e+00 1.000000e+00
      outer loop
         vertex 1.000000e+01 2.500000e+01 -2.000000e+01
         vertex -1.000000e+01 2.500000e+01 -2.000000e+01
         vertex 1.000000e+01 3.619671e-312 -2.000000e+01
      endloop
   endfacet
   facet normal -8.715490e-02 0.000000e+00 9.961948e-01
      outer loop
         vertex 1.086824e+01 3.619671e-312 -1.992404e+01
         vertex 1.086824e+01 2.500000e+01 -1.992404e+01
         vertex 1.000000e+01 3.619671e-312 -2.000000e+01
      endloop
   endfacet
   facet normal -8.715490e-02 0.000000e+00 9.961948e-01
      outer loop
         vertex 1.086824e+01 2.500000e+01 -1.992404e+01
         vertex 1.000000e+01 2.500000e+01 -2.000000e+01
         vertex 1.000000e+01 3.619671e-312 -2.000000e+01
      endloop
   endfacet
   facet normal 8.715490e-02 0.000000e+00 9.961948e-01
      outer loop
         vertex -1.000000e+01 2.500000e+01 -2.000000e+01
         vertex -1.086824e+01 2.500000e+01 -1.992404e+01
         vertex -1.086824e+01 3.619671e-312 -1.992404e+01
      endloop
   endfacet
   facet normal 2.588191e-01 0.000000e+00 9.659258e-01
      outer loop
         vertex -1.086824e+01 2.500000e+01 -1.992404e+01
         vertex -1.171010e+01 3.619671e-312 -1.969846e+01
         vertex -1.086824e+01 3.619671e-312 -1.992404e+01
      endloop
   endfacet
   facet normal -2.588191e-01 0.000000e+00 9.659258e-01
      outer loop
         vertex 1.171010e+01 3.619671e-312 -1.969846e+01
         vertex 1.171010e+01 2.500000e+01 -1.969846e+01
         vertex 1.086824e+01 3.619671e-312 -1.992404e+01
      endloop
   endfacet
   facet normal -2.588191e-01 0.000000e+00 9.659258e-01
      outer loop
         vertex 1.171010e+01 2.500000e+01 -1.969846e+01
         vertex 1.086824e+01 2.500000e+01 -1.992404e+01
         vertex 1.086824e+01 3.619671e-312 -1.992404e+01
      endloop
   endfacet
   facet normal 2.588191e-01 0.000000e+00 9.659258e-01
      outer loop
         vertex -1.086824e+01 2.500000e+01 -1.992404e+01
         vertex -1.171010e+01 2.500000e+01 -1.969846e+01
         vertex -1.171010e+01 3.619671e-312 -1.969846e+01
      endloop
   endfacet
   facet normal 4.226183e-01 0.000000e+00 9.063077e-01
      outer loop
         vertex -1.171010e+01 2.500000e+01 -1.969846e+01
         vertex -1.250000e+01 3.619671e-312 -1.933013e+01
         vertex -1.171010e+01 3.619671e-312 -1.969846e+01
      endloop
   endfacet
   facet normal -4.226183e-01 0.000000e+00 9.063077e-01
      outer loop
         vertex 1.250000e+01 3.619671e-312 -1.933013e+01
         vertex 1.250000e+01 2.500000e+01 -1.933013e+01
         vertex 1.171010e+01 3.619671e-312 -1.969846e+01
      endloop
   endfacet
   facet normal -4.226183e-01 0.000000e+00 9.063077e-01
      outer loop
         vertex 1.250000e+01 2.500000e+01 -1.933013e+01
         vertex 1.171010e+01 2.500000e+01 -1.969846e+01
         vertex 1.171010e+01 3.619671e-312 -1.969846e+01
      endloop
   endfacet
   facet normal 4.226183e-01 0.000000e+00 9.063077e-01
      outer loop
         vertex -1.171010e+01 2.500000e+01 -1.969846e+01
         vertex -1.250000e+01 2.500000e+01 -1.933013e+01
         vertex -1.250000e+01 3.619671e-312 -1.933013e+01
      endloop
   endfacet
   facet normal 5.735760e-01 0.000000e+00 8.191523e-01
      outer loop
         vertex -1.250000e+01 2.500000e+01 -1.933013e+01
         vertex -1.321394e+01 3.619671e-312 -1.883022e+01
         vertex -1.250000e+01 3.619671e-312 -1.933013e+01
      endloop
   endfacet
   facet normal -5.735760e-01 0.000000e+00 8.191523e-01
      outer loop
         vertex 1.321394e+01 3.619671e-312 -1.883022e+01
         vertex 1.321394e+01 2.500000e+01 -1.883022e+01
         vertex 1.250000e+01 3.619671e-312 -1.933013e+01
      endloop
   endfacet
   facet normal -5.735760e-01 0.000000e+00 8.191523e-01
      outer loop
         vertex 1.321394e+01 2.500000e+01 -1.883022e+01
         vertex 1.250000e+01 2.500000e+01 -1.933013e+01
         vertex 1.250000e+01 3.619671e-312 -1.933013e+01
      endloop
   endfacet
   facet normal 5.735760e-01 0.000000e+00 8.191523e-01
      outer loop
         vertex -1.250000e+01 2.500000e+01 -1.933013e+01
         vertex -1.321394e+01 2.500000e+01 -1.883022e+01
         vertex -1.321394e+01 3.619671e-312 -1.883022e+01
      endloop
   endfacet
   facet normal 7.071068e-01 0.000000e+00 7.071068e-01
      outer loop
         vertex -1.321394e+01 2.500000e+01 -1.883022e+01
         vertex -1.383022e+01 3.619671e-312 -1.821394e+01
         vertex -1.321394e+01 3.619671e-312 -1.883022e+01
      endloop
   endfacet
   facet normal -7.071068e-01 0.000000e+00 7.071068e-01
      outer loop
         vertex 1.383022e+01 3.619671e-312 -1.821394e+01
         vertex 1.383022e+01 2.500000e+01 -1.821394e+01
         vertex 1.321394e+01 3.619671e-312 -1.883022e+01
      endloop
   endfacet
   facet normal -7.071068e-01 0.000000e+00 7.071068e-01
      outer loop
         vertex 1.383022e+01 2.500000e+01 -1.821394e+01
         vertex 1.321394e+01 2.500000e+01 -1.883022e+01
         vertex 1.321394e+01 3.619671e-312 -1.883022e+01
      endloop
   endfacet
   facet normal 7.071068e-01 0.000000e+00 7.071068e-01
      outer loop
         vertex -1.321394e+01 2.500000e+01 -1.883022e+01
         vertex -1.383022e+01 2.500000e+01 -1.821394e+01
         vertex -1.383022e+01 3.619671e-312 -1.821394e+01
      endloop
   endfacet
   facet normal 8.191522e-01 0.000000e+00 5.735762e-01
      outer loop
         vertex -1.383022e+01 2.500000e+01 -1.821394e+01
         vertex -1.433013e+01 3.619671e-312 -1.750000e+01
         vertex -1.383022e+01 3.619671e-312 -1.821394e+01
      endloop
   endfacet
   facet normal -8.191522e-01 0.000000e+00 5.735762e-01
      outer loop
         vertex 1.433013e+01 3.619671e-312 -1.750000e+01
         vertex 1.433013e+01 2.500000e+01 -1.750000e+01
         vertex 1.383022e+01 3.619671e-312 -1.821394e+01
      endloop
   endfacet
   facet normal -8.191522e-01 0.000000e+00 5.735762e-01
      outer loop
         vertex 1.433013e+01 2.500000e+01 -1.750000e+01
         vertex 1.383022e+01 2.500000e+01 -1.821394e+01
         vertex 1.383022e+01 3.619671e-312 -1.821394e+01
      endloop
   endfacet
   facet normal 8.191522e-01 0.000000e+00 5.735762e-01
      outer loop
         vertex -1.383022e+01 2.500000e+01 -1.821394e+01
         vertex -1.433013e+01 2.500000e+01 -1.750000e+01
         vertex -1.433013e+01 3.619671e-312 -1.750000e+01
      endloop
   endfacet
   facet normal 9.063077e-01 0.000000e+00 4.226183e-01
      outer loop
         vertex -1.433013e+01 2.500000e+01 -1.750000e+01
         vertex -1.469846e+01 3.619671e-312 -1.671010e+01
         vertex -1.433013e+01 3.619671e-312 -1.750000e+01
      endloop
   endfacet
   facet normal -9.063077e-01 0.000000e+00 4.226183e-01
      outer loop
         vertex 1.469846e+01 3.619671e-312 -1.671010e+01
         vertex 1.469846e+01 2.500000e+01 -1.671010e+01
         vertex 1.433013e+01 3.619671e-312 -1.750000e+01
      endloop
   endfacet
   facet normal -9.063077e-01 0.000000e+00 4.226183e-01
      outer loop
         vertex 1.469846e+01 2.500000e+01 -1.671010e+01
         vertex 1.433013e+01 2.500000e+01 -1.750000e+01
         vertex 1.433013e+01 3.619671e-312 -1.750000e+01
      endloop
   endfacet
   facet normal 9.063077e-01 0.000000e+00 4.226183e-01
      outer loop
         vertex -1.433013e+01 2.500000e+01 -1.750000e+01
         vertex -1.469846e+01 2.500000e+01 -1.671010e+01
         vertex -1.469846e+01 3.619671e-312 -1.671010e+01
      endloop
   endfacet
   facet normal 9.659258e-01 0.000000e+00 2.588191e-01
      outer loop
         vertex -1.469846e+01 2.500000e+01 -1.671010e+01
         vertex -1.492404e+01 3.619671e-312 -1.586824e+01
         vertex -1.469846e+01 3.619671e-312 -1.671010e+01
      endloop
   endfacet
   facet normal -9.659258e-01 0.000000e+00 2.588191e-01
      outer loop
         vertex 1.492404e+01 3.619671e-312 -1.586824e+01
         vertex 1.492404e+01 2.500000e+01 -1.586824e+01
         vertex 1.469846e+01 3.619671e-312 -1.671010e+01
      endloop
   endfacet
   facet normal -9.659258e-01 0.000000e+00 2.588191e-01
      outer loop
         vertex 1.492404e+01 2.500000e+01 -1.586824e+01
         vertex 1.469846e+01 2.500000e+01 -1.671010e+01
         vertex 1.469846e+01 3.619671e-312 -1.671010e+01
      endloop
   endfacet
   facet normal 9.659258e-01 0.000000e+00 2.588191e-01
      outer loop
         vertex -1.469846e+01 2.500000e+01 -1.671010e+01
         vertex -1.492404e+01 2.500000e+01 -1.586824e+01
         vertex -1.492404e+01 3.619671e-312 -1.586824e+01
      endloop
   endfacet
   facet normal 9.961948e-01 0.000000e+00 8.715490e-02
      outer loop
         vertex -1.492404e+01 2.500000e+01 -1.586824e+01
         vertex -1.500000e+01 3.619671e-312 -1.500000e+01
         vertex -1.492404e+01 3.619671e-312 -1.586824e+01
      endloop
   endfacet
   facet normal -9.961948e-01 0.000000e+00 8.715490e-02
      outer loop
         vertex 1.500000e+01 3.619671e-312 -1.500000e+01
         vertex 1.500000e+01 2.500000e+01 -1.500000e+01
         vertex 1.492404e+01 3.619671e-312 -1.586824e+01
      endloop
   endfacet
   facet normal -9.961948e-01 0.000000e+00 8.715490e-02
      outer loop
         vertex 1.500000e+01 2.500000e+01 -1.500000e+01
         vertex 1.492404e+01 2.500000e+01 -1.586824e+01
         vertex 1.492404e+01 3.619671e-312 -1.586824e+01
      endloop
   endfacet
   facet normal 1.000000e+00 0.000000e+00 -0.000000e+00
      outer loop
         vertex -1.500000e+01 2.500000e+01 -1.500000e+01
         vertex -1.500000e+01 2.500000e+01 4.000000e+01
         vertex -1.500000e+01 3.619671e-312 -1.500000e+01
      endloop
   endfacet
   facet normal 1.000000e+00 0.000000e+00 0.000000e+00
      outer loop
         vertex -1.500000e+01 2.500000e+01 4.000000e+01
         vertex -1.500000e+01 3.619671e-312 4.000000e+01
         vertex -1.500000e+01 3.619671e-312 -1.500000e+01
      endloop
   endfacet
   facet normal 9.961948e-01 0.000000e+00 8.715490e-02
      outer loop
         vertex -1.492404e+01 2.500000e+01 -1.586824e+01
         vertex -1.500000e+01 2.500000e+01 -1.500000e+01
         vertex -1.500000e+01 3.619671e-312 -1.500000e+01
      endloop
   endfacet
   facet normal -1.000000e+00 0.000000e+00 -0.000000e+00
      outer loop
         vertex 1.500000e+01 6.938894e-15 4.000000e+01
         vertex 1.500000e+01 2.500000e+01 -1.500000e+01
         vertex 1.500000e+01 3.619671e-312 -1.500000e+01
      endloop
   endfacet
   facet normal -8.715605e-02 0.000000e+00 9.961947e-01
      outer loop
         vertex -2.663176e+01 2.500000e+01 1.507596e+01
         vertex -2.750000e+01 2.500000e+01 1.500000e+01
         vertex -2.750000e+01 3.619671e-312 1.500000e+01
      endloop
   endfacet
   facet normal -8.715605e-02 0.000000e+00 9.961947e-01
      outer loop
         vertex -2.663176e+01 3.619671e-312 1.507596e+01
         vertex -2.663176e+01 2.500000e+01 1.507596e+01
         vertex -2.750000e+01 3.619671e-312 1.500000e+01
      endloop
   endfacet
   facet normal 8.715605e-02 0.000000e+00 9.961947e-01
      outer loop
         vertex -2.750000e+01 2.500000e+01 1.500000e+01
         vertex -2.836824e+01 3.619671e-312 1.507596e+01
         vertex -2.750000e+01 3.619671e-312 1.500000e+01
      endloop
   endfacet
   facet normal -8.715605e-02 0.000000e+00 9.961947e-01
      outer loop
         vertex 2.836824e+01 2.500000e+01 1.507596e+01
         vertex 2.750000e+01 2.500000e+01 1.500000e+01
         vertex 2.750000e+01 3.619671e-312 1.500000e+01
      endloop
   endfacet
   facet normal -8.715605e-02 0.000000e+00 9.961947e-01
      outer loop
         vertex 2.836824e+01 3.619671e-312 1.507596e+01
         vertex 2.836824e+01 2.500000e+01 1.507596e+01
         vertex 2.750000e+01 3.619671e-312 1.500000e+01
      endloop
   endfacet
   facet normal 8.715605e-02 0.000000e+00 9.961947e-01
      outer loop
         vertex 2.750000e+01 2.500000e+01 1.500000e+01
         vertex 2.663176e+01 3.619671e-312 1.507596e+01
         vertex 2.750000e+01 3.619671e-312 1.500000e+01
      endloop
   endfacet
   facet normal 2.588191e-01 0.000000e+00 9.659258e-01
      outer loop
         vertex -2.836824e+01 2.500000e+01 1.507596e+01
         vertex -2.921010e+01 3.619671e-312 1.530154e+01
         vertex -2.836824e+01 3.619671e-312 1.507596e+01
      endloop
   endfacet
   facet normal 8.715605e-02 0.000000e+00 9.961947e-01
      outer loop
         vertex -2.750000e+01 2.500000e+01 1.500000e+01
         vertex -2.836824e+01 2.500000e+01 1.507596e+01
         vertex -2.836824e+01 3.619671e-312 1.507596e+01
      endloop
   endfacet
   facet normal -2.588191e-01 0.000000e+00 9.659258e-01
      outer loop
         vertex -2.578990e+01 2.500000e+01 1.530154e+01
         vertex -2.663176e+01 2.500000e+01 1.507596e+01
         vertex -2.663176e+01 3.619671e-312 1.507596e+01
      endloop
   endfacet
   facet normal -2.588191e-01 0.000000e+00 9.659258e-01
      outer loop
         vertex -2.578990e+01 3.619671e-312 1.530154e+01
         vertex -2.578990e+01 2.500000e+01 1.530154e+01
         vertex -2.663176e+01 3.619671e-312 1.507596e+01
      endloop
   endfacet
   facet normal 2.588191e-01 0.000000e+00 9.659258e-01
      outer loop
         vertex 2.663176e+01 2.500000e+01 1.507596e+01
         vertex 2.578990e+01 3.619671e-312 1.530154e+01
         vertex 2.663176e+01 3.619671e-312 1.507596e+01
      endloop
   endfacet
   facet normal 8.715605e-02 0.000000e+00 9.961947e-01
      outer loop
         vertex 2.750000e+01 2.500000e+01 1.500000e+01
         vertex 2.663176e+01 2.500000e+01 1.507596e+01
         vertex 2.663176e+01 3.619671e-312 1.507596e+01
      endloop
   endfacet
   facet normal -2.588191e-01 0.000000e+00 9.659258e-01
      outer loop
         vertex 2.921010e+01 2.500000e+01 1.530154e+01
         vertex 2.836824e+01 2.500000e+01 1.507596e+01
         vertex 2.836824e+01 3.619671e-312 1.507596e+01
      endloop
   endfacet
   facet normal -2.588191e-01 0.000000e+00 9.659258e-01
      outer loop
         vertex 2.921010e+01 3.619671e-312 1.530154e+01
         vertex 2.921010e+01 2.500000e+01 1.530154e+01
         vertex 2.836824e+01 3.619671e-312 1.507596e+01
      endloop
   endfacet
   facet normal 4.226183e-01 0.000000e+00 9.063077e-01
      outer loop
         vertex -2.921010e+01 2.500000e+01 1.530154e+01
         vertex -3.000000e+01 3.619671e-312 1.566987e+01
         vertex -2.921010e+01 3.619671e-312 1.530154e+01
      endloop
   endfacet
   facet normal 2.588191e-01 0.000000e+00 9.659258e-01
      outer loop
         vertex -2.836824e+01 2.500000e+01 1.507596e+01
         vertex -2.921010e+01 2.500000e+01 1.530154e+01
         vertex -2.921010e+01 3.619671e-312 1.530154e+01
      endloop
   endfacet
   facet normal -4.226183e-01 0.000000e+00 9.063077e-01
      outer loop
         vertex -2.500000e+01 2.500000e+01 1.566987e+01
         vertex -2.578990e+01 2.500000e+01 1.530154e+01
         vertex -2.578990e+01 3.619671e-312 1.530154e+01
      endloop
   endfacet
   facet normal -4.226183e-01 0.000000e+00 9.063077e-01
      outer loop
         vertex -2.500000e+01 3.619671e-312 1.566987e+01
         vertex -2.500000e+01 2.500000e+01 1.566987e+01
         vertex -2.578990e+01 3.619671e-312 1.530154e+01
      endloop
   endfacet
   facet normal 4.226183e-01 0.000000e+00 9.063077e-01
      outer loop
         vertex 2.578990e+01 2.500000e+01 1.530154e+01
         vertex 2.500000e+01 3.619671e-312 1.566987e+01
         vertex 2.578990e+01 3.619671e-312 1.530154e+01
      endloop
   endfacet
   facet normal 2.588191e-01 0.000000e+00 9.659258e-01
      outer loop
         vertex 2.663176e+01 2.500000e+01 1.507596e+01
         vertex 2.578990e+01 2.500000e+01 1.530154e+01
         vertex 2.578990e+01 3.619671e-312 1.530154e+01
      endloop
   endfacet
   facet normal -4.226183e-01 0.000000e+00 9.063077e-01
      outer loop
         vertex 3.000000e+01 2.500000e+01 1.566987e+01
         vertex 2.921010e+01 2.500000e+01 1.530154e+01
         vertex 2.921010e+01 3.619671e-312 1.530154e+01
      endloop
   endfacet
   facet normal -4.226183e-01 0.000000e+00 9.063077e-01
      outer loop
         vertex 3.000000e+01 3.619671e-312 1.566987e+01
         vertex 3.000000e+01 2.500000e+01 1.566987e+01
         vertex 2.921010e+01 3.619671e-312 1.530154e+01
      endloop
   endfacet
   facet normal 5.735755e-01 0.000000e+00 8.191527e-01
      outer loop
         vertex -3.000000e+01 2.500000e+01 1.566987e+01
         vertex -3.071394e+01 3.619671e-312 1.616978e+01
         vertex -3.000000e+01 3.619671e-312 1.566987e+01
      endloop
   endfacet
   facet normal 4.226183e-01 0.000000e+00 9.063077e-01
      outer loop
         vertex -2.921010e+01 2.500000e+01 1.530154e+01
         vertex -3.000000e+01 2.500000e+01 1.566987e+01
         vertex -3.000000e+01 3.619671e-312 1.566987e+01
      endloop
   endfacet
   facet normal -5.735755e-01 0.000000e+00 8.191527e-01
      outer loop
         vertex -2.428606e+01 2.500000e+01 1.616978e+01
         vertex -2.500000e+01 2.500000e+01 1.566987e+01
         vertex -2.500000e+01 3.619671e-312 1.566987e+01
      endloop
   endfacet
   facet normal -5.735755e-01 0.000000e+00 8.191527e-01
      outer loop
         vertex -2.428606e+01 3.619671e-312 1.616978e+01
         vertex -2.428606e+01 2.500000e+01 1.616978e+01
         vertex -2.500000e+01 3.619671e-312 1.566987e+01
      endloop
   endfacet
   facet normal 5.735755e-01 0.000000e+00 8.191527e-01
      outer loop
         vertex 2.500000e+01 2.500000e+01 1.566987e+01
         vertex 2.428606e+01 3.619671e-312 1.616978e+01
         vertex 2.500000e+01 3.619671e-312 1.566987e+01
      endloop
   endfacet
   facet normal 4.226183e-01 0.000000e+00 9.063077e-01
      outer loop
         vertex 2.578990e+01 2.500000e+01 1.530154e+01
         vertex 2.500000e+01 2.500000e+01 1.566987e+01
         vertex 2.500000e+01 3.619671e-312 1.566987e+01
      endloop
   endfacet
   facet normal -5.735755e-01 0.000000e+00 8.191527e-01
      outer loop
         vertex 3.071394e+01 2.500000e+01 1.616978e+01
         vertex 3.000000e+01 2.500000e+01 1.566987e+01
         vertex 3.000000e+01 3.619671e-312 1.566987e+01
      endloop
   endfacet
   facet normal -5.735755e-01 0.000000e+00 8.191527e-01
      outer loop
         vertex 3.071394e+01 3.619671e-312 1.616978e+01
         vertex 3.071394e+01 2.500000e+01 1.616978e+01
         vertex 3.000000e+01 3.619671e-312 1.566987e+01
      endloop
   endfacet
   facet normal 7.071078e-01 0.000000e+00 7.071057e-01
      outer loop
         vertex -3.071394e+01 2.500000e+01 1.616978e+01
         vertex -3.133022e+01 3.619671e-312 1.678606e+01
         vertex -3.071394e+01 3.619671e-312 1.616978e+01
      endloop
   endfacet
   facet normal 5.735755e-01 0.000000e+00 8.191527e-01
      outer loop
         vertex -3.000000e+01 2.500000e+01 1.566987e+01
         vertex -3.071394e+01 2.500000e+01 1.616978e+01
         vertex -3.071394e+01 3.619671e-312 1.616978e+01
      endloop
   endfacet
   facet normal -7.071068e-01 0.000000e+00 7.071068e-01
      outer loop
         vertex -2.366978e+01 2.500000e+01 1.678606e+01
         vertex -2.428606e+01 2.500000e+01 1.616978e+01
         vertex -2.428606e+01 3.619671e-312 1.616978e+01
      endloop
   endfacet
   facet normal -7.071068e-01 0.000000e+00 7.071068e-01
      outer loop
         vertex -2.366978e+01 3.619671e-312 1.678606e+01
         vertex -2.366978e+01 2.500000e+01 1.678606e+01
         vertex -2.428606e+01 3.619671e-312 1.616978e+01
      endloop
   endfacet
   facet normal 7.071068e-01 0.000000e+00 7.071068e-01
      outer loop
         vertex 2.428606e+01 2.500000e+01 1.616978e+01
         vertex 2.366978e+01 3.619671e-312 1.678606e+01
         vertex 2.428606e+01 3.619671e-312 1.616978e+01
      endloop
   endfacet
   facet normal 5.735755e-01 0.000000e+00 8.191527e-01
      outer loop
         vertex 2.500000e+01 2.500000e+01 1.566987e+01
         vertex 2.428606e+01 2.500000e+01 1.616978e+01
         vertex 2.428606e+01 3.619671e-312 1.616978e+01
      endloop
   endfacet
   facet normal -7.071078e-01 0.000000e+00 7.071057e-01
      outer loop
         vertex 3.133022e+01 2.500000e+01 1.678606e+01
         vertex 3.071394e+01 2.500000e+01 1.616978e+01
         vertex 3.071394e+01 3.619671e-312 1.616978e+01
      endloop
   endfacet
   facet normal -7.071078e-01 0.000000e+00 7.071057e-01
      outer loop
         vertex 3.133022e+01 3.619671e-312 1.678606e+01
         vertex 3.133022e+01 2.500000e+01 1.678606e+01
         vertex 3.071394e+01 3.619671e-312 1.616978e+01
      endloop
   endfacet
   facet normal 8.191507e-01 0.000000e+00 5.735784e-01
      outer loop
         vertex -3.133022e+01 2.500000e+01 1.678606e+01
         vertex -3.183013e+01 3.619671e-312 1.750000e+01
         vertex -3.133022e+01 3.619671e-312 1.678606e+01
      endloop
   endfacet
   facet normal 7.071078e-01 0.000000e+00 7.071057e-01
      outer loop
         vertex -3.071394e+01 2.500000e+01 1.616978e+01
         vertex -3.133022e+01 2.500000e+01 1.678606e+01
         vertex -3.133022e+01 3.619671e-312 1.678606e+01
      endloop
   endfacet
   facet normal -8.191527e-01 0.000000e+00 5.735755e-01
      outer loop
         vertex -2.316987e+01 2.500000e+01 1.750000e+01
         vertex -2.366978e+01 2.500000e+01 1.678606e+01
         vertex -2.366978e+01 3.619671e-312 1.678606e+01
      endloop
   endfacet
   facet normal -8.191527e-01 0.000000e+00 5.735755e-01
      outer loop
         vertex -2.316987e+01 3.619671e-312 1.750000e+01
         vertex -2.316987e+01 2.500000e+01 1.750000e+01
         vertex -2.366978e+01 3.619671e-312 1.678606e+01
      endloop
   endfacet
   facet normal 8.191527e-01 0.000000e+00 5.735755e-01
      outer loop
         vertex 2.366978e+01 2.500000e+01 1.678606e+01
         vertex 2.316987e+01 3.619671e-312 1.750000e+01
         vertex 2.366978e+01 3.619671e-312 1.678606e+01
      endloop
   endfacet
   facet normal 7.071068e-01 0.000000e+00 7.071068e-01
      outer loop
         vertex 2.428606e+01 2.500000e+01 1.616978e+01
         vertex 2.366978e+01 2.500000e+01 1.678606e+01
         vertex 2.366978e+01 3.619671e-312 1.678606e+01
      endloop
   endfacet
   facet normal -8.191507e-01 0.000000e+00 5.735784e-01
      outer loop
         vertex 3.183013e+01 2.500000e+01 1.750000e+01
         vertex 3.133022e+01 2.500000e+01 1.678606e+01
         vertex 3.133022e+01 3.619671e-312 1.678606e+01
      endloop
   endfacet
   facet normal -8.191507e-01 0.000000e+00 5.735784e-01
      outer loop
         vertex 3.183013e+01 3.619671e-312 1.750000e+01
         vertex 3.183013e+01 2.500000e+01 1.750000e+01
         vertex 3.133022e+01 3.619671e-312 1.678606e+01
      endloop
   endfacet
   facet normal 9.063086e-01 0.000000e+00 4.226166e-01
      outer loop
         vertex -3.183013e+01 2.500000e+01 1.750000e+01
         vertex -3.219846e+01 3.619671e-312 1.828990e+01
         vertex -3.183013e+01 3.619671e-312 1.750000e+01
      endloop
   endfacet
   facet normal 8.191507e-01 0.000000e+00 5.735784e-01
      outer loop
         vertex -3.133022e+01 2.500000e+01 1.678606e+01
         vertex -3.183013e+01 2.500000e+01 1.750000e+01
         vertex -3.183013e+01 3.619671e-312 1.750000e+01
      endloop
   endfacet
   facet normal -9.063077e-01 0.000000e+00 4.226183e-01
      outer loop
         vertex -2.280154e+01 2.500000e+01 1.828990e+01
         vertex -2.316987e+01 2.500000e+01 1.750000e+01
         vertex -2.316987e+01 3.619671e-312 1.750000e+01
      endloop
   endfacet
   facet normal -9.063077e-01 0.000000e+00 4.226183e-01
      outer loop
         vertex -2.280154e+01 3.619671e-312 1.828990e+01
         vertex -2.280154e+01 2.500000e+01 1.828990e+01
         vertex -2.316987e+01 3.619671e-312 1.750000e+01
      endloop
   endfacet
   facet normal 9.063077e-01 0.000000e+00 4.226183e-01
      outer loop
         vertex 2.316987e+01 2.500000e+01 1.750000e+01
         vertex 2.280154e+01 3.619671e-312 1.828990e+01
         vertex 2.316987e+01 3.619671e-312 1.750000e+01
      endloop
   endfacet
   facet normal 8.191527e-01 0.000000e+00 5.735755e-01
      outer loop
         vertex 2.366978e+01 2.500000e+01 1.678606e+01
         vertex 2.316987e+01 2.500000e+01 1.750000e+01
         vertex 2.316987e+01 3.619671e-312 1.750000e+01
      endloop
   endfacet
   facet normal -9.063086e-01 0.000000e+00 4.226166e-01
      outer loop
         vertex 3.219846e+01 2.500000e+01 1.828990e+01
         vertex 3.183013e+01 2.500000e+01 1.750000e+01
         vertex 3.183013e+01 3.619671e-312 1.750000e+01
      endloop
   endfacet
   facet normal -9.063086e-01 0.000000e+00 4.226166e-01
      outer loop
         vertex 3.219846e+01 3.619671e-312 1.828990e+01
         vertex 3.219846e+01 2.500000e+01 1.828990e+01
         vertex 3.183013e+01 3.619671e-312 1.750000e+01
      endloop
   endfacet
   facet normal 9.659253e-01 0.000000e+00 2.588210e-01
      outer loop
         vertex -3.219846e+01 2.500000e+01 1.828990e+01
         vertex -3.242404e+01 3.619671e-312 1.913176e+01
         vertex -3.219846e+01 3.619671e-312 1.828990e+01
      endloop
   endfacet
   facet normal 9.063086e-01 0.000000e+00 4.226166e-01
      outer loop
         vertex -3.183013e+01 2.500000e+01 1.750000e+01
         vertex -3.219846e+01 2.500000e+01 1.828990e+01
         vertex -3.219846e+01 3.619671e-312 1.828990e+01
      endloop
   endfacet
   facet normal -9.659258e-01 0.000000e+00 2.588191e-01
      outer loop
         vertex -2.257596e+01 2.500000e+01 1.913176e+01
         vertex -2.280154e+01 2.500000e+01 1.828990e+01
         vertex -2.280154e+01 3.619671e-312 1.828990e+01
      endloop
   endfacet
   facet normal -9.659258e-01 0.000000e+00 2.588191e-01
      outer loop
         vertex -2.257596e+01 3.619671e-312 1.913176e+01
         vertex -2.257596e+01 2.500000e+01 1.913176e+01
         vertex -2.280154e+01 3.619671e-312 1.828990e+01
      endloop
   endfacet
   facet normal 9.659258e-01 0.000000e+00 2.588191e-01
      outer loop
         vertex 2.280154e+01 2.500000e+01 1.828990e+01
         vertex 2.257596e+01 3.619671e-312 1.913176e+01
         vertex 2.280154e+01 3.619671e-312 1.828990e+01
      endloop
   endfacet
   facet normal 9.063077e-01 0.000000e+00 4.226183e-01
      outer loop
         vertex 2.316987e+01 2.500000e+01 1.750000e+01
         vertex 2.280154e+01 2.500000e+01 1.828990e+01
         vertex 2.280154e+01 3.619671e-312 1.828990e+01
      endloop
   endfacet
   facet normal -9.659253e-01 0.000000e+00 2.588210e-01
      outer loop
         vertex 3.242404e+01 2.500000e+01 1.913176e+01
         vertex 3.219846e+01 2.500000e+01 1.828990e+01
         vertex 3.219846e+01 3.619671e-312 1.828990e+01
      endloop
   endfacet
   facet normal -9.659253e-01 0.000000e+00 2.588210e-01
      outer loop
         vertex 3.242404e+01 3.619671e-312 1.913176e+01
         vertex 3.242404e+01 2.500000e+01 1.913176e+01
         vertex 3.219846e+01 3.619671e-312 1.828990e+01
      endloop
   endfacet
   facet normal 9.961949e-01 0.000000e+00 8.715287e-02
      outer loop
         vertex -3.242404e+01 2.500000e+01 1.913176e+01
         vertex -3.250000e+01 3.619671e-312 2.000000e+01
         vertex -3.242404e+01 3.619671e-312 1.913176e+01
      endloop
   endfacet
   facet normal 9.659253e-01 0.000000e+00 2.588210e-01
      outer loop
         vertex -3.219846e+01 2.500000e+01 1.828990e+01
         vertex -3.242404e+01 2.500000e+01 1.913176e+01
         vertex -3.242404e+01 3.619671e-312 1.913176e+01
      endloop
   endfacet
   facet normal -9.961948e-01 0.000000e+00 8.715499e-02
      outer loop
         vertex -2.250000e+01 2.500000e+01 2.000000e+01
         vertex -2.257596e+01 2.500000e+01 1.913176e+01
         vertex -2.257596e+01 3.619671e-312 1.913176e+01
      endloop
   endfacet
   facet normal -9.961948e-01 0.000000e+00 8.715499e-02
      outer loop
         vertex -2.250000e+01 3.619671e-312 2.000000e+01
         vertex -2.250000e+01 2.500000e+01 2.000000e+01
         vertex -2.257596e+01 3.619671e-312 1.913176e+01
      endloop
   endfacet
   facet normal 9.961948e-01 0.000000e+00 8.715499e-02
      outer loop
         vertex 2.257596e+01 2.500000e+01 1.913176e+01
         vertex 2.250000e+01 3.619671e-312 2.000000e+01
         vertex 2.257596e+01 3.619671e-312 1.913176e+01
      endloop
   endfacet
   facet normal 9.659258e-01 0.000000e+00 2.588191e-01
      outer loop
         vertex 2.280154e+01 2.500000e+01 1.828990e+01
         vertex 2.257596e+01 2.500000e+01 1.913176e+01
         vertex 2.257596e+01 3.619671e-312 1.913176e+01
      endloop
   endfacet
   facet normal -9.961949e-01 0.000000e+00 8.715287e-02
      outer loop
         vertex 3.250000e+01 2.500000e+01 2.000000e+01
         vertex 3.242404e+01 2.500000e+01 1.913176e+01
         vertex 3.242404e+01 3.619671e-312 1.913176e+01
      endloop
   endfacet
   facet normal -9.961949e-01 0.000000e+00 8.715287e-02
      outer loop
         vertex 3.250000e+01 3.619671e-312 2.000000e+01
         vertex 3.250000e+01 2.500000e+01 2.000000e+01
         vertex 3.242404e+01 3.619671e-312 1.913176e+01
      endloop
   endfacet
   facet normal 9.961950e-01 0.000000e+00 -8.715269e-02
      outer loop
         vertex -3.250000e+01 2.500000e+01 2.000000e+01
         vertex -3.242404e+01 3.619671e-312 2.086824e+01
         vertex -3.250000e+01 3.619671e-312 2.000000e+01
      endloop
   endfacet
   facet normal 9.961949e-01 0.000000e+00 8.715287e-02
      outer loop
         vertex -3.242404e+01 2.500000e+01 1.913176e+01
         vertex -3.250000e+01 2.500000e+01 2.000000e+01
         vertex -3.250000e+01 3.619671e-312 2.000000e+01
      endloop
   endfacet
   facet normal -9.961948e-01 0.000000e+00 -8.715481e-02
      outer loop
         vertex -2.257596e+01 2.500000e+01 2.086824e+01
         vertex -2.250000e+01 2.500000e+01 2.000000e+01
         vertex -2.250000e+01 3.619671e-312 2.000000e+01
      endloop
   endfacet
   facet normal -9.961948e-01 0.000000e+00 -8.715481e-02
      outer loop
         vertex -2.257596e+01 3.619671e-312 2.086824e+01
         vertex -2.257596e+01 2.500000e+01 2.086824e+01
         vertex -2.250000e+01 3.619671e-312 2.000000e+01
      endloop
   endfacet
   facet normal 9.961948e-01 0.000000e+00 -8.715481e-02
      outer loop
         vertex 2.250000e+01 2.500000e+01 2.000000e+01
         vertex 2.257596e+01 3.619671e-312 2.086824e+01
         vertex 2.250000e+01 3.619671e-312 2.000000e+01
      endloop
   endfacet
   facet normal 9.961948e-01 0.000000e+00 8.715499e-02
      outer loop
         vertex 2.257596e+01 2.500000e+01 1.913176e+01
         vertex 2.250000e+01 2.500000e+01 2.000000e+01
         vertex 2.250000e+01 3.619671e-312 2.000000e+01
      endloop
   endfacet
   facet normal -9.961950e-01 0.000000e+00 -8.715269e-02
      outer loop
         vertex 3.242404e+01 2.500000e+01 2.086824e+01
         vertex 3.250000e+01 2.500000e+01 2.000000e+01
         vertex 3.250000e+01 3.619671e-312 2.000000e+01
      endloop
   endfacet
   facet normal -9.961950e-01 0.000000e+00 -8.715269e-02
      outer loop
         vertex 3.242404e+01 3.619671e-312 2.086824e+01
         vertex 3.242404e+01 2.500000e+01 2.086824e+01
         vertex 3.250000e+01 3.619671e-312 2.000000e+01
      endloop
   endfacet
   facet normal 9.659253e-01 0.000000e+00 -2.588210e-01
      outer loop
         vertex -3.242404e+01 2.500000e+01 2.086824e+01
         vertex -3.219846e+01 3.619671e-312 2.171010e+01
         vertex -3.242404e+01 3.619671e-312 2.086824e+01
      endloop
   endfacet
   facet normal 9.961950e-01 0.000000e+00 -8.715269e-02
      outer loop
         vertex -3.250000e+01 2.500000e+01 2.000000e+01
         vertex -3.242404e+01 2.500000e+01 2.086824e+01
         vertex -3.242404e+01 3.619671e-312 2.086824e+01
      endloop
   endfacet
   facet normal -9.659258e-01 0.000000e+00 -2.588191e-01
      outer loop
         vertex -2.280154e+01 2.500000e+01 2.171010e+01
         vertex -2.257596e+01 2.500000e+01 2.086824e+01
         vertex -2.257596e+01 3.619671e-312 2.086824e+01
      endloop
   endfacet
   facet normal -9.659258e-01 0.000000e+00 -2.588191e-01
      outer loop
         vertex -2.280154e+01 3.619671e-312 2.171010e+01
         vertex -2.280154e+01 2.500000e+01 2.171010e+01
         vertex -2.257596e+01 3.619671e-312 2.086824e+01
      endloop
   endfacet
   facet normal 9.659258e-01 0.000000e+00 -2.588191e-01
      outer loop
         vertex 2.257596e+01 2.500000e+01 2.086824e+01
         vertex 2.280154e+01 3.619671e-312 2.171010e+01
         vertex 2.257596e+01 3.619671e-312 2.086824e+01
      endloop
   endfacet
   facet normal 9.961948e-01 0.000000e+00 -8.715481e-02
      outer loop
         vertex 2.250000e+01 2.500000e+01 2.000000e+01
         vertex 2.257596e+01 2.500000e+01 2.086824e+01
         vertex 2.257596e+01 3.619671e-312 2.086824e+01
      endloop
   endfacet
   facet normal -9.659253e-01 0.000000e+00 -2.588210e-01
      outer loop
         vertex 3.219846e+01 2.500000e+01 2.171010e+01
         vertex 3.242404e+01 2.500000e+01 2.086824e+01
         vertex 3.242404e+01 3.619671e-312 2.086824e+01
      endloop
   endfacet
   facet normal -9.659253e-01 0.000000e+00 -2.588210e-01
      outer loop
         vertex 3.219846e+01 3.619671e-312 2.171010e+01
         vertex 3.219846e+01 2.500000e+01 2.171010e+01
         vertex 3.242404e+01 3.619671e-312 2.086824e+01
      endloop
   endfacet
   facet normal 9.063086e-01 0.000000e+00 -4.226166e-01
      outer loop
         vertex -3.219846e+01 2.500000e+01 2.171010e+01
         vertex -3.183013e+01 3.619671e-312 2.250000e+01
         vertex -3.219846e+01 3.619671e-312 2.171010e+01
      endloop
   endfacet
   facet normal 9.659253e-01 0.000000e+00 -2.588210e-01
      outer loop
         vertex -3.242404e+01 2.500000e+01 2.086824e+01
         vertex -3.219846e+01 2.500000e+01 2.171010e+01
         vertex -3.219846e+01 3.619671e-312 2.171010e+01
      endloop
   endfacet
   facet normal -9.063077e-01 0.000000e+00 -4.226183e-01
      outer loop
         vertex -2.316987e+01 2.500000e+01 2.250000e+01
         vertex -2.280154e+01 2.500000e+01 2.171010e+01
         vertex -2.280154e+01 3.619671e-312 2.171010e+01
      endloop
   endfacet
   facet normal -9.063077e-01 0.000000e+00 -4.226183e-01
      outer loop
         vertex -2.316987e+01 3.619671e-312 2.250000e+01
         vertex -2.316987e+01 2.500000e+01 2.250000e+01
         vertex -2.280154e+01 3.619671e-312 2.171010e+01
      endloop
   endfacet
   facet normal 9.063077e-01 0.000000e+00 -4.226183e-01
      outer loop
         vertex 2.280154e+01 2.500000e+01 2.171010e+01
         vertex 2.316987e+01 3.619671e-312 2.250000e+01
         vertex 2.280154e+01 3.619671e-312 2.171010e+01
      endloop
   endfacet
   facet normal 9.659258e-01 0.000000e+00 -2.588191e-01
      outer loop
         vertex 2.257596e+01 2.500000e+01 2.086824e+01
         vertex 2.280154e+01 2.500000e+01 2.171010e+01
         vertex 2.280154e+01 3.619671e-312 2.171010e+01
      endloop
   endfacet
   facet normal -9.063086e-01 0.000000e+00 -4.226166e-01
      outer loop
         vertex 3.183013e+01 2.500000e+01 2.250000e+01
         vertex 3.219846e+01 2.500000e+01 2.171010e+01
         vertex 3.219846e+01 3.619671e-312 2.171010e+01
      endloop
   endfacet
   facet normal -9.063086e-01 0.000000e+00 -4.226166e-01
      outer loop
         vertex 3.183013e+01 3.619671e-312 2.250000e+01
         vertex 3.183013e+01 2.500000e+01 2.250000e+01
         vertex 3.219846e+01 3.619671e-312 2.171010e+01
      endloop
   endfacet
   facet normal 8.191500e-01 0.000000e+00 -5.735794e-01
      outer loop
         vertex -3.183013e+01 2.500000e+01 2.250000e+01
         vertex -3.133022e+01 3.619671e-312 2.321394e+01
         vertex -3.183013e+01 3.619671e-312 2.250000e+01
      endloop
   endfacet
   facet normal 9.063086e-01 0.000000e+00 -4.226166e-01
      outer loop
         vertex -3.219846e+01 2.500000e+01 2.171010e+01
         vertex -3.183013e+01 2.500000e+01 2.250000e+01
         vertex -3.183013e+01 3.619671e-312 2.250000e+01
      endloop
   endfacet
   facet normal -8.191520e-01 0.000000e+00 -5.735765e-01
      outer loop
         vertex -2.366978e+01 2.500000e+01 2.321394e+01
         vertex -2.316987e+01 2.500000e+01 2.250000e+01
         vertex -2.316987e+01 3.619671e-312 2.250000e+01
      endloop
   endfacet
   facet normal -8.191520e-01 0.000000e+00 -5.735765e-01
      outer loop
         vertex -2.366978e+01 3.619671e-312 2.321394e+01
         vertex -2.366978e+01 2.500000e+01 2.321394e+01
         vertex -2.316987e+01 3.619671e-312 2.250000e+01
      endloop
   endfacet
   facet normal 8.191520e-01 0.000000e+00 -5.735765e-01
      outer loop
         vertex 2.316987e+01 2.500000e+01 2.250000e+01
         vertex 2.366978e+01 3.619671e-312 2.321394e+01
         vertex 2.316987e+01 3.619671e-312 2.250000e+01
      endloop
   endfacet
   facet normal 9.063077e-01 0.000000e+00 -4.226183e-01
      outer loop
         vertex 2.280154e+01 2.500000e+01 2.171010e+01
         vertex 2.316987e+01 2.500000e+01 2.250000e+01
         vertex 2.316987e+01 3.619671e-312 2.250000e+01
      endloop
   endfacet
   facet normal -8.191500e-01 0.000000e+00 -5.735794e-01
      outer loop
         vertex 3.133022e+01 2.500000e+01 2.321394e+01
         vertex 3.183013e+01 2.500000e+01 2.250000e+01
         vertex 3.183013e+01 3.619671e-312 2.250000e+01
      endloop
   endfacet
   facet normal -8.191500e-01 0.000000e+00 -5.735794e-01
      outer loop
         vertex 3.133022e+01 3.619671e-312 2.321394e+01
         vertex 3.133022e+01 2.500000e+01 2.321394e+01
         vertex 3.183013e+01 3.619671e-312 2.250000e+01
      endloop
   endfacet
   facet normal 7.071078e-01 0.000000e+00 -7.071057e-01
      outer loop
         vertex -3.133022e+01 2.500000e+01 2.321394e+01
         vertex -3.071394e+01 3.619671e-312 2.383022e+01
         vertex -3.133022e+01 3.619671e-312 2.321394e+01
      endloop
   endfacet
   facet normal 8.191500e-01 0.000000e+00 -5.735794e-01
      outer loop
         vertex -3.183013e+01 2.500000e+01 2.250000e+01
         vertex -3.133022e+01 2.500000e+01 2.321394e+01
         vertex -3.133022e+01 3.619671e-312 2.321394e+01
      endloop
   endfacet
   facet normal -7.071068e-01 0.000000e+00 -7.071068e-01
      outer loop
         vertex -2.428606e+01 2.500000e+01 2.383022e+01
         vertex -2.366978e+01 2.500000e+01 2.321394e+01
         vertex -2.366978e+01 3.619671e-312 2.321394e+01
      endloop
   endfacet
   facet normal -7.071068e-01 0.000000e+00 -7.071068e-01
      outer loop
         vertex -2.428606e+01 3.619671e-312 2.383022e+01
         vertex -2.428606e+01 2.500000e+01 2.383022e+01
         vertex -2.366978e+01 3.619671e-312 2.321394e+01
      endloop
   endfacet
   facet normal 7.071068e-01 0.000000e+00 -7.071068e-01
      outer loop
         vertex 2.366978e+01 2.500000e+01 2.321394e+01
         vertex 2.428606e+01 3.619671e-312 2.383022e+01
         vertex 2.366978e+01 3.619671e-312 2.321394e+01
      endloop
   endfacet
   facet normal 8.191520e-01 0.000000e+00 -5.735765e-01
      outer loop
         vertex 2.316987e+01 2.500000e+01 2.250000e+01
         vertex 2.366978e+01 2.500000e+01 2.321394e+01
         vertex 2.366978e+01 3.619671e-312 2.321394e+01
      endloop
   endfacet
   facet normal -7.071078e-01 0.000000e+00 -7.071057e-01
      outer loop
         vertex 3.071394e+01 2.500000e+01 2.383022e+01
         vertex 3.133022e+01 2.500000e+01 2.321394e+01
         vertex 3.133022e+01 3.619671e-312 2.321394e+01
      endloop
   endfacet
   facet normal -7.071078e-01 0.000000e+00 -7.071057e-01
      outer loop
         vertex 3.071394e+01 3.619671e-312 2.383022e+01
         vertex 3.071394e+01 2.500000e+01 2.383022e+01
         vertex 3.133022e+01 3.619671e-312 2.321394e+01
      endloop
   endfacet
   facet normal 5.735755e-01 0.000000e+00 -8.191527e-01
      outer loop
         vertex -3.071394e+01 2.500000e+01 2.383022e+01
         vertex -3.000000e+01 3.619671e-312 2.433013e+01
         vertex -3.071394e+01 3.619671e-312 2.383022e+01
      endloop
   endfacet
   facet normal 7.071078e-01 0.000000e+00 -7.071057e-01
      outer loop
         vertex -3.133022e+01 2.500000e+01 2.321394e+01
         vertex -3.071394e+01 2.500000e+01 2.383022e+01
         vertex -3.071394e+01 3.619671e-312 2.383022e+01
      endloop
   endfacet
   facet normal -5.735755e-01 0.000000e+00 -8.191527e-01
      outer loop
         vertex -2.500000e+01 2.500000e+01 2.433013e+01
         vertex -2.428606e+01 2.500000e+01 2.383022e+01
         vertex -2.428606e+01 3.619671e-312 2.383022e+01
      endloop
   endfacet
   facet normal -5.735755e-01 0.000000e+00 -8.191527e-01
      outer loop
         vertex -2.500000e+01 3.619671e-312 2.433013e+01
         vertex -2.500000e+01 2.500000e+01 2.433013e+01
         vertex -2.428606e+01 3.619671e-312 2.383022e+01
      endloop
   endfacet
   facet normal 5.735755e-01 0.000000e+00 -8.191527e-01
      outer loop
         vertex 2.428606e+01 2.500000e+01 2.383022e+01
         vertex 2.500000e+01 3.619671e-312 2.433013e+01
         vertex 2.428606e+01 3.619671e-312 2.383022e+01
      endloop
   endfacet
   facet normal 7.071068e-01 0.000000e+00 -7.071068e-01
      outer loop
         vertex 2.366978e+01 2.500000e+01 2.321394e+01
         vertex 2.428606e+01 2.500000e+01 2.383022e+01
         vertex 2.428606e+01 3.619671e-312 2.383022e+01
      endloop
   endfacet
   facet normal -5.735755e-01 0.000000e+00 -8.191527e-01
      outer loop
         vertex 3.000000e+01 2.500000e+01 2.433013e+01
         vertex 3.071394e+01 2.500000e+01 2.383022e+01
         vertex 3.071394e+01 3.619671e-312 2.383022e+01
      endloop
   endfacet
   facet normal -5.735755e-01 0.000000e+00 -8.191527e-01
      outer loop
         vertex 3.000000e+01 3.619671e-312 2.433013e+01
         vertex 3.000000e+01 2.500000e+01 2.433013e+01
         vertex 3.071394e+01 3.619671e-312 2.383022e+01
      endloop
   endfacet
   facet normal 4.226183e-01 0.000000e+00 -9.063077e-01
      outer loop
         vertex -3.000000e+01 2.500000e+01 2.433013e+01
         vertex -2.921010e+01 3.619671e-312 2.469846e+01
         vertex -3.000000e+01 3.619671e-312 2.433013e+01
      endloop
   endfacet
   facet normal 5.735755e-01 0.000000e+00 -8.191527e-01
      outer loop
         vertex -3.071394e+01 2.500000e+01 2.383022e+01
         vertex -3.000000e+01 2.500000e+01 2.433013e+01
         vertex -3.000000e+01 3.619671e-312 2.433013e+01
      endloop
   endfacet
   facet normal -4.226183e-01 0.000000e+00 -9.063077e-01
      outer loop
         vertex -2.578990e+01 2.500000e+01 2.469846e+01
         vertex -2.500000e+01 2.500000e+01 2.433013e+01
         vertex -2.500000e+01 3.619671e-312 2.433013e+01
      endloop
   endfacet
   facet normal -4.226183e-01 0.000000e+00 -9.063077e-01
      outer loop
         vertex -2.578990e+01 3.619671e-312 2.469846e+01
         vertex -2.578990e+01 2.500000e+01 2.469846e+01
         vertex -2.500000e+01 3.619671e-312 2.433013e+01
      endloop
   endfacet
   facet normal 4.226183e-01 0.000000e+00 -9.063077e-01
      outer loop
         vertex 2.500000e+01 2.500000e+01 2.433013e+01
         vertex 2.578990e+01 3.619671e-312 2.469846e+01
         vertex 2.500000e+01 3.619671e-312 2.433013e+01
      endloop
   endfacet
   facet normal 5.735755e-01 0.000000e+00 -8.191527e-01
      outer loop
         vertex 2.428606e+01 2.500000e+01 2.383022e+01
         vertex 2.500000e+01 2.500000e+01 2.433013e+01
         vertex 2.500000e+01 3.619671e-312 2.433013e+01
      endloop
   endfacet
   facet normal -4.226183e-01 0.000000e+00 -9.063077e-01
      outer loop
         vertex 2.921010e+01 2.500000e+01 2.469846e+01
         vertex 3.000000e+01 2.500000e+01 2.433013e+01
         vertex 3.000000e+01 3.619671e-312 2.433013e+01
      endloop
   endfacet
   facet normal -4.226183e-01 0.000000e+00 -9.063077e-01
      outer loop
         vertex 2.921010e+01 3.619671e-312 2.469846e+01
         vertex 2.921010e+01 2.500000e+01 2.469846e+01
         vertex 3.000000e+01 3.619671e-312 2.433013e+01
      endloop
   endfacet
   facet normal 2.588191e-01 0.000000e+00 -9.659258e-01
      outer loop
         vertex -2.921010e+01 2.500000e+01 2.469846e+01
         vertex -2.836824e+01 3.619671e-312 2.492404e+01
         vertex -2.921010e+01 3.619671e-312 2.469846e+01
      endloop
   endfacet
   facet normal 4.226183e-01 0.000000e+00 -9.063077e-01
      outer loop
         vertex -3.000000e+01 2.500000e+01 2.433013e+01
         vertex -2.921010e+01 2.500000e+01 2.469846e+01
         vertex -2.921010e+01 3.619671e-312 2.469846e+01
      endloop
   endfacet
   facet normal -2.588191e-01 0.000000e+00 -9.659258e-01
      outer loop
         vertex -2.663176e+01 2.500000e+01 2.492404e+01
         vertex -2.578990e+01 2.500000e+01 2.469846e+01
         vertex -2.578990e+01 3.619671e-312 2.469846e+01
      endloop
   endfacet
   facet normal -2.588191e-01 0.000000e+00 -9.659258e-01
      outer loop
         vertex -2.663176e+01 3.619671e-312 2.492404e+01
         vertex -2.663176e+01 2.500000e+01 2.492404e+01
         vertex -2.578990e+01 3.619671e-312 2.469846e+01
      endloop
   endfacet
   facet normal 2.588191e-01 0.000000e+00 -9.659258e-01
      outer loop
         vertex 2.578990e+01 2.500000e+01 2.469846e+01
         vertex 2.663176e+01 3.619671e-312 2.492404e+01
         vertex 2.578990e+01 3.619671e-312 2.469846e+01
      endloop
   endfacet
   facet normal 4.226183e-01 0.000000e+00 -9.063077e-01
      outer loop
         vertex 2.500000e+01 2.500000e+01 2.433013e+01
         vertex 2.578990e+01 2.500000e+01 2.469846e+01
         vertex 2.578990e+01 3.619671e-312 2.469846e+01
      endloop
   endfacet
   facet normal -2.588191e-01 0.000000e+00 -9.659258e-01
      outer loop
         vertex 2.836824e+01 2.500000e+01 2.492404e+01
         vertex 2.921010e+01 2.500000e+01 2.469846e+01
         vertex 2.921010e+01 3.619671e-312 2.469846e+01
      endloop
   endfacet
   facet normal -2.588191e-01 0.000000e+00 -9.659258e-01
      outer loop
         vertex 2.836824e+01 3.619671e-312 2.492404e+01
         vertex 2.836824e+01 2.500000e+01 2.492404e+01
         vertex 2.921010e+01 3.619671e-312 2.469846e+01
      endloop
   endfacet
   facet normal 8.715711e-02 0.000000e+00 -9.961946e-01
      outer loop
         vertex -2.836824e+01 2.500000e+01 2.492404e+01
         vertex -2.750000e+01 3.619671e-312 2.500000e+01
         vertex -2.836824e+01 3.619671e-312 2.492404e+01
      endloop
   endfacet
   facet normal 2.588191e-01 0.000000e+00 -9.659258e-01
      outer loop
         vertex -2.921010e+01 2.500000e+01 2.469846e+01
         vertex -2.836824e+01 2.500000e+01 2.492404e+01
         vertex -2.836824e+01 3.619671e-312 2.492404e+01
      endloop
   endfacet
   facet normal -8.715711e-02 0.000000e+00 -9.961946e-01
      outer loop
         vertex -2.750000e+01 2.500000e+01 2.500000e+01
         vertex -2.663176e+01 2.500000e+01 2.492404e+01
         vertex -2.663176e+01 3.619671e-312 2.492404e+01
      endloop
   endfacet
   facet normal -8.715711e-02 0.000000e+00 -9.961946e-01
      outer loop
         vertex -2.750000e+01 3.619671e-312 2.500000e+01
         vertex -2.750000e+01 2.500000e+01 2.500000e+01
         vertex -2.663176e+01 3.619671e-312 2.492404e+01
      endloop
   endfacet
   facet normal 8.715711e-02 0.000000e+00 -9.961946e-01
      outer loop
         vertex 2.663176e+01 2.500000e+01 2.492404e+01
         vertex 2.750000e+01 3.619671e-312 2.500000e+01
         vertex 2.663176e+01 3.619671e-312 2.492404e+01
      endloop
   endfacet
   facet normal 2.588191e-01 0.000000e+00 -9.659258e-01
      outer loop
         vertex 2.578990e+01 2.500000e+01 2.469846e+01
         vertex 2.663176e+01 2.500000e+01 2.492404e+01
         vertex 2.663176e+01 3.619671e-312 2.492404e+01
      endloop
   endfacet
   facet normal -8.715711e-02 0.000000e+00 -9.961946e-01
      outer loop
         vertex 2.750000e+01 2.500000e+01 2.500000e+01
         vertex 2.836824e+01 2.500000e+01 2.492404e+01
         vertex 2.836824e+01 3.619671e-312 2.492404e+01
      endloop
   endfacet
   facet normal -8.715711e-02 0.000000e+00 -9.961946e-01
      outer loop
         vertex 2.750000e+01 3.619671e-312 2.500000e+01
         vertex 2.750000e+01 2.500000e+01 2.500000e+01
         vertex 2.836824e+01 3.619671e-312 2.492404e+01
      endloop
   endfacet
   facet normal 8.715711e-02 0.000000e+00 -9.961946e-01
      outer loop
         vertex -2.836824e+01 2.500000e+01 2.492404e+01
         vertex -2.750000e+01 2.500000e+01 2.500000e+01
         vertex -2.750000e+01 3.619671e-312 2.500000e+01
      endloop
   endfacet
   facet normal 8.715711e-02 0.000000e+00 -9.961946e-01
      outer loop
         vertex 2.663176e+01 2.500000e+01 2.492404e+01
         vertex 2.750000e+01 2.500000e+01 2.500000e+01
         vertex 2.750000e+01 3.619671e-312 2.500000e+01
      endloop
   endfacet
   facet normal -1.000000e+00 -0.000000e+00 -0.000000e+00
      outer loop
         vertex 1.500000e+01 2.500000e+01 4.000000e+01
         vertex 1.500000e+01 2.500000e+01 -1.500000e+01
         vertex 1.500000e+01 6.938894e-15 4.000000e+01
      endloop
   endfacet
endsolid