solid 4-3
   facet normal -1.000000e+00 0.000000e+00 -0.000000e+00
      outer loop
         vertex -4.500000e+01 1.000000e+01 5.800971e+00
         vertex -4.500000e+01 1.894750e+01 -4.199029e+00
         vertex -4.500000e+01 6.652897e-312 -4.199029e+00
      endloop
   endfacet
   facet normal -1.000000e+00 0.000000e+00 -0.000000e+00
      outer loop
         vertex -4.500000e+01 1.000000e+01 2.580097e+01
         vertex -4.500000e+01 1.000000e+01 5.800971e+00
         vertex -4.500000e+01 6.652897e-312 -4.199029e+00
      endloop
   endfacet
   facet normal -1.000000e+00 0.000000e+00 0.000000e+00
      outer loop
         vertex -4.500000e+01 6.652897e-312 2.580097e+01
         vertex -4.500000e+01 1.000000e+01 2.580097e+01
         vertex -4.500000e+01 6.652897e-312 -4.199029e+00
      endloop
   endfacet
   facet normal 1.000000e+00 0.000000e+00 0.000000e+00
      outer loop
         vertex 4.500000e+01 1.000000e+01 5.800971e+00
         vertex 4.500000e+01 6.652897e-312 2.580097e+01
         vertex 4.500000e+01 6.652897e-312 -4.199029e+00
      endloop
   endfacet
   facet normal 1.000000e+00 0.000000e+00 0.000000e+00
      outer loop
         vertex 4.500000e+01 1.894750e+01 5.800971e+00
         vertex 4.500000e+01 1.000000e+01 5.800971e+00
         vertex 4.500000e+01 6.652897e-312 -4.199029e+00
      endloop
   endfacet
   facet normal 1.000000e+00 0.000000e+00 -0.000000e+00
      outer loop
         vertex 4.500000e+01 1.894750e+01 -4.199029e+00
         vertex 4.500000e+01 1.894750e+01 5.800971e+00
         vertex 4.500000e+01 6.652897e-312 -4.199029e+00
      endloop
   endfacet
   facet normal -9.807850e-01 0.000000e+00 1.950919e-01
      outer loop
         vertex -4.461940e+01 6.652897e-312 2.771439e+01
         vertex -4.500000e+01 1.000000e+01 2.580097e+01
         vertex -4.500000e+01 6.652897e-312 2.580097e+01
      endloop
   endfacet
   facet normal 1.000000e+00 0.000000e+00 -0.000000e+00
      outer loop
         vertex 4.500000e+01 1.000000e+01 5.800971e+00
         vertex 4.500000e+01 1.000000e+01 2.580097e+01
         vertex 4.500000e+01 6.652897e-312 2.580097e+01
      endloop
   endfacet
   facet normal 9.807850e-01 0.000000e+00 1.950919e-01
      outer loop
         vertex 4.461940e+01 1.000000e+01 2.771439e+01
         vertex 4.461940e+01 6.652897e-312 2.771439e+01
         vertex 4.500000e+01 6.652897e-312 2.580097e+01
      endloop
   endfacet
   facet normal 9.807850e-01 0.000000e+00 1.950919e-01
      outer loop
         vertex 4.500000e+01 1.000000e+01 2.580097e+01
         vertex 4.461940e+01 1.000000e+01 2.771439e+01
         vertex 4.500000e+01 6.652897e-312 2.580097e+01
      endloop
   endfacet
   facet normal -9.807850e-01 0.000000e+00 1.950919e-01
      outer loop
         vertex -4.461940e+01 1.000000e+01 2.771439e+01
         vertex -4.500000e+01 1.000000e+01 2.580097e+01
         vertex -4.461940e+01 6.652897e-312 2.771439e+01
      endloop
   endfacet
   facet normal -8.314699e-01 0.000000e+00 5.555698e-01
      outer loop
         vertex -4.353553e+01 6.652897e-312 2.933650e+01
         vertex -4.461940e+01 1.000000e+01 2.771439e+01
         vertex -4.461940e+01 6.652897e-312 2.771439e+01
      endloop
   endfacet
   facet normal 8.314699e-01 0.000000e+00 5.555698e-01
      outer loop
         vertex 4.353553e+01 1.000000e+01 2.933650e+01
         vertex 4.353553e+01 6.652897e-312 2.933650e+01
         vertex 4.461940e+01 6.652897e-312 2.771439e+01
      endloop
   endfacet
   facet normal 8.314699e-01 0.000000e+00 5.555698e-01
      outer loop
         vertex 4.461940e+01 1.000000e+01 2.771439e+01
         vertex 4.353553e+01 1.000000e+01 2.933650e+01
         vertex 4.461940e+01 6.652897e-312 2.771439e+01
      endloop
   endfacet
   facet normal -8.314699e-01 0.000000e+00 5.555698e-01
      outer loop
         vertex -4.353553e+01 1.000000e+01 2.933650e+01
         vertex -4.461940e+01 1.000000e+01 2.771439e+01
         vertex -4.353553e+01 6.652897e-312 2.933650e+01
      endloop
   endfacet
   facet normal -5.555700e-01 0.000000e+00 8.314698e-01
      outer loop
         vertex -4.191342e+01 6.652897e-312 3.042037e+01
         vertex -4.353553e+01 1.000000e+01 2.933650e+01
         vertex -4.353553e+01 6.652897e-312 2.933650e+01
      endloop
   endfacet
   facet normal 5.555700e-01 0.000000e+00 8.314698e-01
      outer loop
         vertex 4.191342e+01 1.000000e+01 3.042037e+01
         vertex 4.191342e+01 6.652897e-312 3.042037e+01
         vertex 4.353553e+01 6.652897e-312 2.933650e+01
      endloop
   endfacet
   facet normal 5.555700e-01 0.000000e+00 8.314698e-01
      outer loop
         vertex 4.353553e+01 1.000000e+01 2.933650e+01
         vertex 4.191342e+01 1.000000e+01 3.042037e+01
         vertex 4.353553e+01 6.652897e-312 2.933650e+01
      endloop
   endfacet
   facet normal -5.555700e-01 0.000000e+00 8.314698e-01
      outer loop
         vertex -4.191342e+01 1.000000e+01 3.042037e+01
         vertex -4.353553e+01 1.000000e+01 2.933650e+01
         vertex -4.191342e+01 6.652897e-312 3.042037e+01
      endloop
   endfacet
   facet normal -1.950900e-01 0.000000e+00 9.807853e-01
      outer loop
         vertex -4.000000e+01 6.652897e-312 3.080097e+01
         vertex -4.191342e+01 1.000000e+01 3.042037e+01
         vertex -4.191342e+01 6.652897e-312 3.042037e+01
      endloop
   endfacet
   facet normal 1.950900e-01 0.000000e+00 9.807853e-01
      outer loop
         vertex 4.000000e+01 1.000000e+01 3.080097e+01
         vertex 4.000000e+01 6.652897e-312 3.080097e+01
         vertex 4.191342e+01 6.652897e-312 3.042037e+01
      endloop
   endfacet
   facet normal 1.950900e-01 0.000000e+00 9.807853e-01
      outer loop
         vertex 4.191342e+01 1.000000e+01 3.042037e+01
         vertex 4.000000e+01 1.000000e+01 3.080097e+01
         vertex 4.191342e+01 6.652897e-312 3.042037e+01
      endloop
   endfacet
   facet normal 0.000000e+00 0.000000e+00 1.000000e+00
      outer loop
         vertex 4.000000e+01 6.652897e-312 3.080097e+01
         vertex -4.000000e+01 1.000000e+01 3.080097e+01
         vertex -4.000000e+01 6.652897e-312 3.080097e+01
      endloop
   endfacet
   facet normal -1.950900e-01 0.000000e+00 9.807853e-01
      outer loop
         vertex -4.000000e+01 1.000000e+01 3.080097e+01
         vertex -4.191342e+01 1.000000e+01 3.042037e+01
         vertex -4.000000e+01 6.652897e-312 3.080097e+01
      endloop
   endfacet
   facet normal 0.000000e+00 0.000000e+00 1.000000e+00
      outer loop
         vertex 4.000000e+01 1.000000e+01 3.080097e+01
         vertex -4.000000e+01 1.000000e+01 3.080097e+01
         vertex 4.000000e+01 6.652897e-312 3.080097e+01
      endloop
   endfacet
   facet normal -1.000000e+00 -0.000000e+00 -0.000000e+00
      outer loop
         vertex -4.500000e+01 1.894750e+01 5.800971e+00
         vertex -4.500000e+01 1.894750e+01 -4.199029e+00
         vertex -4.500000e+01 1.000000e+01 5.800971e+00
      endloop
   endfacet
   facet normal -9.945067e-01 1.046729e-01 0.000000e+00
      outer loop
         vertex -4.500000e+01 1.894750e+01 5.800971e+00
         vertex -4.478088e+01 2.102943e+01 5.800971e+00
         vertex -4.500000e+01 1.894750e+01 -4.199029e+00
      endloop
   endfacet
   facet normal -9.945067e-01 1.046729e-01 0.000000e+00
      outer loop
         vertex -4.478088e+01 2.102943e+01 5.800971e+00
         vertex -4.478088e+01 2.102943e+01 -4.199029e+00
         vertex -4.500000e+01 1.894750e+01 -4.199029e+00
      endloop
   endfacet
   facet normal 9.945067e-01 1.046729e-01 0.000000e+00
      outer loop
         vertex 4.478088e+01 2.102943e+01 -4.199029e+00
         vertex 4.500000e+01 1.894750e+01 5.800971e+00
         vertex 4.500000e+01 1.894750e+01 -4.199029e+00
      endloop
   endfacet
   facet normal 9.945067e-01 1.046729e-01 -0.000000e+00
      outer loop
         vertex 4.478088e+01 2.102943e+01 -4.199029e+00
         vertex 4.478088e+01 2.102943e+01 5.800971e+00
         vertex 4.500000e+01 1.894750e+01 5.800971e+00
      endloop
   endfacet
   facet normal -9.780878e-01 2.081929e-01 0.000000e+00
      outer loop
         vertex -4.478088e+01 2.102943e+01 5.800971e+00
         vertex -4.079607e+01 3.975000e+01 -4.199029e+00
         vertex -4.478088e+01 2.102943e+01 -4.199029e+00
      endloop
   endfacet
   facet normal 9.780878e-01 2.081929e-01 -0.000000e+00
      outer loop
         vertex 4.079607e+01 3.975000e+01 -4.199029e+00
         vertex 4.079607e+01 3.975000e+01 5.800971e+00
         vertex 4.478088e+01 2.102943e+01 -4.199029e+00
      endloop
   endfacet
   facet normal 9.780878e-01 2.081929e-01 0.000000e+00
      outer loop
         vertex 4.079607e+01 3.975000e+01 5.800971e+00
         vertex 4.478088e+01 2.102943e+01 5.800971e+00
         vertex 4.478088e+01 2.102943e+01 -4.199029e+00
      endloop
   endfacet
   facet normal -9.780878e-01 2.081929e-01 0.000000e+00
      outer loop
         vertex -4.079607e+01 3.975000e+01 5.800971e+00
         vertex -4.079607e+01 3.975000e+01 -4.199029e+00
         vertex -4.478088e+01 2.102943e+01 5.800971e+00
      endloop
   endfacet
   facet normal -9.780878e-01 2.081930e-01 0.000000e+00
      outer loop
         vertex -4.079607e+01 3.975000e+01 5.800971e+00
         vertex -3.094271e+01 8.604097e+01 -4.199029e+00
         vertex -4.079607e+01 3.975000e+01 -4.199029e+00
      endloop
   endfacet
   facet normal 9.780878e-01 2.081930e-01 -0.000000e+00
      outer loop
         vertex 3.094271e+01 8.604097e+01 -4.199029e+00
         vertex 3.094271e+01 8.604097e+01 5.800971e+00
         vertex 4.079607e+01 3.975000e+01 -4.199029e+00
      endloop
   endfacet
   facet normal 9.780878e-01 2.081930e-01 0.000000e+00
      outer loop
         vertex 3.094271e+01 8.604097e+01 5.800971e+00
         vertex 4.079607e+01 3.975000e+01 5.800971e+00
         vertex 4.079607e+01 3.975000e+01 -4.199029e+00
      endloop
   endfacet
   facet normal -9.780878e-01 2.081930e-01 0.000000e+00
      outer loop
         vertex -3.094271e+01 8.604097e+01 5.800971e+00
         vertex -3.094271e+01 8.604097e+01 -4.199029e+00
         vertex -4.079607e+01 3.975000e+01 5.800971e+00
      endloop
   endfacet
   facet normal -9.062066e-01 4.228353e-01 0.000000e+00
      outer loop
         vertex -2.999173e+01 8.807907e+01 5.800971e+00
         vertex -2.999173e+01 8.807907e+01 -4.199029e+00
         vertex -3.094271e+01 8.604097e+01 -4.199029e+00
      endloop
   endfacet
   facet normal -9.062066e-01 4.228353e-01 0.000000e+00
      outer loop
         vertex -3.094271e+01 8.604097e+01 5.800971e+00
         vertex -2.999173e+01 8.807907e+01 5.800971e+00
         vertex -3.094271e+01 8.604097e+01 -4.199029e+00
      endloop
   endfacet
   facet normal 9.062066e-01 4.228353e-01 0.000000e+00
      outer loop
         vertex 2.999173e+01 8.807907e+01 -4.199029e+00
         vertex 3.094271e+01 8.604097e+01 5.800971e+00
         vertex 3.094271e+01 8.604097e+01 -4.199029e+00
      endloop
   endfacet
   facet normal 9.062066e-01 4.228353e-01 -0.000000e+00
      outer loop
         vertex 2.999173e+01 8.807907e+01 -4.199029e+00
         vertex 2.999173e+01 8.807907e+01 5.800971e+00
         vertex 3.094271e+01 8.604097e+01 5.800971e+00
      endloop
   endfacet
   facet normal -6.292089e-01 7.772362e-01 0.000000e+00
      outer loop
         vertex -2.824369e+01 8.949418e+01 5.800971e+00
         vertex -2.824369e+01 8.949418e+01 -4.199029e+00
         vertex -2.999173e+01 8.807907e+01 -4.199029e+00
      endloop
   endfacet
   facet normal -6.292089e-01 7.772362e-01 0.000000e+00
      outer loop
         vertex -2.999173e+01 8.807907e+01 5.800971e+00
         vertex -2.824369e+01 8.949418e+01 5.800971e+00
         vertex -2.999173e+01 8.807907e+01 -4.199029e+00
      endloop
   endfacet
   facet normal 6.292089e-01 7.772362e-01 0.000000e+00
      outer loop
         vertex 2.824369e+01 8.949418e+01 -4.199029e+00
         vertex 2.999173e+01 8.807907e+01 5.800971e+00
         vertex 2.999173e+01 8.807907e+01 -4.199029e+00
      endloop
   endfacet
   facet normal 6.292089e-01 7.772362e-01 -0.000000e+00
      outer loop
         vertex 2.824369e+01 8.949418e+01 -4.199029e+00
         vertex 2.824369e+01 8.949418e+01 5.800971e+00
         vertex 2.999173e+01 8.807907e+01 5.800971e+00
      endloop
   endfacet
   facet normal -2.249045e-01 9.743808e-01 0.000000e+00
      outer loop
         vertex -2.605227e+01 9.000000e+01 5.800971e+00
         vertex -2.605227e+01 9.000000e+01 -4.199029e+00
         vertex -2.824369e+01 8.949418e+01 -4.199029e+00
      endloop
   endfacet
   facet normal -2.249045e-01 9.743808e-01 0.000000e+00
      outer loop
         vertex -2.824369e+01 8.949418e+01 5.800971e+00
         vertex -2.605227e+01 9.000000e+01 5.800971e+00
         vertex -2.824369e+01 8.949418e+01 -4.199029e+00
      endloop
   endfacet
   facet normal 2.249045e-01 9.743808e-01 0.000000e+00
      outer loop
         vertex 2.605227e+01 9.000000e+01 -4.199029e+00
         vertex 2.824369e+01 8.949418e+01 5.800971e+00
         vertex 2.824369e+01 8.949418e+01 -4.199029e+00
      endloop
   endfacet
   facet normal 2.249045e-01 9.743808e-01 -0.000000e+00
      outer loop
         vertex 2.605227e+01 9.000000e+01 -4.199029e+00
         vertex 2.605227e+01 9.000000e+01 5.800971e+00
         vertex 2.824369e+01 8.949418e+01 5.800971e+00
      endloop
   endfacet
   facet normal 0.000000e+00 1.000000e+00 0.000000e+00
      outer loop
         vertex -2.605227e+01 9.000000e+01 5.800971e+00
         vertex -2.025000e+01 9.000000e+01 -4.199029e+00
         vertex -2.605227e+01 9.000000e+01 -4.199029e+00
      endloop
   endfacet
   facet normal 0.000000e+00 1.000000e+00 0.000000e+00
      outer loop
         vertex -2.605227e+01 9.000000e+01 5.800971e+00
         vertex 2.605227e+01 9.000000e+01 -4.199029e+00
         vertex -2.025000e+01 9.000000e+01 -4.199029e+00
      endloop
   endfacet
   facet normal -0.000000e+00 1.000000e+00 0.000000e+00
      outer loop
         vertex 2.025000e+01 9.000000e+01 5.800971e+00
         vertex 2.605227e+01 9.000000e+01 5.800971e+00
         vertex 2.605227e+01 9.000000e+01 -4.199029e+00
      endloop
   endfacet
   facet normal -0.000000e+00 1.000000e+00 0.000000e+00
      outer loop
         vertex -2.605227e+01 9.000000e+01 5.800971e+00
         vertex 2.025000e+01 9.000000e+01 5.800971e+00
         vertex 2.605227e+01 9.000000e+01 -4.199029e+00
      endloop
   endfacet
endsolid