solid 8-3
   facet normal 0.000000e+00 1.000000e+00 0.000000e+00
      outer loop
         vertex -3.500000e+01 6.500000e+01 2.500000e+01
         vertex -2.000000e+01 6.500000e+01 -2.500000e+01
         vertex -3.500000e+01 6.500000e+01 -2.500000e+01
      endloop
   endfacet
   facet normal -0.000000e+00 1.000000e+00 0.000000e+00
      outer loop
         vertex -3.500000e+01 6.500000e+01 2.500000e+01
         vertex -2.000000e+01 6.500000e+01 2.500000e+01
         vertex -2.000000e+01 6.500000e+01 -2.500000e+01
      endloop
   endfacet
   facet normal 0.000000e+00 1.000000e+00 0.000000e+00
      outer loop
         vertex 2.000000e+01 6.500000e+01 2.500000e+01
         vertex 3.500000e+01 6.500000e+01 -2.500000e+01
         vertex 2.000000e+01 6.500000e+01 -2.500000e+01
      endloop
   endfacet
   facet normal -0.000000e+00 1.000000e+00 0.000000e+00
      outer loop
         vertex 2.000000e+01 6.500000e+01 2.500000e+01
         vertex 3.500000e+01 6.500000e+01 2.500000e+01
         vertex 3.500000e+01 6.500000e+01 -2.500000e+01
      endloop
   endfacet
endsolid