solid 1-1
   facet normal 0.000000e+000 0.000000e+000 -1.000000e+000
      outer loop
         vertex 8.000000e+001 1.500000e+001 0.000000e+000
         vertex 8.000000e+001 0.000000e+000 0.000000e+000
         vertex 0.000000e+000 1.500000e+001 0.000000e+000
      endloop
   endfacet
   facet normal 0.000000e+000 0.000000e+000 -1.000000e+000
      outer loop
         vertex 0.000000e+000 1.500000e+001 0.000000e+000
         vertex 8.000000e+001 0.000000e+000 0.000000e+000
         vertex 0.000000e+000 0.000000e+000 0.000000e+000
      endloop
   endfacet
   facet normal 0.000000e+000 0.000000e+000 1.000000e+000
      outer loop
         vertex 3.000000e+001 4.000000e+001 1.000000e+002
         vertex 0.000000e+000 4.000000e+001 1.000000e+002
         vertex 3.000000e+001 2.500000e+001 1.000000e+002
      endloop
   endfacet
   facet normal 0.000000e+000 0.000000e+000 1.000000e+000
      outer loop
         vertex 3.000000e+001 2.500000e+001 1.000000e+002
         vertex 0.000000e+000 4.000000e+001 1.000000e+002
         vertex 0.000000e+000 0.000000e+000 1.000000e+002
      endloop
   endfacet
   facet normal 0.000000e+000 0.000000e+000 1.000000e+000
      outer loop
         vertex 3.000000e+001 2.500000e+001 1.000000e+002
         vertex 0.000000e+000 0.000000e+000 1.000000e+002
         vertex 5.000000e+001 2.500000e+001 1.000000e+002
      endloop
   endfacet
   facet normal 0.000000e+000 0.000000e+000 1.000000e+000
      outer loop
         vertex 5.000000e+001 2.500000e+001 1.000000e+002
         vertex 0.000000e+000 0.000000e+000 1.000000e+002
         vertex 8.000000e+001 0.000000e+000 1.000000e+002
      endloop
   endfacet
   facet normal 0.000000e+000 0.000000e+000 1.000000e+000
      outer loop
         vertex 5.000000e+001 2.500000e+001 1.000000e+002
         vertex 8.000000e+001 0.000000e+000 1.000000e+002
         vertex 5.000000e+001 4.000000e+001 1.000000e+002
      endloop
   endfacet
   facet normal 0.000000e+000 0.000000e+000 1.000000e+000
      outer loop
         vertex 5.000000e+001 4.000000e+001 1.000000e+002
         vertex 8.000000e+001 0.000000e+000 1.000000e+002
         vertex 8.000000e+001 4.000000e+001 1.000000e+002
      endloop
   endfacet
endsolid