solid 1-2
   facet normal 0.000000e+000 -1.000000e+000 0.000000e+000
      outer loop
         vertex 8.756924e+000 0.000000e+000 8.772652e+001
         vertex 9.373208e+000 0.000000e+000 8.834281e+001
         vertex 0.000000e+000 0.000000e+000 1.000000e+002
      endloop
   endfacet
   facet normal 0.000000e+000 -1.000000e+000 0.000000e+000
      outer loop
         vertex 1.008715e+001 0.000000e+000 8.018246e+001
         vertex 0.000000e+000 0.000000e+000 0.000000e+000
         vertex 1.087704e+001 0.000000e+000 7.981412e+001
      endloop
   endfacet
   facet normal 0.000000e+000 -1.000000e+000 0.000000e+000
      outer loop
         vertex 1.087704e+001 0.000000e+000 7.981412e+001
         vertex 0.000000e+000 0.000000e+000 0.000000e+000
         vertex 1.171891e+001 0.000000e+000 7.958855e+001
      endloop
   endfacet
   facet normal 0.000000e+000 -1.000000e+000 0.000000e+000
      outer loop
         vertex 1.008715e+001 0.000000e+000 8.018246e+001
         vertex 9.373208e+000 0.000000e+000 8.068237e+001
         vertex 0.000000e+000 0.000000e+000 0.000000e+000
      endloop
   endfacet
   facet normal 0.000000e+000 -1.000000e+000 0.000000e+000
      outer loop
         vertex 0.000000e+000 0.000000e+000 0.000000e+000
         vertex 9.373208e+000 0.000000e+000 8.068237e+001
         vertex 8.756924e+000 0.000000e+000 8.129865e+001
      endloop
   endfacet
   facet normal 0.000000e+000 -1.000000e+000 0.000000e+000
      outer loop
         vertex 0.000000e+000 0.000000e+000 0.000000e+000
         vertex 8.756924e+000 0.000000e+000 8.129865e+001
         vertex 8.257019e+000 0.000000e+000 8.201259e+001
      endloop
   endfacet
   facet normal 0.000000e+000 -1.000000e+000 0.000000e+000
      outer loop
         vertex 7.663107e+000 0.000000e+000 8.538083e+001
         vertex 7.888683e+000 0.000000e+000 8.622269e+001
         vertex 0.000000e+000 0.000000e+000 1.000000e+002
      endloop
   endfacet
   facet normal 0.000000e+000 -1.000000e+000 0.000000e+000
      outer loop
         vertex 0.000000e+000 0.000000e+000 1.000000e+002
         vertex 7.888683e+000 0.000000e+000 8.622269e+001
         vertex 8.257019e+000 0.000000e+000 8.701259e+001
      endloop
   endfacet
   facet normal 0.000000e+000 -1.000000e+000 0.000000e+000
      outer loop
         vertex 0.000000e+000 0.000000e+000 1.000000e+002
         vertex 8.257019e+000 0.000000e+000 8.701259e+001
         vertex 8.756924e+000 0.000000e+000 8.772652e+001
      endloop
   endfacet
   facet normal 0.000000e+000 -1.000000e+000 0.000000e+000
      outer loop
         vertex 6.491286e+001 0.000000e+000 8.018246e+001
         vertex 3.480254e+001 0.000000e+000 4.929157e+001
         vertex 6.570275e+001 0.000000e+000 7.981412e+001
      endloop
   endfacet
   facet normal 0.000000e+000 -1.000000e+000 0.000000e+000
      outer loop
         vertex 6.570275e+001 0.000000e+000 7.981412e+001
         vertex 3.480254e+001 0.000000e+000 4.929157e+001
         vertex 6.654462e+001 0.000000e+000 7.958855e+001
      endloop
   endfacet
   facet normal 0.000000e+000 -1.000000e+000 0.000000e+000
      outer loop
         vertex 3.859592e+001 0.000000e+000 8.050356e+000
         vertex 0.000000e+000 0.000000e+000 0.000000e+000
         vertex 4.000000e+001 0.000000e+000 7.927515e+000
      endloop
   endfacet
   facet normal 0.000000e+000 -1.000000e+000 0.000000e+000
      outer loop
         vertex 4.000000e+001 0.000000e+000 7.927515e+000
         vertex 0.000000e+000 0.000000e+000 0.000000e+000
         vertex 8.000000e+001 0.000000e+000 0.000000e+000
      endloop
   endfacet
   facet normal 0.000000e+000 -1.000000e+000 0.000000e+000
      outer loop
         vertex 4.000000e+001 0.000000e+000 7.927515e+000
         vertex 8.000000e+001 0.000000e+000 0.000000e+000
         vertex 4.140409e+001 0.000000e+000 8.050356e+000
      endloop
   endfacet
   facet normal 0.000000e+000 -1.000000e+000 0.000000e+000
      outer loop
         vertex 4.140409e+001 0.000000e+000 8.050356e+000
         vertex 8.000000e+001 0.000000e+000 0.000000e+000
         vertex 4.276551e+001 0.000000e+000 8.415148e+000
      endloop
   endfacet
   facet normal 0.000000e+000 -1.000000e+000 0.000000e+000
      outer loop
         vertex 3.859592e+001 0.000000e+000 8.050356e+000
         vertex 3.723449e+001 0.000000e+000 8.415148e+000
         vertex 0.000000e+000 0.000000e+000 0.000000e+000
      endloop
   endfacet
   facet normal 0.000000e+000 -1.000000e+000 0.000000e+000
      outer loop
         vertex 0.000000e+000 0.000000e+000 0.000000e+000
         vertex 3.723449e+001 0.000000e+000 8.415148e+000
         vertex 3.595710e+001 0.000000e+000 9.010807e+000
      endloop
   endfacet
   facet normal 0.000000e+000 -1.000000e+000 0.000000e+000
      outer loop
         vertex 0.000000e+000 0.000000e+000 0.000000e+000
         vertex 3.595710e+001 0.000000e+000 9.010807e+000
         vertex 3.480254e+001 0.000000e+000 9.819234e+000
      endloop
   endfacet
   facet normal 0.000000e+000 -1.000000e+000 0.000000e+000
      outer loop
         vertex 3.480254e+001 0.000000e+000 9.819234e+000
         vertex 3.380592e+001 0.000000e+000 1.081586e+001
         vertex 0.000000e+000 0.000000e+000 0.000000e+000
      endloop
   endfacet
   facet normal 0.000000e+000 -1.000000e+000 0.000000e+000
      outer loop
         vertex 0.000000e+000 0.000000e+000 0.000000e+000
         vertex 3.380592e+001 0.000000e+000 1.081586e+001
         vertex 3.299749e+001 0.000000e+000 1.197042e+001
      endloop
   endfacet
   facet normal 0.000000e+000 -1.000000e+000 0.000000e+000
      outer loop
         vertex 0.000000e+000 0.000000e+000 0.000000e+000
         vertex 3.299749e+001 0.000000e+000 1.197042e+001
         vertex 3.240182e+001 0.000000e+000 1.324781e+001
      endloop
   endfacet
   facet normal 0.000000e+000 -1.000000e+000 0.000000e+000
      outer loop
         vertex 9.373208e+000 0.000000e+000 8.834281e+001
         vertex 1.008715e+001 0.000000e+000 8.884271e+001
         vertex 0.000000e+000 0.000000e+000 1.000000e+002
      endloop
   endfacet
   facet normal 0.000000e+000 -1.000000e+000 0.000000e+000
      outer loop
         vertex 0.000000e+000 0.000000e+000 1.000000e+002
         vertex 1.008715e+001 0.000000e+000 8.884271e+001
         vertex 1.087704e+001 0.000000e+000 8.921104e+001
      endloop
   endfacet
   facet normal 0.000000e+000 -1.000000e+000 0.000000e+000
      outer loop
         vertex 0.000000e+000 0.000000e+000 1.000000e+002
         vertex 1.087704e+001 0.000000e+000 8.921104e+001
         vertex 1.171891e+001 0.000000e+000 8.943663e+001
      endloop
   endfacet
   facet normal 0.000000e+000 -1.000000e+000 0.000000e+000
      outer loop
         vertex 8.257019e+000 0.000000e+000 8.201259e+001
         vertex 7.888683e+000 0.000000e+000 8.280248e+001
         vertex 0.000000e+000 0.000000e+000 0.000000e+000
      endloop
   endfacet
   facet normal 0.000000e+000 -1.000000e+000 0.000000e+000
      outer loop
         vertex 0.000000e+000 0.000000e+000 0.000000e+000
         vertex 7.888683e+000 0.000000e+000 8.280248e+001
         vertex 7.663107e+000 0.000000e+000 8.364435e+001
      endloop
   endfacet
   facet normal 0.000000e+000 -1.000000e+000 0.000000e+000
      outer loop
         vertex 0.000000e+000 0.000000e+000 0.000000e+000
         vertex 7.663107e+000 0.000000e+000 8.364435e+001
         vertex 0.000000e+000 0.000000e+000 1.000000e+002
      endloop
   endfacet
   facet normal 0.000000e+000 -1.000000e+000 0.000000e+000
      outer loop
         vertex 0.000000e+000 0.000000e+000 1.000000e+002
         vertex 7.663107e+000 0.000000e+000 8.364435e+001
         vertex 7.587146e+000 0.000000e+000 8.451258e+001
      endloop
   endfacet
   facet normal 0.000000e+000 -1.000000e+000 0.000000e+000
      outer loop
         vertex 0.000000e+000 0.000000e+000 1.000000e+002
         vertex 7.587146e+000 0.000000e+000 8.451258e+001
         vertex 7.663107e+000 0.000000e+000 8.538083e+001
      endloop
   endfacet
   facet normal 0.000000e+000 -1.000000e+000 0.000000e+000
      outer loop
         vertex 1.429725e+001 0.000000e+000 8.921104e+001
         vertex 1.508715e+001 0.000000e+000 8.884271e+001
         vertex 6.248882e+001 0.000000e+000 8.538083e+001
      endloop
   endfacet
   facet normal 0.000000e+000 -1.000000e+000 0.000000e+000
      outer loop
         vertex 6.741286e+001 0.000000e+000 8.951259e+001
         vertex 6.828109e+001 0.000000e+000 8.943663e+001
         vertex 8.000000e+001 0.000000e+000 1.000000e+002
      endloop
   endfacet
   facet normal 0.000000e+000 -1.000000e+000 0.000000e+000
      outer loop
         vertex 3.191419e+001 0.000000e+000 1.601332e+001
         vertex 3.191419e+001 0.000000e+000 4.309748e+001
         vertex 1.345539e+001 0.000000e+000 7.958855e+001
      endloop
   endfacet
   facet normal 0.000000e+000 -1.000000e+000 0.000000e+000
      outer loop
         vertex 1.345539e+001 0.000000e+000 7.958855e+001
         vertex 3.191419e+001 0.000000e+000 4.309748e+001
         vertex 3.203703e+001 0.000000e+000 4.450157e+001
      endloop
   endfacet
   facet normal 0.000000e+000 -1.000000e+000 0.000000e+000
      outer loop
         vertex 1.345539e+001 0.000000e+000 7.958855e+001
         vertex 3.203703e+001 0.000000e+000 4.450157e+001
         vertex 1.429725e+001 0.000000e+000 7.981412e+001
      endloop
   endfacet
   facet normal 0.000000e+000 -1.000000e+000 0.000000e+000
      outer loop
         vertex 1.171891e+001 0.000000e+000 8.943663e+001
         vertex 1.258715e+001 0.000000e+000 8.951259e+001
         vertex 0.000000e+000 0.000000e+000 1.000000e+002
      endloop
   endfacet
   facet normal 0.000000e+000 -1.000000e+000 0.000000e+000
      outer loop
         vertex 0.000000e+000 0.000000e+000 1.000000e+002
         vertex 1.258715e+001 0.000000e+000 8.951259e+001
         vertex 1.345539e+001 0.000000e+000 8.943663e+001
      endloop
   endfacet
   facet normal 0.000000e+000 -1.000000e+000 0.000000e+000
      outer loop
         vertex 0.000000e+000 0.000000e+000 1.000000e+002
         vertex 1.345539e+001 0.000000e+000 8.943663e+001
         vertex 1.429725e+001 0.000000e+000 8.921104e+001
      endloop
   endfacet
   facet normal 0.000000e+000 -1.000000e+000 0.000000e+000
      outer loop
         vertex 1.171891e+001 0.000000e+000 7.958855e+001
         vertex 0.000000e+000 0.000000e+000 0.000000e+000
         vertex 1.258715e+001 0.000000e+000 7.951259e+001
      endloop
   endfacet
   facet normal 0.000000e+000 -1.000000e+000 0.000000e+000
      outer loop
         vertex 1.258715e+001 0.000000e+000 7.951259e+001
         vertex 0.000000e+000 0.000000e+000 0.000000e+000
         vertex 3.240182e+001 0.000000e+000 1.324781e+001
      endloop
   endfacet
   facet normal 0.000000e+000 -1.000000e+000 0.000000e+000
      outer loop
         vertex 1.258715e+001 0.000000e+000 7.951259e+001
         vertex 3.240182e+001 0.000000e+000 1.324781e+001
         vertex 1.345539e+001 0.000000e+000 7.958855e+001
      endloop
   endfacet
   facet normal 0.000000e+000 -1.000000e+000 0.000000e+000
      outer loop
         vertex 1.345539e+001 0.000000e+000 7.958855e+001
         vertex 3.240182e+001 0.000000e+000 1.324781e+001
         vertex 3.203703e+001 0.000000e+000 1.460923e+001
      endloop
   endfacet
   facet normal 0.000000e+000 -1.000000e+000 0.000000e+000
      outer loop
         vertex 1.345539e+001 0.000000e+000 7.958855e+001
         vertex 3.203703e+001 0.000000e+000 1.460923e+001
         vertex 3.191419e+001 0.000000e+000 1.601332e+001
      endloop
   endfacet
   facet normal 0.000000e+000 -1.000000e+000 0.000000e+000
      outer loop
         vertex 6.491286e+001 0.000000e+000 8.018246e+001
         vertex 6.419892e+001 0.000000e+000 8.068237e+001
         vertex 3.480254e+001 0.000000e+000 4.929157e+001
      endloop
   endfacet
   facet normal 0.000000e+000 -1.000000e+000 0.000000e+000
      outer loop
         vertex 3.480254e+001 0.000000e+000 4.929157e+001
         vertex 6.419892e+001 0.000000e+000 8.068237e+001
         vertex 6.358263e+001 0.000000e+000 8.129865e+001
      endloop
   endfacet
   facet normal 0.000000e+000 -1.000000e+000 0.000000e+000
      outer loop
         vertex 3.480254e+001 0.000000e+000 4.929157e+001
         vertex 6.358263e+001 0.000000e+000 8.129865e+001
         vertex 3.380592e+001 0.000000e+000 4.829494e+001
      endloop
   endfacet
   facet normal 0.000000e+000 -1.000000e+000 0.000000e+000
      outer loop
         vertex 3.380592e+001 0.000000e+000 4.829494e+001
         vertex 6.358263e+001 0.000000e+000 8.129865e+001
         vertex 6.308273e+001 0.000000e+000 8.201259e+001
      endloop
   endfacet
   facet normal 0.000000e+000 -1.000000e+000 0.000000e+000
      outer loop
         vertex 3.380592e+001 0.000000e+000 4.829494e+001
         vertex 6.308273e+001 0.000000e+000 8.201259e+001
         vertex 1.641737e+001 0.000000e+000 8.129865e+001
      endloop
   endfacet
   facet normal 0.000000e+000 -1.000000e+000 0.000000e+000
      outer loop
         vertex 6.308273e+001 0.000000e+000 8.701259e+001
         vertex 6.358263e+001 0.000000e+000 8.772652e+001
         vertex 0.000000e+000 0.000000e+000 1.000000e+002
      endloop
   endfacet
   facet normal 0.000000e+000 -1.000000e+000 0.000000e+000
      outer loop
         vertex 0.000000e+000 0.000000e+000 1.000000e+002
         vertex 6.358263e+001 0.000000e+000 8.772652e+001
         vertex 6.419892e+001 0.000000e+000 8.834281e+001
      endloop
   endfacet
   facet normal 0.000000e+000 -1.000000e+000 0.000000e+000
      outer loop
         vertex 8.000000e+001 0.000000e+000 1.000000e+002
         vertex 7.062679e+001 0.000000e+000 8.834281e+001
         vertex 7.124308e+001 0.000000e+000 8.772652e+001
      endloop
   endfacet
   facet normal 0.000000e+000 -1.000000e+000 0.000000e+000
      outer loop
         vertex 3.203703e+001 0.000000e+000 4.450157e+001
         vertex 3.240182e+001 0.000000e+000 4.586299e+001
         vertex 1.429725e+001 0.000000e+000 7.981412e+001
      endloop
   endfacet
   facet normal 0.000000e+000 -1.000000e+000 0.000000e+000
      outer loop
         vertex 1.429725e+001 0.000000e+000 7.981412e+001
         vertex 3.240182e+001 0.000000e+000 4.586299e+001
         vertex 3.299749e+001 0.000000e+000 4.714038e+001
      endloop
   endfacet
   facet normal 0.000000e+000 -1.000000e+000 0.000000e+000
      outer loop
         vertex 1.429725e+001 0.000000e+000 7.981412e+001
         vertex 3.299749e+001 0.000000e+000 4.714038e+001
         vertex 1.508715e+001 0.000000e+000 8.018246e+001
      endloop
   endfacet
   facet normal 0.000000e+000 -1.000000e+000 0.000000e+000
      outer loop
         vertex 1.508715e+001 0.000000e+000 8.018246e+001
         vertex 3.299749e+001 0.000000e+000 4.714038e+001
         vertex 3.380592e+001 0.000000e+000 4.829494e+001
      endloop
   endfacet
   facet normal 0.000000e+000 -1.000000e+000 0.000000e+000
      outer loop
         vertex 1.508715e+001 0.000000e+000 8.018246e+001
         vertex 3.380592e+001 0.000000e+000 4.829494e+001
         vertex 1.580108e+001 0.000000e+000 8.068237e+001
      endloop
   endfacet
   facet normal 0.000000e+000 -1.000000e+000 0.000000e+000
      outer loop
         vertex 1.580108e+001 0.000000e+000 8.068237e+001
         vertex 3.380592e+001 0.000000e+000 4.829494e+001
         vertex 1.641737e+001 0.000000e+000 8.129865e+001
      endloop
   endfacet
   facet normal 0.000000e+000 -1.000000e+000 0.000000e+000
      outer loop
         vertex 1.508715e+001 0.000000e+000 8.884271e+001
         vertex 1.580108e+001 0.000000e+000 8.834281e+001
         vertex 6.248882e+001 0.000000e+000 8.538083e+001
      endloop
   endfacet
   facet normal 0.000000e+000 -1.000000e+000 0.000000e+000
      outer loop
         vertex 6.248882e+001 0.000000e+000 8.538083e+001
         vertex 1.580108e+001 0.000000e+000 8.834281e+001
         vertex 1.641737e+001 0.000000e+000 8.772652e+001
      endloop
   endfacet
   facet normal 0.000000e+000 -1.000000e+000 0.000000e+000
      outer loop
         vertex 6.248882e+001 0.000000e+000 8.538083e+001
         vertex 1.641737e+001 0.000000e+000 8.772652e+001
         vertex 1.691727e+001 0.000000e+000 8.701259e+001
      endloop
   endfacet
   facet normal 0.000000e+000 -1.000000e+000 0.000000e+000
      outer loop
         vertex 6.308273e+001 0.000000e+000 8.201259e+001
         vertex 6.271439e+001 0.000000e+000 8.280248e+001
         vertex 1.641737e+001 0.000000e+000 8.129865e+001
      endloop
   endfacet
   facet normal 0.000000e+000 -1.000000e+000 0.000000e+000
      outer loop
         vertex 1.641737e+001 0.000000e+000 8.129865e+001
         vertex 6.271439e+001 0.000000e+000 8.280248e+001
         vertex 6.248882e+001 0.000000e+000 8.364435e+001
      endloop
   endfacet
   facet normal 0.000000e+000 -1.000000e+000 0.000000e+000
      outer loop
         vertex 1.641737e+001 0.000000e+000 8.129865e+001
         vertex 6.248882e+001 0.000000e+000 8.364435e+001
         vertex 1.691727e+001 0.000000e+000 8.201259e+001
      endloop
   endfacet
   facet normal 0.000000e+000 -1.000000e+000 0.000000e+000
      outer loop
         vertex 1.691727e+001 0.000000e+000 8.201259e+001
         vertex 6.248882e+001 0.000000e+000 8.364435e+001
         vertex 1.728561e+001 0.000000e+000 8.280248e+001
      endloop
   endfacet
   facet normal 0.000000e+000 -1.000000e+000 0.000000e+000
      outer loop
         vertex 1.429725e+001 0.000000e+000 8.921104e+001
         vertex 6.248882e+001 0.000000e+000 8.538083e+001
         vertex 0.000000e+000 0.000000e+000 1.000000e+002
      endloop
   endfacet
   facet normal 0.000000e+000 -1.000000e+000 0.000000e+000
      outer loop
         vertex 0.000000e+000 0.000000e+000 1.000000e+002
         vertex 6.248882e+001 0.000000e+000 8.538083e+001
         vertex 6.271439e+001 0.000000e+000 8.622269e+001
      endloop
   endfacet
   facet normal 0.000000e+000 -1.000000e+000 0.000000e+000
      outer loop
         vertex 0.000000e+000 0.000000e+000 1.000000e+002
         vertex 6.271439e+001 0.000000e+000 8.622269e+001
         vertex 6.308273e+001 0.000000e+000 8.701259e+001
      endloop
   endfacet
   facet normal 0.000000e+000 -1.000000e+000 0.000000e+000
      outer loop
         vertex 6.419892e+001 0.000000e+000 8.834281e+001
         vertex 6.491286e+001 0.000000e+000 8.884271e+001
         vertex 0.000000e+000 0.000000e+000 1.000000e+002
      endloop
   endfacet
   facet normal 0.000000e+000 -1.000000e+000 0.000000e+000
      outer loop
         vertex 0.000000e+000 0.000000e+000 1.000000e+002
         vertex 6.491286e+001 0.000000e+000 8.884271e+001
         vertex 6.570275e+001 0.000000e+000 8.921104e+001
      endloop
   endfacet
   facet normal 0.000000e+000 -1.000000e+000 0.000000e+000
      outer loop
         vertex 0.000000e+000 0.000000e+000 1.000000e+002
         vertex 6.570275e+001 0.000000e+000 8.921104e+001
         vertex 8.000000e+001 0.000000e+000 1.000000e+002
      endloop
   endfacet
   facet normal 0.000000e+000 -1.000000e+000 0.000000e+000
      outer loop
         vertex 8.000000e+001 0.000000e+000 1.000000e+002
         vertex 6.570275e+001 0.000000e+000 8.921104e+001
         vertex 6.654462e+001 0.000000e+000 8.943663e+001
      endloop
   endfacet
   facet normal 0.000000e+000 -1.000000e+000 0.000000e+000
      outer loop
         vertex 8.000000e+001 0.000000e+000 1.000000e+002
         vertex 6.654462e+001 0.000000e+000 8.943663e+001
         vertex 6.741286e+001 0.000000e+000 8.951259e+001
      endloop
   endfacet
   facet normal 0.000000e+000 -1.000000e+000 0.000000e+000
      outer loop
         vertex 6.828109e+001 0.000000e+000 8.943663e+001
         vertex 6.912296e+001 0.000000e+000 8.921104e+001
         vertex 8.000000e+001 0.000000e+000 1.000000e+002
      endloop
   endfacet
   facet normal 0.000000e+000 -1.000000e+000 0.000000e+000
      outer loop
         vertex 8.000000e+001 0.000000e+000 1.000000e+002
         vertex 6.912296e+001 0.000000e+000 8.921104e+001
         vertex 6.991285e+001 0.000000e+000 8.884271e+001
      endloop
   endfacet
   facet normal 0.000000e+000 -1.000000e+000 0.000000e+000
      outer loop
         vertex 8.000000e+001 0.000000e+000 1.000000e+002
         vertex 6.991285e+001 0.000000e+000 8.884271e+001
         vertex 7.062679e+001 0.000000e+000 8.834281e+001
      endloop
   endfacet
   facet normal 0.000000e+000 -1.000000e+000 0.000000e+000
      outer loop
         vertex 1.691727e+001 0.000000e+000 8.701259e+001
         vertex 1.728561e+001 0.000000e+000 8.622269e+001
         vertex 6.248882e+001 0.000000e+000 8.538083e+001
      endloop
   endfacet
   facet normal 0.000000e+000 -1.000000e+000 0.000000e+000
      outer loop
         vertex 6.248882e+001 0.000000e+000 8.538083e+001
         vertex 1.728561e+001 0.000000e+000 8.622269e+001
         vertex 1.751118e+001 0.000000e+000 8.538083e+001
      endloop
   endfacet
   facet normal 0.000000e+000 -1.000000e+000 0.000000e+000
      outer loop
         vertex 6.248882e+001 0.000000e+000 8.538083e+001
         vertex 1.751118e+001 0.000000e+000 8.538083e+001
         vertex 6.241285e+001 0.000000e+000 8.451258e+001
      endloop
   endfacet
   facet normal 0.000000e+000 -1.000000e+000 0.000000e+000
      outer loop
         vertex 6.241285e+001 0.000000e+000 8.451258e+001
         vertex 1.751118e+001 0.000000e+000 8.538083e+001
         vertex 1.758714e+001 0.000000e+000 8.451258e+001
      endloop
   endfacet
   facet normal 0.000000e+000 -1.000000e+000 0.000000e+000
      outer loop
         vertex 6.241285e+001 0.000000e+000 8.451258e+001
         vertex 1.758714e+001 0.000000e+000 8.451258e+001
         vertex 6.248882e+001 0.000000e+000 8.364435e+001
      endloop
   endfacet
   facet normal 0.000000e+000 -1.000000e+000 0.000000e+000
      outer loop
         vertex 6.248882e+001 0.000000e+000 8.364435e+001
         vertex 1.758714e+001 0.000000e+000 8.451258e+001
         vertex 1.751118e+001 0.000000e+000 8.364435e+001
      endloop
   endfacet
   facet normal 0.000000e+000 -1.000000e+000 0.000000e+000
      outer loop
         vertex 6.248882e+001 0.000000e+000 8.364435e+001
         vertex 1.751118e+001 0.000000e+000 8.364435e+001
         vertex 1.728561e+001 0.000000e+000 8.280248e+001
      endloop
   endfacet
   facet normal 0.000000e+000 -1.000000e+000 0.000000e+000
      outer loop
         vertex 7.124308e+001 0.000000e+000 8.772652e+001
         vertex 7.174298e+001 0.000000e+000 8.701259e+001
         vertex 8.000000e+001 0.000000e+000 1.000000e+002
      endloop
   endfacet
   facet normal 0.000000e+000 -1.000000e+000 0.000000e+000
      outer loop
         vertex 8.000000e+001 0.000000e+000 1.000000e+002
         vertex 7.174298e+001 0.000000e+000 8.701259e+001
         vertex 7.211131e+001 0.000000e+000 8.622269e+001
      endloop
   endfacet
   facet normal 0.000000e+000 -1.000000e+000 0.000000e+000
      outer loop
         vertex 8.000000e+001 0.000000e+000 1.000000e+002
         vertex 7.211131e+001 0.000000e+000 8.622269e+001
         vertex 7.233689e+001 0.000000e+000 8.538083e+001
      endloop
   endfacet
   facet normal 0.000000e+000 -1.000000e+000 0.000000e+000
      outer loop
         vertex 7.174298e+001 0.000000e+000 8.201259e+001
         vertex 7.124308e+001 0.000000e+000 8.129865e+001
         vertex 8.000000e+001 0.000000e+000 0.000000e+000
      endloop
   endfacet
   facet normal 0.000000e+000 -1.000000e+000 0.000000e+000
      outer loop
         vertex 8.000000e+001 0.000000e+000 0.000000e+000
         vertex 7.124308e+001 0.000000e+000 8.129865e+001
         vertex 7.062679e+001 0.000000e+000 8.068237e+001
      endloop
   endfacet
   facet normal 0.000000e+000 -1.000000e+000 0.000000e+000
      outer loop
         vertex 4.619409e+001 0.000000e+000 1.081586e+001
         vertex 4.519746e+001 0.000000e+000 9.819234e+000
         vertex 8.000000e+001 0.000000e+000 0.000000e+000
      endloop
   endfacet
   facet normal 0.000000e+000 -1.000000e+000 0.000000e+000
      outer loop
         vertex 8.000000e+001 0.000000e+000 0.000000e+000
         vertex 4.519746e+001 0.000000e+000 9.819234e+000
         vertex 4.404290e+001 0.000000e+000 9.010807e+000
      endloop
   endfacet
   facet normal 0.000000e+000 -1.000000e+000 0.000000e+000
      outer loop
         vertex 8.000000e+001 0.000000e+000 0.000000e+000
         vertex 4.404290e+001 0.000000e+000 9.010807e+000
         vertex 4.276551e+001 0.000000e+000 8.415148e+000
      endloop
   endfacet
   facet normal 0.000000e+000 -1.000000e+000 0.000000e+000
      outer loop
         vertex 7.233689e+001 0.000000e+000 8.538083e+001
         vertex 7.241286e+001 0.000000e+000 8.451258e+001
         vertex 8.000000e+001 0.000000e+000 1.000000e+002
      endloop
   endfacet
   facet normal 0.000000e+000 -1.000000e+000 0.000000e+000
      outer loop
         vertex 8.000000e+001 0.000000e+000 1.000000e+002
         vertex 7.241286e+001 0.000000e+000 8.451258e+001
         vertex 7.233689e+001 0.000000e+000 8.364435e+001
      endloop
   endfacet
   facet normal 0.000000e+000 -1.000000e+000 0.000000e+000
      outer loop
         vertex 8.000000e+001 0.000000e+000 1.000000e+002
         vertex 7.233689e+001 0.000000e+000 8.364435e+001
         vertex 8.000000e+001 0.000000e+000 0.000000e+000
      endloop
   endfacet
   facet normal 0.000000e+000 -1.000000e+000 0.000000e+000
      outer loop
         vertex 8.000000e+001 0.000000e+000 0.000000e+000
         vertex 7.233689e+001 0.000000e+000 8.364435e+001
         vertex 7.211131e+001 0.000000e+000 8.280248e+001
      endloop
   endfacet
   facet normal 0.000000e+000 -1.000000e+000 0.000000e+000
      outer loop
         vertex 8.000000e+001 0.000000e+000 0.000000e+000
         vertex 7.211131e+001 0.000000e+000 8.280248e+001
         vertex 7.174298e+001 0.000000e+000 8.201259e+001
      endloop
   endfacet
   facet normal 0.000000e+000 -1.000000e+000 0.000000e+000
      outer loop
         vertex 4.808580e+001 0.000000e+000 1.601332e+001
         vertex 4.796296e+001 0.000000e+000 1.460923e+001
         vertex 8.000000e+001 0.000000e+000 0.000000e+000
      endloop
   endfacet
   facet normal 0.000000e+000 -1.000000e+000 0.000000e+000
      outer loop
         vertex 7.062679e+001 0.000000e+000 8.068237e+001
         vertex 6.991285e+001 0.000000e+000 8.018246e+001
         vertex 8.000000e+001 0.000000e+000 0.000000e+000
      endloop
   endfacet
   facet normal 0.000000e+000 -1.000000e+000 0.000000e+000
      outer loop
         vertex 8.000000e+001 0.000000e+000 0.000000e+000
         vertex 6.991285e+001 0.000000e+000 8.018246e+001
         vertex 6.912296e+001 0.000000e+000 7.981412e+001
      endloop
   endfacet
   facet normal 0.000000e+000 -1.000000e+000 0.000000e+000
      outer loop
         vertex 8.000000e+001 0.000000e+000 0.000000e+000
         vertex 6.912296e+001 0.000000e+000 7.981412e+001
         vertex 6.828109e+001 0.000000e+000 7.958855e+001
      endloop
   endfacet
   facet normal 0.000000e+000 -1.000000e+000 0.000000e+000
      outer loop
         vertex 6.654462e+001 0.000000e+000 7.958855e+001
         vertex 3.480254e+001 0.000000e+000 4.929157e+001
         vertex 6.741286e+001 0.000000e+000 7.951259e+001
      endloop
   endfacet
   facet normal 0.000000e+000 -1.000000e+000 0.000000e+000
      outer loop
         vertex 6.741286e+001 0.000000e+000 7.951259e+001
         vertex 3.480254e+001 0.000000e+000 4.929157e+001
         vertex 3.595710e+001 0.000000e+000 5.009999e+001
      endloop
   endfacet
   facet normal 0.000000e+000 -1.000000e+000 0.000000e+000
      outer loop
         vertex 6.741286e+001 0.000000e+000 7.951259e+001
         vertex 3.595710e+001 0.000000e+000 5.009999e+001
         vertex 3.723449e+001 0.000000e+000 5.069566e+001
      endloop
   endfacet
   facet normal 0.000000e+000 -1.000000e+000 0.000000e+000
      outer loop
         vertex 3.723449e+001 0.000000e+000 5.069566e+001
         vertex 3.859592e+001 0.000000e+000 5.106044e+001
         vertex 6.741286e+001 0.000000e+000 7.951259e+001
      endloop
   endfacet
   facet normal 0.000000e+000 -1.000000e+000 0.000000e+000
      outer loop
         vertex 6.741286e+001 0.000000e+000 7.951259e+001
         vertex 3.859592e+001 0.000000e+000 5.106044e+001
         vertex 4.000000e+001 0.000000e+000 5.118329e+001
      endloop
   endfacet
   facet normal 0.000000e+000 -1.000000e+000 0.000000e+000
      outer loop
         vertex 6.741286e+001 0.000000e+000 7.951259e+001
         vertex 4.000000e+001 0.000000e+000 5.118329e+001
         vertex 4.140409e+001 0.000000e+000 5.106044e+001
      endloop
   endfacet
   facet normal 0.000000e+000 -1.000000e+000 0.000000e+000
      outer loop
         vertex 4.619409e+001 0.000000e+000 4.829494e+001
         vertex 4.700251e+001 0.000000e+000 4.714038e+001
         vertex 6.828109e+001 0.000000e+000 7.958855e+001
      endloop
   endfacet
   facet normal 0.000000e+000 -1.000000e+000 0.000000e+000
      outer loop
         vertex 4.796296e+001 0.000000e+000 1.460923e+001
         vertex 4.759817e+001 0.000000e+000 1.324781e+001
         vertex 8.000000e+001 0.000000e+000 0.000000e+000
      endloop
   endfacet
   facet normal 0.000000e+000 -1.000000e+000 0.000000e+000
      outer loop
         vertex 8.000000e+001 0.000000e+000 0.000000e+000
         vertex 4.759817e+001 0.000000e+000 1.324781e+001
         vertex 4.700251e+001 0.000000e+000 1.197042e+001
      endloop
   endfacet
   facet normal 0.000000e+000 -1.000000e+000 0.000000e+000
      outer loop
         vertex 8.000000e+001 0.000000e+000 0.000000e+000
         vertex 4.700251e+001 0.000000e+000 1.197042e+001
         vertex 4.619409e+001 0.000000e+000 1.081586e+001
      endloop
   endfacet
   facet normal 0.000000e+000 -1.000000e+000 0.000000e+000
      outer loop
         vertex 4.140409e+001 0.000000e+000 5.106044e+001
         vertex 4.276551e+001 0.000000e+000 5.069566e+001
         vertex 6.741286e+001 0.000000e+000 7.951259e+001
      endloop
   endfacet
   facet normal 0.000000e+000 -1.000000e+000 0.000000e+000
      outer loop
         vertex 6.741286e+001 0.000000e+000 7.951259e+001
         vertex 4.276551e+001 0.000000e+000 5.069566e+001
         vertex 4.404290e+001 0.000000e+000 5.009999e+001
      endloop
   endfacet
   facet normal 0.000000e+000 -1.000000e+000 0.000000e+000
      outer loop
         vertex 6.741286e+001 0.000000e+000 7.951259e+001
         vertex 4.404290e+001 0.000000e+000 5.009999e+001
         vertex 6.828109e+001 0.000000e+000 7.958855e+001
      endloop
   endfacet
   facet normal 0.000000e+000 -1.000000e+000 0.000000e+000
      outer loop
         vertex 6.828109e+001 0.000000e+000 7.958855e+001
         vertex 4.404290e+001 0.000000e+000 5.009999e+001
         vertex 4.519746e+001 0.000000e+000 4.929157e+001
      endloop
   endfacet
   facet normal 0.000000e+000 -1.000000e+000 0.000000e+000
      outer loop
         vertex 6.828109e+001 0.000000e+000 7.958855e+001
         vertex 4.519746e+001 0.000000e+000 4.929157e+001
         vertex 4.619409e+001 0.000000e+000 4.829494e+001
      endloop
   endfacet
   facet normal 0.000000e+000 -1.000000e+000 0.000000e+000
      outer loop
         vertex 4.700251e+001 0.000000e+000 4.714038e+001
         vertex 4.759817e+001 0.000000e+000 4.586299e+001
         vertex 6.828109e+001 0.000000e+000 7.958855e+001
      endloop
   endfacet
   facet normal 0.000000e+000 -1.000000e+000 0.000000e+000
      outer loop
         vertex 6.828109e+001 0.000000e+000 7.958855e+001
         vertex 4.759817e+001 0.000000e+000 4.586299e+001
         vertex 4.796296e+001 0.000000e+000 4.450157e+001
      endloop
   endfacet
   facet normal 0.000000e+000 -1.000000e+000 0.000000e+000
      outer loop
         vertex 6.828109e+001 0.000000e+000 7.958855e+001
         vertex 4.796296e+001 0.000000e+000 4.450157e+001
         vertex 8.000000e+001 0.000000e+000 0.000000e+000
      endloop
   endfacet
   facet normal 0.000000e+000 -1.000000e+000 0.000000e+000
      outer loop
         vertex 8.000000e+001 0.000000e+000 0.000000e+000
         vertex 4.796296e+001 0.000000e+000 4.450157e+001
         vertex 4.808580e+001 0.000000e+000 4.309748e+001
      endloop
   endfacet
   facet normal 0.000000e+000 -1.000000e+000 0.000000e+000
      outer loop
         vertex 8.000000e+001 0.000000e+000 0.000000e+000
         vertex 4.808580e+001 0.000000e+000 4.309748e+001
         vertex 4.808580e+001 0.000000e+000 1.601332e+001
      endloop
   endfacet
   facet normal 0.000000e+000 1.000000e+000 0.000000e+000
      outer loop
         vertex 3.859592e+001 1.500000e+001 5.106044e+001
         vertex 7.347881e-015 1.500000e+001 6.000000e+001
         vertex 4.000000e+001 1.500000e+001 5.118329e+001
      endloop
   endfacet
   facet normal 0.000000e+000 1.000000e+000 0.000000e+000
      outer loop
         vertex 4.000000e+001 1.500000e+001 5.118329e+001
         vertex 7.347881e-015 1.500000e+001 6.000000e+001
         vertex 8.000000e+001 1.500000e+001 6.000000e+001
      endloop
   endfacet
   facet normal 0.000000e+000 1.000000e+000 0.000000e+000
      outer loop
         vertex 4.000000e+001 1.500000e+001 5.118329e+001
         vertex 8.000000e+001 1.500000e+001 6.000000e+001
         vertex 4.140409e+001 1.500000e+001 5.106044e+001
      endloop
   endfacet
   facet normal 0.000000e+000 1.000000e+000 0.000000e+000
      outer loop
         vertex 4.619409e+001 1.500000e+001 4.829494e+001
         vertex 4.519746e+001 1.500000e+001 4.929157e+001
         vertex 8.000000e+001 1.500000e+001 6.000000e+001
      endloop
   endfacet
   facet normal 0.000000e+000 1.000000e+000 0.000000e+000
      outer loop
         vertex 3.859592e+001 1.500000e+001 5.106044e+001
         vertex 3.723449e+001 1.500000e+001 5.069566e+001
         vertex 7.347881e-015 1.500000e+001 6.000000e+001
      endloop
   endfacet
   facet normal 0.000000e+000 1.000000e+000 0.000000e+000
      outer loop
         vertex 7.347881e-015 1.500000e+001 6.000000e+001
         vertex 3.723449e+001 1.500000e+001 5.069566e+001
         vertex 3.595710e+001 1.500000e+001 5.009999e+001
      endloop
   endfacet
   facet normal 0.000000e+000 1.000000e+000 0.000000e+000
      outer loop
         vertex 7.347881e-015 1.500000e+001 6.000000e+001
         vertex 3.595710e+001 1.500000e+001 5.009999e+001
         vertex 3.480254e+001 1.500000e+001 4.929157e+001
      endloop
   endfacet
   facet normal 0.000000e+000 1.000000e+000 0.000000e+000
      outer loop
         vertex 4.519746e+001 1.500000e+001 4.929157e+001
         vertex 4.404290e+001 1.500000e+001 5.009999e+001
         vertex 8.000000e+001 1.500000e+001 6.000000e+001
      endloop
   endfacet
   facet normal 0.000000e+000 1.000000e+000 0.000000e+000
      outer loop
         vertex 8.000000e+001 1.500000e+001 6.000000e+001
         vertex 4.404290e+001 1.500000e+001 5.009999e+001
         vertex 4.276551e+001 1.500000e+001 5.069566e+001
      endloop
   endfacet
   facet normal 0.000000e+000 1.000000e+000 0.000000e+000
      outer loop
         vertex 8.000000e+001 1.500000e+001 6.000000e+001
         vertex 4.276551e+001 1.500000e+001 5.069566e+001
         vertex 4.140409e+001 1.500000e+001 5.106044e+001
      endloop
   endfacet
   facet normal 0.000000e+000 1.000000e+000 0.000000e+000
      outer loop
         vertex 3.480254e+001 1.500000e+001 4.929157e+001
         vertex 3.380592e+001 1.500000e+001 4.829494e+001
         vertex 7.347881e-015 1.500000e+001 6.000000e+001
      endloop
   endfacet
   facet normal 0.000000e+000 1.000000e+000 0.000000e+000
      outer loop
         vertex 7.347881e-015 1.500000e+001 6.000000e+001
         vertex 3.380592e+001 1.500000e+001 4.829494e+001
         vertex 3.299749e+001 1.500000e+001 4.714038e+001
      endloop
   endfacet
   facet normal 0.000000e+000 1.000000e+000 0.000000e+000
      outer loop
         vertex 7.347881e-015 1.500000e+001 6.000000e+001
         vertex 3.299749e+001 1.500000e+001 4.714038e+001
         vertex 3.240182e+001 1.500000e+001 4.586299e+001
      endloop
   endfacet
   facet normal 0.000000e+000 1.000000e+000 0.000000e+000
      outer loop
         vertex 3.240182e+001 1.500000e+001 4.586299e+001
         vertex 3.203703e+001 1.500000e+001 4.450157e+001
         vertex 7.347881e-015 1.500000e+001 6.000000e+001
      endloop
   endfacet
   facet normal 0.000000e+000 1.000000e+000 0.000000e+000
      outer loop
         vertex 7.347881e-015 1.500000e+001 6.000000e+001
         vertex 3.203703e+001 1.500000e+001 4.450157e+001
         vertex 3.191419e+001 1.500000e+001 4.309748e+001
      endloop
   endfacet
   facet normal 0.000000e+000 1.000000e+000 0.000000e+000
      outer loop
         vertex 7.347881e-015 1.500000e+001 6.000000e+001
         vertex 3.191419e+001 1.500000e+001 4.309748e+001
         vertex 0.000000e+000 1.500000e+001 0.000000e+000
      endloop
   endfacet
   facet normal 0.000000e+000 1.000000e+000 0.000000e+000
      outer loop
         vertex 0.000000e+000 1.500000e+001 0.000000e+000
         vertex 3.191419e+001 1.500000e+001 4.309748e+001
         vertex 3.191419e+001 1.500000e+001 1.601332e+001
      endloop
   endfacet
   facet normal 0.000000e+000 1.000000e+000 0.000000e+000
      outer loop
         vertex 0.000000e+000 1.500000e+001 0.000000e+000
         vertex 3.191419e+001 1.500000e+001 1.601332e+001
         vertex 3.203703e+001 1.500000e+001 1.460923e+001
      endloop
   endfacet
   facet normal 0.000000e+000 1.000000e+000 0.000000e+000
      outer loop
         vertex 4.276551e+001 1.500000e+001 8.415148e+000
         vertex 4.404290e+001 1.500000e+001 9.010807e+000
         vertex 8.000000e+001 1.500000e+001 0.000000e+000
      endloop
   endfacet
   facet normal 0.000000e+000 1.000000e+000 0.000000e+000
      outer loop
         vertex 8.000000e+001 1.500000e+001 0.000000e+000
         vertex 4.404290e+001 1.500000e+001 9.010807e+000
         vertex 4.519746e+001 1.500000e+001 9.819234e+000
      endloop
   endfacet
   facet normal 0.000000e+000 1.000000e+000 0.000000e+000
      outer loop
         vertex 4.796296e+001 1.500000e+001 4.450157e+001
         vertex 4.759817e+001 1.500000e+001 4.586299e+001
         vertex 8.000000e+001 1.500000e+001 6.000000e+001
      endloop
   endfacet
   facet normal 0.000000e+000 1.000000e+000 0.000000e+000
      outer loop
         vertex 8.000000e+001 1.500000e+001 6.000000e+001
         vertex 4.759817e+001 1.500000e+001 4.586299e+001
         vertex 4.700251e+001 1.500000e+001 4.714038e+001
      endloop
   endfacet
   facet normal 0.000000e+000 1.000000e+000 0.000000e+000
      outer loop
         vertex 8.000000e+001 1.500000e+001 6.000000e+001
         vertex 4.700251e+001 1.500000e+001 4.714038e+001
         vertex 4.619409e+001 1.500000e+001 4.829494e+001
      endloop
   endfacet
   facet normal 0.000000e+000 1.000000e+000 0.000000e+000
      outer loop
         vertex 3.203703e+001 1.500000e+001 1.460923e+001
         vertex 3.240182e+001 1.500000e+001 1.324781e+001
         vertex 0.000000e+000 1.500000e+001 0.000000e+000
      endloop
   endfacet
   facet normal 0.000000e+000 1.000000e+000 0.000000e+000
      outer loop
         vertex 0.000000e+000 1.500000e+001 0.000000e+000
         vertex 3.240182e+001 1.500000e+001 1.324781e+001
         vertex 3.299749e+001 1.500000e+001 1.197042e+001
      endloop
   endfacet
   facet normal 0.000000e+000 1.000000e+000 0.000000e+000
      outer loop
         vertex 0.000000e+000 1.500000e+001 0.000000e+000
         vertex 3.299749e+001 1.500000e+001 1.197042e+001
         vertex 3.380592e+001 1.500000e+001 1.081586e+001
      endloop
   endfacet
   facet normal 0.000000e+000 1.000000e+000 0.000000e+000
      outer loop
         vertex 4.519746e+001 1.500000e+001 9.819234e+000
         vertex 4.619409e+001 1.500000e+001 1.081586e+001
         vertex 8.000000e+001 1.500000e+001 0.000000e+000
      endloop
   endfacet
   facet normal 0.000000e+000 1.000000e+000 0.000000e+000
      outer loop
         vertex 8.000000e+001 1.500000e+001 0.000000e+000
         vertex 4.619409e+001 1.500000e+001 1.081586e+001
         vertex 4.700251e+001 1.500000e+001 1.197042e+001
      endloop
   endfacet
   facet normal 0.000000e+000 1.000000e+000 0.000000e+000
      outer loop
         vertex 8.000000e+001 1.500000e+001 0.000000e+000
         vertex 4.700251e+001 1.500000e+001 1.197042e+001
         vertex 4.759817e+001 1.500000e+001 1.324781e+001
      endloop
   endfacet
   facet normal 0.000000e+000 1.000000e+000 0.000000e+000
      outer loop
         vertex 3.380592e+001 1.500000e+001 1.081586e+001
         vertex 3.480254e+001 1.500000e+001 9.819234e+000
         vertex 0.000000e+000 1.500000e+001 0.000000e+000
      endloop
   endfacet
   facet normal 0.000000e+000 1.000000e+000 0.000000e+000
      outer loop
         vertex 0.000000e+000 1.500000e+001 0.000000e+000
         vertex 3.480254e+001 1.500000e+001 9.819234e+000
         vertex 3.595710e+001 1.500000e+001 9.010807e+000
      endloop
   endfacet
   facet normal 0.000000e+000 1.000000e+000 0.000000e+000
      outer loop
         vertex 0.000000e+000 1.500000e+001 0.000000e+000
         vertex 3.595710e+001 1.500000e+001 9.010807e+000
         vertex 3.723449e+001 1.500000e+001 8.415148e+000
      endloop
   endfacet
   facet normal 0.000000e+000 1.000000e+000 0.000000e+000
      outer loop
         vertex 3.723449e+001 1.500000e+001 8.415148e+000
         vertex 3.859592e+001 1.500000e+001 8.050356e+000
         vertex 0.000000e+000 1.500000e+001 0.000000e+000
      endloop
   endfacet
   facet normal 0.000000e+000 1.000000e+000 0.000000e+000
      outer loop
         vertex 0.000000e+000 1.500000e+001 0.000000e+000
         vertex 3.859592e+001 1.500000e+001 8.050356e+000
         vertex 4.000000e+001 1.500000e+001 7.927515e+000
      endloop
   endfacet
   facet normal 0.000000e+000 1.000000e+000 0.000000e+000
      outer loop
         vertex 0.000000e+000 1.500000e+001 0.000000e+000
         vertex 4.000000e+001 1.500000e+001 7.927515e+000
         vertex 8.000000e+001 1.500000e+001 0.000000e+000
      endloop
   endfacet
   facet normal 0.000000e+000 1.000000e+000 0.000000e+000
      outer loop
         vertex 8.000000e+001 1.500000e+001 0.000000e+000
         vertex 4.000000e+001 1.500000e+001 7.927515e+000
         vertex 4.140409e+001 1.500000e+001 8.050356e+000
      endloop
   endfacet
   facet normal 0.000000e+000 1.000000e+000 0.000000e+000
      outer loop
         vertex 8.000000e+001 1.500000e+001 0.000000e+000
         vertex 4.140409e+001 1.500000e+001 8.050356e+000
         vertex 4.276551e+001 1.500000e+001 8.415148e+000
      endloop
   endfacet
   facet normal 0.000000e+000 1.000000e+000 0.000000e+000
      outer loop
         vertex 4.759817e+001 1.500000e+001 1.324781e+001
         vertex 4.796296e+001 1.500000e+001 1.460923e+001
         vertex 8.000000e+001 1.500000e+001 0.000000e+000
      endloop
   endfacet
   facet normal 0.000000e+000 1.000000e+000 0.000000e+000
      outer loop
         vertex 8.000000e+001 1.500000e+001 0.000000e+000
         vertex 4.796296e+001 1.500000e+001 1.460923e+001
         vertex 4.808580e+001 1.500000e+001 1.601332e+001
      endloop
   endfacet
   facet normal 0.000000e+000 1.000000e+000 0.000000e+000
      outer loop
         vertex 8.000000e+001 1.500000e+001 0.000000e+000
         vertex 4.808580e+001 1.500000e+001 1.601332e+001
         vertex 8.000000e+001 1.500000e+001 6.000000e+001
      endloop
   endfacet
   facet normal 0.000000e+000 1.000000e+000 0.000000e+000
      outer loop
         vertex 8.000000e+001 1.500000e+001 6.000000e+001
         vertex 4.808580e+001 1.500000e+001 1.601332e+001
         vertex 4.808580e+001 1.500000e+001 4.309748e+001
      endloop
   endfacet
   facet normal 0.000000e+000 1.000000e+000 0.000000e+000
      outer loop
         vertex 8.000000e+001 1.500000e+001 6.000000e+001
         vertex 4.808580e+001 1.500000e+001 4.309748e+001
         vertex 4.796296e+001 1.500000e+001 4.450157e+001
      endloop
   endfacet
endsolid