solid 1-4
   facet normal 0.000000e+000 1.000000e+000 0.000000e+000
      outer loop
         vertex 2.000000e+001 2.500000e+001 6.000000e+001
         vertex 3.000000e+001 2.500000e+001 1.000000e+002
         vertex 6.000000e+001 2.500000e+001 6.000000e+001
      endloop
   endfacet
   facet normal 0.000000e+000 1.000000e+000 0.000000e+000
      outer loop
         vertex 6.000000e+001 2.500000e+001 6.000000e+001
         vertex 3.000000e+001 2.500000e+001 1.000000e+002
         vertex 5.000000e+001 2.500000e+001 1.000000e+002
      endloop
   endfacet
endsolid