solid 1-5
   facet normal -1.000000e+000 0.000000e+000 0.000000e+000
      outer loop
         vertex 0.000000e+000 1.500000e+001 0.000000e+000
         vertex 0.000000e+000 0.000000e+000 0.000000e+000
         vertex 0.000000e+000 1.500000e+001 6.000000e+001
      endloop
   endfacet
   facet normal -1.000000e+000 0.000000e+000 0.000000e+000
      outer loop
         vertex 0.000000e+000 1.500000e+001 6.000000e+001
         vertex 0.000000e+000 0.000000e+000 0.000000e+000
         vertex 0.000000e+000 0.000000e+000 1.000000e+002
      endloop
   endfacet
   facet normal -1.000000e+000 0.000000e+000 0.000000e+000
      outer loop
         vertex 0.000000e+000 1.500000e+001 6.000000e+001
         vertex 0.000000e+000 0.000000e+000 1.000000e+002
         vertex 0.000000e+000 4.000000e+001 6.000000e+001
      endloop
   endfacet
   facet normal -1.000000e+000 0.000000e+000 0.000000e+000
      outer loop
         vertex 0.000000e+000 4.000000e+001 6.000000e+001
         vertex 0.000000e+000 0.000000e+000 1.000000e+002
         vertex 0.000000e+000 4.000000e+001 1.000000e+002
      endloop
   endfacet
   facet normal 1.000000e+000 0.000000e+000 0.000000e+000
      outer loop
         vertex 8.000000e+001 4.000000e+001 6.000000e+001
         vertex 8.000000e+001 4.000000e+001 1.000000e+002
         vertex 8.000000e+001 1.500000e+001 6.000000e+001
      endloop
   endfacet
   facet normal 1.000000e+000 0.000000e+000 0.000000e+000
      outer loop
         vertex 8.000000e+001 1.500000e+001 6.000000e+001
         vertex 8.000000e+001 4.000000e+001 1.000000e+002
         vertex 8.000000e+001 0.000000e+000 1.000000e+002
      endloop
   endfacet
   facet normal 1.000000e+000 0.000000e+000 0.000000e+000
      outer loop
         vertex 8.000000e+001 1.500000e+001 6.000000e+001
         vertex 8.000000e+001 0.000000e+000 1.000000e+002
         vertex 8.000000e+001 1.500000e+001 0.000000e+000
      endloop
   endfacet
   facet normal 1.000000e+000 0.000000e+000 0.000000e+000
      outer loop
         vertex 8.000000e+001 1.500000e+001 0.000000e+000
         vertex 8.000000e+001 0.000000e+000 1.000000e+002
         vertex 8.000000e+001 0.000000e+000 0.000000e+000
      endloop
   endfacet
endsolid