solid 1-6
   facet normal 9.701425e-001 0.000000e+000 -2.425356e-001
      outer loop
         vertex 3.000000e+001 2.500000e+001 1.000000e+002
         vertex 2.000000e+001 2.500000e+001 6.000000e+001
         vertex 3.000000e+001 4.000000e+001 1.000000e+002
      endloop
   endfacet
   facet normal 9.701425e-001 0.000000e+000 -2.425356e-001
      outer loop
         vertex 3.000000e+001 4.000000e+001 1.000000e+002
         vertex 2.000000e+001 2.500000e+001 6.000000e+001
         vertex 2.000000e+001 4.000000e+001 6.000000e+001
      endloop
   endfacet
   facet normal -9.701425e-001 0.000000e+000 -2.425356e-001
      outer loop
         vertex 6.000000e+001 2.500000e+001 6.000000e+001
         vertex 5.000000e+001 2.500000e+001 1.000000e+002
         vertex 6.000000e+001 4.000000e+001 6.000000e+001
      endloop
   endfacet
   facet normal -9.701425e-001 0.000000e+000 -2.425356e-001
      outer loop
         vertex 6.000000e+001 4.000000e+001 6.000000e+001
         vertex 5.000000e+001 2.500000e+001 1.000000e+002
         vertex 5.000000e+001 4.000000e+001 1.000000e+002
      endloop
   endfacet
endsolid