solid 1-7
   facet normal 0.000000e+000 0.000000e+000 -1.000000e+000
      outer loop
         vertex 6.000000e+001 4.000000e+001 6.000000e+001
         vertex 8.000000e+001 4.000000e+001 6.000000e+001
         vertex 6.000000e+001 2.500000e+001 6.000000e+001
      endloop
   endfacet
   facet normal 0.000000e+000 0.000000e+000 -1.000000e+000
      outer loop
         vertex 6.000000e+001 2.500000e+001 6.000000e+001
         vertex 8.000000e+001 4.000000e+001 6.000000e+001
         vertex 8.000000e+001 1.500000e+001 6.000000e+001
      endloop
   endfacet
   facet normal 0.000000e+000 0.000000e+000 -1.000000e+000
      outer loop
         vertex 6.000000e+001 2.500000e+001 6.000000e+001
         vertex 8.000000e+001 1.500000e+001 6.000000e+001
         vertex 2.000000e+001 2.500000e+001 6.000000e+001
      endloop
   endfacet
   facet normal 0.000000e+000 0.000000e+000 -1.000000e+000
      outer loop
         vertex 2.000000e+001 2.500000e+001 6.000000e+001
         vertex 8.000000e+001 1.500000e+001 6.000000e+001
         vertex 7.347881e-015 1.500000e+001 6.000000e+001
      endloop
   endfacet
   facet normal 0.000000e+000 0.000000e+000 -1.000000e+000
      outer loop
         vertex 2.000000e+001 2.500000e+001 6.000000e+001
         vertex 7.347881e-015 1.500000e+001 6.000000e+001
         vertex 2.000000e+001 4.000000e+001 6.000000e+001
      endloop
   endfacet
   facet normal 0.000000e+000 0.000000e+000 -1.000000e+000
      outer loop
         vertex 2.000000e+001 4.000000e+001 6.000000e+001
         vertex 7.347881e-015 1.500000e+001 6.000000e+001
         vertex 7.347881e-015 4.000000e+001 6.000000e+001
      endloop
   endfacet
endsolid