solid 1-8
   facet normal -9.987590e-001 0.000000e+000 4.980453e-002
      outer loop
         vertex 4.808580e+001 0.000000e+000 1.601332e+001
         vertex 4.808580e+001 1.500000e+001 1.601332e+001
         vertex 4.799549e+001 0.000000e+000 1.480819e+001
      endloop
   endfacet
   facet normal -9.950266e-001 0.000000e+000 9.960905e-002
      outer loop
         vertex 4.799549e+001 0.000000e+000 1.480819e+001
         vertex 4.808580e+001 1.500000e+001 1.601332e+001
         vertex 4.799549e+001 1.500000e+001 1.480819e+001
      endloop
   endfacet
   facet normal -9.801807e-001 0.000000e+000 1.981055e-001
      outer loop
         vertex 4.799549e+001 0.000000e+000 1.480819e+001
         vertex 4.799549e+001 1.500000e+001 1.480819e+001
         vertex 4.772657e+001 0.000000e+000 1.362999e+001
      endloop
   endfacet
   facet normal -9.690670e-001 0.000000e+000 2.467975e-001
      outer loop
         vertex 4.772657e+001 0.000000e+000 1.362999e+001
         vertex 4.799549e+001 1.500000e+001 1.480819e+001
         vertex 4.772657e+001 1.500000e+001 1.362999e+001
      endloop
   endfacet
   facet normal -9.397067e-001 0.000000e+000 3.419812e-001
      outer loop
         vertex 4.772657e+001 0.000000e+000 1.362999e+001
         vertex 4.772657e+001 1.500000e+001 1.362999e+001
         vertex 4.728506e+001 0.000000e+000 1.250502e+001
      endloop
   endfacet
   facet normal -9.214601e-001 0.000000e+000 3.884729e-001
      outer loop
         vertex 4.728506e+001 0.000000e+000 1.250502e+001
         vertex 4.772657e+001 1.500000e+001 1.362999e+001
         vertex 4.728506e+001 1.500000e+001 1.250502e+001
      endloop
   endfacet
   facet normal -8.782414e-001 0.000000e+000 4.782176e-001
      outer loop
         vertex 4.728506e+001 0.000000e+000 1.250502e+001
         vertex 4.728506e+001 1.500000e+001 1.250502e+001
         vertex 4.668081e+001 0.000000e+000 1.145842e+001
      endloop
   endfacet
   facet normal -8.532693e-001 0.000000e+000 5.214705e-001
      outer loop
         vertex 4.668081e+001 0.000000e+000 1.145842e+001
         vertex 4.728506e+001 1.500000e+001 1.250502e+001
         vertex 4.668081e+001 1.500000e+001 1.145842e+001
      endloop
   endfacet
   facet normal -7.971576e-001 0.000000e+000 6.037714e-001
      outer loop
         vertex 4.668081e+001 0.000000e+000 1.145842e+001
         vertex 4.668081e+001 1.500000e+001 1.145842e+001
         vertex 4.592731e+001 0.000000e+000 1.051358e+001
      endloop
   endfacet
   facet normal -7.660179e-001 0.000000e+000 6.428193e-001
      outer loop
         vertex 4.592731e+001 0.000000e+000 1.051358e+001
         vertex 4.668081e+001 1.500000e+001 1.145842e+001
         vertex 4.592731e+001 1.500000e+001 1.051358e+001
      endloop
   endfacet
   facet normal -6.982664e-001 0.000000e+000 7.158380e-001
      outer loop
         vertex 4.592731e+001 0.000000e+000 1.051358e+001
         vertex 4.592731e+001 1.500000e+001 1.051358e+001
         vertex 4.504142e+001 0.000000e+000 9.691582e+000
      endloop
   endfacet
   facet normal -6.616548e-001 0.000000e+000 7.498086e-001
      outer loop
         vertex 4.504142e+001 0.000000e+000 9.691582e+000
         vertex 4.592731e+001 1.500000e+001 1.051358e+001
         vertex 4.504142e+001 1.500000e+001 9.691582e+000
      endloop
   endfacet
   facet normal -5.837772e-001 0.000000e+000 8.119138e-001
      outer loop
         vertex 4.504142e+001 0.000000e+000 9.691582e+000
         vertex 4.504142e+001 1.500000e+001 9.691582e+000
         vertex 4.404290e+001 0.000000e+000 9.010807e+000
      endloop
   endfacet
   facet normal -5.425115e-001 0.000000e+000 8.400484e-001
      outer loop
         vertex 4.404290e+001 0.000000e+000 9.010807e+000
         vertex 4.504142e+001 1.500000e+001 9.691582e+000
         vertex 4.404290e+001 1.500000e+001 9.010807e+000
      endloop
   endfacet
   facet normal -4.562475e-001 0.000000e+000 8.898529e-001
      outer loop
         vertex 4.404290e+001 0.000000e+000 9.010807e+000
         vertex 4.404290e+001 1.500000e+001 9.010807e+000
         vertex 4.295407e+001 0.000000e+000 8.486455e+000
      endloop
   endfacet
   facet normal -4.112494e-001 0.000000e+000 9.115229e-001
      outer loop
         vertex 4.295407e+001 0.000000e+000 8.486455e+000
         vertex 4.404290e+001 1.500000e+001 9.010807e+000
         vertex 4.295407e+001 1.500000e+001 8.486455e+000
      endloop
   endfacet
   facet normal -3.185259e-001 0.000000e+000 9.479141e-001
      outer loop
         vertex 4.295407e+001 0.000000e+000 8.486455e+000
         vertex 4.295407e+001 1.500000e+001 8.486455e+000
         vertex 4.179926e+001 0.000000e+000 8.130242e+000
      endloop
   endfacet
   facet normal -2.708006e-001 0.000000e+000 9.626355e-001
      outer loop
         vertex 4.179926e+001 0.000000e+000 8.130242e+000
         vertex 4.295407e+001 1.500000e+001 8.486455e+000
         vertex 4.179926e+001 1.500000e+001 8.130242e+000
      endloop
   endfacet
   facet normal -1.736889e-001 0.000000e+000 9.848005e-001
      outer loop
         vertex 4.179926e+001 0.000000e+000 8.130242e+000
         vertex 4.179926e+001 1.500000e+001 8.130242e+000
         vertex 4.060425e+001 0.000000e+000 7.950123e+000
      endloop
   endfacet
   facet normal -1.243026e-001 0.000000e+000 9.922444e-001
      outer loop
         vertex 4.060425e+001 0.000000e+000 7.950123e+000
         vertex 4.179926e+001 1.500000e+001 8.130242e+000
         vertex 4.060425e+001 1.500000e+001 7.950123e+000
      endloop
   endfacet
   facet normal -2.497209e-002 0.000000e+000 9.996881e-001
      outer loop
         vertex 4.060425e+001 0.000000e+000 7.950123e+000
         vertex 4.060425e+001 1.500000e+001 7.950123e+000
         vertex 3.939574e+001 0.000000e+000 7.950123e+000
      endloop
   endfacet
   facet normal 2.497209e-002 0.000000e+000 9.996881e-001
      outer loop
         vertex 3.939574e+001 0.000000e+000 7.950123e+000
         vertex 4.060425e+001 1.500000e+001 7.950123e+000
         vertex 3.939574e+001 1.500000e+001 7.950123e+000
      endloop
   endfacet
   facet normal 1.243026e-001 0.000000e+000 9.922444e-001
      outer loop
         vertex 3.939574e+001 0.000000e+000 7.950123e+000
         vertex 3.939574e+001 1.500000e+001 7.950123e+000
         vertex 3.820074e+001 0.000000e+000 8.130242e+000
      endloop
   endfacet
   facet normal 1.736889e-001 0.000000e+000 9.848005e-001
      outer loop
         vertex 3.820074e+001 0.000000e+000 8.130242e+000
         vertex 3.939574e+001 1.500000e+001 7.950123e+000
         vertex 3.820074e+001 1.500000e+001 8.130242e+000
      endloop
   endfacet
   facet normal 2.708006e-001 0.000000e+000 9.626355e-001
      outer loop
         vertex 3.820074e+001 0.000000e+000 8.130242e+000
         vertex 3.820074e+001 1.500000e+001 8.130242e+000
         vertex 3.704592e+001 0.000000e+000 8.486455e+000
      endloop
   endfacet
   facet normal 3.185259e-001 0.000000e+000 9.479141e-001
      outer loop
         vertex 3.704592e+001 0.000000e+000 8.486455e+000
         vertex 3.820074e+001 1.500000e+001 8.130242e+000
         vertex 3.704592e+001 1.500000e+001 8.486455e+000
      endloop
   endfacet
   facet normal 4.112494e-001 0.000000e+000 9.115229e-001
      outer loop
         vertex 3.704592e+001 0.000000e+000 8.486455e+000
         vertex 3.704592e+001 1.500000e+001 8.486455e+000
         vertex 3.595710e+001 0.000000e+000 9.010807e+000
      endloop
   endfacet
   facet normal 4.562475e-001 0.000000e+000 8.898529e-001
      outer loop
         vertex 3.595710e+001 0.000000e+000 9.010807e+000
         vertex 3.704592e+001 1.500000e+001 8.486455e+000
         vertex 3.595710e+001 1.500000e+001 9.010807e+000
      endloop
   endfacet
   facet normal 5.425115e-001 0.000000e+000 8.400484e-001
      outer loop
         vertex 3.595710e+001 0.000000e+000 9.010807e+000
         vertex 3.595710e+001 1.500000e+001 9.010807e+000
         vertex 3.495858e+001 0.000000e+000 9.691582e+000
      endloop
   endfacet
   facet normal 5.837773e-001 0.000000e+000 8.119138e-001
      outer loop
         vertex 3.495858e+001 0.000000e+000 9.691582e+000
         vertex 3.595710e+001 1.500000e+001 9.010807e+000
         vertex 3.495858e+001 1.500000e+001 9.691582e+000
      endloop
   endfacet
   facet normal 6.616548e-001 0.000000e+000 7.498086e-001
      outer loop
         vertex 3.495858e+001 0.000000e+000 9.691582e+000
         vertex 3.495858e+001 1.500000e+001 9.691582e+000
         vertex 3.407269e+001 0.000000e+000 1.051358e+001
      endloop
   endfacet
   facet normal 6.982664e-001 0.000000e+000 7.158380e-001
      outer loop
         vertex 3.407269e+001 0.000000e+000 1.051358e+001
         vertex 3.495858e+001 1.500000e+001 9.691582e+000
         vertex 3.407269e+001 1.500000e+001 1.051358e+001
      endloop
   endfacet
   facet normal 7.660179e-001 0.000000e+000 6.428193e-001
      outer loop
         vertex 3.407269e+001 0.000000e+000 1.051358e+001
         vertex 3.407269e+001 1.500000e+001 1.051358e+001
         vertex 3.331919e+001 0.000000e+000 1.145842e+001
      endloop
   endfacet
   facet normal 7.971575e-001 0.000000e+000 6.037714e-001
      outer loop
         vertex 3.331919e+001 0.000000e+000 1.145842e+001
         vertex 3.407269e+001 1.500000e+001 1.051358e+001
         vertex 3.331919e+001 1.500000e+001 1.145842e+001
      endloop
   endfacet
   facet normal 8.532693e-001 0.000000e+000 5.214705e-001
      outer loop
         vertex 3.331919e+001 0.000000e+000 1.145842e+001
         vertex 3.331919e+001 1.500000e+001 1.145842e+001
         vertex 3.271494e+001 0.000000e+000 1.250502e+001
      endloop
   endfacet
   facet normal 8.782414e-001 0.000000e+000 4.782176e-001
      outer loop
         vertex 3.271494e+001 0.000000e+000 1.250502e+001
         vertex 3.331919e+001 1.500000e+001 1.145842e+001
         vertex 3.271494e+001 1.500000e+001 1.250502e+001
      endloop
   endfacet
   facet normal 9.214601e-001 0.000000e+000 3.884729e-001
      outer loop
         vertex 3.271494e+001 0.000000e+000 1.250502e+001
         vertex 3.271494e+001 1.500000e+001 1.250502e+001
         vertex 3.227342e+001 0.000000e+000 1.362999e+001
      endloop
   endfacet
   facet normal 9.397067e-001 0.000000e+000 3.419812e-001
      outer loop
         vertex 3.227342e+001 0.000000e+000 1.362999e+001
         vertex 3.271494e+001 1.500000e+001 1.250502e+001
         vertex 3.227342e+001 1.500000e+001 1.362999e+001
      endloop
   endfacet
   facet normal 9.690670e-001 0.000000e+000 2.467975e-001
      outer loop
         vertex 3.227342e+001 0.000000e+000 1.362999e+001
         vertex 3.227342e+001 1.500000e+001 1.362999e+001
         vertex 3.200451e+001 0.000000e+000 1.480819e+001
      endloop
   endfacet
   facet normal 9.801807e-001 0.000000e+000 1.981055e-001
      outer loop
         vertex 3.200451e+001 0.000000e+000 1.480819e+001
         vertex 3.227342e+001 1.500000e+001 1.362999e+001
         vertex 3.200451e+001 1.500000e+001 1.480819e+001
      endloop
   endfacet
   facet normal 9.950266e-001 0.000000e+000 9.960905e-002
      outer loop
         vertex 3.200451e+001 0.000000e+000 1.480819e+001
         vertex 3.200451e+001 1.500000e+001 1.480819e+001
         vertex 3.191419e+001 0.000000e+000 1.601332e+001
      endloop
   endfacet
   facet normal 9.987590e-001 0.000000e+000 4.980453e-002
      outer loop
         vertex 3.191419e+001 0.000000e+000 1.601332e+001
         vertex 3.200451e+001 1.500000e+001 1.480819e+001
         vertex 3.191419e+001 1.500000e+001 1.601332e+001
      endloop
   endfacet
   facet normal -1.000000e+000 0.000000e+000 0.000000e+000
      outer loop
         vertex 4.808580e+001 0.000000e+000 1.601332e+001
         vertex 4.808580e+001 0.000000e+000 4.309748e+001
         vertex 4.808580e+001 1.500000e+001 1.601332e+001
      endloop
   endfacet
   facet normal -1.000000e+000 0.000000e+000 0.000000e+000
      outer loop
         vertex 4.808580e+001 1.500000e+001 1.601332e+001
         vertex 4.808580e+001 0.000000e+000 4.309748e+001
         vertex 4.808580e+001 1.500000e+001 4.309748e+001
      endloop
   endfacet
   facet normal 9.987590e-001 0.000000e+000 -4.980453e-002
      outer loop
         vertex 3.191419e+001 0.000000e+000 4.309748e+001
         vertex 3.191419e+001 1.500000e+001 4.309748e+001
         vertex 3.200451e+001 0.000000e+000 4.430261e+001
      endloop
   endfacet
   facet normal 9.950266e-001 0.000000e+000 -9.960905e-002
      outer loop
         vertex 3.200451e+001 0.000000e+000 4.430261e+001
         vertex 3.191419e+001 1.500000e+001 4.309748e+001
         vertex 3.200451e+001 1.500000e+001 4.430261e+001
      endloop
   endfacet
   facet normal 9.801807e-001 0.000000e+000 -1.981055e-001
      outer loop
         vertex 3.200451e+001 0.000000e+000 4.430261e+001
         vertex 3.200451e+001 1.500000e+001 4.430261e+001
         vertex 3.227342e+001 0.000000e+000 4.548082e+001
      endloop
   endfacet
   facet normal 9.690670e-001 0.000000e+000 -2.467975e-001
      outer loop
         vertex 3.227342e+001 0.000000e+000 4.548082e+001
         vertex 3.200451e+001 1.500000e+001 4.430261e+001
         vertex 3.227342e+001 1.500000e+001 4.548082e+001
      endloop
   endfacet
   facet normal 9.397067e-001 0.000000e+000 -3.419812e-001
      outer loop
         vertex 3.227342e+001 0.000000e+000 4.548082e+001
         vertex 3.227342e+001 1.500000e+001 4.548082e+001
         vertex 3.271494e+001 0.000000e+000 4.660578e+001
      endloop
   endfacet
   facet normal 9.214601e-001 0.000000e+000 -3.884729e-001
      outer loop
         vertex 3.271494e+001 0.000000e+000 4.660578e+001
         vertex 3.227342e+001 1.500000e+001 4.548082e+001
         vertex 3.271494e+001 1.500000e+001 4.660578e+001
      endloop
   endfacet
   facet normal 8.782414e-001 0.000000e+000 -4.782176e-001
      outer loop
         vertex 3.271494e+001 0.000000e+000 4.660578e+001
         vertex 3.271494e+001 1.500000e+001 4.660578e+001
         vertex 3.331919e+001 0.000000e+000 4.765238e+001
      endloop
   endfacet
   facet normal 8.532693e-001 0.000000e+000 -5.214705e-001
      outer loop
         vertex 3.331919e+001 0.000000e+000 4.765238e+001
         vertex 3.271494e+001 1.500000e+001 4.660578e+001
         vertex 3.331919e+001 1.500000e+001 4.765238e+001
      endloop
   endfacet
   facet normal 7.971576e-001 0.000000e+000 -6.037714e-001
      outer loop
         vertex 3.331919e+001 0.000000e+000 4.765238e+001
         vertex 3.331919e+001 1.500000e+001 4.765238e+001
         vertex 3.407269e+001 0.000000e+000 4.859723e+001
      endloop
   endfacet
   facet normal 7.660179e-001 0.000000e+000 -6.428193e-001
      outer loop
         vertex 3.407269e+001 0.000000e+000 4.859723e+001
         vertex 3.331919e+001 1.500000e+001 4.765238e+001
         vertex 3.407269e+001 1.500000e+001 4.859723e+001
      endloop
   endfacet
   facet normal 6.982664e-001 0.000000e+000 -7.158380e-001
      outer loop
         vertex 3.407269e+001 0.000000e+000 4.859723e+001
         vertex 3.407269e+001 1.500000e+001 4.859723e+001
         vertex 3.495858e+001 0.000000e+000 4.941922e+001
      endloop
   endfacet
   facet normal 6.616548e-001 0.000000e+000 -7.498086e-001
      outer loop
         vertex 3.495858e+001 0.000000e+000 4.941922e+001
         vertex 3.407269e+001 1.500000e+001 4.859723e+001
         vertex 3.495858e+001 1.500000e+001 4.941922e+001
      endloop
   endfacet
   facet normal 5.837772e-001 0.000000e+000 -8.119138e-001
      outer loop
         vertex 3.495858e+001 0.000000e+000 4.941922e+001
         vertex 3.495858e+001 1.500000e+001 4.941922e+001
         vertex 3.595710e+001 0.000000e+000 5.009999e+001
      endloop
   endfacet
   facet normal 5.425115e-001 0.000000e+000 -8.400484e-001
      outer loop
         vertex 3.595710e+001 0.000000e+000 5.009999e+001
         vertex 3.495858e+001 1.500000e+001 4.941922e+001
         vertex 3.595710e+001 1.500000e+001 5.009999e+001
      endloop
   endfacet
   facet normal 4.562475e-001 0.000000e+000 -8.898529e-001
      outer loop
         vertex 3.595710e+001 0.000000e+000 5.009999e+001
         vertex 3.595710e+001 1.500000e+001 5.009999e+001
         vertex 3.704592e+001 0.000000e+000 5.062435e+001
      endloop
   endfacet
   facet normal 4.112494e-001 0.000000e+000 -9.115229e-001
      outer loop
         vertex 3.704592e+001 0.000000e+000 5.062435e+001
         vertex 3.595710e+001 1.500000e+001 5.009999e+001
         vertex 3.704592e+001 1.500000e+001 5.062435e+001
      endloop
   endfacet
   facet normal 3.185259e-001 0.000000e+000 -9.479141e-001
      outer loop
         vertex 3.704592e+001 0.000000e+000 5.062435e+001
         vertex 3.704592e+001 1.500000e+001 5.062435e+001
         vertex 3.820074e+001 0.000000e+000 5.098056e+001
      endloop
   endfacet
   facet normal 2.708006e-001 0.000000e+000 -9.626355e-001
      outer loop
         vertex 3.820074e+001 0.000000e+000 5.098056e+001
         vertex 3.704592e+001 1.500000e+001 5.062435e+001
         vertex 3.820074e+001 1.500000e+001 5.098056e+001
      endloop
   endfacet
   facet normal 1.736889e-001 0.000000e+000 -9.848005e-001
      outer loop
         vertex 3.820074e+001 0.000000e+000 5.098056e+001
         vertex 3.820074e+001 1.500000e+001 5.098056e+001
         vertex 3.939574e+001 0.000000e+000 5.116068e+001
      endloop
   endfacet
   facet normal 1.243026e-001 0.000000e+000 -9.922444e-001
      outer loop
         vertex 3.939574e+001 0.000000e+000 5.116068e+001
         vertex 3.820074e+001 1.500000e+001 5.098056e+001
         vertex 3.939574e+001 1.500000e+001 5.116068e+001
      endloop
   endfacet
   facet normal 2.497209e-002 0.000000e+000 -9.996881e-001
      outer loop
         vertex 3.939574e+001 0.000000e+000 5.116068e+001
         vertex 3.939574e+001 1.500000e+001 5.116068e+001
         vertex 4.060425e+001 0.000000e+000 5.116068e+001
      endloop
   endfacet
   facet normal -2.497209e-002 0.000000e+000 -9.996881e-001
      outer loop
         vertex 4.060425e+001 0.000000e+000 5.116068e+001
         vertex 3.939574e+001 1.500000e+001 5.116068e+001
         vertex 4.060425e+001 1.500000e+001 5.116068e+001
      endloop
   endfacet
   facet normal -1.243026e-001 0.000000e+000 -9.922444e-001
      outer loop
         vertex 4.060425e+001 0.000000e+000 5.116068e+001
         vertex 4.060425e+001 1.500000e+001 5.116068e+001
         vertex 4.179926e+001 0.000000e+000 5.098056e+001
      endloop
   endfacet
   facet normal -1.736889e-001 0.000000e+000 -9.848005e-001
      outer loop
         vertex 4.179926e+001 0.000000e+000 5.098056e+001
         vertex 4.060425e+001 1.500000e+001 5.116068e+001
         vertex 4.179926e+001 1.500000e+001 5.098056e+001
      endloop
   endfacet
   facet normal -2.708006e-001 0.000000e+000 -9.626355e-001
      outer loop
         vertex 4.179926e+001 0.000000e+000 5.098056e+001
         vertex 4.179926e+001 1.500000e+001 5.098056e+001
         vertex 4.295407e+001 0.000000e+000 5.062435e+001
      endloop
   endfacet
   facet normal -3.185259e-001 0.000000e+000 -9.479141e-001
      outer loop
         vertex 4.295407e+001 0.000000e+000 5.062435e+001
         vertex 4.179926e+001 1.500000e+001 5.098056e+001
         vertex 4.295407e+001 1.500000e+001 5.062435e+001
      endloop
   endfacet
   facet normal -4.112494e-001 0.000000e+000 -9.115229e-001
      outer loop
         vertex 4.295407e+001 0.000000e+000 5.062435e+001
         vertex 4.295407e+001 1.500000e+001 5.062435e+001
         vertex 4.404290e+001 0.000000e+000 5.009999e+001
      endloop
   endfacet
   facet normal -4.562475e-001 0.000000e+000 -8.898529e-001
      outer loop
         vertex 4.404290e+001 0.000000e+000 5.009999e+001
         vertex 4.295407e+001 1.500000e+001 5.062435e+001
         vertex 4.404290e+001 1.500000e+001 5.009999e+001
      endloop
   endfacet
   facet normal -5.425115e-001 0.000000e+000 -8.400484e-001
      outer loop
         vertex 4.404290e+001 0.000000e+000 5.009999e+001
         vertex 4.404290e+001 1.500000e+001 5.009999e+001
         vertex 4.504142e+001 0.000000e+000 4.941922e+001
      endloop
   endfacet
   facet normal -5.837773e-001 0.000000e+000 -8.119138e-001
      outer loop
         vertex 4.504142e+001 0.000000e+000 4.941922e+001
         vertex 4.404290e+001 1.500000e+001 5.009999e+001
         vertex 4.504142e+001 1.500000e+001 4.941922e+001
      endloop
   endfacet
   facet normal -6.616548e-001 0.000000e+000 -7.498086e-001
      outer loop
         vertex 4.504142e+001 0.000000e+000 4.941922e+001
         vertex 4.504142e+001 1.500000e+001 4.941922e+001
         vertex 4.592731e+001 0.000000e+000 4.859723e+001
      endloop
   endfacet
   facet normal -6.982664e-001 0.000000e+000 -7.158380e-001
      outer loop
         vertex 4.592731e+001 0.000000e+000 4.859723e+001
         vertex 4.504142e+001 1.500000e+001 4.941922e+001
         vertex 4.592731e+001 1.500000e+001 4.859723e+001
      endloop
   endfacet
   facet normal -7.660179e-001 0.000000e+000 -6.428193e-001
      outer loop
         vertex 4.592731e+001 0.000000e+000 4.859723e+001
         vertex 4.592731e+001 1.500000e+001 4.859723e+001
         vertex 4.668081e+001 0.000000e+000 4.765238e+001
      endloop
   endfacet
   facet normal -7.971575e-001 0.000000e+000 -6.037714e-001
      outer loop
         vertex 4.668081e+001 0.000000e+000 4.765238e+001
         vertex 4.592731e+001 1.500000e+001 4.859723e+001
         vertex 4.668081e+001 1.500000e+001 4.765238e+001
      endloop
   endfacet
   facet normal -8.532693e-001 0.000000e+000 -5.214705e-001
      outer loop
         vertex 4.668081e+001 0.000000e+000 4.765238e+001
         vertex 4.668081e+001 1.500000e+001 4.765238e+001
         vertex 4.728506e+001 0.000000e+000 4.660578e+001
      endloop
   endfacet
   facet normal -8.782414e-001 0.000000e+000 -4.782176e-001
      outer loop
         vertex 4.728506e+001 0.000000e+000 4.660578e+001
         vertex 4.668081e+001 1.500000e+001 4.765238e+001
         vertex 4.728506e+001 1.500000e+001 4.660578e+001
      endloop
   endfacet
   facet normal -9.214601e-001 0.000000e+000 -3.884729e-001
      outer loop
         vertex 4.728506e+001 0.000000e+000 4.660578e+001
         vertex 4.728506e+001 1.500000e+001 4.660578e+001
         vertex 4.772657e+001 0.000000e+000 4.548082e+001
      endloop
   endfacet
   facet normal -9.397067e-001 0.000000e+000 -3.419812e-001
      outer loop
         vertex 4.772657e+001 0.000000e+000 4.548082e+001
         vertex 4.728506e+001 1.500000e+001 4.660578e+001
         vertex 4.772657e+001 1.500000e+001 4.548082e+001
      endloop
   endfacet
   facet normal -9.690670e-001 0.000000e+000 -2.467975e-001
      outer loop
         vertex 4.772657e+001 0.000000e+000 4.548082e+001
         vertex 4.772657e+001 1.500000e+001 4.548082e+001
         vertex 4.799549e+001 0.000000e+000 4.430261e+001
      endloop
   endfacet
   facet normal -9.801807e-001 0.000000e+000 -1.981055e-001
      outer loop
         vertex 4.799549e+001 0.000000e+000 4.430261e+001
         vertex 4.772657e+001 1.500000e+001 4.548082e+001
         vertex 4.799549e+001 1.500000e+001 4.430261e+001
      endloop
   endfacet
   facet normal -9.950266e-001 0.000000e+000 -9.960905e-002
      outer loop
         vertex 4.799549e+001 0.000000e+000 4.430261e+001
         vertex 4.799549e+001 1.500000e+001 4.430261e+001
         vertex 4.808580e+001 0.000000e+000 4.309748e+001
      endloop
   endfacet
   facet normal -9.987590e-001 0.000000e+000 -4.980453e-002
      outer loop
         vertex 4.808580e+001 0.000000e+000 4.309748e+001
         vertex 4.799549e+001 1.500000e+001 4.430261e+001
         vertex 4.808580e+001 1.500000e+001 4.309748e+001
      endloop
   endfacet
   facet normal 1.000000e+000 0.000000e+000 0.000000e+000
      outer loop
         vertex 3.191419e+001 0.000000e+000 4.309748e+001
         vertex 3.191419e+001 0.000000e+000 1.601332e+001
         vertex 3.191419e+001 1.500000e+001 4.309748e+001
      endloop
   endfacet
   facet normal 1.000000e+000 0.000000e+000 0.000000e+000
      outer loop
         vertex 3.191419e+001 1.500000e+001 4.309748e+001
         vertex 3.191419e+001 0.000000e+000 1.601332e+001
         vertex 3.191419e+001 1.500000e+001 1.601332e+001
      endloop
   endfacet
   facet normal -5.807913e-002 0.000000e+000 -9.983119e-001
      outer loop
         vertex 1.258715e+001 0.000000e+000 8.951259e+001
         vertex 1.258715e+001 4.000000e+001 8.951259e+001
         vertex 1.345539e+001 0.000000e+000 8.943663e+001
      endloop
   endfacet
   facet normal -1.161583e-001 0.000000e+000 -9.932307e-001
      outer loop
         vertex 1.345539e+001 0.000000e+000 8.943663e+001
         vertex 1.258715e+001 4.000000e+001 8.951259e+001
         vertex 1.345539e+001 4.000000e+001 8.943663e+001
      endloop
   endfacet
   facet normal -2.305519e-001 0.000000e+000 -9.730600e-001
      outer loop
         vertex 1.345539e+001 0.000000e+000 8.943663e+001
         vertex 1.345539e+001 4.000000e+001 8.943663e+001
         vertex 1.429725e+001 0.000000e+000 8.921104e+001
      endloop
   endfacet
   facet normal -2.868663e-001 0.000000e+000 -9.579706e-001
      outer loop
         vertex 1.429725e+001 0.000000e+000 8.921104e+001
         vertex 1.345539e+001 4.000000e+001 8.943663e+001
         vertex 1.429725e+001 4.000000e+001 8.921104e+001
      endloop
   endfacet
   facet normal -3.960194e-001 0.000000e+000 -9.182422e-001
      outer loop
         vertex 1.429725e+001 0.000000e+000 8.921104e+001
         vertex 1.429725e+001 4.000000e+001 8.921104e+001
         vertex 1.508715e+001 0.000000e+000 8.884271e+001
      endloop
   endfacet
   facet normal -4.488580e-001 0.000000e+000 -8.936031e-001
      outer loop
         vertex 1.508715e+001 0.000000e+000 8.884271e+001
         vertex 1.429725e+001 4.000000e+001 8.921104e+001
         vertex 1.508715e+001 4.000000e+001 8.884271e+001
      endloop
   endfacet
   facet normal -5.494540e-001 0.000000e+000 -8.355240e-001
      outer loop
         vertex 1.508715e+001 0.000000e+000 8.884271e+001
         vertex 1.508715e+001 4.000000e+001 8.884271e+001
         vertex 1.580108e+001 0.000000e+000 8.834281e+001
      endloop
   endfacet
   facet normal -5.972114e-001 0.000000e+000 -8.020838e-001
      outer loop
         vertex 1.580108e+001 0.000000e+000 8.834281e+001
         vertex 1.508715e+001 4.000000e+001 8.884271e+001
         vertex 1.580108e+001 4.000000e+001 8.834281e+001
      endloop
   endfacet
   facet normal -6.861938e-001 0.000000e+000 -7.274188e-001
      outer loop
         vertex 1.580108e+001 0.000000e+000 8.834281e+001
         vertex 1.580108e+001 4.000000e+001 8.834281e+001
         vertex 1.641737e+001 0.000000e+000 8.772652e+001
      endloop
   endfacet
   facet normal -7.274188e-001 0.000000e+000 -6.861938e-001
      outer loop
         vertex 1.641737e+001 0.000000e+000 8.772652e+001
         vertex 1.580108e+001 4.000000e+001 8.834281e+001
         vertex 1.641737e+001 4.000000e+001 8.772652e+001
      endloop
   endfacet
   facet normal -8.020838e-001 0.000000e+000 -5.972114e-001
      outer loop
         vertex 1.641737e+001 0.000000e+000 8.772652e+001
         vertex 1.641737e+001 4.000000e+001 8.772652e+001
         vertex 1.691727e+001 0.000000e+000 8.701259e+001
      endloop
   endfacet
   facet normal -8.355240e-001 0.000000e+000 -5.494540e-001
      outer loop
         vertex 1.691727e+001 0.000000e+000 8.701259e+001
         vertex 1.641737e+001 4.000000e+001 8.772652e+001
         vertex 1.691727e+001 4.000000e+001 8.701259e+001
      endloop
   endfacet
   facet normal -8.936031e-001 0.000000e+000 -4.488580e-001
      outer loop
         vertex 1.691727e+001 0.000000e+000 8.701259e+001
         vertex 1.691727e+001 4.000000e+001 8.701259e+001
         vertex 1.728561e+001 0.000000e+000 8.622269e+001
      endloop
   endfacet
   facet normal -9.182422e-001 0.000000e+000 -3.960194e-001
      outer loop
         vertex 1.728561e+001 0.000000e+000 8.622269e+001
         vertex 1.691727e+001 4.000000e+001 8.701259e+001
         vertex 1.728561e+001 4.000000e+001 8.622269e+001
      endloop
   endfacet
   facet normal -9.579706e-001 0.000000e+000 -2.868663e-001
      outer loop
         vertex 1.728561e+001 0.000000e+000 8.622269e+001
         vertex 1.728561e+001 4.000000e+001 8.622269e+001
         vertex 1.751118e+001 0.000000e+000 8.538083e+001
      endloop
   endfacet
   facet normal -9.730600e-001 0.000000e+000 -2.305519e-001
      outer loop
         vertex 1.751118e+001 0.000000e+000 8.538083e+001
         vertex 1.728561e+001 4.000000e+001 8.622269e+001
         vertex 1.751118e+001 4.000000e+001 8.538083e+001
      endloop
   endfacet
   facet normal -9.932307e-001 0.000000e+000 -1.161583e-001
      outer loop
         vertex 1.751118e+001 0.000000e+000 8.538083e+001
         vertex 1.751118e+001 4.000000e+001 8.538083e+001
         vertex 1.758714e+001 0.000000e+000 8.451258e+001
      endloop
   endfacet
   facet normal -9.983119e-001 0.000000e+000 -5.807913e-002
      outer loop
         vertex 1.758714e+001 0.000000e+000 8.451258e+001
         vertex 1.751118e+001 4.000000e+001 8.538083e+001
         vertex 1.758714e+001 4.000000e+001 8.451258e+001
      endloop
   endfacet
   facet normal -9.983119e-001 0.000000e+000 5.807913e-002
      outer loop
         vertex 1.758714e+001 0.000000e+000 8.451258e+001
         vertex 1.758714e+001 4.000000e+001 8.451258e+001
         vertex 1.751118e+001 0.000000e+000 8.364435e+001
      endloop
   endfacet
   facet normal -9.932307e-001 0.000000e+000 1.161583e-001
      outer loop
         vertex 1.751118e+001 0.000000e+000 8.364435e+001
         vertex 1.758714e+001 4.000000e+001 8.451258e+001
         vertex 1.751118e+001 4.000000e+001 8.364435e+001
      endloop
   endfacet
   facet normal -9.730600e-001 0.000000e+000 2.305519e-001
      outer loop
         vertex 1.751118e+001 0.000000e+000 8.364435e+001
         vertex 1.751118e+001 4.000000e+001 8.364435e+001
         vertex 1.728561e+001 0.000000e+000 8.280248e+001
      endloop
   endfacet
   facet normal -9.579706e-001 0.000000e+000 2.868663e-001
      outer loop
         vertex 1.728561e+001 0.000000e+000 8.280248e+001
         vertex 1.751118e+001 4.000000e+001 8.364435e+001
         vertex 1.728561e+001 4.000000e+001 8.280248e+001
      endloop
   endfacet
   facet normal -9.182422e-001 0.000000e+000 3.960194e-001
      outer loop
         vertex 1.728561e+001 0.000000e+000 8.280248e+001
         vertex 1.728561e+001 4.000000e+001 8.280248e+001
         vertex 1.691727e+001 0.000000e+000 8.201259e+001
      endloop
   endfacet
   facet normal -8.936031e-001 0.000000e+000 4.488580e-001
      outer loop
         vertex 1.691727e+001 0.000000e+000 8.201259e+001
         vertex 1.728561e+001 4.000000e+001 8.280248e+001
         vertex 1.691727e+001 4.000000e+001 8.201259e+001
      endloop
   endfacet
   facet normal -8.355240e-001 0.000000e+000 5.494540e-001
      outer loop
         vertex 1.691727e+001 0.000000e+000 8.201259e+001
         vertex 1.691727e+001 4.000000e+001 8.201259e+001
         vertex 1.641737e+001 0.000000e+000 8.129865e+001
      endloop
   endfacet
   facet normal -8.020838e-001 0.000000e+000 5.972114e-001
      outer loop
         vertex 1.641737e+001 0.000000e+000 8.129865e+001
         vertex 1.691727e+001 4.000000e+001 8.201259e+001
         vertex 1.641737e+001 4.000000e+001 8.129865e+001
      endloop
   endfacet
   facet normal -7.274188e-001 0.000000e+000 6.861938e-001
      outer loop
         vertex 1.641737e+001 0.000000e+000 8.129865e+001
         vertex 1.641737e+001 4.000000e+001 8.129865e+001
         vertex 1.580108e+001 0.000000e+000 8.068237e+001
      endloop
   endfacet
   facet normal -6.861938e-001 0.000000e+000 7.274188e-001
      outer loop
         vertex 1.580108e+001 0.000000e+000 8.068237e+001
         vertex 1.641737e+001 4.000000e+001 8.129865e+001
         vertex 1.580108e+001 4.000000e+001 8.068237e+001
      endloop
   endfacet
   facet normal -5.972114e-001 0.000000e+000 8.020838e-001
      outer loop
         vertex 1.580108e+001 0.000000e+000 8.068237e+001
         vertex 1.580108e+001 4.000000e+001 8.068237e+001
         vertex 1.508715e+001 0.000000e+000 8.018246e+001
      endloop
   endfacet
   facet normal -5.494540e-001 0.000000e+000 8.355240e-001
      outer loop
         vertex 1.508715e+001 0.000000e+000 8.018246e+001
         vertex 1.580108e+001 4.000000e+001 8.068237e+001
         vertex 1.508715e+001 4.000000e+001 8.018246e+001
      endloop
   endfacet
   facet normal -4.488580e-001 0.000000e+000 8.936031e-001
      outer loop
         vertex 1.508715e+001 0.000000e+000 8.018246e+001
         vertex 1.508715e+001 4.000000e+001 8.018246e+001
         vertex 1.429725e+001 0.000000e+000 7.981412e+001
      endloop
   endfacet
   facet normal -3.960194e-001 0.000000e+000 9.182422e-001
      outer loop
         vertex 1.429725e+001 0.000000e+000 7.981412e+001
         vertex 1.508715e+001 4.000000e+001 8.018246e+001
         vertex 1.429725e+001 4.000000e+001 7.981412e+001
      endloop
   endfacet
   facet normal -2.868663e-001 0.000000e+000 9.579706e-001
      outer loop
         vertex 1.429725e+001 0.000000e+000 7.981412e+001
         vertex 1.429725e+001 4.000000e+001 7.981412e+001
         vertex 1.345539e+001 0.000000e+000 7.958855e+001
      endloop
   endfacet
   facet normal -2.305519e-001 0.000000e+000 9.730600e-001
      outer loop
         vertex 1.345539e+001 0.000000e+000 7.958855e+001
         vertex 1.429725e+001 4.000000e+001 7.981412e+001
         vertex 1.345539e+001 4.000000e+001 7.958855e+001
      endloop
   endfacet
   facet normal -1.161583e-001 0.000000e+000 9.932307e-001
      outer loop
         vertex 1.345539e+001 0.000000e+000 7.958855e+001
         vertex 1.345539e+001 4.000000e+001 7.958855e+001
         vertex 1.258715e+001 0.000000e+000 7.951259e+001
      endloop
   endfacet
   facet normal -5.807913e-002 0.000000e+000 9.983119e-001
      outer loop
         vertex 1.258715e+001 0.000000e+000 7.951259e+001
         vertex 1.345539e+001 4.000000e+001 7.958855e+001
         vertex 1.258715e+001 4.000000e+001 7.951259e+001
      endloop
   endfacet
   facet normal 5.807913e-002 0.000000e+000 9.983119e-001
      outer loop
         vertex 1.258715e+001 0.000000e+000 7.951259e+001
         vertex 1.258715e+001 4.000000e+001 7.951259e+001
         vertex 1.171891e+001 0.000000e+000 7.958855e+001
      endloop
   endfacet
   facet normal 1.161583e-001 0.000000e+000 9.932307e-001
      outer loop
         vertex 1.171891e+001 0.000000e+000 7.958855e+001
         vertex 1.258715e+001 4.000000e+001 7.951259e+001
         vertex 1.171891e+001 4.000000e+001 7.958855e+001
      endloop
   endfacet
   facet normal 2.305519e-001 0.000000e+000 9.730600e-001
      outer loop
         vertex 1.171891e+001 0.000000e+000 7.958855e+001
         vertex 1.171891e+001 4.000000e+001 7.958855e+001
         vertex 1.087704e+001 0.000000e+000 7.981412e+001
      endloop
   endfacet
   facet normal 2.868663e-001 0.000000e+000 9.579706e-001
      outer loop
         vertex 1.087704e+001 0.000000e+000 7.981412e+001
         vertex 1.171891e+001 4.000000e+001 7.958855e+001
         vertex 1.087704e+001 4.000000e+001 7.981412e+001
      endloop
   endfacet
   facet normal 3.960194e-001 0.000000e+000 9.182422e-001
      outer loop
         vertex 1.087704e+001 0.000000e+000 7.981412e+001
         vertex 1.087704e+001 4.000000e+001 7.981412e+001
         vertex 1.008715e+001 0.000000e+000 8.018246e+001
      endloop
   endfacet
   facet normal 4.488580e-001 0.000000e+000 8.936031e-001
      outer loop
         vertex 1.008715e+001 0.000000e+000 8.018246e+001
         vertex 1.087704e+001 4.000000e+001 7.981412e+001
         vertex 1.008715e+001 4.000000e+001 8.018246e+001
      endloop
   endfacet
   facet normal 5.494540e-001 0.000000e+000 8.355240e-001
      outer loop
         vertex 1.008715e+001 0.000000e+000 8.018246e+001
         vertex 1.008715e+001 4.000000e+001 8.018246e+001
         vertex 9.373208e+000 0.000000e+000 8.068237e+001
      endloop
   endfacet
   facet normal 5.972114e-001 0.000000e+000 8.020838e-001
      outer loop
         vertex 9.373208e+000 0.000000e+000 8.068237e+001
         vertex 1.008715e+001 4.000000e+001 8.018246e+001
         vertex 9.373208e+000 4.000000e+001 8.068237e+001
      endloop
   endfacet
   facet normal 6.861938e-001 0.000000e+000 7.274188e-001
      outer loop
         vertex 9.373208e+000 0.000000e+000 8.068237e+001
         vertex 9.373208e+000 4.000000e+001 8.068237e+001
         vertex 8.756924e+000 0.000000e+000 8.129865e+001
      endloop
   endfacet
   facet normal 7.274188e-001 0.000000e+000 6.861938e-001
      outer loop
         vertex 8.756924e+000 0.000000e+000 8.129865e+001
         vertex 9.373208e+000 4.000000e+001 8.068237e+001
         vertex 8.756924e+000 4.000000e+001 8.129865e+001
      endloop
   endfacet
   facet normal 8.020838e-001 0.000000e+000 5.972114e-001
      outer loop
         vertex 8.756924e+000 0.000000e+000 8.129865e+001
         vertex 8.756924e+000 4.000000e+001 8.129865e+001
         vertex 8.257019e+000 0.000000e+000 8.201259e+001
      endloop
   endfacet
   facet normal 8.355240e-001 0.000000e+000 5.494540e-001
      outer loop
         vertex 8.257019e+000 0.000000e+000 8.201259e+001
         vertex 8.756924e+000 4.000000e+001 8.129865e+001
         vertex 8.257019e+000 4.000000e+001 8.201259e+001
      endloop
   endfacet
   facet normal 8.936031e-001 0.000000e+000 4.488580e-001
      outer loop
         vertex 8.257019e+000 0.000000e+000 8.201259e+001
         vertex 8.257019e+000 4.000000e+001 8.201259e+001
         vertex 7.888683e+000 0.000000e+000 8.280248e+001
      endloop
   endfacet
   facet normal 9.182422e-001 0.000000e+000 3.960194e-001
      outer loop
         vertex 7.888683e+000 0.000000e+000 8.280248e+001
         vertex 8.257019e+000 4.000000e+001 8.201259e+001
         vertex 7.888683e+000 4.000000e+001 8.280248e+001
      endloop
   endfacet
   facet normal 9.579706e-001 0.000000e+000 2.868663e-001
      outer loop
         vertex 7.888683e+000 0.000000e+000 8.280248e+001
         vertex 7.888683e+000 4.000000e+001 8.280248e+001
         vertex 7.663107e+000 0.000000e+000 8.364435e+001
      endloop
   endfacet
   facet normal 9.730600e-001 0.000000e+000 2.305519e-001
      outer loop
         vertex 7.663107e+000 0.000000e+000 8.364435e+001
         vertex 7.888683e+000 4.000000e+001 8.280248e+001
         vertex 7.663107e+000 4.000000e+001 8.364435e+001
      endloop
   endfacet
   facet normal 9.932307e-001 0.000000e+000 1.161583e-001
      outer loop
         vertex 7.663107e+000 0.000000e+000 8.364435e+001
         vertex 7.663107e+000 4.000000e+001 8.364435e+001
         vertex 7.587146e+000 0.000000e+000 8.451258e+001
      endloop
   endfacet
   facet normal 9.983119e-001 0.000000e+000 5.807913e-002
      outer loop
         vertex 7.587146e+000 0.000000e+000 8.451258e+001
         vertex 7.663107e+000 4.000000e+001 8.364435e+001
         vertex 7.587146e+000 4.000000e+001 8.451258e+001
      endloop
   endfacet
   facet normal 9.983119e-001 0.000000e+000 -5.807913e-002
      outer loop
         vertex 7.587146e+000 0.000000e+000 8.451258e+001
         vertex 7.587146e+000 4.000000e+001 8.451258e+001
         vertex 7.663107e+000 0.000000e+000 8.538083e+001
      endloop
   endfacet
   facet normal 9.932307e-001 0.000000e+000 -1.161583e-001
      outer loop
         vertex 7.663107e+000 0.000000e+000 8.538083e+001
         vertex 7.587146e+000 4.000000e+001 8.451258e+001
         vertex 7.663107e+000 4.000000e+001 8.538083e+001
      endloop
   endfacet
   facet normal 9.730600e-001 0.000000e+000 -2.305519e-001
      outer loop
         vertex 7.663107e+000 0.000000e+000 8.538083e+001
         vertex 7.663107e+000 4.000000e+001 8.538083e+001
         vertex 7.888683e+000 0.000000e+000 8.622269e+001
      endloop
   endfacet
   facet normal 9.579706e-001 0.000000e+000 -2.868663e-001
      outer loop
         vertex 7.888683e+000 0.000000e+000 8.622269e+001
         vertex 7.663107e+000 4.000000e+001 8.538083e+001
         vertex 7.888683e+000 4.000000e+001 8.622269e+001
      endloop
   endfacet
   facet normal 9.182422e-001 0.000000e+000 -3.960194e-001
      outer loop
         vertex 7.888683e+000 0.000000e+000 8.622269e+001
         vertex 7.888683e+000 4.000000e+001 8.622269e+001
         vertex 8.257019e+000 0.000000e+000 8.701259e+001
      endloop
   endfacet
   facet normal 8.936031e-001 0.000000e+000 -4.488580e-001
      outer loop
         vertex 8.257019e+000 0.000000e+000 8.701259e+001
         vertex 7.888683e+000 4.000000e+001 8.622269e+001
         vertex 8.257019e+000 4.000000e+001 8.701259e+001
      endloop
   endfacet
   facet normal 8.355240e-001 0.000000e+000 -5.494540e-001
      outer loop
         vertex 8.257019e+000 0.000000e+000 8.701259e+001
         vertex 8.257019e+000 4.000000e+001 8.701259e+001
         vertex 8.756924e+000 0.000000e+000 8.772652e+001
      endloop
   endfacet
   facet normal 8.020838e-001 0.000000e+000 -5.972114e-001
      outer loop
         vertex 8.756924e+000 0.000000e+000 8.772652e+001
         vertex 8.257019e+000 4.000000e+001 8.701259e+001
         vertex 8.756924e+000 4.000000e+001 8.772652e+001
      endloop
   endfacet
   facet normal 7.274188e-001 0.000000e+000 -6.861938e-001
      outer loop
         vertex 8.756924e+000 0.000000e+000 8.772652e+001
         vertex 8.756924e+000 4.000000e+001 8.772652e+001
         vertex 9.373208e+000 0.000000e+000 8.834281e+001
      endloop
   endfacet
   facet normal 6.861938e-001 0.000000e+000 -7.274188e-001
      outer loop
         vertex 9.373208e+000 0.000000e+000 8.834281e+001
         vertex 8.756924e+000 4.000000e+001 8.772652e+001
         vertex 9.373208e+000 4.000000e+001 8.834281e+001
      endloop
   endfacet
   facet normal 5.972114e-001 0.000000e+000 -8.020838e-001
      outer loop
         vertex 9.373208e+000 0.000000e+000 8.834281e+001
         vertex 9.373208e+000 4.000000e+001 8.834281e+001
         vertex 1.008715e+001 0.000000e+000 8.884271e+001
      endloop
   endfacet
   facet normal 5.494540e-001 0.000000e+000 -8.355240e-001
      outer loop
         vertex 1.008715e+001 0.000000e+000 8.884271e+001
         vertex 9.373208e+000 4.000000e+001 8.834281e+001
         vertex 1.008715e+001 4.000000e+001 8.884271e+001
      endloop
   endfacet
   facet normal 4.488580e-001 0.000000e+000 -8.936031e-001
      outer loop
         vertex 1.008715e+001 0.000000e+000 8.884271e+001
         vertex 1.008715e+001 4.000000e+001 8.884271e+001
         vertex 1.087704e+001 0.000000e+000 8.921104e+001
      endloop
   endfacet
   facet normal 3.960194e-001 0.000000e+000 -9.182422e-001
      outer loop
         vertex 1.087704e+001 0.000000e+000 8.921104e+001
         vertex 1.008715e+001 4.000000e+001 8.884271e+001
         vertex 1.087704e+001 4.000000e+001 8.921104e+001
      endloop
   endfacet
   facet normal 2.868663e-001 0.000000e+000 -9.579706e-001
      outer loop
         vertex 1.087704e+001 0.000000e+000 8.921104e+001
         vertex 1.087704e+001 4.000000e+001 8.921104e+001
         vertex 1.171891e+001 0.000000e+000 8.943663e+001
      endloop
   endfacet
   facet normal 2.305519e-001 0.000000e+000 -9.730600e-001
      outer loop
         vertex 1.171891e+001 0.000000e+000 8.943663e+001
         vertex 1.087704e+001 4.000000e+001 8.921104e+001
         vertex 1.171891e+001 4.000000e+001 8.943663e+001
      endloop
   endfacet
   facet normal 1.161583e-001 0.000000e+000 -9.932307e-001
      outer loop
         vertex 1.171891e+001 0.000000e+000 8.943663e+001
         vertex 1.171891e+001 4.000000e+001 8.943663e+001
         vertex 1.258715e+001 0.000000e+000 8.951259e+001
      endloop
   endfacet
   facet normal 5.807913e-002 0.000000e+000 -9.983119e-001
      outer loop
         vertex 1.258715e+001 0.000000e+000 8.951259e+001
         vertex 1.171891e+001 4.000000e+001 8.943663e+001
         vertex 1.258715e+001 4.000000e+001 8.951259e+001
      endloop
   endfacet
   facet normal -5.807913e-002 0.000000e+000 -9.983119e-001
      outer loop
         vertex 6.741286e+001 0.000000e+000 8.951259e+001
         vertex 6.741286e+001 4.000000e+001 8.951259e+001
         vertex 6.828109e+001 0.000000e+000 8.943663e+001
      endloop
   endfacet
   facet normal -1.161583e-001 0.000000e+000 -9.932307e-001
      outer loop
         vertex 6.828109e+001 0.000000e+000 8.943663e+001
         vertex 6.741286e+001 4.000000e+001 8.951259e+001
         vertex 6.828109e+001 4.000000e+001 8.943663e+001
      endloop
   endfacet
   facet normal -2.305519e-001 0.000000e+000 -9.730600e-001
      outer loop
         vertex 6.828109e+001 0.000000e+000 8.943663e+001
         vertex 6.828109e+001 4.000000e+001 8.943663e+001
         vertex 6.912296e+001 0.000000e+000 8.921104e+001
      endloop
   endfacet
   facet normal -2.868663e-001 0.000000e+000 -9.579706e-001
      outer loop
         vertex 6.912296e+001 0.000000e+000 8.921104e+001
         vertex 6.828109e+001 4.000000e+001 8.943663e+001
         vertex 6.912296e+001 4.000000e+001 8.921104e+001
      endloop
   endfacet
   facet normal -3.960194e-001 0.000000e+000 -9.182422e-001
      outer loop
         vertex 6.912296e+001 0.000000e+000 8.921104e+001
         vertex 6.912296e+001 4.000000e+001 8.921104e+001
         vertex 6.991285e+001 0.000000e+000 8.884271e+001
      endloop
   endfacet
   facet normal -4.488580e-001 0.000000e+000 -8.936031e-001
      outer loop
         vertex 6.991285e+001 0.000000e+000 8.884271e+001
         vertex 6.912296e+001 4.000000e+001 8.921104e+001
         vertex 6.991285e+001 4.000000e+001 8.884271e+001
      endloop
   endfacet
   facet normal -5.494540e-001 0.000000e+000 -8.355240e-001
      outer loop
         vertex 6.991285e+001 0.000000e+000 8.884271e+001
         vertex 6.991285e+001 4.000000e+001 8.884271e+001
         vertex 7.062679e+001 0.000000e+000 8.834281e+001
      endloop
   endfacet
   facet normal -5.972114e-001 0.000000e+000 -8.020838e-001
      outer loop
         vertex 7.062679e+001 0.000000e+000 8.834281e+001
         vertex 6.991285e+001 4.000000e+001 8.884271e+001
         vertex 7.062679e+001 4.000000e+001 8.834281e+001
      endloop
   endfacet
   facet normal -6.861938e-001 0.000000e+000 -7.274188e-001
      outer loop
         vertex 7.062679e+001 0.000000e+000 8.834281e+001
         vertex 7.062679e+001 4.000000e+001 8.834281e+001
         vertex 7.124308e+001 0.000000e+000 8.772652e+001
      endloop
   endfacet
   facet normal -7.274188e-001 0.000000e+000 -6.861938e-001
      outer loop
         vertex 7.124308e+001 0.000000e+000 8.772652e+001
         vertex 7.062679e+001 4.000000e+001 8.834281e+001
         vertex 7.124308e+001 4.000000e+001 8.772652e+001
      endloop
   endfacet
   facet normal -8.020838e-001 0.000000e+000 -5.972114e-001
      outer loop
         vertex 7.124308e+001 0.000000e+000 8.772652e+001
         vertex 7.124308e+001 4.000000e+001 8.772652e+001
         vertex 7.174298e+001 0.000000e+000 8.701259e+001
      endloop
   endfacet
   facet normal -8.355240e-001 0.000000e+000 -5.494540e-001
      outer loop
         vertex 7.174298e+001 0.000000e+000 8.701259e+001
         vertex 7.124308e+001 4.000000e+001 8.772652e+001
         vertex 7.174298e+001 4.000000e+001 8.701259e+001
      endloop
   endfacet
   facet normal -8.936031e-001 0.000000e+000 -4.488580e-001
      outer loop
         vertex 7.174298e+001 0.000000e+000 8.701259e+001
         vertex 7.174298e+001 4.000000e+001 8.701259e+001
         vertex 7.211131e+001 0.000000e+000 8.622269e+001
      endloop
   endfacet
   facet normal -9.182422e-001 0.000000e+000 -3.960194e-001
      outer loop
         vertex 7.211131e+001 0.000000e+000 8.622269e+001
         vertex 7.174298e+001 4.000000e+001 8.701259e+001
         vertex 7.211131e+001 4.000000e+001 8.622269e+001
      endloop
   endfacet
   facet normal -9.579706e-001 0.000000e+000 -2.868663e-001
      outer loop
         vertex 7.211131e+001 0.000000e+000 8.622269e+001
         vertex 7.211131e+001 4.000000e+001 8.622269e+001
         vertex 7.233689e+001 0.000000e+000 8.538083e+001
      endloop
   endfacet
   facet normal -9.730600e-001 0.000000e+000 -2.305519e-001
      outer loop
         vertex 7.233689e+001 0.000000e+000 8.538083e+001
         vertex 7.211131e+001 4.000000e+001 8.622269e+001
         vertex 7.233689e+001 4.000000e+001 8.538083e+001
      endloop
   endfacet
   facet normal -9.932307e-001 0.000000e+000 -1.161583e-001
      outer loop
         vertex 7.233689e+001 0.000000e+000 8.538083e+001
         vertex 7.233689e+001 4.000000e+001 8.538083e+001
         vertex 7.241286e+001 0.000000e+000 8.451258e+001
      endloop
   endfacet
   facet normal -9.983119e-001 0.000000e+000 -5.807913e-002
      outer loop
         vertex 7.241286e+001 0.000000e+000 8.451258e+001
         vertex 7.233689e+001 4.000000e+001 8.538083e+001
         vertex 7.241286e+001 4.000000e+001 8.451258e+001
      endloop
   endfacet
   facet normal -9.983119e-001 0.000000e+000 5.807913e-002
      outer loop
         vertex 7.241286e+001 0.000000e+000 8.451258e+001
         vertex 7.241286e+001 4.000000e+001 8.451258e+001
         vertex 7.233689e+001 0.000000e+000 8.364435e+001
      endloop
   endfacet
   facet normal -9.932307e-001 0.000000e+000 1.161583e-001
      outer loop
         vertex 7.233689e+001 0.000000e+000 8.364435e+001
         vertex 7.241286e+001 4.000000e+001 8.451258e+001
         vertex 7.233689e+001 4.000000e+001 8.364435e+001
      endloop
   endfacet
   facet normal -9.730600e-001 0.000000e+000 2.305519e-001
      outer loop
         vertex 7.233689e+001 0.000000e+000 8.364435e+001
         vertex 7.233689e+001 4.000000e+001 8.364435e+001
         vertex 7.211131e+001 0.000000e+000 8.280248e+001
      endloop
   endfacet
   facet normal -9.579706e-001 0.000000e+000 2.868663e-001
      outer loop
         vertex 7.211131e+001 0.000000e+000 8.280248e+001
         vertex 7.233689e+001 4.000000e+001 8.364435e+001
         vertex 7.211131e+001 4.000000e+001 8.280248e+001
      endloop
   endfacet
   facet normal -9.182422e-001 0.000000e+000 3.960194e-001
      outer loop
         vertex 7.211131e+001 0.000000e+000 8.280248e+001
         vertex 7.211131e+001 4.000000e+001 8.280248e+001
         vertex 7.174298e+001 0.000000e+000 8.201259e+001
      endloop
   endfacet
   facet normal -8.936031e-001 0.000000e+000 4.488580e-001
      outer loop
         vertex 7.174298e+001 0.000000e+000 8.201259e+001
         vertex 7.211131e+001 4.000000e+001 8.280248e+001
         vertex 7.174298e+001 4.000000e+001 8.201259e+001
      endloop
   endfacet
   facet normal -8.355240e-001 0.000000e+000 5.494540e-001
      outer loop
         vertex 7.174298e+001 0.000000e+000 8.201259e+001
         vertex 7.174298e+001 4.000000e+001 8.201259e+001
         vertex 7.124308e+001 0.000000e+000 8.129865e+001
      endloop
   endfacet
   facet normal -8.020838e-001 0.000000e+000 5.972114e-001
      outer loop
         vertex 7.124308e+001 0.000000e+000 8.129865e+001
         vertex 7.174298e+001 4.000000e+001 8.201259e+001
         vertex 7.124308e+001 4.000000e+001 8.129865e+001
      endloop
   endfacet
   facet normal -7.274188e-001 0.000000e+000 6.861938e-001
      outer loop
         vertex 7.124308e+001 0.000000e+000 8.129865e+001
         vertex 7.124308e+001 4.000000e+001 8.129865e+001
         vertex 7.062679e+001 0.000000e+000 8.068237e+001
      endloop
   endfacet
   facet normal -6.861938e-001 0.000000e+000 7.274188e-001
      outer loop
         vertex 7.062679e+001 0.000000e+000 8.068237e+001
         vertex 7.124308e+001 4.000000e+001 8.129865e+001
         vertex 7.062679e+001 4.000000e+001 8.068237e+001
      endloop
   endfacet
   facet normal -5.972114e-001 0.000000e+000 8.020838e-001
      outer loop
         vertex 7.062679e+001 0.000000e+000 8.068237e+001
         vertex 7.062679e+001 4.000000e+001 8.068237e+001
         vertex 6.991285e+001 0.000000e+000 8.018246e+001
      endloop
   endfacet
   facet normal -5.494540e-001 0.000000e+000 8.355240e-001
      outer loop
         vertex 6.991285e+001 0.000000e+000 8.018246e+001
         vertex 7.062679e+001 4.000000e+001 8.068237e+001
         vertex 6.991285e+001 4.000000e+001 8.018246e+001
      endloop
   endfacet
   facet normal -4.488580e-001 0.000000e+000 8.936031e-001
      outer loop
         vertex 6.991285e+001 0.000000e+000 8.018246e+001
         vertex 6.991285e+001 4.000000e+001 8.018246e+001
         vertex 6.912296e+001 0.000000e+000 7.981412e+001
      endloop
   endfacet
   facet normal -3.960194e-001 0.000000e+000 9.182422e-001
      outer loop
         vertex 6.912296e+001 0.000000e+000 7.981412e+001
         vertex 6.991285e+001 4.000000e+001 8.018246e+001
         vertex 6.912296e+001 4.000000e+001 7.981412e+001
      endloop
   endfacet
   facet normal -2.868663e-001 0.000000e+000 9.579706e-001
      outer loop
         vertex 6.912296e+001 0.000000e+000 7.981412e+001
         vertex 6.912296e+001 4.000000e+001 7.981412e+001
         vertex 6.828109e+001 0.000000e+000 7.958855e+001
      endloop
   endfacet
   facet normal -2.305519e-001 0.000000e+000 9.730600e-001
      outer loop
         vertex 6.828109e+001 0.000000e+000 7.958855e+001
         vertex 6.912296e+001 4.000000e+001 7.981412e+001
         vertex 6.828109e+001 4.000000e+001 7.958855e+001
      endloop
   endfacet
   facet normal -1.161583e-001 0.000000e+000 9.932307e-001
      outer loop
         vertex 6.828109e+001 0.000000e+000 7.958855e+001
         vertex 6.828109e+001 4.000000e+001 7.958855e+001
         vertex 6.741286e+001 0.000000e+000 7.951259e+001
      endloop
   endfacet
   facet normal -5.807913e-002 0.000000e+000 9.983119e-001
      outer loop
         vertex 6.741286e+001 0.000000e+000 7.951259e+001
         vertex 6.828109e+001 4.000000e+001 7.958855e+001
         vertex 6.741286e+001 4.000000e+001 7.951259e+001
      endloop
   endfacet
   facet normal 5.807913e-002 0.000000e+000 9.983119e-001
      outer loop
         vertex 6.741286e+001 0.000000e+000 7.951259e+001
         vertex 6.741286e+001 4.000000e+001 7.951259e+001
         vertex 6.654462e+001 0.000000e+000 7.958855e+001
      endloop
   endfacet
   facet normal 1.161583e-001 0.000000e+000 9.932307e-001
      outer loop
         vertex 6.654462e+001 0.000000e+000 7.958855e+001
         vertex 6.741286e+001 4.000000e+001 7.951259e+001
         vertex 6.654462e+001 4.000000e+001 7.958855e+001
      endloop
   endfacet
   facet normal 2.305519e-001 0.000000e+000 9.730600e-001
      outer loop
         vertex 6.654462e+001 0.000000e+000 7.958855e+001
         vertex 6.654462e+001 4.000000e+001 7.958855e+001
         vertex 6.570275e+001 0.000000e+000 7.981412e+001
      endloop
   endfacet
   facet normal 2.868663e-001 0.000000e+000 9.579706e-001
      outer loop
         vertex 6.570275e+001 0.000000e+000 7.981412e+001
         vertex 6.654462e+001 4.000000e+001 7.958855e+001
         vertex 6.570275e+001 4.000000e+001 7.981412e+001
      endloop
   endfacet
   facet normal 3.960194e-001 0.000000e+000 9.182422e-001
      outer loop
         vertex 6.570275e+001 0.000000e+000 7.981412e+001
         vertex 6.570275e+001 4.000000e+001 7.981412e+001
         vertex 6.491286e+001 0.000000e+000 8.018246e+001
      endloop
   endfacet
   facet normal 4.488580e-001 0.000000e+000 8.936031e-001
      outer loop
         vertex 6.491286e+001 0.000000e+000 8.018246e+001
         vertex 6.570275e+001 4.000000e+001 7.981412e+001
         vertex 6.491286e+001 4.000000e+001 8.018246e+001
      endloop
   endfacet
   facet normal 5.494540e-001 0.000000e+000 8.355240e-001
      outer loop
         vertex 6.491286e+001 0.000000e+000 8.018246e+001
         vertex 6.491286e+001 4.000000e+001 8.018246e+001
         vertex 6.419892e+001 0.000000e+000 8.068237e+001
      endloop
   endfacet
   facet normal 5.972114e-001 0.000000e+000 8.020838e-001
      outer loop
         vertex 6.419892e+001 0.000000e+000 8.068237e+001
         vertex 6.491286e+001 4.000000e+001 8.018246e+001
         vertex 6.419892e+001 4.000000e+001 8.068237e+001
      endloop
   endfacet
   facet normal 6.861938e-001 0.000000e+000 7.274188e-001
      outer loop
         vertex 6.419892e+001 0.000000e+000 8.068237e+001
         vertex 6.419892e+001 4.000000e+001 8.068237e+001
         vertex 6.358263e+001 0.000000e+000 8.129865e+001
      endloop
   endfacet
   facet normal 7.274188e-001 0.000000e+000 6.861938e-001
      outer loop
         vertex 6.358263e+001 0.000000e+000 8.129865e+001
         vertex 6.419892e+001 4.000000e+001 8.068237e+001
         vertex 6.358263e+001 4.000000e+001 8.129865e+001
      endloop
   endfacet
   facet normal 8.020838e-001 0.000000e+000 5.972114e-001
      outer loop
         vertex 6.358263e+001 0.000000e+000 8.129865e+001
         vertex 6.358263e+001 4.000000e+001 8.129865e+001
         vertex 6.308273e+001 0.000000e+000 8.201259e+001
      endloop
   endfacet
   facet normal 8.355240e-001 0.000000e+000 5.494540e-001
      outer loop
         vertex 6.308273e+001 0.000000e+000 8.201259e+001
         vertex 6.358263e+001 4.000000e+001 8.129865e+001
         vertex 6.308273e+001 4.000000e+001 8.201259e+001
      endloop
   endfacet
   facet normal 8.936031e-001 0.000000e+000 4.488580e-001
      outer loop
         vertex 6.308273e+001 0.000000e+000 8.201259e+001
         vertex 6.308273e+001 4.000000e+001 8.201259e+001
         vertex 6.271439e+001 0.000000e+000 8.280248e+001
      endloop
   endfacet
   facet normal 9.182422e-001 0.000000e+000 3.960194e-001
      outer loop
         vertex 6.271439e+001 0.000000e+000 8.280248e+001
         vertex 6.308273e+001 4.000000e+001 8.201259e+001
         vertex 6.271439e+001 4.000000e+001 8.280248e+001
      endloop
   endfacet
   facet normal 9.579706e-001 0.000000e+000 2.868663e-001
      outer loop
         vertex 6.271439e+001 0.000000e+000 8.280248e+001
         vertex 6.271439e+001 4.000000e+001 8.280248e+001
         vertex 6.248882e+001 0.000000e+000 8.364435e+001
      endloop
   endfacet
   facet normal 9.730600e-001 0.000000e+000 2.305519e-001
      outer loop
         vertex 6.248882e+001 0.000000e+000 8.364435e+001
         vertex 6.271439e+001 4.000000e+001 8.280248e+001
         vertex 6.248882e+001 4.000000e+001 8.364435e+001
      endloop
   endfacet
   facet normal 9.932307e-001 0.000000e+000 1.161583e-001
      outer loop
         vertex 6.248882e+001 0.000000e+000 8.364435e+001
         vertex 6.248882e+001 4.000000e+001 8.364435e+001
         vertex 6.241285e+001 0.000000e+000 8.451258e+001
      endloop
   endfacet
   facet normal 9.983119e-001 0.000000e+000 5.807913e-002
      outer loop
         vertex 6.241285e+001 0.000000e+000 8.451258e+001
         vertex 6.248882e+001 4.000000e+001 8.364435e+001
         vertex 6.241285e+001 4.000000e+001 8.451258e+001
      endloop
   endfacet
   facet normal 9.983119e-001 0.000000e+000 -5.807913e-002
      outer loop
         vertex 6.241285e+001 0.000000e+000 8.451258e+001
         vertex 6.241285e+001 4.000000e+001 8.451258e+001
         vertex 6.248882e+001 0.000000e+000 8.538083e+001
      endloop
   endfacet
   facet normal 9.932307e-001 0.000000e+000 -1.161583e-001
      outer loop
         vertex 6.248882e+001 0.000000e+000 8.538083e+001
         vertex 6.241285e+001 4.000000e+001 8.451258e+001
         vertex 6.248882e+001 4.000000e+001 8.538083e+001
      endloop
   endfacet
   facet normal 9.730600e-001 0.000000e+000 -2.305519e-001
      outer loop
         vertex 6.248882e+001 0.000000e+000 8.538083e+001
         vertex 6.248882e+001 4.000000e+001 8.538083e+001
         vertex 6.271439e+001 0.000000e+000 8.622269e+001
      endloop
   endfacet
   facet normal 9.579706e-001 0.000000e+000 -2.868663e-001
      outer loop
         vertex 6.271439e+001 0.000000e+000 8.622269e+001
         vertex 6.248882e+001 4.000000e+001 8.538083e+001
         vertex 6.271439e+001 4.000000e+001 8.622269e+001
      endloop
   endfacet
   facet normal 9.182422e-001 0.000000e+000 -3.960194e-001
      outer loop
         vertex 6.271439e+001 0.000000e+000 8.622269e+001
         vertex 6.271439e+001 4.000000e+001 8.622269e+001
         vertex 6.308273e+001 0.000000e+000 8.701259e+001
      endloop
   endfacet
   facet normal 8.936031e-001 0.000000e+000 -4.488580e-001
      outer loop
         vertex 6.308273e+001 0.000000e+000 8.701259e+001
         vertex 6.271439e+001 4.000000e+001 8.622269e+001
         vertex 6.308273e+001 4.000000e+001 8.701259e+001
      endloop
   endfacet
   facet normal 8.355240e-001 0.000000e+000 -5.494540e-001
      outer loop
         vertex 6.308273e+001 0.000000e+000 8.701259e+001
         vertex 6.308273e+001 4.000000e+001 8.701259e+001
         vertex 6.358263e+001 0.000000e+000 8.772652e+001
      endloop
   endfacet
   facet normal 8.020838e-001 0.000000e+000 -5.972114e-001
      outer loop
         vertex 6.358263e+001 0.000000e+000 8.772652e+001
         vertex 6.308273e+001 4.000000e+001 8.701259e+001
         vertex 6.358263e+001 4.000000e+001 8.772652e+001
      endloop
   endfacet
   facet normal 7.274188e-001 0.000000e+000 -6.861938e-001
      outer loop
         vertex 6.358263e+001 0.000000e+000 8.772652e+001
         vertex 6.358263e+001 4.000000e+001 8.772652e+001
         vertex 6.419892e+001 0.000000e+000 8.834281e+001
      endloop
   endfacet
   facet normal 6.861938e-001 0.000000e+000 -7.274188e-001
      outer loop
         vertex 6.419892e+001 0.000000e+000 8.834281e+001
         vertex 6.358263e+001 4.000000e+001 8.772652e+001
         vertex 6.419892e+001 4.000000e+001 8.834281e+001
      endloop
   endfacet
   facet normal 5.972114e-001 0.000000e+000 -8.020838e-001
      outer loop
         vertex 6.419892e+001 0.000000e+000 8.834281e+001
         vertex 6.419892e+001 4.000000e+001 8.834281e+001
         vertex 6.491286e+001 0.000000e+000 8.884271e+001
      endloop
   endfacet
   facet normal 5.494540e-001 0.000000e+000 -8.355240e-001
      outer loop
         vertex 6.491286e+001 0.000000e+000 8.884271e+001
         vertex 6.419892e+001 4.000000e+001 8.834281e+001
         vertex 6.491286e+001 4.000000e+001 8.884271e+001
      endloop
   endfacet
   facet normal 4.488580e-001 0.000000e+000 -8.936031e-001
      outer loop
         vertex 6.491286e+001 0.000000e+000 8.884271e+001
         vertex 6.491286e+001 4.000000e+001 8.884271e+001
         vertex 6.570275e+001 0.000000e+000 8.921104e+001
      endloop
   endfacet
   facet normal 3.960194e-001 0.000000e+000 -9.182422e-001
      outer loop
         vertex 6.570275e+001 0.000000e+000 8.921104e+001
         vertex 6.491286e+001 4.000000e+001 8.884271e+001
         vertex 6.570275e+001 4.000000e+001 8.921104e+001
      endloop
   endfacet
   facet normal 2.868663e-001 0.000000e+000 -9.579706e-001
      outer loop
         vertex 6.570275e+001 0.000000e+000 8.921104e+001
         vertex 6.570275e+001 4.000000e+001 8.921104e+001
         vertex 6.654462e+001 0.000000e+000 8.943663e+001
      endloop
   endfacet
   facet normal 2.305519e-001 0.000000e+000 -9.730600e-001
      outer loop
         vertex 6.654462e+001 0.000000e+000 8.943663e+001
         vertex 6.570275e+001 4.000000e+001 8.921104e+001
         vertex 6.654462e+001 4.000000e+001 8.943663e+001
      endloop
   endfacet
   facet normal 1.161583e-001 0.000000e+000 -9.932307e-001
      outer loop
         vertex 6.654462e+001 0.000000e+000 8.943663e+001
         vertex 6.654462e+001 4.000000e+001 8.943663e+001
         vertex 6.741286e+001 0.000000e+000 8.951259e+001
      endloop
   endfacet
   facet normal 5.807913e-002 0.000000e+000 -9.983119e-001
      outer loop
         vertex 6.741286e+001 0.000000e+000 8.951259e+001
         vertex 6.654462e+001 4.000000e+001 8.943663e+001
         vertex 6.741286e+001 4.000000e+001 8.951259e+001
      endloop
   endfacet
endsolid